# Blender 4.4.1
# www.blender.org
mtllib VigorCuts.mtl
o Cut_Vigor3
v 0.423897 2.680006 0.085615
v 0.423994 2.683629 0.087307
v 0.426953 2.722242 -0.004976
v 0.427050 2.725865 -0.003284
v 0.523821 2.676516 0.087359
v 0.523918 2.680139 0.089052
v 0.526877 2.718752 -0.003232
v 0.526974 2.722375 -0.001540
v 0.114839 2.212619 0.070498
v 0.111874 2.212898 0.073168
v 0.047926 2.212619 -0.003817
v 0.044960 2.212898 -0.001147
v 0.120023 2.312376 0.065830
v 0.117057 2.312655 0.068500
v 0.053110 2.312376 -0.008484
v 0.050144 2.312655 -0.005814
v 0.695848 2.071844 0.082638
v 0.695848 2.075844 0.082638
v 0.695848 2.071844 -0.017362
v 0.695848 2.075844 -0.017362
v 0.795848 2.071844 0.082638
v 0.795848 2.075844 0.082638
v 0.795848 2.071844 -0.017362
v 0.795848 2.075844 -0.017362
vn -0.9992 0.0349 -0.0174
vn 0.0306 0.4224 -0.9059
vn 0.9992 -0.0349 0.0174
vn -0.0306 -0.4224 0.9059
vn -0.0242 -0.9058 -0.4231
vn 0.0242 0.9058 0.4231
vn -0.0518 -0.9976 0.0467
vn -0.6691 -0.0000 -0.7431
vn 0.0518 0.9976 -0.0467
vn 0.6691 -0.0000 0.7431
vn 0.7413 -0.0698 -0.6675
vn -0.7413 0.0698 0.6675
vn -1.0000 -0.0000 -0.0000
vn -0.0000 -0.0000 -1.0000
vn 1.0000 -0.0000 -0.0000
vn -0.0000 -0.0000 1.0000
vn -0.0000 -1.0000 -0.0000
vn -0.0000 1.0000 -0.0000
vt 0.375000 0.000000
vt 0.625000 0.000000
vt 0.625000 0.250000
vt 0.375000 0.250000
vt 0.625000 0.500000
vt 0.375000 0.500000
vt 0.625000 0.750000
vt 0.375000 0.750000
vt 0.625000 1.000000
vt 0.375000 1.000000
vt 0.125000 0.500000
vt 0.125000 0.750000
vt 0.875000 0.500000
vt 0.875000 0.750000
s 0
usemtl VigorCuts
f 1/1/1 2/2/1 4/3/1 3/4/1
f 3/4/2 4/3/2 8/5/2 7/6/2
f 7/6/3 8/5/3 6/7/3 5/8/3
f 5/8/4 6/7/4 2/9/4 1/10/4
f 3/11/5 7/6/5 5/8/5 1/12/5
f 8/5/6 4/13/6 2/14/6 6/7/6
f 9/1/7 10/2/7 12/3/7 11/4/7
f 11/4/8 12/3/8 16/5/8 15/6/8
f 15/6/9 16/5/9 14/7/9 13/8/9
f 13/8/10 14/7/10 10/9/10 9/10/10
f 11/11/11 15/6/11 13/8/11 9/12/11
f 16/5/12 12/13/12 10/14/12 14/7/12
f 17/1/13 18/2/13 20/3/13 19/4/13
f 19/4/14 20/3/14 24/5/14 23/6/14
f 23/6/15 24/5/15 22/7/15 21/8/15
f 21/8/16 22/7/16 18/9/16 17/10/16
f 19/11/17 23/6/17 21/8/17 17/12/17
f 24/5/18 20/13/18 18/14/18 22/7/18
