o Cut_1_Canopy
v -0.5595519807618118 1.9868628310419139 0.02553243876871761
v -0.5619048626445126 1.966954665134469 0.0722514819067098
v -0.5783293797785864 1.9685403144380524 0.07261755789318763
v -0.5764151707892706 1.9884908305322466 0.02590829206620411
v -0.5595519807618118 1.9829841222561961 0.024636968287456044
v -0.5619048626445126 1.9631768556686815 0.07137930586892637
v -0.5764151707892706 1.984612121746529 0.025012821584942543
v -0.5783293797785864 1.964762504972265 0.0717453818554042
f 1 2 3 4
f 5 8 7 6
f 1 5 6 2
f 2 6 7 3
f 3 7 8 4
f 5 1 4 8
o Cut_2_Canopy
v -0.4006981852094166 1.237010764983088 0.1366641641641091
v -0.40827526245879203 1.2365413347936152 0.1878709930550772
v -0.3637470213327801 1.2432966359736728 0.1894305772190256
v -0.3547741666953618 1.2439778170968925 0.1382726348831008
v -0.4006981852094166 1.23369096465086 0.13589772786650992
v -0.40827526245879203 1.2333224337813178 0.18712785120095618
v -0.3547741666953618 1.2406580167646646 0.13750619858550128
v -0.3637470213327801 1.2400777349613752 0.1886874353649042
f 9 10 11 12
f 13 16 15 14
f 9 13 14 10
f 10 14 15 11
f 11 15 16 12
f 13 9 12 16
o Cut_3_Spacing
v -0.25073029346524983 1.3322959968781753 0.1287641150263242
v -0.2626542202945295 1.3289891041764934 0.17931586407970945
v -0.23544933275668714 1.2863413123373257 0.1694698455223015
v -0.22268793949458182 1.2883353492497767 0.11861499982764771
v -0.25503645503990574 1.3304011217941636 0.12832664864326948
v -0.2668317811897678 1.3271508182889136 0.1788914623420722
v -0.22699410106923767 1.286440474165765 0.11817753344459299
v -0.23962689365192535 1.2845030264497461 0.1690454437846642
f 17 18 19 20
f 21 24 23 22
f 17 21 22 18
f 18 22 23 19
f 19 23 24 20
f 21 17 20 24
o Cut_4_Spacing
v -0.27272199312291473 1.3285777060954687 0.1285419766278554
v -0.28885516122069244 1.325844401320559 0.1777685401537561
v -0.31414547065410636 1.2386755263536282 0.1549159815960188
v -0.2988055203697392 1.2386748232833287 0.10497265908471576
v -0.2775771277250694 1.3277167527807616 0.12781949182377744
v -0.29356264787567754 1.3250096301820307 0.17706802660422089
v -0.30366065497189393 1.2378138699686214 0.1042501742806378
v -0.3188529573090915 1.2378407552150998 0.1542154680464836
f 25 26 27 28
f 29 32 31 30
f 25 29 30 26
f 26 30 31 27
f 27 31 32 28
f 29 25 28 32
