o Cut_1_Vigor
v -0.8300139331676152 2.146140245112774 0.10532119940435307
v -0.8190043160121357 2.1336008318869655 0.1555209893888319
v -0.7691469039087535 2.1174122299929707 0.15639125375424945
v -0.7782824768983431 2.1293431448300053 0.10622417533236457
v -0.8300139331676152 2.1432817385825103 0.10532119940435307
v -0.8190043160121357 2.13084587874322 0.1555209893888319
v -0.7782824768983431 2.126484638299741 0.10622417533236457
v -0.7691469039087535 2.114657276849225 0.15639125375424945
f 1 2 3 4
f 5 8 7 6
f 1 5 6 2
f 2 6 7 3
f 3 7 8 4
f 5 1 4 8
o Cut_2_Spacing
v -0.6975643695929444 2.2428128265625857 0.10171931654797452
v -0.6913794193326283 2.2268397438572665 0.15183489165854008
v -0.7798168601273806 2.2280012125480346 0.15029121038738227
v -0.7893112926380977 2.2440177594239805 0.10011786804925715
v -0.6975643695929444 2.239942074020312 0.10171931654797452
v -0.6913794193326283 2.2240725447015115 0.15183489165854008
v -0.7893112926380977 2.241147006881707 0.10011786804925715
v -0.7798168601273806 2.225234013392279 0.15029121038738227
f 9 10 11 12
f 13 16 15 14
f 9 13 14 10
f 10 14 15 11
f 11 15 16 12
f 13 9 12 16
o Cut_3_Canopy
v -0.5150559096473055 2.0534784853383634 0.00427377512371248
v -0.5119612154270525 2.045155096663347 0.05418020637196446
v -0.47207965076075536 2.0413145468461664 0.052090102133470755
v -0.47382030515804174 2.0495075430093026 0.0021127086650362913
v -0.5150559096473055 2.0503248953053674 0.00427377512371248
v -0.5119612154270525 2.042105060016869 0.05418020637196446
v -0.47382030515804174 2.0463539529763075 0.0021127086650362913
v -0.47207965076075536 2.038264510199689 0.052090102133470755
f 17 18 19 20
f 21 24 23 22
f 17 21 22 18
f 18 22 23 19
f 19 23 24 20
f 21 17 20 24
o Cut_4_Spacing
v -0.417881910328371 2.16050848918272 -0.08257236353147235
v -0.41797319216215706 2.1492730010757133 -0.03249896235337752
v -0.36350057166420113 2.1560287651197307 -0.03535375142540296
v -0.36165700300069353 2.167481574079872 -0.0855189860649104
v -0.417881910328371 2.1571858142292277 -0.08257236353147235
v -0.41797319216215706 2.146053879508739 -0.03249896235337752
v -0.36165700300069353 2.164158899126379 -0.0855189860649104
v -0.36350057166420113 2.1528096435527564 -0.03535375142540296
f 25 26 27 28
f 29 32 31 30
f 25 29 30 26
f 26 30 31 27
f 27 31 32 28
f 29 25 28 32
o Cut_5_Spacing
v -0.42046424540947896 1.99360433433352 0.032302767312480066
v -0.42047587784191404 1.9871064408248253 0.08237199424232743
v -0.4548783714669683 1.9670816712382218 0.08417495253501528
v -0.45606148005479785 1.9728841380168887 0.034168339328858335
v -0.42046424540947896 1.9905189676007464 0.032302767312480066
v -0.42047587784191404 1.98412462747857 0.08237199424232743
v -0.45606148005479785 1.9697987712841156 0.034168339328858335
v -0.4548783714669683 1.9640998578919668 0.08417495253501528
f 33 34 35 36
f 37 40 39 38
f 33 37 38 34
f 34 38 39 35
f 35 39 40 36
f 37 33 36 40
o Cut_6_Spacing
v -0.20504451478838343 2.0012502313699474 0.040864704604226934
v -0.21238389214510864 1.994404624496239 0.09131796237270957
v -0.19541949558394664 1.97588989835374 0.09042889602206215
v -0.18748274771708906 1.9820835426680474 0.039944331391734304
v -0.20504451478838343 1.998205922314462 0.040864704604226934
v -0.21238389214510864 1.991463868827272 0.09131796237270957
v -0.18748274771708906 1.9790392336125626 0.039944331391734304
v -0.19541949558394664 1.9729491426847732 0.09042889602206215
f 41 42 43 44
f 45 48 47 46
f 41 45 46 42
f 42 46 47 43
f 43 47 48 44
f 45 41 44 48
o Cut_7_Canopy
v -0.3986347955839206 1.4381264819950275 -0.0012208421135252341
v -0.3993632726285145 1.450013932661435 0.048885953050535814
v -0.4321934009190687 1.4448953064480738 0.05060650716782099
v -0.4325800154933885 1.4328339990991594 0.0005581514792043296
v -0.3986347955839206 1.4349741468701762 -0.0012208421135252341
v -0.3993632726285145 1.4469651509231019 0.048885953050535814
v -0.4325800154933885 1.4296816639743082 0.0005581514792043296
v -0.4321934009190687 1.4418465247097407 0.05060650716782099
f 49 50 51 52
f 53 56 55 54
f 49 53 54 50
f 50 54 55 51
f 51 55 56 52
f 53 49 52 56
o Cut_8_Vigor
v -0.573630064935128 1.5892871575161183 -0.059557351402486296
v -0.5688229085858285 1.5959154435366936 -0.009740666491520203
v -0.5626919070354937 1.5383702899109741 -0.010061978667554037
v -0.5672999398814157 1.5298730445534499 -0.059889099199135196
v -0.5785612323519698 1.5892871575161183 -0.059298919868896724
v -0.5735989587935393 1.5959154435366936 -0.009490364306389769
v -0.5722311072982575 1.5298730445534499 -0.059630667665545624
v -0.5674679572432045 1.5383702899109741 -0.009811676482423603
f 57 58 59 60
f 61 64 63 62
f 57 61 62 58
f 58 62 63 59
f 59 63 64 60
f 61 57 60 64
o Cut_9_Canopy
v -0.13422349093454272 1.4282050790382204 -0.028751733856298808
v -0.14355410332504245 1.440309850557762 0.021805880118335095
v -0.11396958676821536 1.4390183239888492 0.020255421304429557
v -0.10364335686082837 1.426870088298681 -0.030354370773279696
v -0.13422349093454272 1.4250244636012674 -0.028751733856298808
v -0.14355410332504245 1.437232788507327 0.021805880118335095
v -0.10364335686082837 1.4236894728617278 -0.030354370773279696
v -0.11396958676821536 1.4359412619384142 0.020255421304429557
f 65 66 67 68
f 69 72 71 70
f 65 69 70 66
f 66 70 71 67
f 67 71 72 68
f 69 65 68 72
o Cut_10_Vigor
v -0.5535395535206098 1.4144767619964593 0.18372497092482498
v -0.5406474637394523 1.4267349231899336 0.23232303852385927
v -0.538448118843834 1.3691627796274377 0.23085055661987583
v -0.5512621928362331 1.3548624029544858 0.1822002567232148
v -0.5579747134534333 1.4144603092229233 0.18466754968942314
v -0.5449306879236688 1.4267190340408218 0.2332333272668146
v -0.5556973527690566 1.3548459501809498 0.1831428354878131
v -0.5427313430280505 1.369146890478326 0.23176084536283129
f 73 74 75 76
f 77 80 79 78
f 73 77 78 74
f 74 78 79 75
f 75 79 80 76
f 77 73 76 80
o Cut_11_Spacing
v -0.24912506251108688 2.1594566498511365 -0.014897540506820229
v -0.24688212789545486 2.1473825357782355 0.035539698256076654
v -0.172964488198222 2.1166069407208994 0.019288435575958312
v -0.17282794125672174 2.1276903581055855 -0.031671947323924615
v -0.2508438379934025 2.156343859839684 -0.014586481800702522
v -0.24854729985389196 2.144366824480917 0.03584105596113136
v -0.17454671673903735 2.124577568094133 -0.031360888617806906
v -0.1746296601566591 2.1135912294235806 0.01958979328101302
f 81 82 83 84
f 85 88 87 86
f 81 85 86 82
f 82 86 87 83
f 83 87 88 84
f 85 81 84 88
