o Cut_1_Vigor
v -0.09535953825877398 1.5701259934117298 0.14440762501353546
v -0.09009546353815538 1.5817091948837505 0.19440762501353634
v -0.12753850938657998 1.5220654778315272 0.19440762501353634
v -0.13383944730974465 1.508830637875691 0.14440762501353546
v -0.10011709325227539 1.5679558806612546 0.14440762501353546
v -0.0947248234857611 1.5795975570650471 0.19440762501353634
v -0.13859700230324606 1.506660525125216 0.14440762501353546
v -0.1321678693341857 1.519953840012824 0.19440762501353634
f 1 2 3 4
f 5 8 7 6
f 1 5 6 2
f 2 6 7 3
f 3 7 8 4
f 5 1 4 8
o Cut_2_Vigor
v 0.18111306386466236 1.5900460662218818 0.005920262812390705
v 0.17907921681351427 1.6003253425751012 0.055920262812391694
v 0.24575385059745744 1.6053952113796452 0.055920262812391694
v 0.24950250986820102 1.5952463275383062 0.005920262812390705
v 0.18111306386466236 1.5859161920264213 0.005920262812390705
v 0.17907921681351427 1.5962990217661588 0.055920262812391694
v 0.24950250986820102 1.591116453342846 0.005920262812390705
v 0.24575385059745744 1.601368890570703 0.055920262812391694
f 9 10 11 12
f 13 16 15 14
f 9 13 14 10
f 10 14 15 11
f 11 15 16 12
f 13 9 12 16
o Cut_3_Canopy
v 0.5425380955085616 1.5945344242614596 -0.03240336734088352
v 0.531651031881828 1.6045094514202913 0.01759663265911548
v 0.563273818100277 1.5958930995993827 0.01759663265911548
v 0.5749584688058921 1.5857007515874173 -0.03240336734088352
v 0.5425380955085616 1.5903251792322786 -0.03240336734088352
v 0.531651031881828 1.6004037597776284 0.01759663265911548
v 0.5749584688058921 1.5814915065582362 -0.03240336734088352
v 0.563273818100277 1.5917874079567198 0.01759663265911548
f 17 18 19 20
f 21 24 23 22
f 17 21 22 18
f 18 22 23 19
f 19 23 24 20
f 21 17 20 24
o Cut_4_Canopy
v 0.9341511641711029 2.3511426974803813 0.0810213262787996
v 0.9124169162715784 2.3419934895634564 0.13102132627880192
v 0.9377583613662883 2.2948779969395123 0.13102132627880192
v 0.9601705582828621 2.302766743908262 0.0810213262787996
v 0.9281896618143204 2.3511426974803813 0.0810213262787996
v 0.9066107439984081 2.3419934895634564 0.13102132627880192
v 0.9542090559260796 2.302766743908262 0.0810213262787996
v 0.931952189093118 2.2948779969395123 0.13102132627880192
f 25 26 27 28
f 29 32 31 30
f 25 29 30 26
f 26 30 31 27
f 27 31 32 28
f 29 25 28 32
o Cut_5_Spacing
v 0.35650338228260003 2.303641043382012 0.09244725128493944
v 0.2840155304376369 2.29257747697128 0.1526304591724577
v 0.2427009450429498 2.2560723021218108 0.11535529021788687
v 0.31328718439845654 2.2654556218167556 0.053456394610076854
v 0.354117278736722 2.29975935906033 0.09035636885142159
v 0.2817344209570892 2.288866595722233 0.15063158039368574
v 0.3109010808525783 2.2615739374950734 0.05136551217655877
v 0.24041983556240193 2.252361420872764 0.11335641143911468
f 33 34 35 36
f 37 40 39 38
f 33 37 38 34
f 34 38 39 35
f 35 39 40 36
f 37 33 36 40
o Cut_6_Vigor
v -0.630999197354494 2.2872691640826304 0.0961878296679686
v -0.6349260571872902 2.280160741757544 0.14980634411533275
v -0.5776461617711414 2.2757974723316745 0.17668504769312177
v -0.5718398675492266 2.2827627296151984 0.12394846152918076
v -0.630999197354494 2.2840115791961813 0.09630158703888814
v -0.6349260571872902 2.2770066471756873 0.14991648752518097
v -0.5718398675492266 2.279505144728749 0.12406221890010032
v -0.5776461617711414 2.272643377749818 0.17679519110297
f 41 42 43 44
f 45 48 47 46
f 41 45 46 42
f 42 46 47 43
f 43 47 48 44
f 45 41 44 48
o Cut_7_Spacing
v -0.23560796437881337 2.268141451533885 0.009827199318033001
v -0.196636428992624 2.2618103197946624 0.058669285810018276
v -0.22281345493713495 2.21084278565622 0.07496811832916486
v -0.26259869738158953 2.21558960287634 0.02663267743895364
v -0.2411410646443826 2.2682484899500843 0.012892378515329055
v -0.20200271931124889 2.261914131254604 0.061642057070581714
v -0.2681317976471587 2.21569664129254 0.029697856636249693
v -0.22817974525575982 2.210946597116162 0.0779408895897283
f 49 50 51 52
f 53 56 55 54
f 49 53 54 50
f 50 54 55 51
f 51 55 56 52
f 53 49 52 56
o Cut_8_Spacing
v -0.17736223816156205 2.375790800820601 0.04270883920284446
v -0.1886921977959101 2.3672742700214036 0.09212128312860585
v -0.15683032724955911 2.355368288955091 0.10414089038246448
v -0.14460098358426 2.363548742522781 0.05506773108240321
v -0.17736223816156205 2.372021029401078 0.04284048252162224
v -0.1886921977959101 2.363607988906474 0.0922493124863123
v -0.14460098358426 2.359778971103258 0.05519937440118099
v -0.15683032724955911 2.3517020078401614 0.10426891974017093
f 57 58 59 60
f 61 64 63 62
f 57 61 62 58
f 58 62 63 59
f 59 63 64 60
f 61 57 60 64
o Cut_9_Canopy
v -0.674707011427417 1.5926837746681275 0.08608456074714083
v -0.6563361919835813 1.6057368259799636 0.1366912351952105
v -0.5984279445213008 1.598140079103858 0.1399932119644656
v -0.6151659512374414 1.5848728257477196 0.08947964186563229
v -0.674707011427417 1.5889099662268193 0.08621634504182582
v -0.6563361919835813 1.6020665078432483 0.13681940552882416
v -0.6151659512374414 1.5810990173064114 0.08961142616031728
v -0.5984279445213008 1.5944697609671428 0.14012138229807927
f 65 66 67 68
f 69 72 71 70
f 65 69 70 66
f 66 70 71 67
f 67 71 72 68
f 69 65 68 72
o Cut_10_Vigor
v -0.5324536638453088 1.586549434744531 0.09353581840151251
v -0.5179856650676711 1.5997690985510984 0.1439320117739321
v -0.4431192804071036 1.5968245788586417 0.1479608092267934
v -0.4554765700489403 1.5835219001630343 0.0976781998030124
v -0.5324536638453088 1.5827751663014997 0.09366761875981122
v -0.5179856650676711 1.5960983204126602 0.14406019817115953
v -0.4554765700489403 1.5797476317200032 0.09781000016131153
v -0.4431192804071036 1.5931538007202035 0.1480889956240212
f 73 74 75 76
f 77 80 79 78
f 73 77 78 74
f 74 78 79 75
f 75 79 80 76
f 77 73 76 80
