o Cut_1_Canopy
v -0.7974226698480378 1.5248848704792883 0.014713253809508104
v -0.7671860140311827 1.527172288912606 0.05885609475720647
v -0.7395037189636461 1.4761744605844493 0.04603770102199798
v -0.7690470058181156 1.47260968016848 0.0015737928960924828
v -0.8035628482589573 1.5247128944139623 0.016349496772423453
v -0.7731761551027415 1.5270045151406906 0.06045235556907115
v -0.7751871842290349 1.472437704103154 0.003210035859007833
v -0.7454938600352047 1.4760066868125339 0.04763396183386266
f 1 2 3 4
f 5 8 7 6
f 1 5 6 2
f 2 6 7 3
f 3 7 8 4
f 5 1 4 8
o Cut_2_Spacing
v -0.39326532086718774 2.0974676004222323 0.022402082654986756
v -0.37227819781816346 2.0854038211165533 0.06770885433544996
v -0.36629406723729074 2.011704913055035 0.05835051179511274
v -0.38712657470773065 2.0218644893763424 0.012801942993595751
v -0.3992429249399591 2.0973001777905567 0.02399500259063109
v -0.3781052449712883 2.085240615330858 0.06926165366159348
v -0.39310417878050197 2.021697066744667 0.014394862929239867
v -0.37212111439041556 2.0115417072693402 0.05990331112125605
f 9 10 11 12
f 13 16 15 14
f 9 13 14 10
f 10 14 15 11
f 11 15 16 12
f 13 9 12 16
o Cut_3_Spacing
v 0.6488064082504105 1.5695178476938214 0.14208843355303227
v 0.6395030061297946 1.5709921944487033 0.1956303820595908
v 0.6454999146827509 1.5046715058581261 0.18737809323406163
v 0.6549983562752627 1.5010401890637206 0.13356775276516916
v 0.6439828807390505 1.5694106775430212 0.14310808942635883
v 0.6348314143670419 1.5708884000383858 0.1966179199076608
v 0.6501748287639028 1.5009330189129202 0.13458740863849572
v 0.6408283229199981 1.5045677114478087 0.18836563108213164
f 17 18 19 20
f 21 24 23 22
f 17 21 22 18
f 18 22 23 19
f 19 23 24 20
f 21 17 20 24
o Cut_4_Vigor
v 0.4315164541320673 1.48324900401128 0.048373558412856996
v 0.4309206654349138 1.4872054977117675 0.10075329456800976
v 0.4704901422548416 1.496792212645768 0.0918407768139952
v 0.4722854687196514 1.4931263375623378 0.03919086014320159
v 0.4315164541320673 1.4797487872248054 0.04800567080425064
v 0.4309206654349138 1.4838082670355248 0.1003962312357623
v 0.4722854687196514 1.4896261207758632 0.03882297253459523
v 0.4704901422548416 1.4933949819695254 0.09148371348174776
f 25 26 27 28
f 29 32 31 30
f 25 29 30 26
f 26 30 31 27
f 27 31 32 28
f 29 25 28 32
