o Cut_1_Spacing
v 0.5059560541212097 2.043429488240866 0.006481792668585525
v 0.5057089387318087 2.033329651746075 0.0684475380885285
v 0.6050444726652783 2.033329651746075 0.0684475380885285
v 0.6095913958302579 2.043429488240866 0.006481792668585525
v 0.5059560541212097 2.040336310876952 0.006481792668585525
v 0.5057089387318087 2.030364809637889 0.0684475380885285
v 0.6095913958302579 2.040336310876952 0.006481792668585525
v 0.6050444726652783 2.030364809637889 0.0684475380885285
f 1 2 3 4
f 5 8 7 6
f 1 5 6 2
f 2 6 7 3
f 3 7 8 4
f 5 1 4 8
o Cut_2_Spacing
v 0.9533160257614063 1.9388336537573196 0.00037126683781863254
v 0.9382017506165998 1.9342047195855738 0.05037126683781941
v 0.9624820586982583 1.9241236138890048 0.05037126683781941
v 0.9784338002758903 1.9284048346957368 0.00037126683781863254
v 0.9533160257614063 1.9357278210805418 0.00037126683781863254
v 0.9382017506165998 1.9312024402953143 0.05037126683781941
v 0.9784338002758903 1.9252990020189593 0.00037126683781863254
v 0.9624820586982583 1.9211213345987455 0.05037126683781941
f 9 10 11 12
f 13 16 15 14
f 9 13 14 10
f 10 14 15 11
f 11 15 16 12
f 13 9 12 16
o Cut_3_Vigor
v 0.6206056225675701 1.4434996724593327 -0.027405149920307542
v 0.6166575665271063 1.4551698022726065 0.022594850079690854
v 0.6802889664509825 1.4705812077576297 0.022594850079690854
v 0.6863905076044264 1.4594326479918764 -0.027405149920307542
v 0.6206056225675701 1.4403363129421423 -0.027405149920307542
v 0.6166575665271063 1.4521099961419341 0.022594850079690854
v 0.6863905076044264 1.456269288474686 -0.027405149920307542
v 0.6802889664509825 1.4675214016269573 0.022594850079690854
f 17 18 19 20
f 21 24 23 22
f 17 21 22 18
f 18 22 23 19
f 19 23 24 20
f 21 17 20 24
o Cut_4_Spacing
v 0.21099572681801895 1.503811987196774 0.008854985086548783
v 0.22068640982643065 1.5137435501849794 0.05885498508655055
v 0.24942237589367022 1.4799189368589158 0.05885498508655055
v 0.24072867673386056 1.4688138412637888 0.008854985086548783
v 0.2075966585700489 1.5017137969720513 0.008854985086548783
v 0.21740131668530716 1.5117157149627463 0.05885498508655055
v 0.2373296084858905 1.4667156510390664 0.008854985086548783
v 0.24613728275254673 1.4778911016366827 0.05885498508655055
f 25 26 27 28
f 29 32 31 30
f 25 29 30 26
f 26 30 31 27
f 27 31 32 28
f 29 25 28 32
o Cut_5_Canopy
v 0.6004037447090063 1.324899244412567 0.028890100058484365
v 0.5974925518710883 1.3294171135977977 0.08070411961511656
v 0.5373944034574036 1.297983007238003 0.07459394830343183
v 0.538511025367838 1.292526494602122 0.022597474942692118
v 0.5980508263259494 1.3217496690649966 0.028277884628771028
v 0.5952078560345591 1.326358859756421 0.0801096552880083
v 0.5361581069847811 1.2893769192545514 0.02198525951297878
v 0.5351097076208744 1.2949247533966264 0.07399948397632355
f 33 34 35 36
f 37 40 39 38
f 33 37 38 34
f 34 38 39 35
f 35 39 40 36
f 37 33 36 40
