o Cut_1_Vigor
v -0.18574749174003555 2.0516645080574976 0.0018236131061180453
v -0.1798054680023676 2.0364204258005936 0.050172575687392494
v -0.19060169804274724 1.9515257754199102 0.03824141066112359
v -0.19682287725802375 1.9645747574812091 -0.010416053133896529
v -0.19191015268183043 2.0516645080574976 0.0018236131061180453
v -0.1858127988605503 2.0364204258005936 0.050172575687392494
v -0.20298553819981863 1.9645747574812091 -0.010416053133896529
v -0.19660902890092993 1.9515257754199102 0.03824141066112359
f 1 2 3 4
f 5 8 7 6
f 1 5 6 2
f 2 6 7 3
f 3 7 8 4
f 5 1 4 8
o Cut_2_Canopy
v -0.3375936684347904 2.0160171829044016 -0.053239022794320086
v -0.32806250284215527 2.002021294876371 -0.004714637954248958
v -0.280606958552345 1.9986067583868712 -0.005194519762604993
v -0.28894174352665775 2.0125165640542897 -0.05373100268948968
v -0.3375936684347904 2.0118470706992064 -0.05382509384444075
v -0.32806250284215527 1.9979537282832547 -0.005286297158452974
v -0.28894174352665775 2.0083464518490945 -0.05431707373961034
v -0.280606958552345 1.9945391917937547 -0.005766178966809009
f 9 10 11 12
f 13 16 15 14
f 9 13 14 10
f 10 14 15 11
f 11 15 16 12
f 13 9 12 16
o Cut_3_Canopy
v -0.07961151922302202 1.9896503717373517 -0.004904569065362224
v -0.07634141219960758 1.975955771971464 0.043662159078554336
v -0.09328965042150611 1.9726299581900442 0.04319474643364867
v -0.09699843033830541 1.98623847559532 -0.005384079797081228
v -0.07961151922302202 1.9855859504581566 -0.005475786224522597
v -0.07634141219960758 1.9719938963043477 0.04310535376531061
v -0.09699843033830541 1.9821740543161248 -0.005955296956241601
v -0.09328965042150611 1.968668082522928 0.04263794112040538
f 17 18 19 20
f 21 24 23 22
f 17 21 22 18
f 18 22 23 19
f 19 23 24 20
f 21 17 20 24
o Cut_4_Spacing
v -0.3712013898867675 2.0408531510709556 -0.03883387878196566
v -0.35516988960124735 2.0399186548831705 0.012481784257855929
v -0.34710680722112297 2.004460778076189 0.02001858863606707
v -0.36281927267509045 2.0039922999148327 -0.030998862999989756
v -0.37528243320420274 2.0408531510709556 -0.03883387878196566
v -0.3590956028350704 2.0399186548831705 0.012481784257855929
v -0.3669003159925257 2.0039922999148327 -0.030998862999989756
v -0.351032520454946 2.004460778076189 0.02001858863606707
f 25 26 27 28
f 29 32 31 30
f 25 29 30 26
f 26 30 31 27
f 27 31 32 28
f 29 25 28 32
o Cut_5_Canopy
v 0.026299508267489495 2.0113061299999884 -0.0009741644105053268
v 0.06391585502380408 2.008759043990228 0.03481091765790533
v 0.04215630455813543 1.986680994518123 0.05566617854489915
v 0.003701117850119042 1.988376962303632 0.020685075679219556
v 0.024056422219869554 2.009601122997169 0.0010543518327437375
v 0.061756031109331554 2.007117325919296 0.036764136482352154
v 0.0014580318024992503 1.9866719553008123 0.02271359192246862
v 0.039996480643663054 1.9850392764471911 0.05761939736934597
f 33 34 35 36
f 37 40 39 38
f 33 37 38 34
f 34 38 39 35
f 35 39 40 36
f 37 33 36 40
o Cut_6_Canopy
v 0.234190298312066 1.3317780144339642 0.01669566805083663
v 0.23954205568668047 1.3602047146788316 0.0607344398947226
v 0.21113513318635935 1.3385222828473005 0.07226076249257106
v 0.20464812273293953 1.3092290667912794 0.028682628129438843
v 0.23179220167107153 1.3298249515002032 0.0177015761894489
v 0.23723611361932836 1.3583267044676677 0.061701692778974866
v 0.20225002609194506 1.3072760038575182 0.02968853626805097
v 0.20882919111900722 1.3366442726361358 0.07322801537682345
f 41 42 43 44
f 45 48 47 46
f 41 45 46 42
f 42 46 47 43
f 43 47 48 44
f 45 41 44 48
o Cut_7_Vigor
v -0.4545847820971396 2.171067283927357 -0.10669096448103114
v -0.4247086403994381 2.1667048702442564 -0.04428669753321408
v -0.3378566708103389 2.14069110556644 -0.04360385380846578
v -0.36335836792969595 2.143743292522437 -0.1059737281910513
v -0.4556020539475402 2.168623173511387 -0.10596242313529604
v -0.4256771325255527 2.1643779586204954 -0.043593090847237725
v -0.3643756397800967 2.141299182106467 -0.1052451868453162
v -0.33882516293645365 2.1383641939426785 -0.04291024712248943
f 49 50 51 52
f 53 56 55 54
f 49 53 54 50
f 50 54 55 51
f 51 55 56 52
f 53 49 52 56
