o Cut_1_Canopy
v 0.8752362603501749 1.7841030026213438 0.5872844299354334
v 0.2959462362592959 1.5272621131953512 -0.4602289931222473
v 0.2761289417846907 1.3956849677626462 -0.44360030863767463
v 0.8661858023846514 1.7240123870487556 0.5948786658762896
v 0.8728861580984606 1.7841030026213438 0.5892563998680758
v 0.2908003454607235 1.5272621131953512 -0.45591107805108666
v 0.863835700132937 1.7240123870487556 0.596850635808932
v 0.2709830509861181 1.3956849677626462 -0.4392823935665137
f 1 2 3 4
f 5 8 7 6
f 1 5 6 2
f 2 6 7 3
f 3 7 8 4
f 5 1 4 8
o Cut_2_Spacing
v 0.5712336515587451 1.7346791891191906 -0.05170518256892838
v 0.5948803106625106 1.742611400258567 -0.0062767210348566175
v 0.5542377578466714 1.7186354758990914 0.027826430043017047
v 0.5293385750860604 1.7099643738590604 -0.01655103935255479
v 0.5712336515587451 1.7312154804511166 -0.05170518256892838
v 0.5948803106625106 1.7392512449770112 -0.0062767210348566175
v 0.5293385750860604 1.7065006651909866 -0.01655103935255479
v 0.5542377578466714 1.7152753206175355 0.027826430043017047
f 9 10 11 12
f 13 16 15 14
f 9 13 14 10
f 10 14 15 11
f 11 15 16 12
f 13 9 12 16
o Cut_3_Spacing
v 0.8326513549409813 1.6095936490934113 0.036056531622506244
v 0.8510740739149759 1.6231762024142613 0.08586839939275953
v 0.8358183967737105 1.588206953998305 0.09866943245535505
v 0.8168457893650032 1.5733639397292802 0.04931897586785782
v 0.8292312061677349 1.6095936490934113 0.0389263771967088
v 0.84777291488913 1.6231762024142613 0.08863840071380459
v 0.8134256405917569 1.5733639397292802 0.05218882144206021
v 0.8325172377478646 1.588206953998305 0.10143943377639995
f 17 18 19 20
f 21 24 23 22
f 17 21 22 18
f 18 22 23 19
f 19 23 24 20
f 21 17 20 24
o Cut_4_Vigor
v 0.13796365762856905 2.071193994164283 0.25658111780999876
v 0.10369236892950112 2.0693033027420205 0.2932563633011831
v 0.2580465274979976 1.8590036254558888 0.41385104878228807
v 0.2965288144042118 1.8551570463554243 0.3804657956635927
v 0.13472917039122434 2.068416117911847 0.25405405942234205
v 0.10054377962985259 2.0665991982573333 0.29079641573759496
v 0.2932943271668671 1.8523791701029884 0.3779387372759359
v 0.25489793819834905 1.8562995209712017 0.4113911012186999
f 25 26 27 28
f 29 32 31 30
f 25 29 30 26
f 26 30 31 27
f 27 31 32 28
f 29 25 28 32
o Cut_5_Spacing
v -0.6704170428055425 2.2917563013274576 0.12293129546673426
v -0.6975100861151324 2.286696736875319 0.16749772749975736
v -0.6739774247382603 2.2741354524695097 0.19274944684629575
v -0.6458974177725585 2.2786681946050362 0.14924207604099526
v -0.6704170428055425 2.2892028494355534 0.12324481993606842
v -0.6975100861151324 2.284246066498693 0.1677986319858689
v -0.6458974177725585 2.2761147427131325 0.14955560051032943
v -0.6739774247382603 2.2716847820928847 0.1930503513324073
f 33 34 35 36
f 37 40 39 38
f 33 37 38 34
f 34 38 39 35
f 35 39 40 36
f 37 33 36 40
o Cut_6_Vigor
v -0.4167102082042597 1.876691459045779 -0.13788012840474823
v -0.4449594089395812 1.8855115579164892 -0.0961827447045019
v -0.3256656598827848 1.8726059590543624 0.02559148787551814
v -0.2936659972542381 1.8633801226062492 -0.0122774503070115
v -0.4172460538708771 1.8732916168484528 -0.13800255004745682
v -0.4454789217065214 1.8822153449635262 -0.09630143486157346
v -0.29420184292085544 1.859980280408923 -0.012399871949720299
v -0.326185172649725 1.8693097461013997 0.025472797718446415
f 41 42 43 44
f 45 48 47 46
f 41 45 46 42
f 42 46 47 43
f 43 47 48 44
f 45 41 44 48
o Cut_7_Canopy
v -0.8649034989398244 1.7505193097072949 0.043535318351814054
v -0.8819859108802794 1.7575307185147424 0.09744111712469343
v -0.8987466931426936 1.6114206800793969 0.07556784345037622
v -0.8822846583575088 1.5990012104438922 0.020852435729294475
v -0.8679341731011451 1.7501224919992313 0.04048893968062324
v -0.884908412682693 1.7571480642255264 0.09450347134573918
v -0.8853153325188297 1.5986043927358282 0.01780605705810335
v -0.9016691949451073 1.6110380257901806 0.07263019767142168
f 49 50 51 52
f 53 56 55 54
f 49 53 54 50
f 50 54 55 51
f 51 55 56 52
f 53 49 52 56
o Cut_8_Canopy
v -0.6527338871532442 1.5518539634632231 0.0935176259090185
v -0.6755970862223551 1.5649312074448307 0.14185093753929875
v -0.6484123407027628 1.5728651329489833 0.16932931214923294
v -0.6246185759007463 1.5600594765456468 0.12193661752011298
v -0.6527338871532442 1.5487271965703964 0.09340843680309995
v -0.6755970862223551 1.5619079308565966 0.1417453623944515
v -0.6246185759007463 1.5569327096528198 0.1218274284141941
v -0.6484123407027628 1.569841856360749 0.16922373700438537
f 57 58 59 60
f 61 64 63 62
f 57 61 62 58
f 58 62 63 59
f 59 63 64 60
f 61 57 60 64
o Cut_9_Canopy
v -0.8332804540936617 2.293398304104816 0.13317345492829646
v -0.8518574109990864 2.280784596656304 0.18489847358382192
v -0.8242444924757845 2.264876206692504 0.21197269018527318
v -0.8046241739910412 2.2768888113324506 0.16127067811154955
v -0.8332804540936617 2.290555907743757 0.1330741962601677
v -0.8518574109990864 2.2780456905998383 0.18480282887676447
v -0.8046241739910412 2.2740464149713917 0.16117141944342078
v -0.8242444924757845 2.2621373006360384 0.21187704547821576
f 65 66 67 68
f 69 72 71 70
f 65 69 70 66
f 66 70 71 67
f 67 71 72 68
f 69 65 68 72
o Cut_10_Spacing
v -0.33081633482928174 2.1649463391977224 0.7102222441525708
v 0.8703785313475261 2.423511853811538 -0.29040690631754246
v 0.751787743272058 2.3050316000080087 -0.4132074023641709
v -0.38506282478281045 2.110750410475547 0.6540501250260619
v -0.3324294396056821 2.162738260258525 0.7085310483016954
v 0.8668520475723454 2.4186846692000254 -0.29410410864191533
v -0.38667592955921065 2.10854233153635 0.6523589291751863
v 0.7482612594968777 2.300204415396496 -0.41690460468854446
f 73 74 75 76
f 77 80 79 78
f 73 77 78 74
f 74 78 79 75
f 75 79 80 76
f 77 73 76 80
o Cut_11_Vigor
v 0.9985340149098989 2.546857400276734 0.26328997145058847
v 0.9501170124187193 2.532610963112423 0.2985073326212572
v 1.0555430806771278 2.385726394603028 0.36724313481878407
v 1.106492845395426 2.3964440680278494 0.3336770867088458
v 0.9940984895447307 2.543461214506704 0.26006369261800133
v 0.9457855464533407 2.5292944533725614 0.2953567437264415
v 1.1020573200302577 2.3930478822578203 0.3304508078762587
v 1.0512116147117494 2.382409884863166 0.3640925459239684
f 81 82 83 84
f 85 88 87 86
f 81 85 86 82
f 82 86 87 83
f 83 87 88 84
f 85 81 84 88
