o Cut_1_Canopy
v -0.35501996947641973 2.047100491342768 0.1631395595195876
v -0.30820996223517855 2.041796495997982 0.19119360395329132
v -0.3952582998451842 1.9578161156484515 0.2733521528847892
v -0.4449908655436238 1.9603005560474687 0.24805649727967685
v -0.3573661641840516 2.044923407279149 0.16534027313901647
v -0.3104799446176614 2.0396901309748556 0.1933228309644784
v -0.44733706025125575 1.9581234719838494 0.25025721089910563
v -0.39752828222766706 1.9557097506253251 0.275481379895976
f 1 2 3 4
f 5 8 7 6
f 1 5 6 2
f 2 6 7 3
f 3 7 8 4
f 5 1 4 8
o Cut_2_Canopy
v -0.1406883544210012 1.9867297437703808 -0.05245735328843482
v -0.09805768326804805 1.9828585816352695 -0.02341419365560101
v -0.1254428103224906 1.9091417214805482 0.0159878960903832
v -0.16894764928514286 1.9106597484247496 -0.011797499120823519
v -0.14381977950994704 1.985661061449821 -0.04911763194063282
v -0.10109224143146017 1.9818229577362985 -0.020177782631345606
v -0.17207907437408873 1.9095910661041897 -0.008457777773021686
v -0.12847736848590272 1.9081060975815773 0.019224307114638427
f 9 10 11 12
f 13 16 15 14
f 9 13 14 10
f 10 14 15 11
f 11 15 16 12
f 13 9 12 16
o Cut_3_Canopy
v 0.19450411095060816 1.3463453854702458 0.04322092334475159
v 0.23219996382300073 1.3649683006011184 0.07369770255036259
v 0.27355902343389676 1.3436160363531644 0.03520496348151714
v 0.23741411344968003 1.3241924225919706 0.003284726893971216
v 0.19450411095060816 1.3435156426449355 0.043669110578400706
v 0.23219996382300073 1.3622408362483014 0.07412969046538863
v 0.23741411344968003 1.3213626797666604 0.003732914127620331
v 0.27355902343389676 1.3408885720003472 0.03563695139654317
f 17 18 19 20
f 21 24 23 22
f 17 21 22 18
f 18 22 23 19
f 19 23 24 20
f 21 17 20 24
o Cut_4_Canopy
v -0.4546658886286216 1.9347952386680525 0.4000348769074202
v 0.36007478158226774 2.0044224451154307 -0.27999590127581453
v 0.43622208778843713 2.009319851658014 -0.20632035741075863
v -0.4197406378495359 1.9370414527521564 0.4338264445146289
v -0.4546658886286216 1.9329905908043226 0.4003207050493
v 0.36007478158226774 2.0004877826460614 -0.27937271196273755
v -0.4197406378495359 1.9352368048884263 0.43411227265650876
v 0.43622208778843713 2.0053851891886456 -0.20569716809768168
f 25 26 27 28
f 29 32 31 30
f 25 29 30 26
f 26 30 31 27
f 27 31 32 28
f 29 25 28 32
o Cut_5_Spacing
v -0.3920989337837736 2.1998876691974125 -0.07333225472808645
v -0.4309068311205525 2.1763286295534714 -0.007822915395839009
v -0.4836403767533048 2.0806109589095345 -0.055435614307880555
v -0.4476985128653089 2.0989678062409083 -0.12353267244475906
v -0.3945254904506899 2.197895511018352 -0.07560741391046114
v -0.43320830424029755 2.1744391626550064 -0.009980795231396543
v -0.4501250695322253 2.096975648061848 -0.12580783162713377
v -0.48594184987305 2.07872149201107 -0.05759349414343809
f 33 34 35 36
f 37 40 39 38
f 33 37 38 34
f 34 38 39 35
f 35 39 40 36
f 37 33 36 40
