o Cut_1_Spacing
v 0.5223977740642057 2.0254818877929717 0.022004374044562368
v 0.5216400663392682 2.0178539258479824 0.07200437404456417
v 0.5876992162170345 2.0178539258479824 0.07200437404456417
v 0.5907699264707288 2.0254818877929717 0.022004374044562368
v 0.5223977740642057 2.0224208587464374 0.022004374044562368
v 0.5216400663392682 2.0148964501879663 0.07200437404456417
v 0.5907699264707288 2.0224208587464374 0.022004374044562368
v 0.5876992162170345 2.0148964501879663 0.07200437404456417
f 1 2 3 4
f 5 8 7 6
f 1 5 6 2
f 2 6 7 3
f 3 7 8 4
f 5 1 4 8
o Cut_2_Spacing
v 0.7473571093708645 1.932852034754355 0.008981773322008228
v 0.7389355825751661 1.9283289508074553 0.059745019952680826
v 0.6860940595056583 1.8732414011925476 0.059745019952680826
v 0.6926531332600003 1.8758228686159 0.008981773322008228
v 0.7441553662708134 1.9306205168912316 0.008981773322008228
v 0.7358428461067764 1.9261734072614929 0.059745019952680826
v 0.689451390159949 1.8735913507527766 0.008981773322008228
v 0.6830013230372685 1.8710858576465852 0.059745019952680826
f 9 10 11 12
f 13 16 15 14
f 9 13 14 10
f 10 14 15 11
f 11 15 16 12
f 13 9 12 16
o Cut_3_Vigor
v 0.6137002207157324 1.3228406233609433 0.03035830831513799
v 0.6097251019167185 1.3395227827821277 0.08173903809434428
v 0.5237549189716607 1.279112117069475 0.08173903809434428
v 0.5246155117013441 1.260241401258363 0.03035830831513799
v 0.6112262411017928 1.320282494843701 0.03035830831513799
v 0.6073376160915318 1.337054090017034 0.08173903809434428
v 0.5221415320874044 1.2576832727411207 0.03035830831513799
v 0.5213674331464739 1.2766434243043814 0.08173903809434428
f 17 18 19 20
f 21 24 23 22
f 17 21 22 18
f 18 22 23 19
f 19 23 24 20
f 21 17 20 24
