o Cut_1_Canopy
v 0.7214806022210714 1.6629046214770176 0.31047757251259145
v 0.6955191428034756 1.6678378048431501 0.3604775725125913
v 0.7029978432637282 1.5548886160306887 0.3604775725125913
v 0.7292384581589324 1.5457394081137643 0.31047757251259145
v 0.7171639095242186 1.6629046214770176 0.31047757251259145
v 0.6913577801902351 1.6678378048431501 0.3604775725125913
v 0.7249217654620799 1.5457394081137643 0.31047757251259145
v 0.6988364806504878 1.5548886160306887 0.3604775725125913
f 1 2 3 4
f 5 8 7 6
f 1 5 6 2
f 2 6 7 3
f 3 7 8 4
f 5 1 4 8
o Cut_2_Spacing
v -0.22598061930527877 1.586889006671839 0.0034111297202397313
v -0.21932076719661733 1.5931695793274 0.05341112972024051
v -0.1628489528885063 1.6232279795635565 0.05341112972024051
v -0.16779399277757223 1.6178601544911564 0.0034111297202397313
v -0.22366768264958325 1.590046348695313 0.0034111297202397313
v -0.2170759948645306 1.5962338716415785 0.05341112972024051
v -0.16548105612187677 1.6210174965146302 0.0034111297202397313
v -0.16060418055641956 1.6262922718777348 0.05341112972024051
f 9 10 11 12
f 13 16 15 14
f 9 13 14 10
f 10 14 15 11
f 11 15 16 12
f 13 9 12 16
o Cut_3_Canopy
v -0.5338021937299359 1.6902706480557166 0.005642111573636986
v -0.5180498489220243 1.6935087287674073 0.05564211157363746
v -0.41968595355708305 1.70494403306084 0.05564211157363746
v -0.4324473468191886 1.7020536657141632 0.005642111573636986
v -0.5338021937299359 1.6867615181093105 0.005642111573636986
v -0.5180498489220243 1.6901031522075194 0.05564211157363746
v -0.4324473468191886 1.6985445357677573 0.005642111573636986
v -0.41968595355708305 1.7015384565009524 0.05564211157363746
f 17 18 19 20
f 21 24 23 22
f 17 21 22 18
f 18 22 23 19
f 19 23 24 20
f 21 17 20 24
o Cut_4_Canopy
v -0.35509792813656754 2.1132488982105557 0.027655160900796494
v -0.3186692124116477 2.1049689737061663 0.06281093753404694
v -0.22599623782058184 2.060144137675864 -0.007023157804124059
v -0.25990887715948047 2.0672070654027053 -0.04407493398842884
v -0.35666576992149585 2.1095563054965973 0.028836614427749784
v -0.3201956123537213 2.1013739851308713 0.06396116239247339
v -0.26147671894440894 2.063514472688747 -0.04289348046147556
v -0.2275226377626557 2.056549149100569 -0.005872932945697617
f 25 26 27 28
f 29 32 31 30
f 25 29 30 26
f 26 30 31 27
f 27 31 32 28
f 29 25 28 32
o Cut_5_Canopy
v -0.8695495788031344 1.4905262678684397 -0.0062509177237694636
v -0.8248885824147496 1.4971980180596416 0.0197987640065043
v -0.8120902892871547 1.4360458262671263 0.007000470878909416
v -0.8564692960595076 1.4280266867864961 -0.01933120046739634
v -0.8746443489317769 1.4905262678684397 -0.0011561475951270383
v -0.8298735175879475 1.4971980180596416 0.024783699179702273
v -0.8615640661881503 1.4280266867864961 -0.014236430338753657
v -0.8170752244603529 1.4360458262671263 0.011985406052107638
f 33 34 35 36
f 37 40 39 38
f 33 37 38 34
f 34 38 39 35
f 35 39 40 36
f 37 33 36 40
