o Cut_1_Canopy
v -0.5420693617656068 1.2152930906715458 0.1191689003382217
v -0.5459775384521267 1.2292233573574096 0.16916890033822238
v -0.47061432651438173 1.2188115327590217 0.16916890033822238
v -0.4638747156978322 1.2044900885375174 0.1191689003382217
v -0.5420693617656068 1.2124332959399542 0.1191689003382217
v -0.5459775384521267 1.2264671160123362 0.16916890033822238
v -0.4638747156978322 1.201630293805926 0.1191689003382217
v -0.47061432651438173 1.2160552914139484 0.16916890033822238
f 1 2 3 4
f 5 8 7 6
f 1 5 6 2
f 2 6 7 3
f 3 7 8 4
f 5 1 4 8
o Cut_2_Spacing
v -0.28043752237427355 1.3048261754925257 0.11686378301278426
v -0.29379710594553987 1.3154966293813848 0.166863783012783
v -0.29379710594553987 1.2760949405788067 0.166863783012783
v -0.28043752237427355 1.263946704888639 0.11686378301278426
v -0.284734375658907 1.3048261754925257 0.11686378301278426
v -0.29793862914656116 1.3154966293813848 0.166863783012783
v -0.284734375658907 1.263946704888639 0.11686378301278426
v -0.29793862914656116 1.2760949405788067 0.166863783012783
f 9 10 11 12
f 13 16 15 14
f 9 13 14 10
f 10 14 15 11
f 11 15 16 12
f 13 9 12 16
o Cut_3_Canopy
v -0.6691321527626772 1.9864130969769869 0.0007786869565746444
v -0.668494083099572 1.973525970386165 0.05077868695657418
v -0.60376479225107 1.976045538483205 0.05077868695657418
v -0.6021696180933068 1.9890195934152803 0.0007786869565746444
v -0.6691321527626772 1.98330810809487 0.0007786869565746444
v -0.668494083099572 1.970524534890566 0.05077868695657418
v -0.6021696180933068 1.9859146045331633 0.0007786869565746444
v -0.60376479225107 1.973044102987606 0.05077868695657418
f 17 18 19 20
f 21 24 23 22
f 17 21 22 18
f 18 22 23 19
f 19 23 24 20
f 21 17 20 24
o Cut_4_Spacing
v -1.1334871796543513 2.0548599801719294 0.03223407427917735
v -1.1170170064754463 2.039365003343504 0.0822340742791782
v -1.0638697926634706 2.059084049776873 0.0822340742791782
v -1.0784656362070038 2.0752744533353256 0.03223407427917735
v -1.1334871796543513 2.0518201375274425 0.03223407427917735
v -1.1170170064754463 2.036428714085535 0.0822340742791782
v -1.0784656362070038 2.0722346106908387 0.03223407427917735
v -1.0638697926634706 2.056147760518904 0.0822340742791782
f 25 26 27 28
f 29 32 31 30
f 25 29 30 26
f 26 30 31 27
f 27 31 32 28
f 29 25 28 32
