o Cut_1_Vigor
v -0.582515641776929 1.3896802304059728 0.06310287543504016
v -0.5796443282929552 1.4039582104568504 0.11310287543504148
v -0.4369482401014104 1.3943133571346427 0.11310287543504148
v -0.4346751169265978 1.3796876637187514 0.06310287543504016
v -0.582515641776929 1.3867043191394348 0.06310287543504016
v -0.5796443282929552 1.4010858525768304 0.11310287543504148
v -0.4346751169265978 1.3767117524522132 0.06310287543504016
v -0.4369482401014104 1.3914409992546226 0.11310287543504148
f 1 2 3 4
f 5 8 7 6
f 1 5 6 2
f 2 6 7 3
f 3 7 8 4
f 5 1 4 8
o Cut_2_Spacing
v -0.2257328161812666 1.995646035876652 0.02415816645998239
v -0.235024705650237 1.9890177498560773 0.07415816645998166
v -0.1451832968363689 2.0076096596779864 0.07415816645998166
v -0.13274093840581627 2.014889908257962 0.02415816645998239
v -0.2257328161812666 1.9925894674800873 0.02415816645998239
v -0.235024705650237 1.9860647348460307 0.07415816645998166
v -0.13274093840581627 2.011833339861397 0.02415816645998239
v -0.1451832968363689 2.00465664466794 0.07415816645998166
f 9 10 11 12
f 13 16 15 14
f 9 13 14 10
f 10 14 15 11
f 11 15 16 12
f 13 9 12 16
o Cut_3_Canopy
v -0.39960727886849345 1.468024594207309 -0.0048200684208454594
v -0.3893138501595179 1.4783038705605276 0.04424331018629768
v -0.41930637680272254 1.4048510545362929 0.052843528808484724
v -0.4305581678968283 1.3922247129692313 0.004054956193162493
v -0.4039832190630935 1.4666195670457611 -0.003565287761687476
v -0.39355429387522045 1.4769423486172137 0.04545923785534526
v -0.43493410809142824 1.3908196858076836 0.005309736852320476
v -0.42354682051842507 1.403489532592979 0.05405945647753231
f 17 18 19 20
f 21 24 23 22
f 17 21 22 18
f 18 22 23 19
f 19 23 24 20
f 21 17 20 24
o Cut_4_Canopy
v -0.6276608825021129 1.5335631504704648 -0.0260736604993642
v -0.6111572655374922 1.5414084332685878 0.021208975280782784
v -0.5568242310610642 1.4525847372168006 0.005629228350392794
v -0.5716794647232608 1.4420446758398209 -0.04212607373568618
v -0.6318276953748857 1.5315589190954515 -0.02487884613477618
v -0.6152013858269699 1.539463216860752 0.02236860811324413
v -0.5758462775960336 1.4400404444648076 -0.04093125937109816
v -0.5608683513505419 1.4506395208089649 0.006788861182854143
f 25 26 27 28
f 29 32 31 30
f 25 29 30 26
f 26 30 31 27
f 27 31 32 28
f 29 25 28 32
o Cut_5_Canopy
v -0.7174463492037227 2.261098125160452 -0.032395017126433084
v -0.7418322921994062 2.236408494061006 0.008948310995665914
v -0.6920712871844948 2.1679655309660064 0.042125457511971956
v -0.6658806106462068 2.1901728707368147 0.0019853990816314417
v -0.7193293043757369 2.2592991013439057 -0.03482644274360727
v -0.7436493463981537 2.234672433729838 0.0066019821014402
v -0.667763565818221 2.188373846920269 -0.00044602653554274494
v -0.6938883413832424 2.166229470634838 0.03977912861774624
f 33 34 35 36
f 37 40 39 38
f 33 37 38 34
f 34 38 39 35
f 35 39 40 36
f 37 33 36 40
o Cut_6_Vigor
v -0.6143703145078084 1.526204342039338 0.574425070330936
v -0.5947853651707379 1.5198071932066464 0.6205506322092103
v -0.6974876144210558 1.3100365524277737 0.5988899076083744
v -0.7205239680266348 1.3093841644657325 0.5520364170051499
v -0.6183258122448076 1.5243579225868575 0.5752608804745651
v -0.5986122566721436 1.518020806920887 0.6213592674172459
v -0.7244794657636339 1.307537745013252 0.5528722271487794
v -0.7013145059224615 1.308250166142014 0.5996985428164103
f 41 42 43 44
f 45 48 47 46
f 41 45 46 42
f 42 46 47 43
f 43 47 48 44
f 45 41 44 48
o Cut_7_Spacing
v -0.2563621016266767 2.1868792770930425 0.0037496743100570973
v -0.2505827693636393 2.1666002403213835 0.05079955139051526
v -0.15820598783794873 2.1362398071374273 0.011590646227089638
v -0.1617475964543707 2.1557833965581916 -0.03640902248707788
v -0.2585444006472015 2.1827330687611366 0.003372786420207082
v -0.2527134549226413 2.1625520937867804 0.050431577260153855
v -0.1639298954748955 2.1516371882262857 -0.03678591037692789
v -0.16033667339695065 2.132191660602824 0.011222672096728238
f 49 50 51 52
f 53 56 55 54
f 49 53 54 50
f 50 54 55 51
f 51 55 56 52
f 53 49 52 56
o Cut_8_Canopy
v -0.5328237413511822 2.1117645317907288 -0.0191059545628665
v -0.5503465963431979 2.0930330323117103 0.024855357270153432
v -0.4965132011665604 2.04853911613418 0.042566707966265764
v -0.47740583409390847 2.065960998274987 -0.0008732945744405167
v -0.5352234367878006 2.1090656746916503 -0.021150062154028242
v -0.5526776795460213 2.090411341094367 0.02286969492408692
v -0.4798055295305269 2.0632621411759087 -0.002917402165602451
v -0.4988442843693838 2.045917424916836 0.04058104562019906
f 57 58 59 60
f 61 64 63 62
f 57 61 62 58
f 58 62 63 59
f 59 63 64 60
f 61 57 60 64
