o Cut_1_Spacing
v -0.6047805059156425 2.051989314636084 0.008016594126493201
v -0.6063712339257005 2.0360892680389857 0.060501475753809736
v -0.5776680983505035 1.9960466379751474 0.060501475753809736
v -0.575030838754881 2.010486708988007 0.008016594126493201
v -0.6084329974250041 2.0500869753552586 0.008016594126493201
v -0.6098952383595632 2.03425384910833 0.060501475753809736
v -0.5786833302642427 2.0085843697071817 0.008016594126493201
v -0.5811921027843662 1.994211219044492 0.060501475753809736
f 1 2 3 4
f 5 8 7 6
f 1 5 6 2
f 2 6 7 3
f 3 7 8 4
f 5 1 4 8
o Cut_2_Spacing
v -0.2826594140682701 1.303949628727844 0.1127564283781492
v -0.29589935957770414 1.3146200826167034 0.16275642837814763
v -0.3086981779062209 1.2553354561949188 0.16275642837814763
v -0.2959367846441158 1.242448329604097 0.1127564283781492
v -0.28696902726768003 1.303949628727844 0.1127564283781492
v -0.3000536426935019 1.3146200826167034 0.16275642837814763
v -0.3002463978435257 1.242448329604097 0.1127564283781492
v -0.31285246102201864 1.2553354561949188 0.16275642837814763
f 9 10 11 12
f 13 16 15 14
f 9 13 14 10
f 10 14 15 11
f 11 15 16 12
f 13 9 12 16
o Cut_3_Spacing
v -0.2593587581302812 1.3319532479162541 0.12034141028868585
v -0.2735159287804298 1.3416674900513261 0.17034141028868696
v -0.22791363282989016 1.2861866825455708 0.17034141028868696
v -0.2120416499601461 1.274386160220416 0.12034141028868585
v -0.2625511593840417 1.3300466749923299 0.12034141028868585
v -0.27659263469921513 1.3398300129507503 0.17034141028868696
v -0.21523405121390665 1.2724795872964918 0.12034141028868585
v -0.23099033874867553 1.284349205444995 0.17034141028868696
f 17 18 19 20
f 21 24 23 22
f 17 21 22 18
f 18 22 23 19
f 19 23 24 20
f 21 17 20 24
