o Cut_1_Canopy
v -0.8346238298174931 2.149354200813064 0.0873899019842002
v -0.8227796616961014 2.136988644269762 0.13738990198420037
v -0.6760616336524188 2.0990848248791387 0.13738990198420037
v -0.6825220889913597 2.110059527962385 0.0873899019842002
v -0.8356360005382119 2.146507470731325 0.0873899019842002
v -0.823756006157255 2.134242675540563 0.13738990198420037
v -0.6835342597120787 2.1072127978806465 0.0873899019842002
v -0.6770379781135726 2.096338856149939 0.13738990198420037
f 1 2 3 4
f 5 8 7 6
f 1 5 6 2
f 2 6 7 3
f 3 7 8 4
f 5 1 4 8
o Cut_2_Vigor
v -0.528600354406612 1.3928250973826928 0.005891751305878177
v -0.5276432499119541 1.4064511148741692 0.05589175130587718
v -0.4735085521677105 1.4039404361811814 0.05589175130587718
v -0.4725913270269967 1.3902274903484517 0.005891751305878177
v -0.528600354406612 1.389730698003153 0.005891751305878177
v -0.5276432499119541 1.4034602688811475 0.05589175130587718
v -0.4725913270269967 1.387133090968912 0.005891751305878177
v -0.4735085521677105 1.40094959018816 0.05589175130587718
f 9 10 11 12
f 13 16 15 14
f 9 13 14 10
f 10 14 15 11
f 11 15 16 12
f 13 9 12 16
o Cut_3_Canopy
v -0.6483337576357475 2.055779073561851 0.051678106013247085
v -0.6406592228378131 2.047151435692447 0.1013445179873539
v -0.5733498162863869 2.014778955450615 0.09781698146513419
v -0.5786746937444676 2.0222765248837242 0.048027429167769524
v -0.6501882131513862 2.0529697652275076 0.051775293908600764
v -0.6424511260484057 2.0444368876316266 0.1014384276553111
v -0.5805291492601062 2.0194672165493808 0.04812461706312337
v -0.5751417194969796 2.012064407389795 0.09791089113309154
f 17 18 19 20
f 21 24 23 22
f 17 21 22 18
f 18 22 23 19
f 19 23 24 20
f 21 17 20 24
o Cut_4_Canopy
v -0.5228587314928688 2.050114225191797 0.004160906305744626
v -0.5139438454971269 2.0544243406511558 0.05408490711738569
v -0.5448144433710201 2.060982792917602 0.05568666388448818
v -0.5553157649935833 2.0570097153858793 0.005844977124917541
v -0.5228587314928688 2.0480678066892426 0.004709242490880095
v -0.5139438454971269 2.052477947039039 0.054606441713905295
v -0.5553157649935833 2.054963296883325 0.0063933133100530105
v -0.5448144433710201 2.0590363993054854 0.056208198481008
f 25 26 27 28
f 29 32 31 30
f 25 29 30 26
f 26 30 31 27
f 27 31 32 28
f 29 25 28 32
o Cut_5_Spacing
v -0.20382137634701236 2.0100442724830043 0.03884988736788681
v -0.21088982929149339 2.0166784247785428 0.08989034204402681
v -0.19489448971583545 1.9685260782664349 0.10105224093559713
v -0.1869534971766028 1.959265234070216 0.05062066353208037
v -0.20663582497564992 2.0094741939992753 0.03930888497156718
v -0.21355869246501405 2.0161378352450336 0.09032559667569148
v -0.18976794580524037 1.9586951555864869 0.05107966113576075
v -0.19756335288935611 1.9679854887329256 0.1014874955672618
f 33 34 35 36
f 37 40 39 38
f 33 37 38 34
f 34 38 39 35
f 35 39 40 36
f 37 33 36 40
o Cut_6_Spacing
v -0.4254655301249365 1.9830879606904301 0.050947422614235814
v -0.4206238099937371 1.9919290719628926 0.10646454862821207
v -0.43830879861942457 1.9619893401121322 0.11641121301168322
v -0.44421876365376317 1.9513397478376253 0.061494905791304955
v -0.4280575466971539 1.9821256561855678 0.051487313606351275
v -0.42306817690927706 1.9910215834384855 0.1069736856812966
v -0.4468107802259806 1.950377443332763 0.0620347967834203
v -0.4407531655349645 1.961081851587725 0.11692035006476766
f 41 42 43 44
f 45 48 47 46
f 41 45 46 42
f 42 46 47 43
f 43 47 48 44
f 45 41 44 48
o Cut_7_Canopy
v -0.39482080599318453 1.4443054231095365 0.002194404233317955
v -0.40083027230385965 1.4642897425849901 0.04993540454439206
v -0.42590179365107106 1.447900188302275 0.05106569697412837
v -0.420888703853375 1.4272645255469567 0.0033696160285044325
v -0.39482080599318453 1.4416163813594731 0.0025245770438490018
v -0.40083027230385965 1.4617034823502049 0.05025295737170091
v -0.420888703853375 1.4245754837968934 0.00369978883903548
v -0.42590179365107106 1.4453139280674898 0.05138324980143721
f 49 50 51 52
f 53 56 55 54
f 49 53 54 50
f 50 54 55 51
f 51 55 56 52
f 53 49 52 56
o Cut_8_Vigor
v -0.5964562387373328 1.5904314239313657 -0.06684315773636261
v -0.5948135334283291 1.604365541762927 -0.018090059578357326
v -0.5325544263295858 1.561949572872665 -0.01069157015379672
v -0.5318058280074398 1.5463863044613317 -0.059160500493623765
v -0.5987017930186114 1.5880743149793135 -0.06663274652622597
v -0.5969760286532747 1.6020956180759398 -0.017887431104403707
v -0.5340513822887183 1.5440291955092793 -0.05895008928348713
v -0.5347169215545313 1.559679649185678 -0.010488941679843098
f 57 58 59 60
f 61 64 63 62
f 57 61 62 58
f 58 62 63 59
f 59 63 64 60
f 61 57 60 64
o Cut_9_Canopy
v -0.21302045934668093 2.2247073793408596 -0.004215081821041766
v -0.220273832316869 2.2146352553807875 0.04803113685569954
v -0.22504200802159238 2.1826178364348006 0.052298308859025436
v -0.21798754610061533 2.191354309447852 0.00023010116864618545
v -0.21688981992799578 2.224740353778902 -0.003946526574359292
v -0.22398824119084845 2.214666909330505 0.04828893758800869
v -0.22185690668193017 2.191387283885894 0.0004986564153289365
v -0.22875641689557186 2.1826494903845175 0.05255610959133485
f 65 66 67 68
f 69 72 71 70
f 65 69 70 66
f 66 70 71 67
f 67 71 72 68
f 69 65 68 72
