o Cut_1_Spacing
v -0.36400728350311007 2.0864410905216753 -0.045595084246401116
v -0.35738094827148786 2.0819943360491573 0.007404925107137563
v -0.36956028349797393 1.9837899754896275 0.02298290392009264
v -0.3766605137393505 1.9844156218688174 -0.02941097001765891
v -0.36811431115062304 2.086340859909009 -0.04616352029778177
v -0.36133415749708475 2.0818978593227544 0.006857778402673412
v -0.3807675413868635 1.9843153912561518 -0.02997940606903957
v -0.37351349272357076 1.9836934987632249 0.022435757215628488
f 1 2 3 4
f 5 8 7 6
f 1 5 6 2
f 2 6 7 3
f 3 7 8 4
f 5 1 4 8
o Cut_2_Canopy
v 0.44190227099755336 1.9539569902609502 0.38810833003214323
v -0.39682228615300014 2.0278927492598378 -0.25809509087972077
v -0.3922802303754856 1.9238531172410336 -0.24375935518693592
v 0.44398633808240245 1.9062196697102873 0.39468610810398763
v 0.4398729106736815 1.954263322319322 0.3898456254655534
v -0.40124511296635507 2.028560375223359 -0.254308795890497
v 0.4419569777585306 1.9065260017686594 0.3964234035373978
v -0.3967030571888405 1.924520743204555 -0.23997306019771214
f 9 10 11 12
f 13 16 15 14
f 9 13 14 10
f 10 14 15 11
f 11 15 16 12
f 13 9 12 16
o Cut_3_Spacing
v 1.027595699472234 1.4446443548526293 0.0711774778386184
v 0.9820323635973948 1.458615449972651 0.10423111185168375
v 0.9755859742171547 1.398006971461108 0.11213947962547513
v 1.0209657643977035 1.3823101932319677 0.07931101768442166
v 1.0224309800491744 1.4442636671113322 0.06901849037244787
v 0.9770106262701876 1.4582453013384489 0.10213189463197683
v 1.0158010449746435 1.3819295054906704 0.07715203021825114
v 0.9705642368899472 1.397636822826906 0.11004026240576822
f 17 18 19 20
f 21 24 23 22
f 17 21 22 18
f 18 22 23 19
f 19 23 24 20
f 21 17 20 24
o Cut_4_Canopy
v 0.19881026493394155 1.3193442147869319 0.014315814662381706
v 0.17251922695959196 1.339615496228491 0.05456535997272679
v 0.21447406685736067 1.350432243829265 0.07074157751043933
v 0.24216005210831704 1.3305206060580004 0.031029871711698034
v 0.19881026493394155 1.3161750491260957 0.014874624074721864
v 0.17251922695959196 1.3365483107455485 0.055106187528206826
v 0.24216005210831704 1.3273514403971645 0.03158868112403819
v 0.21447406685736067 1.3473650583463228 0.07128240506591936
f 25 26 27 28
f 29 32 31 30
f 25 29 30 26
f 26 30 31 27
f 27 31 32 28
f 29 25 28 32
