o Cut_1_Vigor
v 0.1621808434604139 1.5994597040143874 0.0009949461759369371
v 0.16062554865659476 1.6094781953438464 0.050994946175937916
v 0.24612311727486924 1.6043954820511417 0.050994946175937916
v 0.2498717765456128 1.5942465982098024 0.0009949461759369371
v 0.1621808434604139 1.5953196291545795 0.0009949461759369371
v 0.16062554865659476 1.6054416738705566 0.050994946175937916
v 0.2498717765456128 1.5901065233499947 0.0009949461759369371
v 0.24612311727486924 1.6003589605778519 0.050994946175937916
f 1 2 3 4
f 5 8 7 6
f 1 5 6 2
f 2 6 7 3
f 3 7 8 4
f 5 1 4 8
o Cut_2_Vigor
v -0.42668606496333705 1.833089538319226 -0.03184398354588436
v -0.4137252749315123 1.8371969024434507 0.01815601645411136
v -0.35365893509336627 1.787236163510753 0.01815601645411136
v -0.3651043096753161 1.7818683384383536 -0.03184398354588436
v -0.4305154657722665 1.8297443147066599 -0.03184398354588436
v -0.41746044112302183 1.8339339987245293 0.01815601645411136
v -0.3689337104842456 1.7785231148257874 -0.03184398354588436
v -0.35739410128487586 1.7839732597918316 0.01815601645411136
f 9 10 11 12
f 13 16 15 14
f 9 13 14 10
f 10 14 15 11
f 11 15 16 12
f 13 9 12 16
o Cut_3_Vigor
v 1.028999589341006 2.557876001536881 0.30520241877294046
v 0.9817724874467335 2.5467709059417545 0.32868599499732143
v 1.0359202878292313 2.4526107499283016 0.3828337953798192
v 1.0842471492260284 2.4618034220158527 0.36044997865796297
v 1.0248704556637385 2.554425401666884 0.30107328509567277
v 0.977725548422193 2.543388993811168 0.32463905597278087
v 1.0801180155487609 2.4583528221458555 0.35632084498069516
v 1.0318733488046907 2.449228837797715 0.37878685635527853
f 17 18 19 20
f 21 24 23 22
f 17 21 22 18
f 18 22 23 19
f 19 23 24 20
f 21 17 20 24
o Cut_4_Canopy
v -0.20259938058720256 1.7757789590673856 0.5936320972442573
v 1.1570688100888158 1.5085642331449907 -0.46856253348283605
v 1.1712788080204695 1.4455947476983875 -0.45435253555118227
v -0.19611596862824812 1.7470486864130674 0.6001155092032117
v -0.20575599178471837 1.7757789590673856 0.5904754860467415
v 1.150150317345842 1.5085642331449907 -0.47548102622580973
v -0.19927257982576396 1.7470486864130674 0.5969588980056959
v 1.1643603152774957 1.4455947476983875 -0.46127102829415595
f 25 26 27 28
f 29 32 31 30
f 25 29 30 26
f 26 30 31 27
f 27 31 32 28
f 29 25 28 32
o Cut_5_Canopy
v -0.673914325351803 2.280894136817723 0.15878645670065542
v -0.6528979058232743 2.273266174872734 0.20878645670065252
v -0.6128957400489826 2.2810515359802195 0.20878645670065252
v -0.6327955376670771 2.288896818778342 0.15878645670065542
v -0.673914325351803 2.277080858863488 0.15878645670065542
v -0.6528979058232743 2.2695564503050174 0.20878645670065252
v -0.6327955376670771 2.2850835408241066 0.15878645670065542
v -0.6128957400489826 2.277341811412503 0.20878645670065252
f 33 34 35 36
f 37 40 39 38
f 33 37 38 34
f 34 38 39 35
f 35 39 40 36
f 37 33 36 40
o Cut_6_Spacing
v 0.22464979291565285 2.2639131795214005 0.02097587515511249
v 0.2188868437501418 2.2572848935008256 0.07074246908712456
v 0.33173343038413583 2.270781805946771 0.07665650809228335
v 0.3404035826989577 2.2777578053323597 0.027042274221251307
v 0.22464979291565285 2.2597900768970747 0.02097587515511249
v 0.2188868437501418 2.253265344263018 0.07074246908712456
v 0.3404035826989577 2.273634702708033 0.027042274221251307
v 0.33173343038413583 2.266762256708963 0.07665650809228335
f 41 42 43 44
f 45 48 47 46
f 41 45 46 42
f 42 46 47 43
f 43 47 48 44
f 45 41 44 48
