o Cut_1_Canopy
v -0.3562388484111776 2.1107569947257923 0.001727332313938783
v -0.34575057832388445 2.1016077868088674 0.05172733231393969
v -0.2576696325151383 2.084413993736628 0.05172733231393969
v -0.265485985888178 2.0930416316060323 0.001727332313938783
v -0.3562388484111776 2.1072397570063894 0.001727332313938783
v -0.34575057832388445 2.098194102475983 0.05172733231393969
v -0.265485985888178 2.0895243938866295 0.001727332313938783
v -0.2576696325151383 2.081000309403744 0.05172733231393969
f 1 2 3 4
f 5 8 7 6
f 1 5 6 2
f 2 6 7 3
f 3 7 8 4
f 5 1 4 8
o Cut_2_Canopy
v -0.54129635184717 1.666188306671233 -0.000920810643238916
v -0.5253844896234816 1.6701218141129515 0.04907918935676332
v -0.44901280942758703 1.6701218141129515 0.04907918935676332
v -0.4626116691225187 1.666188306671233 -0.000920810643238916
v -0.54129635184717 1.6626655844684068 -0.000920810643238916
v -0.5253844896234816 1.6667026452966434 0.04907918935676332
v -0.4626116691225187 1.6626655844684068 -0.000920810643238916
v -0.44901280942758703 1.6667026452966434 0.04907918935676332
f 9 10 11 12
f 13 16 15 14
f 9 13 14 10
f 10 14 15 11
f 11 15 16 12
f 13 9 12 16
o Cut_3_Canopy
v -0.46686009414009955 2.292297182223537 0.04649549851809039
v -0.45274280284389534 2.2774107037838855 0.09649549851809035
v -0.4156537031758927 2.2815924033790727 0.09649549851809035
v -0.42861449320771855 2.296609274330604 0.04649549851809039
v -0.46686009414009955 2.2888726624085076 0.04649549851809039
v -0.45274280284389534 2.274089737355374 0.09649549851809035
v -0.42861449320771855 2.2931847545155746 0.04649549851809039
v -0.4156537031758927 2.2782714369505612 0.09649549851809035
f 17 18 19 20
f 21 24 23 22
f 17 21 22 18
f 18 22 23 19
f 19 23 24 20
f 21 17 20 24
o Cut_4_Canopy
v -0.7966230822690132 1.5049191894799465 -0.0015184987894378947
v -0.7732139015038395 1.5135902915199766 0.04848150121055986
v -0.7231591685274411 1.4547291484238314 0.04848150121055986
v -0.7450529338427399 1.4442760153881058 -0.0015184987894378947
v -0.8004999509678574 1.5025237259528106 -0.0015184987894378947
v -0.776976846413386 1.5112652199259533 0.04848150121055986
v -0.748929802541584 1.44188055186097 -0.0015184987894378947
v -0.7269221134369875 1.4524040768298083 0.04848150121055986
f 25 26 27 28
f 29 32 31 30
f 25 29 30 26
f 26 30 31 27
f 27 31 32 28
f 29 25 28 32
o Cut_5_Canopy
v -0.22474846294383605 1.4746059151252462 0.03263025817488582
v -0.21800885212728638 1.4843636214309448 0.08263025817488735
v -0.15737917135815935 1.4717100472344125 0.08263025817488735
v -0.1622444525393372 1.4615611633930732 0.03263025817488582
v -0.22474846294383605 1.4711526794583683 0.03263025817488582
v -0.21800885212728638 1.481013939150585 0.08263025817488735
v -0.1622444525393372 1.4581079277261952 0.03263025817488582
v -0.15737917135815935 1.4683603649540526 0.08263025817488735
f 33 34 35 36
f 37 40 39 38
f 33 37 38 34
f 34 38 39 35
f 35 39 40 36
f 37 33 36 40
o Cut_6_Canopy
v 0.7034019476848246 1.6221097712309573 0.2562863900940773
v 0.6561466468289511 1.6265213845495692 0.27974176735685385
v 0.6716708622301376 1.5479005341976495 0.29526598275804034
v 0.7193209485484557 1.5414895690302088 0.27220539095770846
v 0.6989730542302642 1.6221097712309573 0.251857496639517
v 0.6518275883298353 1.6265213845495692 0.27542270885773806
v 0.7148920550938956 1.5414895690302088 0.2677764975031483
v 0.667351803731022 1.5479005341976495 0.2909469242589246
f 41 42 43 44
f 45 48 47 46
f 41 45 46 42
f 42 46 47 43
f 43 47 48 44
f 45 41 44 48
o Cut_7_Spacing
v 0.6403253390354144 1.5544757342735338 0.11821179320170015
v 0.5552000588528123 1.5658197659775783 0.16829015347464563
v 0.5841396673459105 1.5126359765658925 0.19722976196774386
v 0.6706668243248989 1.4987156446213694 0.14855327849118463
v 0.636842701272027 1.551721862674789 0.11472915543831279
v 0.5518783304524351 1.563193132338929 0.16496842507426837
v 0.6671841865615115 1.4959617730226245 0.14507064072779727
v 0.5808179389455332 1.5100093429272434 0.19390803356736658
f 49 50 51 52
f 53 56 55 54
f 49 53 54 50
f 50 54 55 51
f 51 55 56 52
f 53 49 52 56
o Cut_8_Spacing
v -0.207240620197856 1.5968759254666605 -0.008793696607389228
v -0.23537803485177367 1.6033303548047282 0.032866573600838986
v -0.20372899921908344 1.6178984766710445 0.05942326772734607
v -0.17455290641070856 1.6119221532098709 0.018634551975434822
v -0.207240620197856 1.5936170493213695 -0.008793696607389228
v -0.23537803485177367 1.6001750320459553 0.032866573600838986
v -0.17455290641070856 1.60866327706458 0.018634551975434822
v -0.20372899921908344 1.6147431539122719 0.05942326772734607
f 57 58 59 60
f 61 64 63 62
f 57 61 62 58
f 58 62 63 59
f 59 63 64 60
f 61 57 60 64
o Cut_9_Spacing
v 0.01999210849831483 1.431136357406581 0.0854048820324546
v 0.005818500310059292 1.4425022380254677 0.13337088418507909
v 0.03005066014850863 1.4137930487273216 0.1398638718446535
v 0.04499467829497033 1.4015144205252739 0.09210430041817122
v 0.016466099538802036 1.428818647566853 0.0844600907792481
v 0.0024011390790490378 1.440255944314373 0.13245520500298433
v 0.041468669335457536 1.399196710685546 0.09115950916496472
v 0.026633298917498376 1.411546755016227 0.13894819266255873
f 65 66 67 68
f 69 72 71 70
f 65 69 70 66
f 66 70 71 67
f 67 71 72 68
f 69 65 68 72
