o Cut_1_Spacing
v 0.5047051743223131 2.026278723229389 0.025184758223918233
v 0.5045456569065367 2.0186072971137734 0.07518475822391878
v 0.5840946527709272 2.016130160602569 0.07518475822391878
v 0.5870457249627892 2.023714658376931 0.025184758223918233
v 0.5047051743223131 2.0232242809738987 0.025184758223918233
v 0.5045456569065367 2.0156564082448014 0.07518475822391878
v 0.5870457249627892 2.020660216121441 0.025184758223918233
v 0.5840946527709272 2.013179271733597 0.07518475822391878
f 1 2 3 4
f 5 8 7 6
f 1 5 6 2
f 2 6 7 3
f 3 7 8 4
f 5 1 4 8
o Cut_2_Spacing
v 0.9292630845787667 1.9440040327196975 0.0008296520741271861
v 0.914946396512842 1.939201241865445 0.050829652074127415
v 0.9704266946538346 1.939201241865445 0.050829652074127415
v 0.9866575917090751 1.9440040327196975 0.0008296520741271861
v 0.9292630845787667 1.9408991493897907 0.0008296520741271861
v 0.914946396512842 1.9361999119220563 0.050829652074127415
v 0.9866575917090751 1.9408991493897907 0.0008296520741271861
v 0.9704266946538346 1.9361999119220563 0.050829652074127415
f 9 10 11 12
f 13 16 15 14
f 9 13 14 10
f 10 14 15 11
f 11 15 16 12
f 13 9 12 16
o Cut_3_Spacing
v 0.19580321830644343 1.4716962100111821 0.0101706008619231
v 0.20601233291612753 1.4827143772650553 0.0601706008619218
v 0.25768985252071447 1.481462757451505 0.0601706008619218
v 0.2492753088385139 1.4704011260270051 0.0101706008619231
v 0.19580321830644343 1.4686106724188808 0.0101706008619231
v 0.20601233291612753 1.479732393059272 0.0601706008619218
v 0.2492753088385139 1.467315588434704 0.0101706008619231
v 0.25768985252071447 1.4784807732457221 0.0601706008619218
f 17 18 19 20
f 21 24 23 22
f 17 21 22 18
f 18 22 23 19
f 19 23 24 20
f 21 17 20 24
