o Cut_1_Canopy
v -0.800836541254146 1.5485643172202443 -0.010308209356039873
v -0.7839617546846693 1.5564965283596206 0.042987750559762825
v -0.6884391790722831 1.5524937315655323 0.05811704023648865
v -0.7022022841809983 1.544431127914276 0.005313922247316922
v -0.800836541254146 1.545281876046421 -0.010308209356039873
v -0.7839617546846693 1.5533176405723155 0.042987750559762825
v -0.7022022841809983 1.5411486867404525 0.005313922247316922
v -0.6884391790722831 1.549314843778227 0.05811704023648865
f 1 2 3 4
f 5 8 7 6
f 1 5 6 2
f 2 6 7 3
f 3 7 8 4
f 5 1 4 8
o Cut_2_Spacing
v -0.007015729206484775 1.3933195176479467 0.06100499526771911
v -0.014916229204338154 1.4057285383618747 0.11037693528667371
v 0.11273530717037716 1.469253887697615 0.1305949524319503
v 0.12465342120617591 1.4588442188325157 0.08185933996383567
v -0.004948698202389986 1.3964132171971892 0.06133238081643617
v -0.012912269411327303 1.4087278400153362 0.11069433133692265
v 0.12672045221027073 1.4619379183817582 0.08218672551255272
v 0.11473926696338806 1.4722531893510764 0.1309123484821992
f 9 10 11 12
f 13 16 15 14
f 9 13 14 10
f 10 14 15 11
f 11 15 16 12
f 13 9 12 16
o Cut_3_Canopy
v -0.3468643985358425 2.1412019574345953 -3.534718359786582e-06
v -0.34440575645546406 2.1308357527401225 0.05100913222090062
v -0.2325262081939503 2.0822854326315094 0.06872911185606263
v -0.23147928508435658 2.0911303913540467 0.018271671897437138
v -0.3487124739209045 2.138029977378222 -0.00029624110390022413
v -0.3461976846604911 2.1277601419859606 0.05072531867504582
v -0.23332736046941865 2.0879584112976737 0.017978965511896334
v -0.2343181363989774 2.0792098218773476 0.06844529831020747
f 17 18 19 20
f 21 24 23 22
f 17 21 22 18
f 18 22 23 19
f 19 23 24 20
f 21 17 20 24
o Cut_4_Canopy
v 0.6657210835077457 2.2439738143816697 0.033741486580099074
v 0.6216522653130298 2.233987237976373 0.060561721146012326
v 0.620485285999327 2.167424693291607 0.06055641760789316
v 0.6645259052324397 2.175802848176712 0.03373605488695091
v 0.6610658641254281 2.2438925696009546 0.029086976210241488
v 0.6171068808861566 2.233907910079942 0.05601702900320349
v 0.6598706858501221 2.1757216033959974 0.029081544517093327
v 0.6159399015724538 2.167345365395175 0.056011725465084324
f 25 26 27 28
f 29 32 31 30
f 25 29 30 26
f 26 30 31 27
f 27 31 32 28
f 29 25 28 32
o Cut_5_Spacing
v -0.4953012607947379 2.3938156054737854 0.028306245671891692
v -0.4801072269420437 2.3765012407762205 0.0786160854340735
v -0.3830776823894523 2.2611533423129853 0.08062949049108302
v -0.3952010059884523 2.2748172727414175 0.030383369296085122
v -0.4990338502849915 2.3915349260308294 0.028346055079649105
v -0.48372531421806486 2.374290524249587 0.07865467363458394
v -0.39893359547870594 2.2725365932984616 0.03042317870384217
v -0.3866957696654734 2.258942625786352 0.08066807869159309
f 33 34 35 36
f 37 40 39 38
f 33 37 38 34
f 34 38 39 35
f 35 39 40 36
f 37 33 36 40
