o Cut_1_Spacing
v -0.6118391115214329 2.063352292796567 0.004830636640411951
v -0.6131152508476434 2.047857315968142 0.05483063664041056
v -0.5900622826274206 2.0001193692450303 0.05483063664041056
v -0.5879885562223285 2.01396270758964 0.004830636640411951
v -0.6159494643183141 2.061910063780637 0.004830636640411951
v -0.6170881492230521 2.046463316572591 0.05483063664041056
v -0.5920989090192097 2.01252047857371 0.004830636640411951
v -0.5940351810028293 1.9987253698494787 0.05483063664041056
f 1 2 3 4
f 5 8 7 6
f 1 5 6 2
f 2 6 7 3
f 3 7 8 4
f 5 1 4 8
o Cut_2_Spacing
v -0.2026445636615238 1.3357147367082491 0.11343205768336338
v -0.18180882715909438 1.3442989104070258 0.16089758923849456
v -0.21504318494787072 1.2925113479578159 0.1878102415293357
v -0.23699463628937367 1.2821886074339703 0.141248198036485
v -0.20540700671151 1.333581976749022 0.11566903995785249
v -0.1844815440901184 1.3422354240112195 0.16306191273448756
v -0.23975707933935986 1.280055847474743 0.1434851803109743
v -0.21771590187889475 1.2904478615620094 0.1899745650253289
f 9 10 11 12
f 13 16 15 14
f 9 13 14 10
f 10 14 15 11
f 11 15 16 12
f 13 9 12 16
o Cut_3_Spacing
v -0.4622319596018694 1.3356438756895384 0.10581065990061979
v -0.4768914085583809 1.345575438677743 0.15424178733392394
v -0.455646169747801 1.282108480273504 0.15722761092981444
v -0.4401574045242193 1.2696994595595763 0.1089130362969166
v -0.46607382193711666 1.33469098695476 0.10527072136121247
v -0.48058893643618356 1.3446583489036088 0.15372213367964221
v -0.44399926685946656 1.2687465708247978 0.10837309775750928
v -0.4593436976256036 1.2811913904993697 0.15670795727553272
f 17 18 19 20
f 21 24 23 22
f 17 21 22 18
f 18 22 23 19
f 19 23 24 20
f 21 17 20 24
