o Cut_1_Vigor
v -0.5581921574041094 1.4842413403333146 0.21572744992533335
v -0.5218780536502734 1.4933036199089853 0.25012402429015196
v -0.5333301648421342 1.3197296494018402 0.2615761354820128
v -0.5699826561352086 1.3055385976922165 0.22751794865643254
v -0.5620191567839121 1.4842413403333146 0.219554449305136
v -0.5255952180746316 1.4933036199089853 0.25384118871451017
v -0.5738096555150113 1.3055385976922165 0.2313449480362352
v -0.5370473292664925 1.3197296494018402 0.265293299906371
f 1 2 3 4
f 5 8 7 6
f 1 5 6 2
f 2 6 7 3
f 3 7 8 4
f 5 1 4 8
o Cut_2_Vigor
v -0.6983947621666535 2.2876129824336435 0.09575491896798757
v -0.6869902787208494 2.2722466294072254 0.145952541579615
v -0.7799488566390742 2.2257762221013158 0.15489717008208867
v -0.7949735211805187 2.2393328304672298 0.10504788729812797
v -0.7001270577981745 2.285114444782793 0.09600716192621722
v -0.6886576405722998 2.269841747533926 0.1461953294030074
v -0.7967058168120398 2.2368342928163787 0.10530013025635793
v -0.7816162184905248 2.2233713402280157 0.15513995790548135
f 9 10 11 12
f 13 16 15 14
f 9 13 14 10
f 10 14 15 11
f 11 15 16 12
f 13 9 12 16
o Cut_3_Vigor
v -0.8250506862283908 2.156720985582638 0.09701667506629365
v -0.8090712486507331 2.146372823779033 0.14663095443279442
v -0.7088712684694175 2.096415966946659 0.14223280161955146
v -0.7209918316923817 2.104840203881988 0.0924491417894185
v -0.8267767832177221 2.154187753541155 0.09727030223435829
v -0.810733335792603 2.1439335330383935 0.146875176198706
v -0.7227179286817129 2.1023069718405054 0.09270276895748328
v -0.7105333556112875 2.0939766762060192 0.14247702338546317
f 17 18 19 20
f 21 24 23 22
f 17 21 22 18
f 18 22 23 19
f 19 23 24 20
f 21 17 20 24
o Cut_4_Spacing
v -0.1384714380840107 1.9955790040003054 0.014402578556803419
v -0.1369325532103362 1.9915171160826826 0.06603739112255738
v -0.2330541903828255 2.001196537654629 0.09132117494123353
v -0.2380984405663381 2.005611414863692 0.04060841178398464
v -0.1384714380840107 1.9926399166619646 0.014556609597324879
v -0.1369325532103362 1.9886814402145425 0.06618600259757322
v -0.2380984405663381 2.0026723275253513 0.040762442824505786
v -0.2330541903828255 1.9983608617864888 0.09146978641624906
f 25 26 27 28
f 29 32 31 30
f 25 29 30 26
f 26 30 31 27
f 27 31 32 28
f 29 25 28 32
o Cut_5_Canopy
v -0.5275836595206346 2.0812738697459894 -0.020763312683169645
v -0.5332021414994462 2.0735222164502054 0.029396748555398235
v -0.5198422201191685 2.0476886427789895 0.0323932720483328
v -0.5137091708496241 2.0544452968052744 -0.017651375863203627
v -0.5317406697801412 2.0812471566009916 -0.0212730298542322
v -0.5372049794822294 2.0734964940235665 0.028905935416763312
v -0.5178661811091307 2.0544185836602766 -0.018161093034266336
v -0.5238450581019518 2.0476629203523506 0.03190245890969773
f 33 34 35 36
f 37 40 39 38
f 33 37 38 34
f 34 38 39 35
f 35 39 40 36
f 37 33 36 40
o Cut_6_Vigor
v -0.6829982032150639 2.0480034432450003 0.08967262749986074
v -0.6828376986979534 2.040809781244299 0.14051398974914794
v -0.647596294865799 1.9678146669933378 0.1486725401594581
v -0.6462526796099982 1.97189286301562 0.0981793886979388
v -0.686329164248263 2.0468028502551587 0.08932599604783859
v -0.6860323121203066 2.0396583326257463 0.1401815471062581
v -0.6495836406431973 1.9706922700257792 0.09783275724591692
v -0.6507909082881522 1.9666632183747854 0.14834009751656854
f 41 42 43 44
f 45 48 47 46
f 41 45 46 42
f 42 46 47 43
f 43 47 48 44
f 45 41 44 48
o Cut_7_Spacing
v -0.41636840694088695 1.9447262386486182 0.07486888914577336
v -0.4480901624968878 1.952201896087013 0.11662286695161593
v -0.5202925602614675 1.9916147009004277 0.08177467805403361
v -0.493235889595868 1.9866855528012781 0.03776911630475979
v -0.4151644431774839 1.94625989424576 0.07486293865068189
v -0.44695926725306223 1.9536424741784761 0.11661727759186781
v -0.49203192583246486 1.9882192083984203 0.03776316580966823
v -0.5191616650176418 1.9930552789918916 0.08176908869428541
f 49 50 51 52
f 53 56 55 54
f 49 53 54 50
f 50 54 55 51
f 51 55 56 52
f 53 49 52 56
