o Cut_1_Spacing
v 0.5221136609716605 2.0327696736099576 0.040752572274213354
v 0.5213559532467229 2.024793998299955 0.09075257227421286
v 0.6168957440873255 2.045619600322294 0.09075257227421286
v 0.6210431968975098 2.0543341665329513 0.040752572274213354
v 0.5221136609716605 2.0297474733517795 0.040752572274213354
v 0.5213559532467229 2.021875351428295 0.09075257227421286
v 0.6210431968975098 2.0513119662747727 0.040752572274213354
v 0.6168957440873255 2.042700953450634 0.09075257227421286
f 1 2 3 4
f 5 8 7 6
f 1 5 6 2
f 2 6 7 3
f 3 7 8 4
f 5 1 4 8
o Cut_2_Vigor
v 0.6974921160389566 1.967630186995575 -0.0006786682978711271
v 0.6909120226381834 1.9620450410700416 0.049321331702129205
v 0.7499211932718038 1.9582618883602354 0.049321331702129205
v 0.758535133723725 1.9637166417738887 -0.0006786682978711271
v 0.6974921160389566 1.9645221798320192 -0.0006786682978711271
v 0.6909120226381834 1.959040587293004 0.049321331702129205
v 0.758535133723725 1.9606086346103324 -0.0006786682978711271
v 0.7499211932718038 1.9552574345831972 0.049321331702129205
f 9 10 11 12
f 13 16 15 14
f 9 13 14 10
f 10 14 15 11
f 11 15 16 12
f 13 9 12 16
o Cut_3_Spacing
v 0.9460432744359027 1.9505335940401718 0.0006947771830238275
v 0.9311682754147608 1.9455134823327853 0.05069477718302456
v 0.9762502130586633 1.9455134823327853 0.05069477718302456
v 0.9926805068836244 1.9505335940401718 0.0006947771830238275
v 0.9460432744359027 1.9474284313752304 0.0006947771830238275
v 0.9311682754147608 1.9425118730543622 0.05069477718302456
v 0.9926805068836244 1.9474284313752304 0.0006947771830238275
v 0.9762502130586633 1.9425118730543622 0.05069477718302456
f 17 18 19 20
f 21 24 23 22
f 17 21 22 18
f 18 22 23 19
f 19 23 24 20
f 21 17 20 24
o Cut_4_Spacing
v 0.1806984777129623 1.4798104194237676 0.011768134072941666
v 0.19158484324292305 1.4907270626895777 0.0625083747387947
v 0.26381590226037976 1.4919766503150742 0.0625083747387947
v 0.25547913163148783 1.4811041146988229 0.011768134072941666
v 0.1806984777129623 1.4767281904309477 0.011768134072941666
v 0.19158484324292305 1.4877499201718318 0.0625083747387947
v 0.25547913163148783 1.4780218857060032 0.011768134072941666
v 0.26381590226037976 1.4889995077973284 0.0625083747387947
f 25 26 27 28
f 29 32 31 30
f 25 29 30 26
f 26 30 31 27
f 27 31 32 28
f 29 25 28 32
