o Cut_1_Canopy
v -0.3099754989591825 2.0198975757645137 0.2321744147774035
v -0.3425109418581896 2.007749340074346 0.2703496499970498
v -0.40251716924970304 1.9670097136602105 0.21034342260553632
v -0.37235043912536453 1.9775497750371895 0.16979947461122147
v -0.31114138227453586 2.017402082641904 0.2310085314620502
v -0.34363255029816037 2.0053486142801358 0.269228041557079
v -0.37351632244071803 1.9750542819145804 0.16863359129586802
v -0.403638777689674 1.9646089878660007 0.2092218141655654
f 1 2 3 4
f 5 8 7 6
f 1 5 6 2
f 2 6 7 3
f 3 7 8 4
f 5 1 4 8
o Cut_2_Spacing
v -0.36228090921471 2.114959559579823 -0.07236923340739312
v -0.3338246695762456 2.1125148232665074 -0.025311513483136296
v -0.33987963125078485 2.0113588820196586 0.001235917567655676
v -0.36856991825552454 2.0098935553293593 -0.044795642877353006
v -0.3663635242503722 2.115169496162604 -0.07152722376392456
v -0.3377553488633007 2.112716946996108 -0.024500839482239287
v -0.3726525332911867 2.01010349191214 -0.04395363323388445
v -0.34381031053783995 2.0115610057492592 0.0020465915685526853
f 9 10 11 12
f 13 16 15 14
f 9 13 14 10
f 10 14 15 11
f 11 15 16 12
f 13 9 12 16
o Cut_3_Spacing
v 0.04078682859665911 1.9898264425188823 0.006192927225467487
v -0.0028308062124051334 1.9883468675534048 0.034484286392097906
v 0.017485685419933398 1.9504985979653882 0.06485937303640987
v 0.061864692192283965 1.9505597877172813 0.03770633734471251
v 0.03830812828730116 1.9876156552600757 0.004189556075518936
v -0.00521997121794197 1.9862159380765791 0.03255328076528255
v 0.05938599188292601 1.9483490004584747 0.03570296619476365
v 0.015096520414396561 1.9483676684885627 0.06292836740959422
f 17 18 19 20
f 21 24 23 22
f 17 21 22 18
f 18 22 23 19
f 19 23 24 20
f 21 17 20 24
o Cut_4_Canopy
v -0.6219628414829149 1.1188943431127423 0.15613748129648627
v -0.5748767343966592 1.1355659587844098 0.17865394818968802
v -0.6041814454936362 0.9573762413725674 0.22049045726418734
v -0.6520289245431782 0.9360750405623768 0.19906095365636606
v -0.6261706510953122 1.1181984908121305 0.1604042246840675
v -0.5789779884507784 1.134887727749302 0.1828126436222586
v -0.6562367341555757 0.935379188261765 0.20332769704394718
v -0.6082826995477556 0.9566980103374598 0.2246491526967578
f 25 26 27 28
f 29 32 31 30
f 25 29 30 26
f 26 30 31 27
f 27 31 32 28
f 29 25 28 32
