o Cut_1_Vigor
v -0.5467792868337377 1.6525875170771644 0.06463015290909369
v -0.5300698375311683 1.661562868311582 0.11463015290909384
v -0.38270266789380664 1.6500904231696016 0.11463015290909384
v -0.3955039405098562 1.640810822740797 0.06463015290909369
v -0.5467792868337377 1.6485792350405364 0.06463015290909369
v -0.5300698375311683 1.657658139661472 0.11463015290909384
v -0.3955039405098562 1.6368025407041693 0.06463015290909369
v -0.38270266789380664 1.646185694519492 0.11463015290909384
f 1 2 3 4
f 5 8 7 6
f 1 5 6 2
f 2 6 7 3
f 3 7 8 4
f 5 1 4 8
o Cut_2_Canopy
v -0.7003632431265736 1.6404803582788798 0.08518403269229968
v -0.7040527390821941 1.6516723822152601 0.13942045248882318
v -0.6310646131066189 1.658436025279042 0.17660976018428443
v -0.6250299546910553 1.6474613221957952 0.1235682603443009
v -0.7003632431265736 1.6371539289724701 0.08518403269229968
v -0.7040527390821941 1.6484495062953686 0.13942045248882318
v -0.6250299546910553 1.644134892889385 0.1235682603443009
v -0.6310646131066189 1.65521314935915 0.17660976018428443
f 9 10 11 12
f 13 16 15 14
f 9 13 14 10
f 10 14 15 11
f 11 15 16 12
f 13 9 12 16
o Cut_3_Vigor
v 0.2539367964160767 1.6646012991708057 0.018747787721235636
v 0.2879949832416571 1.6738808995996102 0.05540027901431011
v 0.21862395759706316 1.6479135707621084 0.12477130465890407
v 0.18259184345925897 1.6378950794326497 0.0900927406780534
v 0.2539367964160767 1.6608585010222083 0.018747787721235636
v 0.2879949832416571 1.670241654837531 0.05540027901431011
v 0.18259184345925897 1.634152281284052 0.0900927406780534
v 0.21862395759706316 1.644274326000029 0.12477130465890407
f 17 18 19 20
f 21 24 23 22
f 17 21 22 18
f 18 22 23 19
f 19 23 24 20
f 21 17 20 24
o Cut_4_Spacing
v -0.7790041896010254 2.3016786167808605 0.1511578390849474
v -0.7565885552403945 2.293321247465476 0.20243903872989388
v -0.8215354589111138 2.2825430388971903 0.20017104287760595
v -0.8458015738099157 2.2905933132771015 0.14882522302833703
v -0.7790041896010254 2.2979056545526166 0.1511578390849474
v -0.7565885552403945 2.2896528071920557 0.20243903872989388
v -0.8458015738099157 2.286820351048858 0.14882522302833703
v -0.8215354589111138 2.2788745986237706 0.20017104287760595
f 25 26 27 28
f 29 32 31 30
f 25 29 30 26
f 26 30 31 27
f 27 31 32 28
f 29 25 28 32
o Cut_5_Canopy
v 0.5581574757718997 1.6767281862307533 0.01792648241231942
v 0.5872526453553175 1.6868770700720923 0.059541990947556994
v 0.5681121846351601 1.572892277592982 0.07868245166771441
v 0.538396637896472 1.5590489392483717 0.037687320287747184
v 0.5547705159942745 1.675901696384805 0.02131344218994453
v 0.583972016720385 1.6860765272746812 0.06282261958248947
v 0.5350096781188468 1.558222449402424 0.04107428006537229
v 0.5648315560002276 1.5720917347955712 0.08196308030264689
f 33 34 35 36
f 37 40 39 38
f 33 37 38 34
f 34 38 39 35
f 35 39 40 36
f 37 33 36 40
o Cut_6_Vigor
v 0.9461286006995017 2.3790820338609424 0.09146452069705464
v 0.9113075179665905 2.370671716844673 0.13165520905674255
v 0.9293572026782868 2.261481598704382 0.1385838338612914
v 0.964587821838097 2.2674144579949282 0.0985503518069269
v 0.9395923583054262 2.3790820338609424 0.08895549231769535
v 0.9049162886982215 2.370671716844673 0.12920184600095008
v 0.9580515794440215 2.2674144579949282 0.0960413234275676
v 0.9229659734099178 2.261481598704382 0.1361304708054989
f 41 42 43 44
f 45 48 47 46
f 41 45 46 42
f 42 46 47 43
f 43 47 48 44
f 45 41 44 48
o Cut_7_Spacing
v 0.3656772432608417 2.2448996780684 0.04453415878720886
v 0.3273046153099753 2.23940146048412 0.07687220895499139
v 0.3948352262516629 2.2640039821148994 0.144402819896679
v 0.4347587970907051 2.2700672339173265 0.11361571261707219
v 0.3656772432608417 2.240287239467625 0.04453415878720886
v 0.3273046153099753 2.2348925752698636 0.07687220895499139
v 0.4347587970907051 2.265454795316552 0.11361571261707219
v 0.3948352262516629 2.2594950969006433 0.144402819896679
f 49 50 51 52
f 53 56 55 54
f 49 53 54 50
f 50 54 55 51
f 51 55 56 52
f 53 49 52 56
o Cut_8_Vigor
v -0.6283128571755359 2.4560124749778636 0.0554658515799304
v -0.6042886990282055 2.4447335227002305 0.10289154714368957
v -0.48099041781701163 2.3984606706273737 0.0877524218250902
v -0.5018875901206582 2.408566090298086 0.03994278067756471
v -0.6303287230153928 2.452050762320204 0.055713368781916316
v -0.6062547047088486 2.4408697985197625 0.10313294228791987
v -0.503903455960515 2.4046043776404264 0.04019029787955085
v -0.4829564234976547 2.394596946446906 0.08799381696932074
f 57 58 59 60
f 61 64 63 62
f 57 61 62 58
f 58 62 63 59
f 59 63 64 60
f 61 57 60 64
