o Cut_1_Canopy
v -0.6799653174757176 1.5567334132256485 0.09375017568054611
v -0.6595072089024039 1.5683600788682963 0.14375017568054838
v -0.5721564772742521 1.5570648285956907 0.14375017568054838
v -0.5902617039648651 1.5451339137586557 0.09375017568054611
v -0.6799653174757176 1.5527854407284898 0.09375017568054611
v -0.6595072089024039 1.564515659757656 0.14375017568054838
v -0.5902617039648651 1.5411859412614974 0.09375017568054611
v -0.5721564772742521 1.5532204094850506 0.14375017568054838
f 1 2 3 4
f 5 8 7 6
f 1 5 6 2
f 2 6 7 3
f 3 7 8 4
f 5 1 4 8
o Cut_2_Vigor
v -0.5359566107185051 1.5829650272173168 0.09246245500486878
v -0.5192870407698801 1.5938962661299365 0.1424624550048681
v -0.4407649997153259 1.6051993521621053 0.1424624550048681
v -0.4553209639049148 1.5945723624438728 0.09246245500486878
v -0.5359566107185051 1.5790143877634213 0.09246245500486878
v -0.5192870407698801 1.5900491800625591 0.1424624550048681
v -0.4553209639049148 1.5906217229899773 0.09246245500486878
v -0.4407649997153259 1.601352266094728 0.1424624550048681
f 9 10 11 12
f 13 16 15 14
f 9 13 14 10
f 10 14 15 11
f 11 15 16 12
f 13 9 12 16
o Cut_3_Vigor
v -0.856654543420521 1.6715996431347289 0.027243652269959603
v -0.8324078962225201 1.6799230318097458 0.07724365226996098
v -0.7925351901340572 1.7267227973936996 0.07724365226996098
v -0.815744974129512 1.7196164054962308 0.027243652269959603
v -0.8521635685534453 1.674379770364756 0.027243652269959603
v -0.8280307462297691 1.6826326960240734 0.07724365226996098
v -0.8112539992624364 1.722396532726258 0.027243652269959603
v -0.7881580401413062 1.7294324616080272 0.07724365226996098
f 17 18 19 20
f 21 24 23 22
f 17 21 22 18
f 18 22 23 19
f 19 23 24 20
f 21 17 20 24
o Cut_4_Vigor
v -0.0566523226865666 1.5605553099952305 0.16714167120989742
v -0.05048343613381466 1.5725296890028917 0.21695672615950912
v -0.10028058458228108 1.4809843229454347 0.21869568090182437
v -0.10784439825320366 1.4664455578707971 0.1689293378805641
v -0.061552008204645015 1.5586164001756335 0.1673127719984562
v -0.05524961067145278 1.5706436123192264 0.21712316464189532
v -0.11274408377128202 1.4645066480512001 0.1691004386691229
v -0.10504675911991915 1.4790982462617694 0.21886211938421057
f 25 26 27 28
f 29 32 31 30
f 25 29 30 26
f 26 30 31 27
f 27 31 32 28
f 29 25 28 32
o Cut_5_Vigor
v 0.15258641996807124 1.5966922112688562 -0.0008281165505209114
v 0.153016177806064 1.606797630939569 0.04918735319002562
v 0.2538157296484241 1.6000328589987445 0.045667355275267045
v 0.25597655074417697 1.5897535826455247 -0.004438579475074997
v 0.15258641996807124 1.5925593905950843 -0.0008281165505209114
v 0.153016177806064 1.6027683636523153 0.04918735319002562
v 0.25597655074417697 1.5856207619717526 -0.004438579475074997
v 0.2538157296484241 1.5960035917114905 0.045667355275267045
f 33 34 35 36
f 37 40 39 38
f 33 37 38 34
f 34 38 39 35
f 35 39 40 36
f 37 33 36 40
o Cut_6_Canopy
v 0.5600631441704171 1.621632982641624 0.010799263203332228
v 0.5881694103909951 1.6334335049667776 0.0531655369632116
v 0.5587626163361994 1.6212821294408144 0.08156334788499123
v 0.5297096855009971 1.6090904295800204 0.04011125751696163
v 0.5600631441704171 1.618312690122816 0.010799263203332228
v 0.5881694103909951 1.630216765834488 0.0531655369632116
v 0.5297096855009971 1.6057701370612123 0.04011125751696163
v 0.5587626163361994 1.6180653903085247 0.08156334788499123
f 41 42 43 44
f 45 48 47 46
f 41 45 46 42
f 42 46 47 43
f 43 47 48 44
f 45 41 44 48
o Cut_7_Vigor
v 0.5317548583053258 1.7152742276041175 -0.015564849346645405
v 0.560061932171432 1.723945329644148 0.02660750672405616
v 0.6038992771902368 1.7294802603781 -0.015725725277948382
v 0.5769691700363117 1.7209830150205763 -0.05922780264588606
v 0.5317548583053258 1.7118739310991895 -0.015564849346645405
v 0.560061932171432 1.7206485865257382 0.02660750672405616
v 0.5769691700363117 1.717582718515648 -0.05922780264588606
v 0.6038992771902368 1.7261835172596898 -0.015725725277948382
f 49 50 51 52
f 53 56 55 54
f 49 53 54 50
f 50 54 55 51
f 51 55 56 52
f 53 49 52 56
o Cut_8_Spacing
v 0.3281976836730728 2.259517597422058 0.16196231686709464
v 0.2707293598167292 2.2525707973324836 0.21692059960997184
v 0.21518100280997668 2.2240487742725175 0.1764992414953353
v 0.2703601330782288 2.229820158277322 0.11987516125989274
v 0.3281976836730728 2.255435117638717 0.1621762705665076
v 0.2707293598167292 2.2486499009227017 0.21712608508360748
v 0.2703601330782288 2.2257376784939806 0.12008911495930572
v 0.21518100280997668 2.2201278778627356 0.17670472696897094
f 57 58 59 60
f 61 64 63 62
f 57 61 62 58
f 58 62 63 59
f 59 63 64 60
f 61 57 60 64
o Cut_9_Vigor
v 0.9317825753392012 2.363015524226515 0.09102106434663394
v 0.8943686682908545 2.35684538074125 0.12983393394719117
v 0.9394331215816523 2.2953757634849223 0.1522103968390956
v 0.9779115936568831 2.300093800044031 0.11392613011909204
v 0.9270687491916373 2.360002903657457 0.0891753026850733
v 0.8897636277763372 2.3539022853997835 0.12803076875493602
v 0.9731977675093194 2.2970811794749726 0.11208036845753117
v 0.9348280810671351 2.2924326681434555 0.1504072316468402
f 65 66 67 68
f 69 72 71 70
f 65 69 70 66
f 66 70 71 67
f 67 71 72 68
f 69 65 68 72
o Cut_10_Vigor
v -0.6133772058888406 2.402442417227325 0.04404543133334545
v -0.613685537009448 2.3930207966001125 0.09805142665162382
v -0.5259104087827898 2.3797756356050366 0.13248553045725187
v -0.5228097838424165 2.388775902462274 0.07957494949140086
v -0.6133772058888406 2.399088289448999 0.044221213721639195
v -0.613685537009448 2.3897700802919877 0.09822178947441193
v -0.5228097838424165 2.385421774683948 0.0797507318796946
v -0.5259104087827898 2.376524919296912 0.13265589328004
f 73 74 75 76
f 77 80 79 78
f 73 77 78 74
f 74 78 79 75
f 75 79 80 76
f 77 73 76 80
o Cut_11_Vigor
v -0.2187613646538939 2.2927596518351563 0.03799126293570931
v -0.23016440988503775 2.2872385770336936 0.08752813295138726
v -0.29050439843756287 2.2351375503955166 0.06706449381574198
v -0.28085119066680564 2.2391477145998264 0.01693418579660444
v -0.2217772611291812 2.289726050068319 0.03699096432029691
v -0.2330953112980421 2.284290469305935 0.08655602510572281
v -0.2838670871420929 2.2361141128329907 0.015933887181191635
v -0.29343529985056716 2.232189442667759 0.06609238597007716
f 81 82 83 84
f 85 88 87 86
f 81 85 86 82
f 82 86 87 83
f 83 87 88 84
f 85 81 84 88
