o Cut_1_Canopy
v -0.34213844520174735 1.9784206514765696 0.14383726273848116
v -0.3700210594362272 1.9651405595763685 0.18566706537713892
v -0.31281321447255966 1.9848985579448457 0.24482203588597837
v -0.28292847396425286 1.9988701285692827 0.20506250386769487
v -0.34125773181805674 1.9812803983197584 0.14497153573355293
v -0.36917012649945025 1.9679036069250029 0.18676298405928568
v -0.28204776058056225 2.0017298754124715 0.20619677686276633
v -0.3119622815357827 1.9876616052934801 0.2459179545681248
f 1 2 3 4
f 5 8 7 6
f 1 5 6 2
f 2 6 7 3
f 3 7 8 4
f 5 1 4 8
o Cut_2_Spacing
v -0.36004452745774523 2.079550095038357 -0.022830546709660574
v -0.3854174341095396 2.0640162252219496 0.02132137016915393
v -0.36631413982117034 1.9943529300808753 0.03440288734954318
v -0.34032085601410567 2.007624492872432 -0.009324208852141807
v -0.36325090850342273 2.078530470473116 -0.02613838120054573
v -0.38852296346756277 2.0630286713484676 0.018117578424946247
v -0.34352723705978316 2.0066048683071913 -0.01263204334302714
v -0.3694196691791935 1.9933653762073933 0.031199095605335323
f 9 10 11 12
f 13 16 15 14
f 9 13 14 10
f 10 14 15 11
f 11 15 16 12
f 13 9 12 16
o Cut_3_Canopy
v 0.4728451942944359 1.9580235854011405 0.2889216224404111
v -0.4327754643089645 1.9745806843165932 -0.18255696961166262
v -0.3868735572333051 1.9077315428288157 -0.21216594716612602
v 0.49385822075541974 1.9274213104964972 0.27536719151428213
v 0.4717300307319585 1.9570496214373878 0.2903370975714498
v -0.4352114834285351 1.9724531086700186 -0.1794649348658118
v 0.4927430571929424 1.9264473465327445 0.2767826666453208
v -0.38930957635287544 1.905603967182241 -0.20907391242027532
f 17 18 19 20
f 21 24 23 22
f 17 21 22 18
f 18 22 23 19
f 19 23 24 20
f 21 17 20 24
o Cut_4_Vigor
v 0.38664627776944466 1.3659957101508307 -0.04250357997250292
v 0.41551585566003657 1.376629631804084 -0.00047049037858845985
v 0.46689687772749533 1.3775263542843685 -0.05184368686751685
v 0.43983203337950805 1.3669239295744116 -0.09568123513437596
v 0.38664627776944466 1.3629444418338694 -0.042556840059088864
v 0.41551585566003657 1.3736819011019588 -0.0005219432093849329
v 0.43983203337950805 1.3638726612574505 -0.0957344952209619
v 0.46689687772749533 1.3745786235822433 -0.051895139698313324
f 25 26 27 28
f 29 32 31 30
f 25 29 30 26
f 26 30 31 27
f 27 31 32 28
f 29 25 28 32
