o Cut_1_Vigor
v 0.6043335311941065 1.3304579128139746 0.030208301526979602
v 0.6006734323516457 1.3469298028202552 0.08176970113331661
v 0.5237544053863433 1.2766576906046216 0.08176970113331661
v 0.5246180242143397 1.2576309768422647 0.030208301526979602
v 0.6014003013724191 1.328125051726837 0.030208301526979602
v 0.5978431024409664 1.3446787802568112 0.08176970113331661
v 0.5216847943926524 1.255298115755127 0.030208301526979602
v 0.5209240754756641 1.2744066680411774 0.08176970113331661
f 1 2 3 4
f 5 8 7 6
f 1 5 6 2
f 2 6 7 3
f 3 7 8 4
f 5 1 4 8
o Cut_2_Spacing
v 0.5319393548644237 2.0288463636058154 0.01685276708407216
v 0.530790830406734 2.0206171540062376 0.0701860569576307
v 0.5775472765799226 2.0318033758995115 0.0701860569576307
v 0.5804398566955855 2.040449841197096 0.01685276708407216
v 0.5319393548644237 2.025774665232346 0.01685276708407216
v 0.530790830406734 2.0176559124883795 0.0701860569576307
v 0.5804398566955855 2.037378142823626 0.01685276708407216
v 0.5775472765799226 2.0288421343816534 0.0701860569576307
f 9 10 11 12
f 13 16 15 14
f 9 13 14 10
f 10 14 15 11
f 11 15 16 12
f 13 9 12 16
