o Cut_1_Vigor
v -0.5993253415122021 1.5584585976863388 -0.05665356395128854
v -0.5961349931966756 1.5662169521432083 -0.006653563951287807
v -0.5432607469385041 1.5544295715790002 -0.006653563951287807
v -0.544696403680491 1.54628003958649 -0.05665356395128854
v -0.5993253415122021 1.5552346627226843 -0.05665356395128854
v -0.5961349931966756 1.563096570566072 -0.006653563951287807
v -0.544696403680491 1.5430561046228357 -0.05665356395128854
v -0.5432607469385041 1.5513091900018638 -0.006653563951287807
f 1 2 3 4
f 5 8 7 6
f 1 5 6 2
f 2 6 7 3
f 3 7 8 4
f 5 1 4 8
o Cut_2_Vigor
v -0.5250425450893511 1.3990431652022641 0.004862755820802987
v -0.5242050786565254 1.4124518618406063 0.05486275582080169
v -0.47579492134347456 1.3973770558181988 0.05486275582080169
v -0.4749574549106489 1.383446789132336 0.004862755820802987
v -0.5250425450893511 1.3959466347033807 0.004862755820802987
v -0.5242050786565254 1.409458884728241 0.05486275582080169
v -0.4749574549106489 1.3803502586334522 0.004862755820802987
v -0.47579492134347456 1.3943840787058333 0.05486275582080169
f 9 10 11 12
f 13 16 15 14
f 9 13 14 10
f 10 14 15 11
f 11 15 16 12
f 13 9 12 16
o Cut_3_Canopy
v -0.40245097144462294 1.4533853619082806 -0.007808869163004987
v -0.3945451421144332 1.4642296724796469 0.04168113170985547
v -0.41499834543649455 1.4494261710659238 0.04640312576354303
v -0.42356474799434773 1.4381037546176636 -0.002934369763140796
v -0.40245097144462294 1.4500755046928355 -0.007808869163004987
v -0.3945451421144332 1.46102336865072 0.04168113170985547
v -0.42356474799434773 1.4347938974022187 -0.002934369763140796
v -0.41499834543649455 1.446219867236997 0.04640312576354303
f 17 18 19 20
f 21 24 23 22
f 17 21 22 18
f 18 22 23 19
f 19 23 24 20
f 21 17 20 24
o Cut_4_Canopy
v -0.40891029341053725 1.400914598172772 0.02301223017245844
v -0.4006547488421724 1.4136278680810874 0.0724214929208747
v -0.3664080612798897 1.4096650769844834 0.06451502211132812
v -0.37353674563635797 1.3968214145642874 0.014845603184139943
v -0.40891029341053725 1.3976639281903673 0.02301223017245844
v -0.4006547488421724 1.4104807514852011 0.0724214929208747
v -0.37353674563635797 1.3935707445818828 0.014845603184139943
v -0.3664080612798897 1.4065179603885969 0.06451502211132812
f 25 26 27 28
f 29 32 31 30
f 25 29 30 26
f 26 30 31 27
f 27 31 32 28
f 29 25 28 32
o Cut_5_Canopy
v -0.6509224053968791 2.048083287778353 0.06433716325740864
v -0.6708994714876397 2.0413117168328605 0.11113963139269903
v -0.6150165360695652 1.997484870952032 0.1395975785957131
v -0.5920660297313005 2.0019244865968897 0.0943093116193584
v -0.6525511624528826 2.0463439133360284 0.06382480428686511
v -0.6724459432902793 2.0396602160646076 0.11065315693792727
v -0.5936947867873041 2.0001851121545653 0.09379695264881488
v -0.6165630078722047 1.995833370183779 0.13911110414094133
f 33 34 35 36
f 37 40 39 38
f 33 37 38 34
f 34 38 39 35
f 35 39 40 36
f 37 33 36 40
o Cut_6_Canopy
v -0.5538942188756243 2.045942148506831 0.06708525775375092
v -0.5779092902407731 2.0395101253099974 0.11212856507094363
v -0.595810572393968 2.0606382976609585 0.10226740576910422
v -0.5727132295002709 2.0681534793237772 0.056718555520663703
v -0.5517807349919561 2.0474996586254317 0.06782361911842354
v -0.5758988725794841 2.0409916818405516 0.11283091948179197
v -0.5705997456166029 2.0697109894423775 0.057456916885336315
v -0.5938001547326791 2.062119854191513 0.10296976017995256
f 41 42 43 44
f 45 48 47 46
f 41 45 46 42
f 42 46 47 43
f 43 47 48 44
f 45 41 44 48
o Cut_7_Canopy
v -0.8067146244781279 2.1622800516527607 0.06427147665724686
v -0.8176979515486607 2.14661106804448 0.11420841689614125
v -0.7580894359610229 2.1235304454309434 0.139917458612986
v -0.7442427960595606 2.1380907444456945 0.09121545986345851
v -0.8077011244480188 2.160129681097642 0.06389020333498159
v -0.8186392366097998 2.1445592568521583 0.11384461872745111
v -0.7452292960294513 2.135940373890576 0.09083418654119338
v -0.759030721022162 2.121478634238622 0.13955366044429598
f 49 50 51 52
f 53 56 55 54
f 49 53 54 50
f 50 54 55 51
f 51 55 56 52
f 53 49 52 56
o Cut_8_Vigor
v -0.7467751695188881 2.191918075040663 0.09287114286254815
v -0.7605483911426346 2.174837781968635 0.14164829722908817
v -0.7247470043151343 2.181415352634435 0.15673258729655049
v -0.7092484531650584 2.198812629987991 0.10868237044118866
v -0.7467751695188881 2.1896660839603492 0.09291045151307264
v -0.7605483911426346 2.1726893285031563 0.1416857986238232
v -0.7092484531650584 2.1965606389076773 0.10872167909171317
v -0.7247470043151343 2.1792668991689568 0.15677008869128553
f 57 58 59 60
f 61 64 63 62
f 57 61 62 58
f 58 62 63 59
f 59 63 64 60
f 61 57 60 64
