o Cut_1_Vigor
v 0.6950448261335311 1.6077641424146665 0.24031086970976154
v 0.6712368518289157 1.6143489642646143 0.2903108697097616
v 0.6712368518289157 1.5101883171523516 0.2903108697097616
v 0.6950448261335311 1.4999090407991327 0.24031086970976154
v 0.6905101534404153 1.6077641424146665 0.24031086970976154
v 0.6668575092194121 1.6143489642646143 0.2903108697097616
v 0.6905101534404153 1.4999090407991327 0.24031086970976154
v 0.6668575092194121 1.5101883171523516 0.2903108697097616
f 1 2 3 4
f 5 8 7 6
f 1 5 6 2
f 2 6 7 3
f 3 7 8 4
f 5 1 4 8
o Cut_2_Vigor
v -0.48345547414967094 2.284327830304141 0.039321710837074725
v -0.46889950996008234 2.2697456010588772 0.08932171083707305
v -0.38539685750143754 2.289347503934658 0.08932171083707305
v -0.39736066368466105 2.3045382315686953 0.039321710837074725
v -0.48345547414967094 2.2808884530889406 0.039321710837074725
v -0.46889950996008234 2.2664097772301957 0.08932171083707305
v -0.39736066368466105 2.301098854353495 0.039321710837074725
v -0.38539685750143754 2.2860116801059758 0.08932171083707305
f 9 10 11 12
f 13 16 15 14
f 9 13 14 10
f 10 14 15 11
f 11 15 16 12
f 13 9 12 16
