# Blender 4.4.1
# www.blender.org
mtllib CanopyCuts.mtl
o Cuts_Canopy.006
v -0.872362 1.235644 0.121959
v -0.871369 1.239269 0.120592
v -0.953264 1.235644 0.063181
v -0.952270 1.239269 0.061813
v -0.819091 1.193382 0.048637
v -0.818097 1.197007 0.047270
v -0.899993 1.193382 -0.010141
v -0.898999 1.197007 -0.011509
v -0.959070 2.246108 0.045746
v -0.959070 2.250108 0.045746
v -0.959070 2.246108 -0.054254
v -0.959070 2.250108 -0.054254
v -0.859070 2.246108 0.045746
v -0.859070 2.250108 0.045746
v -0.859070 2.246108 -0.054254
v -0.859070 2.250108 -0.054254
v -0.309493 2.195504 0.107780
v -0.309493 2.199504 0.107780
v -0.309493 2.195504 0.007780
v -0.309493 2.199504 0.007780
v -0.209493 2.195504 0.107780
v -0.209493 2.199504 0.107780
v -0.209493 2.195504 0.007780
v -0.209493 2.199504 0.007780
v 1.069819 1.518126 0.174636
v 1.069818 1.522126 0.174636
v 1.069818 1.518126 0.074637
v 1.069818 1.522126 0.074637
v 1.169819 1.518126 0.174636
v 1.169819 1.522126 0.174637
v 1.169819 1.518126 0.074637
v 1.169819 1.522126 0.074637
v 0.005483 1.400542 0.360324
v 0.001829 1.402169 0.360324
v 0.005483 1.400543 0.260324
v 0.001829 1.402169 0.260324
v 0.046157 1.491897 0.360324
v 0.042502 1.493524 0.360324
v 0.046157 1.491897 0.260324
v 0.042502 1.493524 0.260324
v -0.476910 1.329532 0.177797
v -0.475916 1.333157 0.176429
v -0.557812 1.329532 0.119018
v -0.556818 1.333157 0.117651
v -0.423638 1.287270 0.104475
v -0.422645 1.290895 0.103108
v -0.504540 1.287270 0.045697
v -0.503547 1.290895 0.044329
v -1.013489 1.335968 0.194686
v -1.012495 1.339593 0.193318
v -1.094391 1.335968 0.135907
v -1.093397 1.339593 0.134539
v -0.960217 1.293706 0.121364
v -0.959224 1.297331 0.119996
v -1.041119 1.293706 0.062585
v -1.040125 1.297331 0.061218
vn -0.5327 0.4226 0.7332
vn -0.8090 -0.0000 -0.5878
vn 0.5327 -0.4226 -0.7332
vn 0.8090 -0.0000 0.5878
vn -0.2484 -0.9063 0.3419
vn 0.2484 0.9063 -0.3419
vn -1.0000 -0.0000 -0.0000
vn -0.0000 -0.0000 -1.0000
vn 1.0000 -0.0000 -0.0000
vn -0.0000 -0.0000 1.0000
vn -0.0000 -1.0000 -0.0000
vn -0.0000 1.0000 -0.0000
vn -0.4067 -0.9135 -0.0000
vn 0.4067 0.9135 -0.0000
vn 0.9135 -0.4067 -0.0000
vn -0.9135 0.4067 -0.0000
vt 0.375000 0.000000
vt 0.625000 0.000000
vt 0.625000 0.250000
vt 0.375000 0.250000
vt 0.625000 0.500000
vt 0.375000 0.500000
vt 0.625000 0.750000
vt 0.375000 0.750000
vt 0.625000 1.000000
vt 0.375000 1.000000
vt 0.125000 0.500000
vt 0.125000 0.750000
vt 0.875000 0.500000
vt 0.875000 0.750000
s 0
f 1/1/1 2/2/1 4/3/1 3/4/1
f 3/4/2 4/3/2 8/5/2 7/6/2
f 7/6/3 8/5/3 6/7/3 5/8/3
f 5/8/4 6/7/4 2/9/4 1/10/4
f 3/11/5 7/6/5 5/8/5 1/12/5
f 8/5/6 4/13/6 2/14/6 6/7/6
f 9/1/7 10/2/7 12/3/7 11/4/7
f 11/4/8 12/3/8 16/5/8 15/6/8
f 15/6/9 16/5/9 14/7/9 13/8/9
f 13/8/10 14/7/10 10/9/10 9/10/10
f 11/11/11 15/6/11 13/8/11 9/12/11
f 16/5/12 12/13/12 10/14/12 14/7/12
f 17/1/7 18/2/7 20/3/7 19/4/7
f 19/4/8 20/3/8 24/5/8 23/6/8
f 23/6/9 24/5/9 22/7/9 21/8/9
f 21/8/10 22/7/10 18/9/10 17/10/10
f 19/11/11 23/6/11 21/8/11 17/12/11
f 24/5/12 20/13/12 18/14/12 22/7/12
f 25/1/7 26/2/7 28/3/7 27/4/7
f 27/4/8 28/3/8 32/5/8 31/6/8
f 31/6/9 32/5/9 30/7/9 29/8/9
f 29/8/10 30/7/10 26/9/10 25/10/10
f 27/11/11 31/6/11 29/8/11 25/12/11
f 32/5/12 28/13/12 26/14/12 30/7/12
f 33/1/13 34/2/13 36/3/13 35/4/13
f 35/4/8 36/3/8 40/5/8 39/6/8
f 39/6/14 40/5/14 38/7/14 37/8/14
f 37/8/10 38/7/10 34/9/10 33/10/10
f 35/11/15 39/6/15 37/8/15 33/12/15
f 40/5/16 36/13/16 34/14/16 38/7/16
f 41/1/1 42/2/1 44/3/1 43/4/1
f 43/4/2 44/3/2 48/5/2 47/6/2
f 47/6/3 48/5/3 46/7/3 45/8/3
f 45/8/4 46/7/4 42/9/4 41/10/4
f 43/11/5 47/6/5 45/8/5 41/12/5
f 48/5/6 44/13/6 42/14/6 46/7/6
f 49/1/1 50/2/1 52/3/1 51/4/1
f 51/4/2 52/3/2 56/5/2 55/6/2
f 55/6/3 56/5/3 54/7/3 53/8/3
f 53/8/4 54/7/4 50/9/4 49/10/4
f 51/11/5 55/6/5 53/8/5 49/12/5
f 56/5/6 52/13/6 50/14/6 54/7/6
