# Blender 4.4.1
# www.blender.org
mtllib CanopyCuts.mtl
o Cuts_Canopy.004
v 0.877913 2.448328 0.062803
v 0.873987 2.447565 0.062803
v 0.877913 2.448328 -0.037197
v 0.873987 2.447565 -0.037197
v 0.858832 2.546491 0.062803
v 0.854906 2.545728 0.062803
v 0.858832 2.546491 -0.037197
v 0.854906 2.545728 -0.037197
v 0.444756 2.013578 -0.081152
v 0.444756 2.017578 -0.081152
v 0.444756 2.013578 -0.181152
v 0.444756 2.017578 -0.181152
v 0.544756 2.013578 -0.081152
v 0.544756 2.017578 -0.081152
v 0.544756 2.013578 -0.181152
v 0.544756 2.017578 -0.181152
v 0.810519 1.601870 0.008299
v 0.812646 1.600181 0.011235
v 0.832168 1.692446 0.044732
v 0.834296 1.690757 0.047668
v 0.892384 1.605360 -0.049023
v 0.894512 1.603671 -0.046088
v 0.914033 1.695936 -0.012590
v 0.916161 1.694247 -0.009655
v 0.283937 2.854781 -0.063519
v 0.283937 2.858781 -0.063519
v 0.283937 2.854781 -0.163519
v 0.283937 2.858781 -0.163519
v 0.383937 2.854781 -0.063519
v 0.383937 2.858781 -0.063519
v 0.383937 2.854781 -0.163519
v 0.383937 2.858781 -0.163519
v -0.753204 2.615921 0.036322
v -0.753204 2.619921 0.036322
v -0.753204 2.615921 -0.063678
v -0.753204 2.619921 -0.063678
v -0.653204 2.615921 0.036322
v -0.653204 2.619921 0.036322
v -0.653204 2.615921 -0.063678
v -0.653204 2.619921 -0.063678
vn 0.1908 -0.9816 -0.0000
vn -0.0000 -0.0000 -1.0000
vn -0.1908 0.9816 -0.0000
vn -0.0000 -0.0000 1.0000
vn 0.9816 0.1908 -0.0000
vn -0.9816 -0.1908 -0.0000
vn -1.0000 -0.0000 -0.0000
vn 1.0000 -0.0000 -0.0000
vn -0.0000 -1.0000 -0.0000
vn -0.0000 1.0000 -0.0000
vn -0.8187 -0.0349 0.5732
vn 0.2165 0.9058 0.3643
vn 0.8187 0.0349 -0.5732
vn -0.2165 -0.9058 -0.3643
vn -0.5319 0.4224 -0.7339
vn 0.5319 -0.4224 0.7339
vt 0.375000 0.000000
vt 0.625000 0.000000
vt 0.625000 0.250000
vt 0.375000 0.250000
vt 0.625000 0.500000
vt 0.375000 0.500000
vt 0.625000 0.750000
vt 0.375000 0.750000
vt 0.625000 1.000000
vt 0.375000 1.000000
vt 0.125000 0.500000
vt 0.125000 0.750000
vt 0.875000 0.500000
vt 0.875000 0.750000
s 0
f 1/1/1 2/2/1 4/3/1 3/4/1
f 3/4/2 4/3/2 8/5/2 7/6/2
f 7/6/3 8/5/3 6/7/3 5/8/3
f 5/8/4 6/7/4 2/9/4 1/10/4
f 3/11/5 7/6/5 5/8/5 1/12/5
f 8/5/6 4/13/6 2/14/6 6/7/6
f 9/1/7 10/2/7 12/3/7 11/4/7
f 11/4/2 12/3/2 16/5/2 15/6/2
f 15/6/8 16/5/8 14/7/8 13/8/8
f 13/8/4 14/7/4 10/9/4 9/10/4
f 11/11/9 15/6/9 13/8/9 9/12/9
f 16/5/10 12/13/10 10/14/10 14/7/10
f 17/1/11 18/2/11 20/3/11 19/4/11
f 19/4/12 20/3/12 24/5/12 23/6/12
f 23/6/13 24/5/13 22/7/13 21/8/13
f 21/8/14 22/7/14 18/9/14 17/10/14
f 19/11/15 23/6/15 21/8/15 17/12/15
f 24/5/16 20/13/16 18/14/16 22/7/16
f 25/1/7 26/2/7 28/3/7 27/4/7
f 27/4/2 28/3/2 32/5/2 31/6/2
f 31/6/8 32/5/8 30/7/8 29/8/8
f 29/8/4 30/7/4 26/9/4 25/10/4
f 27/11/9 31/6/9 29/8/9 25/12/9
f 32/5/10 28/13/10 26/14/10 30/7/10
f 33/1/7 34/2/7 36/3/7 35/4/7
f 35/4/2 36/3/2 40/5/2 39/6/2
f 39/6/8 40/5/8 38/7/8 37/8/8
f 37/8/4 38/7/4 34/9/4 33/10/4
f 35/11/9 39/6/9 37/8/9 33/12/9
f 40/5/10 36/13/10 34/14/10 38/7/10
