# Blender 4.4.3
# www.blender.org
mtllib BudSpacingCuts.mtl
o BudSpacingCuts
v -0.230865 1.336934 0.125960
v -0.230507 1.338902 0.125967
v -0.231557 1.337190 0.085967
v -0.231199 1.339158 0.085973
v -0.191518 1.329774 0.125233
v -0.191160 1.331742 0.125240
v -0.192210 1.330030 0.085240
v -0.191852 1.331998 0.085247
v -0.339680 1.993407 0.043981
v -0.339680 1.995407 0.043981
v -0.339680 1.993407 -0.016019
v -0.339680 1.995407 -0.016019
v -0.279680 1.993407 0.043981
v -0.279680 1.995407 0.043981
v -0.279680 1.993407 -0.016019
v -0.279680 1.995407 -0.016019
v -0.362545 1.995263 0.030045
v -0.364543 1.995333 0.030045
v -0.362544 1.995263 -0.049955
v -0.364543 1.995333 -0.049955
v -0.359752 2.075214 0.030045
v -0.361751 2.075284 0.030045
v -0.359753 2.075214 -0.049955
v -0.361751 2.075284 -0.049955
v 0.679899 1.890925 0.024305
v 0.678436 1.892289 0.024305
v 0.679898 1.890925 -0.035695
v 0.678436 1.892289 -0.035695
v 0.720818 1.934806 0.024305
v 0.719356 1.936170 0.024305
v 0.720818 1.934806 -0.035695
v 0.719356 1.936170 -0.035695
v 0.995215 1.388139 0.095418
v 0.993515 1.389120 0.095037
v 1.005129 1.382414 0.036521
v 1.003429 1.383396 0.036139
v 1.025215 1.440100 0.095418
v 1.023514 1.441082 0.095037
v 1.035129 1.434376 0.036521
v 1.033429 1.435358 0.036139
v 0.271048 1.334119 -0.005158
v 0.271048 1.336119 -0.005158
v 0.271048 1.334119 -0.065158
v 0.271048 1.336119 -0.065158
v 0.331048 1.334119 -0.005158
v 0.331048 1.336119 -0.005158
v 0.331048 1.334119 -0.065158
v 0.331048 1.336119 -0.065158
vn -0.9837 0.1790 0.0182
vn -0.0173 0.0064 -0.9998
vn 0.9837 -0.1790 -0.0182
vn 0.0173 -0.0064 0.9998
vn -0.1791 -0.9838 -0.0032
vn 0.1791 0.9838 0.0032
vn -1.0000 -0.0000 -0.0000
vn -0.0000 -0.0000 -1.0000
vn 1.0000 -0.0000 -0.0000
vn -0.0000 -0.0000 1.0000
vn -0.0000 -1.0000 -0.0000
vn -0.0000 1.0000 -0.0000
vn -0.0349 -0.9994 -0.0000
vn 0.0349 0.9994 -0.0000
vn 0.9994 -0.0349 -0.0000
vn -0.9994 0.0349 -0.0000
vn -0.6820 -0.7314 -0.0000
vn 0.6820 0.7314 -0.0000
vn 0.7314 -0.6820 -0.0000
vn -0.7314 0.6820 -0.0000
vn -0.5000 -0.8660 -0.0000
vn 0.1652 -0.0954 -0.9816
vn 0.5000 0.8660 -0.0000
vn -0.1652 0.0954 0.9816
vn 0.8501 -0.4908 0.1908
vn -0.8501 0.4908 -0.1908
vt 0.375000 0.000000
vt 0.625000 0.000000
vt 0.625000 0.250000
vt 0.375000 0.250000
vt 0.625000 0.500000
vt 0.375000 0.500000
vt 0.625000 0.750000
vt 0.375000 0.750000
vt 0.625000 1.000000
vt 0.375000 1.000000
vt 0.125000 0.500000
vt 0.125000 0.750000
vt 0.875000 0.500000
vt 0.875000 0.750000
s 0
f 1/1/1 2/2/1 4/3/1 3/4/1
f 3/4/2 4/3/2 8/5/2 7/6/2
f 7/6/3 8/5/3 6/7/3 5/8/3
f 5/8/4 6/7/4 2/9/4 1/10/4
f 3/11/5 7/6/5 5/8/5 1/12/5
f 8/5/6 4/13/6 2/14/6 6/7/6
f 9/1/7 10/2/7 12/3/7 11/4/7
f 11/4/8 12/3/8 16/5/8 15/6/8
f 15/6/9 16/5/9 14/7/9 13/8/9
f 13/8/10 14/7/10 10/9/10 9/10/10
f 11/11/11 15/6/11 13/8/11 9/12/11
f 16/5/12 12/13/12 10/14/12 14/7/12
f 17/1/13 18/2/13 20/3/13 19/4/13
f 19/4/8 20/3/8 24/5/8 23/6/8
f 23/6/14 24/5/14 22/7/14 21/8/14
f 21/8/10 22/7/10 18/9/10 17/10/10
f 19/11/15 23/6/15 21/8/15 17/12/15
f 24/5/16 20/13/16 18/14/16 22/7/16
f 25/1/17 26/2/17 28/3/17 27/4/17
f 27/4/8 28/3/8 32/5/8 31/6/8
f 31/6/18 32/5/18 30/7/18 29/8/18
f 29/8/10 30/7/10 26/9/10 25/10/10
f 27/11/19 31/6/19 29/8/19 25/12/19
f 32/5/20 28/13/20 26/14/20 30/7/20
f 33/1/21 34/2/21 36/3/21 35/4/21
f 35/4/22 36/3/22 40/5/22 39/6/22
f 39/6/23 40/5/23 38/7/23 37/8/23
f 37/8/24 38/7/24 34/9/24 33/10/24
f 35/11/25 39/6/25 37/8/25 33/12/25
f 40/5/26 36/13/26 34/14/26 38/7/26
f 41/1/7 42/2/7 44/3/7 43/4/7
f 43/4/8 44/3/8 48/5/8 47/6/8
f 47/6/9 48/5/9 46/7/9 45/8/9
f 45/8/10 46/7/10 42/9/10 41/10/10
f 43/11/11 47/6/11 45/8/11 41/12/11
f 48/5/12 44/13/12 42/14/12 46/7/12
