# Blender 4.4.1
# www.blender.org
mtllib BudSpacingCuts.mtl
o Cuts_Spacing.001
v 0.185973 2.267719 0.163301
v 0.181988 2.268067 0.163301
v 0.185973 2.267719 0.103301
v 0.181988 2.268067 0.103301
v 0.191202 2.327490 0.163301
v 0.187218 2.327839 0.163301
v 0.191202 2.327490 0.103301
v 0.187218 2.327839 0.103301
v 0.276715 2.261996 0.228285
v 0.277990 2.265474 0.226777
v 0.199106 2.263107 0.165234
v 0.200381 2.266586 0.163726
v 0.331125 2.212632 0.160442
v 0.332401 2.216110 0.158934
v 0.253516 2.213743 0.097391
v 0.254791 2.217221 0.095882
vn -0.0872 -0.9962 -0.0000
vn -0.0000 -0.0000 -1.0000
vn 0.0872 0.9962 -0.0000
vn -0.0000 -0.0000 1.0000
vn 0.9962 -0.0872 -0.0000
vn -0.9962 0.0872 -0.0000
vn -0.5441 0.4936 0.6784
vn -0.7761 0.0111 -0.6305
vn 0.5441 -0.4936 -0.6784
vn 0.7761 -0.0111 0.6305
vn -0.3188 -0.8696 0.3771
vn 0.3188 0.8696 -0.3771
vt 0.375000 0.000000
vt 0.625000 0.000000
vt 0.625000 0.250000
vt 0.375000 0.250000
vt 0.625000 0.500000
vt 0.375000 0.500000
vt 0.625000 0.750000
vt 0.375000 0.750000
vt 0.625000 1.000000
vt 0.375000 1.000000
vt 0.125000 0.500000
vt 0.125000 0.750000
vt 0.875000 0.500000
vt 0.875000 0.750000
s 0
f 1/1/1 2/2/1 4/3/1 3/4/1
f 3/4/2 4/3/2 8/5/2 7/6/2
f 7/6/3 8/5/3 6/7/3 5/8/3
f 5/8/4 6/7/4 2/9/4 1/10/4
f 3/11/5 7/6/5 5/8/5 1/12/5
f 8/5/6 4/13/6 2/14/6 6/7/6
f 9/1/7 10/2/7 12/3/7 11/4/7
f 11/4/8 12/3/8 16/5/8 15/6/8
f 15/6/9 16/5/9 14/7/9 13/8/9
f 13/8/10 14/7/10 10/9/10 9/10/10
f 11/11/11 15/6/11 13/8/11 9/12/11
f 16/5/12 12/13/12 10/14/12 14/7/12
