o Cut_1_Canopy
v -0.6655922430794073 1.9784400536576674 -0.0037897999581615388
v -0.6650738114781343 1.965857176261232 0.04621020004183836
v -0.6244904728831575 1.9696484423364777 0.04621020004183836
v -0.6236131270963877 1.9823617122447932 -0.0037897999581615388
v -0.6655922430794073 1.9753256031297246 -0.0037897999581615388
v -0.6650738114781343 1.9628462791198074 0.04621020004183836
v -0.6236131270963877 1.9792472617168508 -0.0037897999581615388
v -0.6244904728831575 1.9666375451950535 0.04621020004183836
f 1 2 3 4
f 5 8 7 6
f 1 5 6 2
f 2 6 7 3
f 3 7 8 4
f 5 1 4 8
o Cut_2_Canopy
v -0.40974141726948826 1.2190649822414694 0.13696023033962187
v -0.41855475449112967 1.2330387130979596 0.18696023033962078
v -0.3703806309915459 1.2284730983309047 0.18696023033962078
v -0.35973284348847673 1.2143255107919078 0.13696023033962187
v -0.40974141726948826 1.2162420345593241 0.13696023033962187
v -0.41855475449112967 1.2303193188023325 0.18696023033962078
v -0.35973284348847673 1.2115025631097622 0.13696023033962187
v -0.3703806309915459 1.2257537040352775 0.18696023033962078
f 9 10 11 12
f 13 16 15 14
f 9 13 14 10
f 10 14 15 11
f 11 15 16 12
f 13 9 12 16
o Cut_3_Canopy
v -0.48009883040606544 1.3077157889676663 0.10771921944647139
v -0.4862003715595097 1.3182123861740191 0.15771921944647196
v -0.46478865542349784 1.2913754705715446 0.15771921944647196
v -0.457889527191172 1.2798791974407773 0.10771921944647139
v -0.4833626968459787 1.3058236925274742 0.10771921944647139
v -0.4893470250605711 1.3163882392619186 0.15771921944647196
v -0.46115339363108526 1.2779871010005852 0.10771921944647139
v -0.46793530892455926 1.289551323659444 0.15771921944647196
f 17 18 19 20
f 21 24 23 22
f 17 21 22 18
f 18 22 23 19
f 19 23 24 20
f 21 17 20 24
o Cut_4_Spacing
v -0.28743250981960655 1.2957996692557068 0.1140840055679056
v -0.30051293791326467 1.3067743723389533 0.16408400556790578
v -0.2973164099063737 1.2789034215909727 0.16408400556790578
v -0.28411634375088335 1.266885578412685 0.1140840055679056
v -0.2917379987654987 1.2957996692557068 0.1140840055679056
v -0.30466309677554465 1.3067743723389533 0.16408400556790578
v -0.2884218326967755 1.266885578412685 0.1140840055679056
v -0.3014665687686537 1.2789034215909727 0.16408400556790578
f 25 26 27 28
f 29 32 31 30
f 25 29 30 26
f 26 30 31 27
f 27 31 32 28
f 29 25 28 32
