o Cut_1_Canopy
v -0.29809926186555474 2.335582662991877 0.08871470963952766
v -0.32099261893030057 2.3242335380517365 0.1448671493964672
v -0.348703793635426 2.2930715046463064 0.12755128561782927
v -0.32678040897346206 2.3033298670063873 0.07079273983419346
v -0.30116441061669846 2.3328288670900057 0.08679939212589474
v -0.32395410691474463 2.3215728732236562 0.1430166063189403
v -0.32984555772460566 2.3005760711045165 0.06887742232056074
v -0.35166528161986993 2.290410839818226 0.12570074254030258
f 1 2 3 4
f 5 8 7 6
f 1 5 6 2
f 2 6 7 3
f 3 7 8 4
f 5 1 4 8
o Cut_2_Canopy
v -0.3152030438208837 2.309866701366593 0.07035326792997097
v -0.2702600578164713 2.305363018078091 0.09673625188399858
v -0.30219689584188275 2.2935081336010574 0.1300950055087503
v -0.34795765173278786 2.29770826249493 0.10456620079887781
v -0.3152030438208837 2.305741739422245 0.07078681890063152
v -0.2702600578164713 2.3013410422439753 0.09715897857830023
v -0.34795765173278786 2.293583300550582 0.10499975176953835
v -0.30219689584188275 2.289486157766941 0.13051773220305193
f 9 10 11 12
f 13 16 15 14
f 9 13 14 10
f 10 14 15 11
f 11 15 16 12
f 13 9 12 16
o Cut_3_Canopy
v -0.6655790802539144 2.2852910314551873 0.12974351241303586
v -0.6764561138385147 2.2751825563260377 0.1821296102935615
v -0.6572376351331822 2.2749647393684773 0.1946083354347177
v -0.6457251343805719 2.285066012287333 0.14263485190558842
v -0.6655790802539144 2.2820561983996215 0.12968704819201887
v -0.6764561138385147 2.272051260885308 0.182074953328334
v -0.6457251343805719 2.281831179231767 0.14257838768457143
v -0.6572376351331822 2.2718334439277474 0.19455367846949018
f 17 18 19 20
f 21 24 23 22
f 17 21 22 18
f 18 22 23 19
f 19 23 24 20
f 21 17 20 24
o Cut_4_Canopy
v -0.6432681530417282 2.2527435335346597 0.14177617094516035
v -0.6548475450751813 2.243685999962956 0.19372442668957737
v -0.6204205329588808 2.2380331436778214 0.21598632441843796
v -0.6077039891510941 2.2469039588804436 0.1647733969800874
v -0.6432681530417282 2.24950541810805 0.14171964943014367
v -0.6548475450751813 2.2405514221511824 0.19366971243035017
v -0.6077039891510941 2.2436658434538335 0.16471687546507072
v -0.6204205329588808 2.2348985658660476 0.21593161015921075
f 25 26 27 28
f 29 32 31 30
f 25 29 30 26
f 26 30 31 27
f 27 31 32 28
f 29 25 28 32
o Cut_5_Canopy
v -0.7970225022853624 2.2485264703872754 0.1309013094412524
v -0.8042597043189627 2.2388350570701308 0.1877027518899066
v -0.7667629175407211 2.2446564124761834 0.21215877137499015
v -0.7581766225134603 2.2545572717343463 0.15623722950915858
v -0.7970225022853624 2.2454430055914156 0.13084748736303697
v -0.8042597043189627 2.2358586790689765 0.1876507990186457
v -0.7581766225134603 2.2514738069384865 0.15618340743094286
v -0.7667629175407211 2.241680034475029 0.21210681850372895
f 33 34 35 36
f 37 40 39 38
f 33 37 38 34
f 34 38 39 35
f 35 39 40 36
f 37 33 36 40
o Cut_6_Canopy
v -0.8614208130333652 1.6714287308426434 0.010807394143782572
v -0.8661262648923196 1.6811684534468065 0.06817986361278686
v -0.826106307237424 1.7145148013161162 0.09475514955430234
v -0.8200488625265421 1.7059016172342063 0.038280472055511716
v -0.8592252764081549 1.6740884405670324 0.012279834894310697
v -0.864002476149118 1.6837412465890302 0.06960418651184282
v -0.8178533259013316 1.7085613269585955 0.03975291280604019
v -0.8239825184942221 1.7170875944583397 0.09617947245335864
f 41 42 43 44
f 45 48 47 46
f 41 45 46 42
f 42 46 47 43
f 43 47 48 44
f 45 41 44 48
o Cut_7_Canopy
v -0.6593183206258314 1.5877259248988596 0.07557285209925142
v -0.6701284629295879 1.5996496699095766 0.1283869701356125
v -0.6348590708836573 1.5992499363100425 0.15128769271542494
v -0.6229117768055672 1.5873133031335365 0.09921193720261524
v -0.6593183206258314 1.5844111108198198 0.07551499180427702
v -0.6701284629295879 1.5964383934453727 0.12833091709642758
v -0.6229117768055672 1.583998489054497 0.09915407690764085
v -0.6348590708836573 1.5960386598458387 0.15123163967624
f 49 50 51 52
f 53 56 55 54
f 49 53 54 50
f 50 54 55 51
f 51 55 56 52
f 53 49 52 56
o Cut_8_Vigor
v -0.4344188083343607 1.7692833448983087 -0.017364534296156125
v -0.4502457967013539 1.7748322319421725 0.03207983597171179
v -0.39979919256053487 1.7529193620571883 0.06446274351401748
v -0.3825340416554138 1.746745769562716 0.01594156491179665
v -0.4344188083343607 1.7655480056401716 -0.017429734885435994
v -0.4502457967013539 1.7712004302988713 0.03201644263822178
v -0.3825340416554138 1.7430104303045788 0.01587636432251678
v -0.39979919256053487 1.7492875604138869 0.06439935018052748
f 57 58 59 60
f 61 64 63 62
f 57 61 62 58
f 58 62 63 59
f 59 63 64 60
f 61 57 60 64
o Cut_9_Canopy
v -0.05647106340640579 1.5272013987845456 0.15535267197184027
v -0.03003635784639015 1.5423089818631923 0.21547837314421572
v -0.08833791747893881 1.5213014936087763 0.23405789671811786
v -0.11684640443966629 1.5054466760017184 0.17459306758183346
v -0.05647106340640579 1.523277172674961 0.15528417435030428
v -0.03003635784639015 1.538519545669142 0.21541222828940707
v -0.11684640443966629 1.5015224498921338 0.17452456996029747
v -0.08833791747893881 1.5175120574147263 0.2339917518633092
f 65 66 67 68
f 69 72 71 70
f 65 69 70 66
f 66 70 71 67
f 67 71 72 68
f 69 65 68 72
o Cut_10_Vigor
v 0.14886028367417714 1.9404844947401938 0.21609255373993796
v 0.11965875164746018 1.941229804200237 0.2568235424862354
v 0.17797813500517623 1.898236813843409 0.29252064346844403
v 0.2087353691005515 1.8963446423936623 0.25274189479475667
v 0.14636562336479722 1.9370425907781923 0.21447340085749222
v 0.1172289087521393 1.9378773293735039 0.2552464591803215
v 0.20624070879117157 1.8929027384316606 0.25112274191231115
v 0.17554829210985537 1.894884339016676 0.29094356016253037
f 73 74 75 76
f 77 80 79 78
f 73 77 78 74
f 74 78 79 75
f 75 79 80 76
f 77 73 76 80
o Cut_11_Canopy
v 0.5599471955566298 1.594729283454673 -0.04081861774798019
v 0.5657684280014016 1.604680296613951 0.010452993580035552
v 0.5452738123309455 1.5760299264400528 0.017413465855595188
v 0.5388904648668292 1.5652931067234093 -0.03366723747635275
v 0.5599471955566298 1.590850782441829 -0.0408863172349835
v 0.5657684280014016 1.6009053332159429 0.010387101348821506
v 0.5388904648668292 1.5614146057105653 -0.03373493696335607
v 0.5452738123309455 1.5722549630420446 0.017347573624381548
f 81 82 83 84
f 85 88 87 86
f 81 85 86 82
f 82 86 87 83
f 83 87 88 84
f 85 81 84 88
o Cut_12_Spacing
v 0.24454050431055493 2.305281971246312 0.11297659942720517
v 0.2626533185116584 2.3038812435675213 0.16039589512596528
v 0.30103800781752144 2.2772668716365687 0.15046616433904458
v 0.2842742696628446 2.2777322052217244 0.10269787631562724
v 0.24245273862302183 2.302767563012241 0.11414419919119471
v 0.2606364384966668 2.301452206752178 0.16152385150706777
v 0.28218650397531136 2.2752177969876533 0.10386547607961695
v 0.29902112780252976 2.2748378348212257 0.15159412072014708
f 89 90 91 92
f 93 96 95 94
f 89 93 94 90
f 90 94 95 91
f 91 95 96 92
f 93 89 92 96
o Cut_13_Vigor
v 1.006472467251231 2.471668450543179 0.24129642020629488
v 0.9547053325388398 2.4658528819640475 0.26139719283856694
v 1.0122925630972248 2.381475321256035 0.333066348198333
v 1.065356850043363 2.3853902854774076 0.31457992312304994
v 1.0028373301735614 2.4679219924648423 0.23820935135363222
v 0.9511502731652522 2.4621889538577424 0.25837812840521013
v 1.0617217129656935 2.3816438273990705 0.31149285427038753
v 1.0087375037236372 2.37781139314973 0.33004728376497644
f 97 98 99 100
f 101 104 103 102
f 97 101 102 98
f 98 102 103 99
f 99 103 104 100
f 101 97 100 104
