o Cut_1_Canopy
v 1.0528631816380691 1.5595878054707095 0.07070531613815048
v 1.0057770745518109 1.5646079171780956 0.0943298871705484
v 1.0401554171056346 1.4871629029163431 0.12870822972437226
v 1.0879746971935762 1.4804911527251416 0.10581683169365749
v 1.0485220859785334 1.5567874521137222 0.06636422047861458
v 1.0015266264785423 1.5618660387528802 0.09007943909727986
v 1.0836336015340402 1.4776907993681545 0.10147573603412147
v 1.035904969032366 1.4844210244911278 0.1244577816511036
f 1 2 3 4
f 5 8 7 6
f 1 5 6 2
f 2 6 7 3
f 3 7 8 4
f 5 1 4 8
o Cut_2_Canopy
v -0.3508310882608499 2.1142483576402986 0.013274652880705754
v -0.33630303527708844 2.105099149723374 0.06219460481868995
v -0.27006310836625025 2.105099149723374 0.05639936214120584
v -0.28260478130189093 2.1142483576402986 0.0073056244675569915
v -0.3508310882608499 2.110691603663681 0.013274652880705754
v -0.33630303527708844 2.101645949133274 0.06219460481868995
v -0.28260478130189093 2.110691603663681 0.0073056244675569915
v -0.27006310836625025 2.101645949133274 0.05639936214120584
f 9 10 11 12
f 13 16 15 14
f 9 13 14 10
f 10 14 15 11
f 11 15 16 12
f 13 9 12 16
o Cut_3_Canopy
v -0.20325299075827394 1.4998325716920917 0.008951877206256084
v -0.19058649763697502 1.5038004320145735 0.05810181021917508
v -0.16787235853016305 1.4838265413035263 0.05274301288709338
v -0.17990863768472543 1.4793044964338349 0.0034443976411517034
v -0.20325299075827394 1.4960113489688875 0.008617563537168001
v -0.19058649763697502 1.5000823686259879 0.05777652182240322
v -0.17990863768472543 1.4754832737106305 0.003110083972063826
v -0.16787235853016305 1.480108477914941 0.05241772449032152
f 17 18 19 20
f 21 24 23 22
f 17 21 22 18
f 18 22 23 19
f 19 23 24 20
f 21 17 20 24
o Cut_4_Canopy
v -0.7775695913988013 1.508352064105304 0.005224543785117265
v -0.7442702072431613 1.5127703897250946 0.06344093962129173
v -0.7012244568219669 1.4774672350358249 0.05350849390958193
v -0.7331049293796794 1.4718852160167588 -0.005035303871691173
v -0.7811790261997492 1.5051029937060243 0.005514148987293068
v -0.7477644613889897 1.5096250003943905 0.06372130323337041
v -0.7367143641806272 1.4686361456174786 -0.004745698669515371
v -0.7047187109677951 1.4743218457051208 0.05378885752166062
f 25 26 27 28
f 29 32 31 30
f 25 29 30 26
f 26 30 31 27
f 27 31 32 28
f 29 25 28 32
