o Cut_1_Spacing
v -0.3783664762727469 2.025781250188338 -0.033918710110216584
v -0.36293392002411357 2.0281428738042786 0.017801783767796755
v -0.34193223448297666 2.0033239760826778 0.02521125376407812
v -0.35644812433966927 1.9998790751563589 -0.026185836922587535
v -0.3811466206265172 2.02417145225942 -0.033587875615536486
v -0.36559779355142646 2.026600400629693 0.018118782146353988
v -0.35922826869343966 1.998269277227441 -0.02585500242790757
v -0.34459610801028956 2.001781502908092 0.025528252142635228
f 1 2 3 4
f 5 8 7 6
f 1 5 6 2
f 2 6 7 3
f 3 7 8 4
f 5 1 4 8
o Cut_2_Canopy
v -0.32043737034912406 1.993226646820191 0.005757234491921231
v -0.3071171323080059 1.9970385897381793 0.05701275060265427
v -0.25277157158700675 2.0003452195827998 0.05809147734500538
v -0.26366065093645596 1.9966811993613522 0.006884218274236771
v -0.32043737034912406 1.9908906885966007 0.00638315261148513
v -0.3071171323080059 1.994802656405026 0.05761186713360228
v -0.26366065093645596 1.9943452411377616 0.007510136393800671
v -0.25277157158700675 1.9981092862496466 0.05869059387595339
f 9 10 11 12
f 13 16 15 14
f 9 13 14 10
f 10 14 15 11
f 11 15 16 12
f 13 9 12 16
o Cut_3_Canopy
v 0.005412909420376098 1.9947032781797125 0.010372025114971189
v 0.00478387627978756 1.9984311285148175 0.061145770774134946
v 0.062135561003616474 2.010277114815386 0.0600450631716774
v 0.0653153180174313 2.007076116310428 0.009222363394207438
v 0.005412909420376098 1.9923542462363646 0.011001446327186038
v 0.00478387627978756 1.9961821214619075 0.06174839039773416
v 0.0653153180174313 2.0047270843670804 0.009851784606422286
v 0.062135561003616474 2.0080281077624758 0.06064768279527661
f 17 18 19 20
f 21 24 23 22
f 17 21 22 18
f 18 22 23 19
f 19 23 24 20
f 21 17 20 24
o Cut_4_Canopy
v -0.2109661197371144 1.997340571115765 0.6100348222782276
v -0.44680373001478874 2.0299102672061506 -0.29027780745359893
v -0.4545411514933395 1.975849017927264 -0.2810197155266456
v -0.21453209421546007 1.9724251602478928 0.6143016338537909
v -0.21328103150264047 1.9973265336575272 0.6099552118965303
v -0.4518266061246146 2.0298798088471433 -0.290450545391293
v -0.2168470059809861 1.972411122789655 0.6142220234720938
v -0.4595640276031653 1.9758185595682567 -0.28119245346433963
f 25 26 27 28
f 29 32 31 30
f 25 29 30 26
f 26 30 31 27
f 27 31 32 28
f 29 25 28 32
o Cut_5_Canopy
v 0.20500017162007336 1.3187516706391504 0.02205457935470487
v 0.19807403891745753 1.3365131708166895 0.07025063138302866
v 0.23030220709494562 1.344398384201327 0.07055349368886284
v 0.23830442643157876 1.3269001683867976 0.02236755412108788
v 0.20500017162007336 1.3155643104872987 0.02238958440598141
v 0.19807403891745753 1.3334287967750698 0.0705748121579463
v 0.23830442643157876 1.3237128082349459 0.02270255917236442
v 0.23030220709494562 1.341314010159707 0.07087767446378047
f 33 34 35 36
f 37 40 39 38
f 33 37 38 34
f 34 38 39 35
f 35 39 40 36
f 37 33 36 40
o Cut_6_Canopy
v 0.06817501629715536 1.8988673875276934 0.043292072136401266
v 0.07218526394002475 1.8976166304676372 0.10175721229760515
v 0.037749522820204204 1.8930403629614108 0.1046594428234396
v 0.03230494442953207 1.8941005075653123 0.04631518748553403
v 0.06817501629715536 1.8958719497387306 0.04360690533449601
v 0.07218526394002475 1.8947409707638618 0.10205945631165468
v 0.03230494442953207 1.8911050697763496 0.046630020683629085
v 0.037749522820204204 1.8901647032576354 0.10496168683748944
f 41 42 43 44
f 45 48 47 46
f 41 45 46 42
f 42 46 47 43
f 43 47 48 44
f 45 41 44 48
