o Cut_1_Canopy
v 0.582714391413375 1.3265253891691213 0.029620582134477623
v 0.5832981137821006 1.327480820036163 0.08172454228820843
v 0.5599887876006534 1.2879900902714767 0.0728304783074542
v 0.5587287676646104 1.285888874053818 0.02046846548472207
v 0.5772188617368198 1.326425928925963 0.029991772815277547
v 0.5779575358128808 1.3273841641695427 0.0820852668932846
v 0.5532332379880552 1.2857894138106596 0.02083965616552199
v 0.5546482096314336 1.2878934344048565 0.07319120291253038
f 1 2 3 4
f 5 8 7 6
f 1 5 6 2
f 2 6 7 3
f 3 7 8 4
f 5 1 4 8
o Cut_2_Spacing
v 0.5313297029617151 2.032783354002302 0.023222271276094657
v 0.5373044238341113 2.02812543351482 0.07346129825518145
v 0.5720560744106288 2.030835820626927 0.06894090483489487
v 0.5675458912118568 2.0356079648698255 0.01851137506374543
v 0.5313297029617151 2.0302323524476136 0.023445454992766804
v 0.5373044238341113 2.0256775912947504 0.07367545669953758
v 0.5675458912118568 2.0330569633151367 0.018734558780417854
v 0.5720560744106288 2.0283879784068573 0.06915506327925126
f 9 10 11 12
f 13 16 15 14
f 9 13 14 10
f 10 14 15 11
f 11 15 16 12
f 13 9 12 16
o Cut_3_Spacing
v 0.7144993027030697 1.9055050662832602 0.007138668129314425
v 0.7130721710087708 1.9059923126610925 0.05783985614824978
v 0.7404153395273835 1.9191079188797335 0.05332224593566365
v 0.7429903521010094 1.919171272685231 0.0024314062170816262
v 0.7144993027030697 1.9029445935448288 0.007362680467194545
v 0.7130721710087708 1.9035349992572796 0.05805484321381387
v 0.7429903521010094 1.9166107999467994 0.002655418554961746
v 0.7404153395273835 1.9166506054759207 0.05353723300122774
f 17 18 19 20
f 21 24 23 22
f 17 21 22 18
f 18 22 23 19
f 19 23 24 20
f 21 17 20 24
o Cut_4_Spacing
v 0.9405528208885316 1.949300968926433 -0.022218367512228818
v 0.9729754679411261 1.942830817872397 0.01678198248088642
v 0.9583926570318964 1.935852282886159 0.032031040058029696
v 0.9248984494383802 1.941809643726344 -0.005848792876500876
v 0.9405528208885316 1.9477939196454985 -0.022086517784772122
v 0.9729754679411261 1.9414269279260814 0.016904806936027087
v 0.9248984494383802 1.9403025944454095 -0.005716943149044178
v 0.9583926570318964 1.934448392939843 0.032153864513170365
f 25 26 27 28
f 29 32 31 30
f 25 29 30 26
f 26 30 31 27
f 27 31 32 28
f 29 25 28 32
