o Cut_1_Vigor
v 0.7054060325629748 1.9656025250766647 0.018613022742484008
v 0.7438049224523898 1.9562958550864522 0.06005507938859633
v 0.7244339924497653 1.8845399743871312 0.07811876384856027
v 0.6848816564063355 1.8895739251733938 0.037752313142114254
v 0.7032870108581782 1.964825445556638 0.020589042450059988
v 0.7418049873116387 1.955562446534883 0.06192004907864358
v 0.6827626347015389 1.8887968456533675 0.03972833284969023
v 0.7224340573090143 1.8838065658355618 0.07998373353860752
f 1 2 3 4
f 5 8 7 6
f 1 5 6 2
f 2 6 7 3
f 3 7 8 4
f 5 1 4 8
