o Cut_1_Vigor
v -0.8255468391466387 2.148150477026829 0.10694663730859302
v -0.8138621884410235 2.1356545279716475 0.15694663730859248
v -0.7731565121244403 2.1169746238062688 0.15694663730859248
v -0.7833257473801805 2.128775146131423 0.10694663730859302
v -0.8255468391466387 2.145265369160685 0.10694663730859302
v -0.8138621884410235 2.1328729734920215 0.15694663730859248
v -0.7833257473801805 2.125890038265279 0.10694663730859302
v -0.7731565121244403 2.114193069326643 0.15694663730859248
f 1 2 3 4
f 5 8 7 6
f 1 5 6 2
f 2 6 7 3
f 3 7 8 4
f 5 1 4 8
o Cut_2_Canopy
v -0.6254222725086235 2.0491607561237046 0.07043511919731774
v -0.6210355435747748 2.0404461899130477 0.12043511919731739
v -0.5957281117364127 2.02485616263689 0.12043511919731739
v -0.5991976155295476 2.0330056946293995 0.07043511919731774
v -0.6254222725086235 2.0462000304306134 0.07043511919731774
v -0.6210355435747748 2.0375890176064746 0.12043511919731739
v -0.5991976155295476 2.0300449689363087 0.07043511919731774
v -0.5957281117364127 2.0219989903303173 0.12043511919731739
f 9 10 11 12
f 13 16 15 14
f 9 13 14 10
f 10 14 15 11
f 11 15 16 12
f 13 9 12 16
o Cut_3_Spacing
v -0.1980107658474467 2.0017075611944968 0.02673718403850017
v -0.20825975981107525 1.9948619543207886 0.07673718403850062
v -0.17420447885516957 1.9948619543207886 0.07673718403850062
v -0.16275910427321863 2.0017075611944968 0.02673718403850017
v -0.1980107658474467 1.9986563341180148 0.02673718403850017
v -0.20825975981107525 1.9919142806308248 0.07673718403850062
v -0.16275910427321863 1.9986563341180148 0.02673718403850017
v -0.17420447885516957 1.9919142806308248 0.07673718403850062
f 17 18 19 20
f 21 24 23 22
f 17 21 22 18
f 18 22 23 19
f 19 23 24 20
f 21 17 20 24
o Cut_4_Spacing
v -0.45629544036920505 1.9779637420333038 0.04483487812869287
v -0.4586084428979616 1.9858457229147768 0.09448671673724891
v -0.4307761889845221 1.9775814715728257 0.0967011162103723
v -0.42690789165194637 1.9692376758771604 0.04717302050833185
v -0.45629544036920505 1.9760737554317573 0.04534129851228275
v -0.4586084428979616 1.9840557612036678 0.09496633553222303
v -0.42690789165194637 1.9673476892756143 0.04767944089192194
v -0.4307761889845221 1.9757915098617171 0.09718073500534663
f 25 26 27 28
f 29 32 31 30
f 25 29 30 26
f 26 30 31 27
f 27 31 32 28
f 29 25 28 32
o Cut_5_Canopy
v -0.5686708449640434 2.065377997458088 0.025193961244836763
v -0.5443449556977032 2.068983414624095 0.07047280030520538
v -0.5053350897232286 2.0510028646787903 0.062168472149835986
v -0.5278783855761634 2.0465758089579915 0.016510158812826574
v -0.5686708449640434 2.0630890507749755 0.025807282660094705
v -0.5443449556977032 2.06679449283142 0.07105932013184754
v -0.5278783855761634 2.044286862274879 0.01712348022808439
v -0.5053350897232286 2.0488139428861163 0.06275499197647805
f 33 34 35 36
f 37 40 39 38
f 33 37 38 34
f 34 38 39 35
f 35 39 40 36
f 37 33 36 40
o Cut_6_Spacing
v -0.4113399542943152 2.14569832136703 -0.07052671480344556
v -0.39418236620103064 2.1457922095642266 -0.02189567961570669
v -0.3494067498389333 2.146702591509611 -0.03720131018321615
v -0.36455417940220747 2.1466495740403184 -0.08651947703640565
v -0.4113399542943152 2.1433702751270176 -0.06990291669349183
v -0.39418236620103064 2.143564188214652 -0.02129868309436872
v -0.36455417940220747 2.1443215278003054 -0.0858956789264518
v -0.3494067498389333 2.1444745701600354 -0.03660431366187818
f 41 42 43 44
f 45 48 47 46
f 41 45 46 42
f 42 46 47 43
f 43 47 48 44
f 45 41 44 48
o Cut_7_Vigor
v -0.23575941586301463 2.1896096266448373 0.0002558231990126843
v -0.22493572351523422 2.1875912269828603 0.05158345033760647
v -0.17792873440591636 2.1869418704518147 0.03594515765113869
v -0.18636299302934478 2.188927262375499 -0.016177386682628775
v -0.23575941586301463 2.187541826340693 0.0008098886206168072
v -0.22493572351523422 2.1856234515691546 0.05211071417059494
v -0.18636299302934478 2.1868594620713555 -0.015623321261024654
v -0.17792873440591636 2.1849740950381085 0.036472421484127056
f 49 50 51 52
f 53 56 55 54
f 49 53 54 50
f 50 54 55 51
f 51 55 56 52
f 53 49 52 56
o Cut_8_Vigor
v -0.613649174101486 1.556627318758027 -0.057691186298849985
v -0.6098167473685631 1.5814897833064387 -0.012512114429540904
v -0.5401384244960648 1.5579608356850272 -0.004948407976491385
v -0.5407809888189625 1.5320212197002592 -0.0497812145813624
v -0.6147457403255445 1.5544493125797842 -0.05712740714539956
v -0.6108653105393734 1.579407121070272 -0.011973015154176843
v -0.5418775550430212 1.5298432135220161 -0.049217435427911974
v -0.5411869876668751 1.5558781734488603 -0.004409308701127324
f 57 58 59 60
f 61 64 63 62
f 57 61 62 58
f 58 62 63 59
f 59 63 64 60
f 61 57 60 64
o Cut_9_Canopy
v -0.39887446540390736 1.4540238665742549 -0.006899403532542154
v -0.4033548223344322 1.4643363823466584 0.04803119346480516
v -0.42125070027654965 1.401961192314405 0.0455404397146427
v -0.41742355284233257 1.3893719474206445 -0.009481071179626937
v -0.4036910451087518 1.4540268007044712 -0.006983426028588768
v -0.4080017853067354 1.4643392131509443 0.04795012983627714
v -0.422240132547177 1.389374881550861 -0.00956509367567355
v -0.42589766324885286 1.4019640231186912 0.04545937608611468
f 65 66 67 68
f 69 72 71 70
f 65 69 70 66
f 66 70 71 67
f 67 71 72 68
f 69 65 68 72
o Cut_10_Vigor
v -0.5250228506807558 1.4048371590092108 0.009873023832285182
v -0.5250581321199883 1.4160146536529117 0.06030083259071011
v -0.4672262304898773 1.3825499508055834 0.06014229432468734
v -0.4652371583245044 1.370241885936225 0.009709129515619724
v -0.527250353410075 1.40204113754956 0.009736479706813942
v -0.5272128402724869 1.4133100059079853 0.06016875071424094
v -0.46746466105382356 1.3674458644765741 0.009572585390148484
v -0.46938093864237596 1.379845303060657 0.060010212448218164
f 73 74 75 76
f 77 80 79 78
f 73 77 78 74
f 74 78 79 75
f 75 79 80 76
f 77 73 76 80
o Cut_11_Vigor
v -0.24945021984196944 1.5211187303785738 0.006098347531102505
v -0.258417116029272 1.5284357112055331 0.056235347231946196
v -0.21199456328396668 1.5335943476000111 0.05722629337570394
v -0.20147260917177698 1.5264501702474937 0.007122488287453864
v -0.24945021984196944 1.517925783374839 0.005986847364785661
v -0.258417116029272 1.525346254506391 0.05612746102670067
v -0.20147260917177698 1.5232572232437587 0.00701098812113702
v -0.21199456328396668 1.530504890900869 0.05711840717045842
f 81 82 83 84
f 85 88 87 86
f 81 85 86 82
f 82 86 87 83
f 83 87 88 84
f 85 81 84 88
