o Cut_1_Spacing
v 0.5275464058174825 2.0310165589742715 0.020814974882783072
v 0.5267488187386009 2.018646193389343 0.06967157624917344
v 0.5842587790265928 2.021539794087523 0.07002686574032753
v 0.58677117832507 2.033996440063031 0.021180858273809014
v 0.5275464058174825 2.0274667756272864 0.020379116293222976
v 0.5267488187386009 2.015199191557636 0.0692483376428357
v 0.58677117832507 2.030446656716046 0.020744999684249296
v 0.5842587790265928 2.018092792255816 0.06960362713399015
f 1 2 3 4
f 5 8 7 6
f 1 5 6 2
f 2 6 7 3
f 3 7 8 4
f 5 1 4 8
o Cut_2_Vigor
v 0.45887340217032546 1.4053677394944122 0.007983284414985803
v 0.4603667973917194 1.4125724812025608 0.06972123080837594
v 0.529405279354531 1.4111894516304329 0.06955141612964642
v 0.5305132822607265 1.403932596804541 0.007807071049977097
v 0.45887340217032546 1.401948512035794 0.007563456072852313
v 0.4603667973917194 1.4092774132469659 0.06931664733630287
v 0.5305132822607265 1.400513369345923 0.007387242707843422
v 0.529405279354531 1.4078943836748379 0.06914683265757335
f 9 10 11 12
f 13 16 15 14
f 9 13 14 10
f 10 14 15 11
f 11 15 16 12
f 13 9 12 16
o Cut_3_Canopy
v 0.22906167991125306 2.0664002060071187 0.018417961068059905
v 0.23843332808811174 2.0580815543299167 0.06857078007539591
v 0.29185971213819956 2.036249018469989 0.06895186840637875
v 0.28440227295065673 2.043785434232377 0.018812703377725018
v 0.22906167991125306 2.0634068896874895 0.018470209598769854
v 0.23843332808811174 2.055191775625123 0.06862122135031638
v 0.28440227295065673 2.0407921179127477 0.01886495190843465
v 0.29185971213819956 2.0333592397651956 0.06900230968129892
f 17 18 19 20
f 21 24 23 22
f 17 21 22 18
f 18 22 23 19
f 19 23 24 20
f 21 17 20 24
o Cut_4_Spacing
v 0.1885746447045571 1.472237212670734 0.011896035735068283
v 0.20084135551674073 1.4832988440952337 0.06149814996931512
v 0.2727290386977523 1.4870320600783942 0.05898777675565525
v 0.2629731966982758 1.4761008211657745 0.00929798105037585
v 0.1885746447045571 1.4691688635909228 0.011896035735068283
v 0.20084135551674073 1.480334048401941 0.06149814996931512
v 0.2629731966982758 1.473032472085963 0.00929798105037585
v 0.2727290386977523 1.484067264385101 0.05898777675565525
f 25 26 27 28
f 29 32 31 30
f 25 29 30 26
f 26 30 31 27
f 27 31 32 28
f 29 25 28 32
o Cut_5_Spacing
v 0.9849281966801946 1.9472802941142746 -0.0012768343053096453
v 0.9693197409214436 1.9419698173869344 0.0521924825256232
v 0.9062016081696499 1.9444281692031582 0.05439661629019807
v 0.9194490876221623 1.9498306022374654 0.001009746568630857
v 0.9849281966801946 1.9442422395625234 -0.0012768343053096453
v 0.9693197409214436 1.9390413057858575 0.0521924825256232
v 0.9194490876221623 1.9467925476857144 0.001009746568630857
v 0.9062016081696499 1.9414996576020815 0.05439661629019807
f 33 34 35 36
f 37 40 39 38
f 33 37 38 34
f 34 38 39 35
f 35 39 40 36
f 37 33 36 40
o Cut_6_Spacing
v 0.7041832619134603 1.9495869410571223 -0.0016646330327422995
v 0.6990333112787703 1.9445233651791092 0.04854568442120785
v 0.7377094521227049 1.9445233651791092 0.04719508382196647
v 0.7442144748150463 1.9495869410571223 -0.0030625537909536324
v 0.7041832619134603 1.9465277918118982 -0.0016646330327422995
v 0.6990333112787703 1.9415677693204032 0.04854568442120785
v 0.7442144748150463 1.9465277918118982 -0.0030625537909536324
v 0.7377094521227049 1.9415677693204032 0.04719508382196647
f 41 42 43 44
f 45 48 47 46
f 41 45 46 42
f 42 46 47 43
f 43 47 48 44
f 45 41 44 48
o Cut_7_Canopy
v 0.626406772414703 1.4912003224025014 -0.02933864496531975
v 0.6294163023814199 1.5085588095192772 0.019181112130132412
v 0.6958725078942415 1.4904669595337385 0.01169138530565641
v 0.6955483829827994 1.4723774053174266 -0.037131021484009555
v 0.626406772414703 1.4885487203607215 -0.02905995036048951
v 0.6294163023814199 1.5060101935877293 0.019448982458603603
v 0.6955483829827994 1.4697258032756464 -0.03685232687917932
v 0.6958725078942415 1.4879183436021906 0.011959255634127879
f 49 50 51 52
f 53 56 55 54
f 49 53 54 50
f 50 54 55 51
f 51 55 56 52
f 53 49 52 56
