o Cut_1_Vigor
v 0.2035973617889581 2.3638746453946857 0.6172123850680888
v 0.32612729859713335 2.262613259084404 -0.32544196640239864
v 0.25304957405049877 2.203099132522084 -0.30949520425178134
v 0.17011772657667285 2.336609001046212 0.6245181924523766
v 0.20209188870248287 2.362621453673504 0.617548176777741
v 0.32284122493389833 2.2598778529539616 -0.3247090165387756
v 0.16861225349019768 2.3353558093250304 0.6248539841620285
v 0.2497635003872638 2.200363726391642 -0.3087622543881581
f 1 2 3 4
f 5 8 7 6
f 1 5 6 2
f 2 6 7 3
f 3 7 8 4
f 5 1 4 8
o Cut_2_Canopy
v 0.7131133086214579 2.2818399357365893 0.1431462543167912
v 0.6763754007661928 2.2873633155196016 0.18601086570758066
v 0.644817821827348 2.2490299214736367 0.18873961692725583
v 0.6804288694707166 2.242137730204133 0.14597244397379308
v 0.7099075206008034 2.2796663981260177 0.14296242907083012
v 0.6732801385817502 2.285264714885648 0.18583337819789403
v 0.6772230814500623 2.2399641925935616 0.14578861872783183
v 0.6417225596429056 2.2469313208396833 0.18856212941756903
f 9 10 11 12
f 13 16 15 14
f 9 13 14 10
f 10 14 15 11
f 11 15 16 12
f 13 9 12 16
o Cut_3_Canopy
v 0.17253666862705294 1.7317185705428075 0.08364703170778126
v 0.15530509961220218 1.755032847555063 0.12640684222663628
v 0.22629656216644622 1.7184493073982468 0.15317720778819957
v 0.24593728059983436 1.6938935400528472 0.11132587003925537
v 0.17037009308850606 1.7288989382742366 0.08388471160982165
v 0.1532096352545926 1.752305761046776 0.12663672101663642
v 0.24377070506128748 1.6910739077842762 0.11156354994129576
v 0.22420109780883668 1.7157222208899594 0.15340708657819974
f 17 18 19 20
f 21 24 23 22
f 17 21 22 18
f 18 22 23 19
f 19 23 24 20
f 21 17 20 24
o Cut_4_Canopy
v 0.5529050853411459 1.5795386752589153 -0.04439809527309133
v 0.5651176701041339 1.6078097896369814 -0.0009399777890472002
v 0.5397827678879915 1.5803658882961278 0.01809132776747244
v 0.52665939305877 1.5511081653056942 -0.02468261403274821
v 0.5499575420956009 1.5778805444213024 -0.042595175631900496
v 0.5622724138578783 1.606209200017149 0.0008003761068111597
v 0.523711849813225 1.5494500344680813 -0.022879694391557372
v 0.5369375116417359 1.5787652986762952 0.0198316816633308
f 25 26 27 28
f 29 32 31 30
f 25 29 30 26
f 26 30 31 27
f 27 31 32 28
f 29 25 28 32
o Cut_5_Canopy
v -0.8039863234707192 1.6980333978010527 0.03583401495999739
v -0.791289234539112 1.702192280500675 0.09007212457062222
v -0.8465415722964365 1.6593749579780257 0.07530512051866611
v -0.8607209612144537 1.6540673796906762 0.02067084432407389
v -0.8073545869201116 1.6948602602543326 0.034894432801516585
v -0.7945694957192768 1.6991020471889948 0.08915709077758684
v -0.8640892246638462 1.650894242143956 0.019731262165593077
v -0.8498218334766012 1.6562847246663455 0.07439008672563073
f 33 34 35 36
f 37 40 39 38
f 33 37 38 34
f 34 38 39 35
f 35 39 40 36
f 37 33 36 40
o Cut_6_Spacing
v -0.6837521641528603 2.3170026511161526 0.13260376506977892
v -0.6740586830884517 2.304816633732355 0.18505893236817023
v -0.636806034567487 2.307449457745269 0.19318066790960015
v -0.6454853103780358 2.3197071538969505 0.14094661527509483
v -0.6837521641528603 2.313105008663074 0.13233121535893969
v -0.6740586830884517 2.3010222924149493 0.18479360617641877
v -0.6454853103780358 2.3158095114438715 0.14067406556425519
v -0.636806034567487 2.303655116427863 0.19291534171784827
f 41 42 43 44
f 45 48 47 46
f 41 45 46 42
f 42 46 47 43
f 43 47 48 44
f 45 41 44 48
o Cut_7_Canopy
v -0.22581784262126683 2.2647221316417383 0.010736398253989005
v -0.20327188931483564 2.269696025992407 0.057724729271099784
v -0.2349286519292619 2.238266478279012 0.07131382048773018
v -0.25857426315027204 2.2322008187559015 0.024797532423662637
v -0.22898077690584187 2.262702557397156 0.011814718866764991
v -0.2063286414933333 2.2677442503890157 0.058766849841955966
v -0.2617371974348471 2.2301812445113196 0.025875853036438787
v -0.2379854041077596 2.23631470267562 0.07235594105858652
f 49 50 51 52
f 53 56 55 54
f 49 53 54 50
f 50 54 55 51
f 51 55 56 52
f 53 49 52 56
o Cut_8_Canopy
v -0.4928020893440544 1.6901073195575649 0.05659945307077226
v -0.4651956349300182 1.7033853867220974 0.1003931769120261
v -0.3825348842277507 1.6760238309713489 0.08408013574919898
v -0.40788761821799385 1.6619997592460265 0.039841641763342144
v -0.4928020893440544 1.6862270640514496 0.057007284358377985
v -0.4651956349300182 1.699608117326214 0.10079018392327292
v -0.40788761821799385 1.6581195037399115 0.040249473050947664
v -0.3825348842277507 1.6722465615754658 0.0844771427604456
f 57 58 59 60
f 61 64 63 62
f 57 61 62 58
f 58 62 63 59
f 59 63 64 60
f 61 57 60 64
o Cut_9_Canopy
v -0.13935288652881114 1.5175466928885941 0.15392713482818302
v -0.11947902460330663 1.5370197889134314 0.19886477797294308
v -0.06863243942931303 1.5764023629808268 0.18292198258084158
v -0.08699086865606016 1.5581030260255266 0.13750918002539356
v -0.13630301324217034 1.5203636892435841 0.1529230593688922
v -0.11651741907053419 1.5397552573105224 0.19788976191290472
v -0.08394099536941936 1.5609200223805166 0.13650510456610274
v -0.06567083389654058 1.5791378313779179 0.18194696652080322
f 65 66 67 68
f 69 72 71 70
f 65 69 70 66
f 66 70 71 67
f 67 71 72 68
f 69 65 68 72
o Cut_10_Canopy
v 0.46209484258501077 1.5600382725262045 0.08469505201944338
v 0.42014094651053385 1.573612948718442 0.11218347849830568
v 0.4059159244785855 1.5085267231538249 0.10472093903250669
v 0.4475314330138241 1.4934037634047914 0.07705499224045054
v 0.45736780256169635 1.5595441622967625 0.07999390721597517
v 0.41552374144266385 1.5731303193681057 0.10759156696290378
v 0.44280439299050967 1.4929096531753496 0.07235384743698232
v 0.40129871941071554 1.5080440938034887 0.1001290274971048
f 73 74 75 76
f 77 80 79 78
f 73 77 78 74
f 74 78 79 75
f 75 79 80 76
f 77 73 76 80
o Cut_11_Canopy
v 0.9736668002195344 2.384215372474301 0.1756469305104015
v 0.9459506492283984 2.378311082779468 0.22654291034174076
v 0.9666429672670788 2.313663255209572 0.23333767082006188
v 0.9950370672752642 2.3174494675061426 0.18266430989390053
v 0.968770494914707 2.384215372474301 0.1756469305104015
v 0.9412096740071833 2.378311082779468 0.22654291034174076
v 0.9901407619704365 2.3174494675061426 0.18266430989390053
v 0.9619019920458635 2.313663255209572 0.23333767082006188
f 81 82 83 84
f 85 88 87 86
f 81 85 86 82
f 82 86 87 83
f 83 87 88 84
f 85 81 84 88
o Cut_12_Canopy
v -0.7679950262925941 2.247740706601035 0.14611364361619342
v -0.7580478414276187 2.241988794208657 0.20121523001580593
v -0.8105769879268717 2.2414631208754305 0.18616191530145929
v -0.8222492250850814 2.247197770204359 0.1305659794444625
v -0.7679950262925941 2.2444858582810707 0.14622730542410517
v -0.7580478414276187 2.238837436193286 0.2013252778626464
v -0.8222492250850814 2.2439429218843947 0.13067964125237427
v -0.8105769879268717 2.2383117628600595 0.18627196314829972
f 89 90 91 92
f 93 96 95 94
f 89 93 94 90
f 90 94 95 91
f 91 95 96 92
f 93 89 92 96
o Cut_13_Canopy
v -0.6565870034072947 1.5801169235277954 0.08425183688658504
v -0.65127829248635 1.5855217948276359 0.13865202988091244
v -0.6045415876128281 1.59050888284081 0.15265154781922394
v -0.6085852601854008 1.58523899875499 0.09863028455686225
v -0.6565870034072947 1.5762091267205818 0.08384111089158935
v -0.65127829248635 1.5817169841306542 0.13825212816227564
v -0.6085852601854008 1.5813312019477765 0.09821955856186615
v -0.6045415876128281 1.5867040721438284 0.15225164610058672
f 97 98 99 100
f 101 104 103 102
f 97 101 102 98
f 98 102 103 99
f 99 103 104 100
f 101 97 100 104
