o Cut_1_Spacing
v -0.7611248927567719 1.9458729885045385 -0.061384513976043935
v -0.7304588517709512 1.937419207317642 -0.02179144703890923
v -0.7652961746010899 1.9096623573583502 0.00849217567835272
v -0.7968350381706766 1.9174207118152191 -0.0303421581622477
v -0.7611248927567719 1.9416362666787697 -0.061384513976043935
v -0.7304588517709512 1.9332860388783912 -0.02179144703890923
v -0.7968350381706766 1.91318398998945 -0.0303421581622477
v -0.7652961746010899 1.905529188919099 0.00849217567835272
f 1 2 3 4
f 5 8 7 6
f 1 5 6 2
f 2 6 7 3
f 3 7 8 4
f 5 1 4 8
o Cut_2_Spacing
v -0.6042351729428282 2.043970276664375 0.010291019055780393
v -0.5986514798386087 2.029329446963293 0.06191901683447017
v -0.5734070966891129 2.001545414956424 0.058371150155092935
v -0.5781299154293333 2.0152387641529668 0.006622164374712832
v -0.6076589158935592 2.0416653500327047 0.010772194747882465
v -0.6019623178492646 2.027100530010788 0.06238432477205206
v -0.5815536583800643 2.012933837521297 0.00710334006681508
v -0.5767179346997688 1.9993164980039184 0.058836458092675
f 9 10 11 12
f 13 16 15 14
f 9 13 14 10
f 10 14 15 11
f 11 15 16 12
f 13 9 12 16
o Cut_3_Spacing
v -0.661046150586874 1.9832496599204117 0.0032750035990543286
v -0.6539295305356195 1.9711883525714977 0.05276620650272044
v -0.5980234974926442 1.9698507368865552 0.04490912595396111
v -0.6033235200065069 1.9818685800648428 -0.004837383083928338
v -0.661046150586874 1.9799592371645187 0.0032750035990543286
v -0.6539295305356195 1.9680014832021224 0.05276620650272044
v -0.6033235200065069 1.9785781573089498 -0.004837383083928338
v -0.5980234974926442 1.9666638675171801 0.04490912595396111
f 17 18 19 20
f 21 24 23 22
f 17 21 22 18
f 18 22 23 19
f 19 23 24 20
f 21 17 20 24
o Cut_4_Canopy
v -0.48940368972015574 1.2077457924840391 0.1130514028511474
v -0.48849547755651357 1.2190446318652295 0.16374058197844668
v -0.5374914303876671 1.2188346783582922 0.1697528637807436
v -0.5401016728206565 1.207528545574212 0.11927254038588857
v -0.48940368972015574 1.2046631506486882 0.11294375462618979
v -0.48849547755651357 1.216065480334472 0.16363654771456038
v -0.5401016728206565 1.2044459037388613 0.11916489216093096
v -0.5374914303876671 1.2158555268275344 0.16964882951685734
f 25 26 27 28
f 29 32 31 30
f 25 29 30 26
f 26 30 31 27
f 27 31 32 28
f 29 25 28 32
o Cut_5_Spacing
v -0.21441834600352278 1.3170376982422052 0.0927601922722225
v -0.2007331394534391 1.3242153734518092 0.1431501539092319
v -0.2350341481058888 1.2719838303638393 0.16194887630940913
v -0.24984740283571416 1.263088430241173 0.11217714327319266
v -0.2176106001995125 1.3148712120114578 0.09460380590506466
v -0.20382375344624434 1.3221178673483232 0.1449350675599513
v -0.2530396570317038 1.2609219440104258 0.1140207569060348
v -0.23812476209869396 1.2698863242603533 0.16373378996012858
f 33 34 35 36
f 37 40 39 38
f 33 37 38 34
f 34 38 39 35
f 35 39 40 36
f 37 33 36 40
o Cut_6_Canopy
v -0.6714534710499322 1.3145520235722274 0.1298933203303068
v -0.6670904387461977 1.32243488437081 0.18001596352937363
v -0.7086906248008817 1.3100569523686745 0.18249445815129933
v -0.714525598868778 1.3017361224936088 0.13245951166929687
v -0.6714534710499322 1.3115236784732751 0.1297875681891651
v -0.6670904387461977 1.3195100295764508 0.17991382534930325
v -0.714525598868778 1.2987077773946567 0.13235375952815484
v -0.7086906248008817 1.3071320975743155 0.18239231997122865
f 41 42 43 44
f 45 48 47 46
f 41 45 46 42
f 42 46 47 43
f 43 47 48 44
f 45 41 44 48
o Cut_7_Vigor
v -0.9402748766100856 1.2682160931095565 0.193305579178774
v -0.9262845495245381 1.277990269277242 0.24282065218525065
v -0.8816902532205649 1.2780990976680928 0.23970421482047785
v -0.8940495097025821 1.268328901982304 0.1900751557262115
v -0.9402748766100856 1.2652831254680412 0.19320315769183785
v -0.9262845495245381 1.2751607919403198 0.24272184465938582
v -0.8940495097025821 1.265395934340789 0.18997273423927535
v -0.8816902532205649 1.2752696203311704 0.23960540729461302
f 49 50 51 52
f 53 56 55 54
f 49 53 54 50
f 50 54 55 51
f 51 55 56 52
f 53 49 52 56
o Cut_8_Canopy
v -1.138299147181348 2.050421984990802 0.025329199187023935
v -1.118049824454897 2.033214789984072 0.07884644246562819
v -1.0705765495975232 2.033330644264537 0.07552880994632165
v -1.0891519120356707 2.0505419244216028 0.02189458326800066
v -1.138299147181348 2.047057440654272 0.025211706709803158
v -1.118049824454897 2.0299648424013754 0.07873295179523254
v -1.0891519120356707 2.0471773800850728 0.02177709079077988
v -1.0705765495975232 2.03008069668184 0.075415319275926
f 57 58 59 60
f 61 64 63 62
f 57 61 62 58
f 58 62 63 59
f 59 63 64 60
f 61 57 60 64
o Cut_9_Canopy
v -0.439490314518298 1.2651599370708635 0.18492251544866628
v -0.43695711651175184 1.2613195211456611 0.23611636160925972
v -0.450110005266226 1.232445954210604 0.23102656453904938
v -0.45303466985167057 1.2354270124175397 0.179681231850777
v -0.44476584092064664 1.2648945288932778 0.18591303225215974
v -0.4420801666816196 1.2610617839445624 0.2370782499387608
v -0.45831019625401925 1.2351616042399542 0.18067174865427046
v -0.45523305543609377 1.2321882170095055 0.23198845286855044
f 65 66 67 68
f 69 72 71 70
f 65 69 70 66
f 66 70 71 67
f 67 71 72 68
f 69 65 68 72
o Cut_10_Canopy
v -0.39685315201587806 1.2854111614707542 0.20135310561230854
v -0.42695365367969124 1.2899569951214946 0.2439184883041613
v -0.40438466336145124 1.2462777716195201 0.24717399491902092
v -0.373409803234054 1.2400397356055723 0.2047347357143874
v -0.4000699499491677 1.284170841629665 0.1997065948469982
v -0.4300504758140971 1.2887629350601282 0.24233338688085365
v -0.3766266011673435 1.238799415764483 0.20308822494907708
v -0.40748148549585694 1.2450837115581537 0.24558889349571328
f 73 74 75 76
f 77 80 79 78
f 73 77 78 74
f 74 78 79 75
f 75 79 80 76
f 77 73 76 80
