o Cut_1_Canopy
v 0.4003828969336112 1.3802951321725174 -0.06933095386405577
v 0.3987363761193056 1.3897051251132022 -0.01826929722590775
v 0.4362926827044907 1.3839721943993581 -0.024891487372634823
v 0.43907813493032444 1.3743883447761667 -0.07615396834781164
v 0.4003828969336112 1.376776901929566 -0.06933095386405577
v 0.3987363761193056 1.3862904482567688 -0.01826929722590775
v 0.43907813493032444 1.3708701145332152 -0.07615396834781164
v 0.4362926827044907 1.380557517542925 -0.024891487372634823
f 1 2 3 4
f 5 8 7 6
f 1 5 6 2
f 2 6 7 3
f 3 7 8 4
f 5 1 4 8
o Cut_2_Canopy
v -0.35401345556268 2.0064925054745806 -0.027782958293248557
v -0.3289735547009525 2.004094754602846 0.022652432313066444
v -0.33009390616839274 1.9722851940667498 0.027890582410188797
v -0.355175465523767 1.97350015684563 -0.022350035886825242
v -0.3585394843611144 2.006617349719032 -0.026994722755746537
v -0.33333732366663255 2.0042151231342316 0.023412409310426086
v -0.3597014943222014 1.9736250010900815 -0.021561800349323222
v -0.33445767513407276 1.972405562598136 0.028650559407548435
f 9 10 11 12
f 13 16 15 14
f 9 13 14 10
f 10 14 15 11
f 11 15 16 12
f 13 9 12 16
o Cut_3_Vigor
v -0.34763606151526516 2.0094893404560783 -0.026831051949233613
v -0.32183040796204676 2.0102945077994496 0.020419962874762193
v -0.41511814434146965 2.011807892736916 0.03695239540505564
v -0.44453695961401885 2.0110613408636473 -0.009658295677961802
v -0.34763606151526516 2.0067833351681053 -0.026206321403223102
v -0.32183040796204676 2.007689401831407 0.02102139897729457
v -0.44453695961401885 2.0083553355756734 -0.009033565131951143
v -0.41511814434146965 2.009202786768873 0.03755383150758816
f 17 18 19 20
f 21 24 23 22
f 17 21 22 18
f 18 22 23 19
f 19 23 24 20
f 21 17 20 24
o Cut_4_Canopy
v -0.32557058571341035 2.01261717459382 0.012376612473609973
v -0.29880560647305443 2.0132702498714288 0.05916206030727119
v -0.2506260731100329 2.0186095859001476 0.04831788288408595
v -0.27547286611378674 2.018169087211974 0.0011006925567045652
v -0.32557058571341035 2.009981963402532 0.012984998914576223
v -0.29880560647305443 2.0107359380000718 0.059747152304759306
v -0.27547286611378674 2.0155338760206867 0.0017090789976708157
v -0.2506260731100329 2.0160752740287906 0.048902974881574066
f 25 26 27 28
f 29 32 31 30
f 25 29 30 26
f 26 30 31 27
f 27 31 32 28
f 29 25 28 32
o Cut_5_Canopy
v 0.4108822276003491 1.9661927044469443 0.3800688641744228
v -0.3589565897270669 1.979320825804532 -0.24686320639651865
v -0.3477932782719407 1.9269588210719584 -0.24340791796529665
v 0.4160018624026591 1.9421788316077608 0.38165350283434135
v 0.40888812984484935 1.9665307294972334 0.3815330115246545
v -0.3633046995388386 1.980057885978104 -0.24367064803679736
v 0.4140077646471593 1.9425168566580504 0.3831176501845731
v -0.35214138808371237 1.9276958812455303 -0.24021535960557533
f 33 34 35 36
f 37 40 39 38
f 33 37 38 34
f 34 38 39 35
f 35 39 40 36
f 37 33 36 40
o Cut_6_Canopy
v -0.03338168096894374 2.07421655192321 0.01860284913352816
v -0.010182312168479365 2.0719950718783964 0.06549627794585117
v 0.024488808801225132 2.0746765850451876 0.053998352198738234
v 0.002738639002736101 2.077010148175186 0.006624327949882827
v -0.03338168096894374 2.0717017035719176 0.019183447623345985
v -0.010182312168479365 2.069581122847034 0.06605358199219087
v 0.002738639002736101 2.074495299823894 0.007204926439700793
v 0.024488808801225132 2.072262636013826 0.05455565624507806
f 41 42 43 44
f 45 48 47 46
f 41 45 46 42
f 42 46 47 43
f 43 47 48 44
f 45 41 44 48
o Cut_7_Canopy
v 0.243081750601881 1.3200336017011096 0.015956635874484176
v 0.2561550913800915 1.3438778215607354 0.060606815630670406
v 0.2024860462766014 1.3530268152129397 0.07765404517230122
v 0.18737654532179146 1.3295297007749702 0.033650623521221674
v 0.243081750601881 1.3172526418275212 0.01649719971441193
v 0.2561550913800915 1.341198512506291 0.06112762055294879
v 0.18737654532179146 1.326748740901382 0.03419118736114943
v 0.2024860462766014 1.350347506158495 0.0781748500945796
f 49 50 51 52
f 53 56 55 54
f 49 53 54 50
f 50 54 55 51
f 51 55 56 52
f 53 49 52 56
