o Cut_1_Canopy
v -0.4667657812435304 2.2508999538032524 0.033134700131808685
v -0.45585244496786004 2.2376860482718706 0.08425833067580409
v -0.40544573511325016 2.2337185194155675 0.08785290159321178
v -0.4147280007853903 2.2468040428385985 0.036845584908474394
v -0.4667657812435304 2.247596683142666 0.033192358935664835
v -0.45585244496786004 2.23448631522612 0.08431418222387076
v -0.4147280007853903 2.2435007721780122 0.03690324371233019
v -0.40544573511325016 2.2305187863698173 0.0879087531412781
f 1 2 3 4
f 5 8 7 6
f 1 5 6 2
f 2 6 7 3
f 3 7 8 4
f 5 1 4 8
o Cut_2_Canopy
v -0.6336011677170281 2.241624482325673 0.050851374115500274
v -0.6171581042732919 2.2284607827751723 0.10236086340424772
v -0.5616710110869921 2.22194009067757 0.10635530907694124
v -0.5762840928779871 2.2348887357673557 0.05497755785328505
v -0.6336011677170281 2.2383815682727852 0.05090797939085019
v -0.6171581042732919 2.225321406337121 0.10241566142380816
v -0.5762840928779871 2.231645821714469 0.05503416312863497
v -0.5616710110869921 2.2188007142395185 0.10641010709650169
f 9 10 11 12
f 13 16 15 14
f 9 13 14 10
f 10 14 15 11
f 11 15 16 12
f 13 9 12 16
o Cut_3_Vigor
v -0.33299591701525966 2.116180905377902 -0.02037080571321724
v -0.3535828515268818 2.1064526743883616 0.02623090775604251
v -0.30947706173957706 2.096889321971399 0.056152099265318514
v -0.2873692990196671 2.1062877954349624 0.010582109574100856
v -0.33299591701525966 2.113074656312725 -0.02031658593410122
v -0.3535828515268818 2.1034499629380203 0.026283320279369055
v -0.2873692990196671 2.103181546369785 0.010636329353216711
v -0.30947706173957706 2.093886610521057 0.0562045117886449
f 17 18 19 20
f 21 24 23 22
f 17 21 22 18
f 18 22 23 19
f 19 23 24 20
f 21 17 20 24
o Cut_4_Canopy
v -0.5299492172820771 1.612828092490464 -0.00403975197494721
v -0.5207954419984313 1.6195767812957211 0.0476281942885521
v -0.47420357630435755 1.6196910606948933 0.05417525668233134
v -0.48185668405711435 1.6129460526905923 0.002718183364370629
v -0.5299492172820771 1.6095099783319098 -0.003981834076870616
v -0.5207954419984313 1.6163622047520025 0.04768430493083923
v -0.48185668405711435 1.609627938532038 0.002776101262447223
v -0.47420357630435755 1.6164764841511747 0.054231367324618474
f 25 26 27 28
f 29 32 31 30
f 25 29 30 26
f 26 30 31 27
f 27 31 32 28
f 29 25 28 32
o Cut_5_Canopy
v 0.023274042308234936 1.4284170910155116 0.05192468741086839
v 0.015288614739096875 1.440729765255493 0.10108638915090806
v -0.0233270103862919 1.4296688609464003 0.0958515590708208
v -0.016565811592352705 1.4170055235411603 0.04652389783649585
v 0.023274042308234936 1.4250476852869096 0.051983500606630796
v 0.015288614739096875 1.4374638971417266 0.101143395090881
v -0.016565811592352705 1.4136361178125585 0.04658271103225826
v -0.0233270103862919 1.4264029928326343 0.09590856501079373
f 33 34 35 36
f 37 40 39 38
f 33 37 38 34
f 34 38 39 35
f 35 39 40 36
f 37 33 36 40
o Cut_6_Canopy
v -0.1775277185596497 1.5697955326773505 -0.01033862530674428
v -0.14344498201911124 1.5768481636821865 0.026366438251961374
v -0.17197430527845647 1.5772371699715197 0.04865259364199478
v -0.20687410117262034 1.57019567982777 0.012585789587457728
v -0.1775277185596497 1.5660767643328914 -0.010273713963838582
v -0.14344498201911124 1.5732329329525632 0.026429542339077596
v -0.20687410117262034 1.566476911483311 0.012650700930363426
v -0.17197430527845647 1.5736219392418964 0.048715697729110996
f 41 42 43 44
f 45 48 47 46
f 41 45 46 42
f 42 46 47 43
f 43 47 48 44
f 45 41 44 48
o Cut_7_Canopy
v 0.37298854341795135 1.5186245972867265 0.02791151052738972
v 0.37889761690812657 1.5287467184719237 0.0785889504617287
v 0.31317481845580175 1.5098840605909378 0.10155182091975552
v 0.3050410514393419 1.4991234450953261 0.05165166604411562
v 0.37298854341795135 1.5154623094612705 0.02796670846670457
v 0.37889761690812657 1.5256879682613034 0.07864234114525409
v 0.3050410514393419 1.4959611572698697 0.05170686398343081
v 0.31317481845580175 1.506825310380317 0.10160521160328125
f 49 50 51 52
f 53 56 55 54
f 49 53 54 50
f 50 54 55 51
f 51 55 56 52
f 53 49 52 56
o Cut_8_Spacing
v 0.6485169085092104 1.5565584932630898 0.10796781584391102
v 0.6063553605123401 1.5632893527798342 0.1386908030638835
v 0.6075862492433474 1.4978039390454994 0.14076153769147884
v 0.6497796463083951 1.489378653904313 0.11009213043098635
v 0.6435985447813856 1.556493810230998 0.10426212741719942
v 0.6015610489050666 1.5632263011983096 0.13507858037758377
v 0.6448612825805704 1.4893139708722212 0.10638644200427476
v 0.6027919376360739 1.4977408874639748 0.1371493150051791
f 57 58 59 60
f 61 64 63 62
f 57 61 62 58
f 58 62 63 59
f 59 63 64 60
f 61 57 60 64
