o Cut_1_Canopy
v -0.842620444565665 2.1346076053948106 0.11523155981117832
v -0.8174842542856772 2.132935380450293 0.16450407383926102
v -0.7632930937456824 2.1195987649725163 0.16173753279799322
v -0.7855736998973922 2.1205682216591892 0.11231923686361892
v -0.842620444565665 2.132591913514374 0.11569691894948123
v -0.8174842542856772 2.1310205878897865 0.1649461385340858
v -0.7855736998973922 2.1185525297787526 0.11278459600192182
v -0.7632930937456824 2.1176839724120105 0.162179597492818
f 1 2 3 4
f 5 8 7 6
f 1 5 6 2
f 2 6 7 3
f 3 7 8 4
f 5 1 4 8
o Cut_2_Canopy
v -0.7239336106018899 2.171586878885664 0.04898959820777797
v -0.7024349339445976 2.1676407587491773 0.10788905794923649
v -0.7313124879823024 2.164989934623424 0.11161603915144017
v -0.7545263202857365 2.168778611509686 0.05293794001565082
v -0.7239336106018899 2.1694833813992114 0.049475228867512454
v -0.7024349339445976 2.1656551921563207 0.10834746211688868
v -0.7545263202857365 2.1666751140232337 0.05342357067538518
v -0.7313124879823024 2.1630043680305673 0.11207444331909236
f 9 10 11 12
f 13 16 15 14
f 9 13 14 10
f 10 14 15 11
f 11 15 16 12
f 13 9 12 16
o Cut_3_Spacing
v -0.4507533259401171 1.9937921977063635 0.030185837813639805
v -0.4364129346916157 1.9987989745957868 0.07824657193286483
v -0.4008109094171921 1.9838137514802863 0.07259611086225716
v -0.4135261204643528 1.978122921149176 0.024277441488236524
v -0.4507533259401171 1.991480946491073 0.03071943220095074
v -0.4364129346916157 1.9965886227004268 0.07875687187669764
v -0.4135261204643528 1.9758116699338855 0.024811035875547335
v -0.4008109094171921 1.9816033995849263 0.07310641080608996
f 17 18 19 20
f 21 24 23 22
f 17 21 22 18
f 18 22 23 19
f 19 23 24 20
f 21 17 20 24
o Cut_4_Canopy
v -0.6782096849356148 2.045263410871586 0.07879205285780447
v -0.6796790561206297 2.0468133277937466 0.13004179700744872
v -0.6692662643175437 2.0199238969855715 0.13775162773202987
v -0.6671650331195228 2.0167422989137758 0.08696972485243414
v -0.6808983673620946 2.04517840869036 0.07842386796056224
v -0.6822139201251936 2.0467331885525417 0.12969467581758576
v -0.6698537155460027 2.0166572967325496 0.086601539955192
v -0.6718011283221075 2.019843757744366 0.137404506542167
f 25 26 27 28
f 29 32 31 30
f 25 29 30 26
f 26 30 31 27
f 27 31 32 28
f 29 25 28 32
o Cut_5_Canopy
v -0.5590376914593774 2.052403059312318 0.015275977004703229
v -0.541417549957666 2.05479427235928 0.06321399458739037
v -0.5137786436314261 2.04959344592462 0.057865910623583046
v -0.5301553531751828 2.046968255681879 0.009687290954983767
v -0.5590376914593774 2.050059377961495 0.015817058478742343
v -0.541417549957666 2.0525514903283875 0.06373178161795136
v -0.5301553531751828 2.044624574331056 0.01022837242902301
v -0.5137786436314261 2.0473506638937278 0.05838369765414415
f 33 34 35 36
f 37 40 39 38
f 33 37 38 34
f 34 38 39 35
f 35 39 40 36
f 37 33 36 40
o Cut_6_Canopy
v -0.3969014152504268 2.0984580314027648 -0.04810174094777223
v -0.3800951141484507 2.0989090427370476 0.0001270652685314096
v -0.34991103717629596 2.1015565492688677 -0.011150755105918432
v -0.3654353115004132 2.101217987100133 -0.05985857109049379
v -0.3969014152504268 2.0959815554632066 -0.0475300014272406
v -0.3800951141484507 2.09653346611742 0.0006755103455849113
v -0.3654353115004132 2.0987415111605747 -0.05928683156996202
v -0.34991103717629596 2.0991809726492403 -0.0106023100288648
f 41 42 43 44
f 45 48 47 46
f 41 45 46 42
f 42 46 47 43
f 43 47 48 44
f 45 41 44 48
o Cut_7_Vigor
v -0.2454308985807651 2.061645713033546 -0.01880172792028175
v -0.23416747795953208 2.063711863712262 0.031012963950854663
v -0.20155858141239044 2.0677597326393573 0.01855494995618389
v -0.21135144190607943 2.0658761282984828 -0.031821559718951606
v -0.2454308985807651 2.059307424419794 -0.018261891457695238
v -0.23416747795953208 2.0614744744184392 0.03152950596996303
v -0.21135144190607943 2.0635378396847304 -0.03128172325636509
v -0.20155858141239044 2.065522343345535 0.019071491975292263
f 49 50 51 52
f 53 56 55 54
f 49 53 54 50
f 50 54 55 51
f 51 55 56 52
f 53 49 52 56
o Cut_8_Vigor
v -0.1873741435627731 2.0588277943113353 -0.02559658921064389
v -0.1785239498175096 2.0610385157787348 0.025037523666990663
v -0.1479233134384497 2.0280148038563075 0.021847847191314638
v -0.15537836039604322 2.024298462537255 -0.028931689684488632
v -0.1896160706462916 2.057274528350027 -0.024445726455272387
v -0.18066811972620095 2.059552978555461 0.026138204107153985
v -0.15762028747956172 2.0227451965759466 -0.027780826929117125
v -0.1500674833471411 2.0265292666330335 0.022948527631477714
f 57 58 59 60
f 61 64 63 62
f 57 61 62 58
f 58 62 63 59
f 59 63 64 60
f 61 57 60 64
o Cut_9_Canopy
v -0.5523238379835383 1.4016270431880244 0.14693521789439323
v -0.5320862299172932 1.4213608306517724 0.1910266798334153
v -0.499432319007841 1.3780726359982465 0.18427087609037873
v -0.5184633136361013 1.3567392815631825 0.13992977656266628
v -0.5554042561157482 1.399817874212905 0.14819188472292563
v -0.5350568779267844 1.4196161310739537 0.19223856557507474
v -0.5215437317683111 1.3549301125880633 0.14118644339119898
v -0.5024029670173322 1.3763279364204277 0.18548276183203816
f 65 66 67 68
f 69 72 71 70
f 65 69 70 66
f 66 70 71 67
f 67 71 72 68
f 69 65 68 72
o Cut_10_Canopy
v -0.36818088495922896 1.5115201633351891 -0.033988606536802544
v -0.35540919754051475 1.5262923100941028 0.013209227750707491
v -0.3192631966618256 1.4948553755064913 0.003998760094945624
v -0.3307905639726179 1.479001017468657 -0.043516143019788
v -0.37077659895272136 1.5091108667182533 -0.03283668008609153
v -0.3579185282393125 1.5239631929500175 0.01432281900643636
v -0.33338627796611037 1.4765917208517212 -0.04236421656907682
v -0.32177252736062334 1.4925262583624055 0.005112351350674654
f 73 74 75 76
f 77 80 79 78
f 73 77 78 74
f 74 78 79 75
f 75 79 80 76
f 77 73 76 80
o Cut_11_Canopy
v -0.4079692634424961 1.4415811173195265 -0.0048520963044550655
v -0.3938024292361118 1.4587669358577267 0.04160901718392504
v -0.400340348428153 1.4315208683755587 0.04673628054436201
v -0.4147334226541595 1.4133922191506019 0.0004525923390421995
v -0.41236033013073436 1.4417391607510677 -0.003348413497175542
v -0.3980466284449453 1.458919693229621 0.04306240649319851
v -0.41912448934239777 1.413550262582143 0.001956275146321723
v -0.40458454763698654 1.4316736257474532 0.04818966985363548
f 81 82 83 84
f 85 88 87 86
f 81 85 86 82
f 82 86 87 83
f 83 87 88 84
f 85 81 84 88
o Cut_12_Canopy
v -0.40508973210628135 1.40096728355631 0.0007772790172633675
v -0.39099831123977113 1.4195390505934482 0.04711883337679255
v -0.359446853821471 1.409672790242009 0.037231938938658324
v -0.3724447812598074 1.3907590836642687 -0.009452270086543353
v -0.40508973210628135 1.3978927552420404 0.001100424964537395
v -0.39099831123977113 1.4165675083894105 0.047431155047707674
v -0.3724447812598074 1.387684555349999 -0.009129124139269326
v -0.359446853821471 1.4067012480379713 0.03754426060957345
f 89 90 91 92
f 93 96 95 94
f 89 93 94 90
f 90 94 95 91
f 91 95 96 92
f 93 89 92 96
o Cut_13_Canopy
v -0.24773399767402304 1.5153683255854937 0.016542604937719217
v -0.23843132388951524 1.5309137202492624 0.06486022429492251
v -0.19312714409270587 1.5292831305664802 0.04934619977763769
v -0.20077072439998447 1.513678021750091 0.00046043820932623996
v -0.24773399767402304 1.5124531403324448 0.016849003254398753
v -0.23843132388951524 1.5281015211064453 0.06515579833524329
v -0.20077072439998447 1.510762836497042 0.0007668365260057764
v -0.19312714409270587 1.5264709314236633 0.04964177381795847
f 97 98 99 100
f 101 104 103 102
f 97 101 102 98
f 98 102 103 99
f 99 103 104 100
f 101 97 100 104
o Cut_14_Canopy
v -0.13522819605967323 1.490082759194375 -0.028209656114061968
v -0.16085293079071825 1.5064777007313477 0.0157165071946309
v -0.11354643903797938 1.5076193150515045 0.0265782419027649
v -0.08609541361868832 1.4912684461042593 -0.01692859872481802
v -0.13522819605967323 1.4873121191308676 -0.027918450108990564
v -0.16085293079071825 1.5038100467780722 0.015996888923343396
v -0.08609541361868832 1.488497806040752 -0.01663739271974662
v -0.11354643903797938 1.5049516610982292 0.026858623631477396
f 105 106 107 108
f 109 112 111 110
f 105 109 110 106
f 106 110 111 107
f 107 111 112 108
f 109 105 108 112
o Cut_15_Canopy
v -0.6259137838871314 1.4910002197488332 -0.03826362459198258
v -0.633897327714693 1.508685405135327 0.009622152521791744
v -0.5911983584464844 1.5004224049974808 0.02040276233460705
v -0.5814273811793627 1.4823913198618692 -0.027031724670564562
v -0.6259137838871314 1.4884370576910573 -0.037994225404037976
v -0.633897327714693 1.5062252291877827 0.009880727433377439
v -0.5814273811793627 1.479828157804093 -0.02676232548261996
v -0.5911983584464844 1.4979622290499366 0.020661337246192745
f 113 114 115 116
f 117 120 119 118
f 113 117 118 114
f 114 118 119 115
f 115 119 120 116
f 117 113 116 120
