o Cut_1_Spacing
v -0.6384200729334867 2.215910307721863 0.05300547861448569
v -0.6178982885763825 2.2025410199929447 0.10594752702142346
v -0.570856649322625 2.2122408036072327 0.10594752702142346
v -0.5898160756113899 2.225932242847691 0.05300547861448569
v -0.6384200729334867 2.212499270516537 0.05300547861448569
v -0.6178982885763825 2.1992396293556533 0.10594752702142346
v -0.5898160756113899 2.222521205642365 0.05300547861448569
v -0.570856649322625 2.2089394129699413 0.10594752702142346
f 1 2 3 4
f 5 8 7 6
f 1 5 6 2
f 2 6 7 3
f 3 7 8 4
f 5 1 4 8
o Cut_2_Spacing
v -0.46663567085118957 2.276073461615457 0.03789995529702765
v -0.45259813826287354 2.2617520173939534 0.08789995529702767
v -0.3947375808144948 2.291180825786284 0.08789995529702767
v -0.40698054247532717 2.306415017590949 0.03789995529702765
v -0.4644521090337544 2.27919283556335 0.03789995529702765
v -0.45048026328012664 2.2647775530088943 0.08789995529702767
v -0.40479698065789205 2.309534391538842 0.03789995529702765
v -0.3926197058317479 2.294206361401225 0.08789995529702767
f 9 10 11 12
f 13 16 15 14
f 9 13 14 10
f 10 14 15 11
f 11 15 16 12
f 13 9 12 16
o Cut_3_Spacing
v -0.3731526203396588 2.0947813701508995 0.017079541189686787
v -0.362066159943205 2.086023339769616 0.06707954118968527
v -0.3203894796619728 2.033502925022838 0.06707954118968527
v -0.33019980073221605 2.040652781090933 0.017079541189686787
v -0.3771070106793862 2.0925013613626637 0.017079541189686787
v -0.3659030643281142 2.0838110706293325 0.06707954118968527
v -0.3341541910719434 2.0383727723026968 0.017079541189686787
v -0.3242263840468819 2.031290655882554 0.06707954118968527
f 17 18 19 20
f 21 24 23 22
f 17 21 22 18
f 18 22 23 19
f 19 23 24 20
f 21 17 20 24
o Cut_4_Canopy
v -0.46854141319622294 1.6918196607263583 0.6163583347747941
v -1.0252704864799933 1.3330477503186884 -0.39553393096666206
v -0.9652321246590929 1.3213904963162146 -0.39410260015263476
v -0.4411043034144622 1.6864923775007792 0.6170124429064524
v -0.46854141319622294 1.6900064818285094 0.6165809651496049
v -1.0252704864799933 1.3290801206528462 -0.39504676730031646
v -0.4411043034144622 1.6846791986029304 0.6172350732812631
v -0.9652321246590929 1.3174228666503727 -0.3936154364862889
f 25 26 27 28
f 29 32 31 30
f 25 29 30 26
f 26 30 31 27
f 27 31 32 28
f 29 25 28 32
o Cut_5_Canopy
v -0.21581082228365153 1.4649301043193603 0.03035262877593946
v -0.21752734773290275 1.4829515183959023 0.07886939284423512
v -0.18197944321997137 1.490937780398902 0.08356132021378138
v -0.1790024898372471 1.473199536535922 0.035210918590739035
v -0.21581082228365153 1.461928571202529 0.03072117070172521
v -0.21752734773290275 1.480052766794349 0.07922531478679852
v -0.1790024898372471 1.4701980034190911 0.03557946051652446
v -0.18197944321997137 1.4880390287973486 0.08391724215634445
f 33 34 35 36
f 37 40 39 38
f 33 37 38 34
f 34 38 39 35
f 35 39 40 36
f 37 33 36 40
o Cut_6_Spacing
v 0.03429208801900631 1.4482679200907855 0.058302244026827606
v 0.02410706239173299 1.4666866959563452 0.10541886677261726
v -0.019638789968295062 1.4154725076917867 0.10472648300326114
v -0.010989910884942035 1.395255332799622 0.05758554702828523
v 0.0310153506216008 1.446116520822109 0.05804352094168142
v 0.020941485034745216 1.464608280757082 0.10516892060948643
v -0.014266648282347503 1.3931039335309454 0.05732682394313937
v -0.022804367325282796 1.4133940924925235 0.10447653684013031
f 41 42 43 44
f 45 48 47 46
f 41 45 46 42
f 42 46 47 43
f 43 47 48 44
f 45 41 44 48
o Cut_7_Spacing
v 0.6617103633368934 1.5417050546177342 0.0855780489195719
v 0.6329363532751054 1.5566241494562718 0.13094048039488848
v 0.5971103409379166 1.5195607197677077 0.13105938131105174
v 0.6246573059218032 1.50337219816346 0.08570102220590439
v 0.6585298997907308 1.5393909260148055 0.08546874368836435
v 0.6298612136188462 1.5543866552881225 0.13083479490400196
v 0.6214768423756407 1.5010580695605316 0.08559171697469685
v 0.5940352012816572 1.5173232255995588 0.13095369582016522
f 49 50 51 52
f 53 56 55 54
f 49 53 54 50
f 50 54 55 51
f 51 55 56 52
f 53 49 52 56
