o Cut_1_Spacing
v -0.6083891439912414 2.047682316835994 0.009402130840253431
v -0.6098814434399816 2.031626985638663 0.06285977607524176
v -0.581225331611397 1.9991456495269255 0.06285977607524176
v -0.5786671039849852 2.013992764773083 0.009402130840253431
v -0.6117271012194867 2.0455426007168698 0.009402130840253431
v -0.6130996907605389 2.0295640066379566 0.06285977607524176
v -0.5820050612132305 2.0118530486539585 0.009402130840253431
v -0.5844435789319543 1.9970826705262192 0.06285977607524176
f 1 2 3 4
f 5 8 7 6
f 1 5 6 2
f 2 6 7 3
f 3 7 8 4
f 5 1 4 8
o Cut_2_Spacing
v -0.26330178361399476 1.315181087345871 0.1027806727176277
v -0.2771399194325899 1.3253734353578361 0.15278067271762635
v -0.3061520870848092 1.2609620875739598 0.15278067271762635
v -0.29339069382270405 1.248379210177525 0.1027806727176277
v -0.2671982031440701 1.3139058955311478 0.1027806727176277
v -0.2808969041776608 1.3241438767443514 0.15278067271762635
v -0.29728711335277946 1.247104018362802 0.1027806727176277
v -0.30990907182988003 1.259732528960475 0.15278067271762635
f 9 10 11 12
f 13 16 15 14
f 9 13 14 10
f 10 14 15 11
f 11 15 16 12
f 13 9 12 16
o Cut_3_Spacing
v -0.5190141218525703 1.2884677691786417 0.10823997253656392
v -0.5237198856179719 1.299659793115022 0.15823997253656466
v -0.4926849422528972 1.257670482637899 0.15823997253656466
v -0.48682267722311734 1.2449137485589565 0.10823997253656392
v -0.5223811765413895 1.28665953614966 0.10823997253656392
v -0.5269659763969797 1.29791652218415 0.15823997253656466
v -0.49018973191193654 1.243105515529975 0.10823997253656392
v -0.4959310330319051 1.255927211707027 0.15823997253656466
f 17 18 19 20
f 21 24 23 22
f 17 21 22 18
f 18 22 23 19
f 19 23 24 20
f 21 17 20 24
o Cut_4_Spacing
v -0.5600480154805634 2.0111056244232444 -0.0037352351222646276
v -0.5630389670263694 1.9974361427611407 0.04626476487773608
v -0.5386898777937525 1.9835353555739468 0.04626476487773608
v -0.5348614598151209 1.9967267313591563 -0.0037352351222646276
v -0.5600480154805634 2.0079912869027723 -0.0037352351222646276
v -0.5630389670263694 1.994425358627187 0.04626476487773608
v -0.5348614598151209 1.9936123938386843 -0.0037352351222646276
v -0.5386898777937525 1.980524571439993 0.04626476487773608
f 25 26 27 28
f 29 32 31 30
f 25 29 30 26
f 26 30 31 27
f 27 31 32 28
f 29 25 28 32
o Cut_5_Spacing
v -0.929522867366878 1.2822915176012724 0.19881428767295103
v -0.9223888410262165 1.295135180021468 0.2494352422953336
v -0.8770627182611571 1.328149306042832 0.25260475355805423
v -0.8822871985293929 1.316696497082691 0.20211732740477564
v -0.9273967138785285 1.2844228628871244 0.19896296280809378
v -0.9203486392803315 1.297180363681588 0.24957790709914482
v -0.8801610450410435 1.3188278423685431 0.2022660025399184
v -0.8750225165152722 1.3301944897029518 0.25274741836186543
f 33 34 35 36
f 37 40 39 38
f 33 37 38 34
f 34 38 39 35
f 35 39 40 36
f 37 33 36 40
o Cut_6_Spacing
v -1.1253446687543702 2.0385927978368175 0.021982798249457477
v -1.1113942158980037 2.0221579929913327 0.07553062376262758
v -1.0813828829001304 2.030355235573689 0.07762922060134393
v -1.0941649807586962 2.0471091628433578 0.024163094428388297
v -1.1253446687543702 2.035694192175663 0.021982798249457477
v -1.1113942158980037 2.0193680029266954 0.07553062376262758
v -1.0941649807586962 2.044210557182203 0.024163094428388297
v -1.0813828829001304 2.0275652455090514 0.07762922060134393
f 41 42 43 44
f 45 48 47 46
f 41 45 46 42
f 42 46 47 43
f 43 47 48 44
f 45 41 44 48
