o Cut_1_Canopy
v -0.8279496109695764 2.1592531276503864 0.10143814164138644
v -0.8162250809100171 2.146409465230191 0.1514381416413858
v -0.755991732165252 2.1182746863282467 0.1514381416413858
v -0.7654830184039427 2.1300752086534005 0.10143814164138644
v -0.82966110153561 2.1565908090578416 0.10143814164138644
v -0.817875383958466 2.143842327218206 0.1514381416413858
v -0.7671945089699767 2.127412890060856 0.10143814164138644
v -0.757642035213701 2.1157075483162617 0.1514381416413858
f 1 2 3 4
f 5 8 7 6
f 1 5 6 2
f 2 6 7 3
f 3 7 8 4
f 5 1 4 8
o Cut_2_Vigor
v -0.7235721678927335 2.1222528015544975 0.09844665358524099
v -0.7155962971039177 2.1107565284237304 0.14844665358523979
v -0.6681651117410559 2.1107565284237304 0.14844665358523979
v -0.6743862909563321 2.1222528015544975 0.09844665358524099
v -0.7235721678927335 2.119350089646355 0.09844665358524099
v -0.7155962971039177 2.1079573699021066 0.14844665358523979
v -0.6743862909563321 2.119350089646355 0.09844665358524099
v -0.6681651117410559 2.1079573699021066 0.14844665358523979
f 9 10 11 12
f 13 16 15 14
f 9 13 14 10
f 10 14 15 11
f 11 15 16 12
f 13 9 12 16
o Cut_3_Spacing
v -0.2487053100861671 2.1091166024971355 -0.02945950079156755
v -0.25710258915284256 2.0987871427851092 0.02164901349390663
v -0.19578867961860863 2.1296296865564757 0.02164901349390663
v -0.18527169903995683 2.141025413077485 -0.02945950079156755
v -0.24671418807599957 2.1119926675519256 -0.02945950079156755
v -0.2551780026002325 2.101567101070245 0.02164901349390663
v -0.18328057702978925 2.143901478132275 -0.02945950079156755
v -0.19386409306599853 2.132409644841611 0.02164901349390663
f 17 18 19 20
f 21 24 23 22
f 17 21 22 18
f 18 22 23 19
f 19 23 24 20
f 21 17 20 24
o Cut_4_Spacing
v -0.20015927849666126 2.0043100185955223 0.01278105422471871
v -0.21128561824705988 2.000448611434207 0.06317316502118572
v -0.16057950819009198 2.028575927679567 0.06120631146762072
v -0.1474990800964334 2.0335212921931722 0.010738402989225383
v -0.19825688908618413 2.006789752107336 0.012607654365768014
v -0.2094538217527564 2.0028363282332653 0.06300619959760352
v -0.1455966906859563 2.036001025704986 0.010565003130274687
v -0.1587477116957885 2.030963644478626 0.061039346044038524
f 25 26 27 28
f 29 32 31 30
f 25 29 30 26
f 26 30 31 27
f 27 31 32 28
f 29 25 28 32
o Cut_5_Spacing
v -0.39937048278824006 2.117908308384576 -0.06550903928069235
v -0.4031011986123289 2.109838893825204 -0.012260222284130907
v -0.3606399260941361 2.109838893825204 -0.012260222284130907
v -0.35527440221230044 2.117908308384576 -0.06550903928069235
v -0.39937048278824006 2.1149794905224923 -0.06530423638483371
v -0.4031011986123289 2.107018658290123 -0.012063012204232927
v -0.35527440221230044 2.1149794905224923 -0.06530423638483371
v -0.3606399260941361 2.107018658290123 -0.012063012204232927
f 33 34 35 36
f 37 40 39 38
f 33 37 38 34
f 34 38 39 35
f 35 39 40 36
f 37 33 36 40
o Cut_6_Spacing
v -0.4489737651739863 1.9835335354473764 0.02887782969190481
v -0.45088797416330206 1.9804092192856175 0.0792183980646581
v -0.4181466236055035 1.9826340689980009 0.07906282141721761
v -0.41495627528997714 1.9858451017479428 0.028716189229910045
v -0.4489737651739863 1.9807798820918263 0.029070383892256076
v -0.45088797416330206 1.9777588670657407 0.0794037287459216
v -0.41495627528997714 1.9830914483923932 0.028908743430261313
v -0.4181466236055035 1.9799837167781242 0.0792481520984811
f 41 42 43 44
f 45 48 47 46
f 41 45 46 42
f 42 46 47 43
f 43 47 48 44
f 45 41 44 48
o Cut_7_Canopy
v -0.5435141881454334 2.067087237444705 -0.008144762410933816
v -0.5419190139876702 2.0609711989906274 0.04240500756394276
v -0.5167676055950681 2.0404620497557957 0.04383914698560811
v -0.5174056752581734 2.045797638916225 -0.006656048658279929
v -0.5435141881454334 2.0642693225283657 -0.007947714604506197
v -0.5419190139876702 2.0582565852099615 0.04259483185128247
v -0.5174056752581734 2.0429797239998857 -0.00645900085185231
v -0.5167676055950681 2.03774743597513 0.04402897127294811
f 49 50 51 52
f 53 56 55 54
f 49 53 54 50
f 50 54 55 51
f 51 55 56 52
f 53 49 52 56
o Cut_8_Vigor
v -0.6409995421381531 2.047979329806737 0.05740774034642289
v -0.6355759500017585 2.042296874293575 0.10792719124852683
v -0.6106539003690823 2.017368402429529 0.10967035981260301
v -0.615080508656875 2.0220536171785843 0.059220642777873124
v -0.643733621946981 2.04600293874841 0.057545943072285326
v -0.6382048625630438 2.040396505744541 0.10806007796267852
v -0.6178145884657028 2.020077226120258 0.05935884550373556
v -0.6132828129303675 2.015468033880495 0.1098032465267547
f 57 58 59 60
f 61 64 63 62
f 57 61 62 58
f 58 62 63 59
f 59 63 64 60
f 61 57 60 64
o Cut_9_Vigor
v -0.6436149717371211 1.420825775165219 -0.016962630534106286
v -0.6385502937862231 1.437732990873767 0.03197719667661173
v -0.5807300924423663 1.4436635795930277 0.0315624895145256
v -0.5836811646342281 1.4269731553549376 -0.01739249723257792
v -0.6436149717371211 1.417896548504818 -0.01675779905228455
v -0.6385502937862231 1.434907065349039 0.03217480463934554
v -0.5836811646342281 1.4240439286945368 -0.01718766575075618
v -0.5807300924423663 1.4408376540683 0.03176009747725942
f 65 66 67 68
f 69 72 71 70
f 65 69 70 66
f 66 70 71 67
f 67 71 72 68
f 69 65 68 72
o Cut_10_Vigor
v -0.5318082385732453 1.3887281751860048 0.02800287807792553
v -0.5306517373088669 1.4073263643641245 0.07682446090483704
v -0.48203174019825035 1.4119230114464607 0.07650303202873998
v -0.481353791181201 1.3934982554447068 0.027669321572719948
v -0.5318082385732453 1.3858869961319151 0.028201552671338795
v -0.5306517373088669 1.4045884864457088 0.07701591197916252
v -0.481353791181201 1.3906570763906172 0.027867996166133214
v -0.48203174019825035 1.4091851335280443 0.07669448310306548
f 73 74 75 76
f 77 80 79 78
f 73 77 78 74
f 74 78 79 75
f 75 79 80 76
f 77 73 76 80
o Cut_11_Canopy
v -0.43085359687803876 1.4334862019908077 0.0017110382554306948
v -0.43332611682257166 1.4501766262288978 0.05066602500253418
v -0.41074302735924895 1.4723913917708704 0.049112617270111424
v -0.40743304098189037 1.45652477512052 0.00010002428474240766
v -0.43085359687803876 1.43059728617599 0.0019130509283340604
v -0.43332611682257166 1.4473910115497532 0.05086081415634963
v -0.40743304098189037 1.4536358593057022 0.00030203695764577306
v -0.41074302735924895 1.4696057770917257 0.04930740642392717
f 81 82 83 84
f 85 88 87 86
f 81 85 86 82
f 82 86 87 83
f 83 87 88 84
f 85 81 84 88
o Cut_12_Spacing
v -0.3638612894218122 1.5259314016735015 -0.0408979224435958
v -0.3686069325411576 1.5389797292079 0.008311744514787313
v -0.3222329087321542 1.522173216867873 0.009486970342614674
v -0.3158123327471575 1.5085178732161928 -0.039680249913888584
v -0.3638612894218122 1.522967992277106 -0.040690700672022455
v -0.3686069325411576 1.5361196209471775 0.008511742767273048
v -0.3158123327471575 1.5055544638197973 -0.039473028142315236
v -0.3222329087321542 1.5193131086071507 0.009686968595100409
f 89 90 91 92
f 93 96 95 94
f 89 93 94 90
f 90 94 95 91
f 91 95 96 92
f 93 89 92 96
