o Cut_1_Spacing
v 0.986969635944398 1.447108131292629 0.025227396798750867
v 0.9512420165549711 1.4554960165506174 0.06802757106259733
v 0.958229502127568 1.3868140922677732 0.07204016817303215
v 0.9941514077604252 1.3765165138988869 0.029351563716505723
v 0.9813750356997127 1.44706305457087 0.02393656837729482
v 0.9457987652939183 1.4554521592754184 0.06677166302170227
v 0.98855680751574 1.3764714371771276 0.02806073529504968
v 0.952786250866515 1.3867702349925741 0.0707842601321371
f 1 2 3 4
f 5 8 7 6
f 1 5 6 2
f 2 6 7 3
f 3 7 8 4
f 5 1 4 8
o Cut_2_Canopy
v 0.2001780142377982 1.3204411749184868 0.009611558932339889
v 0.20556891827030227 1.334019010694751 0.05905576852937683
v 0.24580039690901212 1.354037646715927 0.05053172833773405
v 0.2417013325868727 1.3411026127912113 0.0008138103415805294
v 0.2001780142377982 1.3171147089264752 0.009727721684469112
v 0.20556891827030227 1.3307960350073322 0.059168317320434725
v 0.2417013325868727 1.3377761467991998 0.0009299730937097537
v 0.24580039690901212 1.3508146710285085 0.05064427712879195
f 9 10 11 12
f 13 16 15 14
f 9 13 14 10
f 10 14 15 11
f 11 15 16 12
f 13 9 12 16
o Cut_3_Canopy
v -0.024295318618234512 1.9687621555007588 0.04482071797336326
v -0.05988647242700671 1.9667119389461265 0.08137614730509787
v -0.07912495236978857 1.944733446095625 0.06998892722130239
v -0.04425658183537733 1.945957938004898 0.03300568382928269
v -0.024295318618234512 1.9659457467014985 0.04531732683337754
v -0.05988647242700671 1.96399751032476 0.08185477430825203
v -0.04425658183537733 1.9431415292056375 0.03350229268929712
v -0.07912495236978857 1.9420190174742582 0.07046755422445669
f 17 18 19 20
f 21 24 23 22
f 17 21 22 18
f 18 22 23 19
f 19 23 24 20
f 21 17 20 24
o Cut_4_Canopy
v -0.04603020595805804 2.094765381569596 0.016506824186535474
v -0.028627633165495325 2.0831387159269488 0.06347091157188751
v 0.02666890742542242 2.0974616585784234 0.04656506253471973
v 0.01094435452988375 2.1095229659273382 -0.0009120470172506563
v -0.04603020595805804 2.091249387096364 0.016506824186535474
v -0.028627633165495325 2.079726274840235 0.06347091157188751
v 0.01094435452988375 2.106006971454106 -0.0009120470172506563
v 0.02666890742542242 2.09404921749171 0.04656506253471973
f 25 26 27 28
f 29 32 31 30
f 25 29 30 26
f 26 30 31 27
f 27 31 32 28
f 29 25 28 32
o Cut_5_Canopy
v 0.1714736062688695 1.9073056408210054 0.6104568917690414
v -0.7397198099373499 2.1520550626211934 -0.33962306880334775
v -0.7525983633527927 2.0610233795304267 -0.33157565547711004
v 0.1655676957075423 1.8655598824863404 0.6141473142739324
v 0.16859816606432323 1.9073056408210054 0.6122536662261102
v -0.7459900556314938 2.1520550626211934 -0.3357049844401358
v 0.16269225550299599 1.8655598824863404 0.6159440887310013
v -0.7588686090469368 2.0610233795304267 -0.3276575711138981
f 33 34 35 36
f 37 40 39 38
f 33 37 38 34
f 34 38 39 35
f 35 39 40 36
f 37 33 36 40
o Cut_6_Canopy
v -0.4101813680394137 2.037821682859936 -0.007786045748448309
v -0.36662843773029075 2.0328072083574193 0.02227388614000045
v -0.3414323065126483 1.9978917068485962 0.006576998971329384
v -0.3842414269290555 2.0018754478941756 -0.023946317547880652
v -0.4130260580931565 2.0355060551606963 -0.005134382269266574
v -0.369391558261779 2.030557979682882 0.0248495150006155
v -0.3870861169827983 1.9995598201949358 -0.021294654068699112
v -0.3441954270441365 1.9956424781740578 0.009152627831944244
f 41 42 43 44
f 45 48 47 46
f 41 45 46 42
f 42 46 47 43
f 43 47 48 44
f 45 41 44 48
o Cut_7_Spacing
v 0.03587640735914449 1.9258942317086094 0.028993760156106878
v 0.07295199318586902 1.9237187727682905 0.06395149264318581
v 0.05217279154567448 1.8911908224373524 0.08551502892214204
v 0.014353395826234213 1.8922019146390032 0.05132918227957009
v 0.03318541582503263 1.9243056665111966 0.03141755589198073
v 0.07035399914521787 1.922185106510427 0.06629152485723519
v 0.011662404292122508 1.8906133494415904 0.05375297801544395
v 0.049574797505023485 1.8896571561794888 0.08785506113619142
f 49 50 51 52
f 53 56 55 54
f 49 53 54 50
f 50 54 55 51
f 51 55 56 52
f 53 49 52 56
