o Cut_1_Vigor
v -0.5284674970661343 1.5994717176115039 0.09210416235610495
v -0.5119973238872297 1.6099683148178565 0.142104162356104
v -0.4290146359025206 1.6051232007162148 0.142104162356104
v -0.4432515652605567 1.594496210997982 0.09210416235610495
v -0.5284674970661343 1.5955203361092654 0.09210416235610495
v -0.5119973238872297 1.606120486702136 0.142104162356104
v -0.4432515652605567 1.5905448294957436 0.09210416235610495
v -0.4290146359025206 1.6012753726004945 0.142104162356104
f 1 2 3 4
f 5 8 7 6
f 1 5 6 2
f 2 6 7 3
f 3 7 8 4
f 5 1 4 8
o Cut_2_Vigor
v 0.16632759952095988 1.6049873877515546 0.019992296969863592
v 0.16465266665530848 1.614962414910387 0.0699922969698657
v 0.25239557140179875 1.6350950990980793 0.0699922969698657
v 0.25634362744226274 1.6256416419867674 0.019992296969863592
v 0.16632759952095988 1.6008866576919385 0.019992296969863592
v 0.16465266665530848 1.610965238237289 0.0699922969698657
v 0.25634362744226274 1.6215409119271513 0.019992296969863592
v 0.25239557140179875 1.6310979224249813 0.0699922969698657
f 9 10 11 12
f 13 16 15 14
f 9 13 14 10
f 10 14 15 11
f 11 15 16 12
f 13 9 12 16
o Cut_3_Vigor
v 0.9376503502895311 2.355683220983223 0.08352081691385606
v 0.9157964643281755 2.3464036205544185 0.13352081691385578
v 0.9351493001607782 2.2928611405624006 0.13352081691385578
v 0.9575216177234068 2.3007064233605234 0.08352081691385606
v 0.9316966128545353 2.355683220983223 0.08352081691385606
v 0.909998056976792 2.3464036205544185 0.13352081691385578
v 0.951567880288411 2.3007064233605234 0.08352081691385606
v 0.9293508928093946 2.2928611405624006 0.13352081691385578
f 17 18 19 20
f 21 24 23 22
f 17 21 22 18
f 18 22 23 19
f 19 23 24 20
f 21 17 20 24
o Cut_4_Vigor
v -0.6032925113500053 2.4415044815929434 0.05776386187234391
v -0.5851872846593934 2.4301386009740567 0.10776386187234291
v -0.536892145652564 2.4071101481494415 0.10776386187234291
v -0.5537212330169653 2.4178675303795543 0.05776386187234391
v -0.6032925113500053 2.437481979002522 0.05776386187234391
v -0.5851872846593934 2.4262196517701535 0.10776386187234291
v -0.5537212330169653 2.4138450277891335 0.05776386187234391
v -0.536892145652564 2.403191198945539 0.10776386187234291
f 25 26 27 28
f 29 32 31 30
f 25 29 30 26
f 26 30 31 27
f 27 31 32 28
f 29 25 28 32
o Cut_5_Canopy
v -0.6757496343477396 1.5572212186653374 0.10697690239436448
v -0.6521717946902214 1.5686305634548514 0.15545027413865845
v -0.6085528084064709 1.5669872513156318 0.1524001374876279
v -0.6309769639785653 1.555534442355491 0.10384609229325029
v -0.6757496343477396 1.5532024741071286 0.10697690239436448
v -0.6521717946902214 1.5647153722831608 0.15545027413865845
v -0.6309769639785653 1.5515156977972824 0.10384609229325029
v -0.6085528084064709 1.5630720601439412 0.1524001374876279
f 33 34 35 36
f 37 40 39 38
f 33 37 38 34
f 34 38 39 35
f 35 39 40 36
f 37 33 36 40
o Cut_6_Canopy
v 0.5151696365454288 1.6243128303384418 0.030445109307397238
v 0.5080356102047677 1.6340270724735129 0.08106606392977578
v 0.5589930801028287 1.6176524448436924 0.07750277051509656
v 0.5674797015781244 1.6075035610023543 0.026787233227102702
v 0.5151696365454288 1.620308021919119 0.030445109307397238
v 0.5080356102047677 1.6301258174407083 0.08106606392977578
v 0.5674797015781244 1.6034987525830313 0.026787233227102702
v 0.5589930801028287 1.6137511898108878 0.07750277051509656
f 41 42 43 44
f 45 48 47 46
f 41 45 46 42
f 42 46 47 43
f 43 47 48 44
f 45 41 44 48
o Cut_7_Canopy
v -0.6676196641413257 2.2871484515993554 0.1430127070980572
v -0.6438031312247544 2.2796074179956194 0.19146938778371259
v -0.6202023325848918 2.294111549188476 0.1898190591755062
v -0.6433823501439878 2.302043760327852 0.14131786900014948
v -0.6676196641413257 2.283205332372062 0.1430127070980572
v -0.6438031312247544 2.275767852154844 0.19146938778371259
v -0.6433823501439878 2.2981006411005587 0.14131786900014948
v -0.6202023325848918 2.2902719833477008 0.1898190591755062
f 49 50 51 52
f 53 56 55 54
f 49 53 54 50
f 50 54 55 51
f 51 55 56 52
f 53 49 52 56
o Cut_8_Spacing
v -0.24813923291842205 2.2918054985832006 0.013251384341655419
v -0.23245523090057674 2.282415680337519 0.07680043389453785
v -0.28801161890598603 2.225089512388411 0.08068531499085263
v -0.3055427718509112 2.23257333767676 0.01726543081347939
v -0.25240367590874446 2.2887879530161874 0.01354958324468336
v -0.23658245116962554 2.2794952343952897 0.07708903725014092
v -0.30980721484123375 2.2295557921097466 0.017563629716507555
v -0.29213883917503486 2.2221690664461815 0.08097391834645591
f 57 58 59 60
f 61 64 63 62
f 57 61 62 58
f 58 62 63 59
f 59 63 64 60
f 61 57 60 64
o Cut_9_Spacing
v 0.23759298979207708 2.319200865585686 0.08818731849953444
v 0.2746685634223301 2.3097129647668586 0.12550021726739752
v 0.29113091699727983 2.251501853316702 0.10903786369244778
v 0.25455965928444785 2.259206486029822 0.07122064900716366
v 0.23370562639956052 2.319200865585686 0.09207468189205101
v 0.2708967477061874 2.3097129647668586 0.12927203298354026
v 0.25067229589193113 2.259206486029822 0.07510801239968042
v 0.2873591012811369 2.251501853316702 0.1128096794085907
f 65 66 67 68
f 69 72 71 70
f 65 69 70 66
f 66 70 71 67
f 67 71 72 68
f 69 65 68 72
