o Cut_1_Spacing
v 0.5271315228471155 2.030777822090904 0.020999826389392715
v 0.5262142977064016 2.0229760034634072 0.07099982638939484
v 0.5752236368966304 2.0229760034634072 0.07099982638939484
v 0.5778556742569397 2.030777822090904 0.020999826389392715
v 0.5271315228471155 2.0277147125581374 0.020999826389392715
v 0.5262142977064016 2.020016447317159 0.07099982638939484
v 0.5778556742569397 2.0277147125581374 0.020999826389392715
v 0.5752236368966304 2.020016447317159 0.07099982638939484
f 1 2 3 4
f 5 8 7 6
f 1 5 6 2
f 2 6 7 3
f 3 7 8 4
f 5 1 4 8
o Cut_2_Spacing
v 0.7063685594222343 1.902058779191877 0.004386695877767305
v 0.6994694311899086 1.8986468417976796 0.05438669587776694
v 0.7340595059627253 1.9237797951219293 0.05438669587776694
v 0.7421550148133733 1.928061015928661 0.004386695877767305
v 0.7089458489608601 1.9046360686668722 0.004386695877767305
v 0.701960559100675 1.9011379696469426 0.05438669587776694
v 0.7447323043519991 1.9306383054036562 0.004386695877767305
v 0.7365506338734916 1.9262709229711923 0.05438669587776694
f 9 10 11 12
f 13 16 15 14
f 9 13 14 10
f 10 14 15 11
f 11 15 16 12
f 13 9 12 16
o Cut_3_Spacing
v 0.9409215060492465 1.9347902716938563 0.00184479898882958
v 0.9262060244438816 1.930291730033991 0.051844798988828
v 0.9643220103697573 1.942880302984135 0.051844798988828
v 0.9803535106552768 1.9478134863502676 0.00184479898882958
v 0.9409215060492465 1.9316874908019666 0.00184479898882958
v 0.9262060244438816 1.9272925025286194 0.051844798988828
v 0.9803535106552768 1.9447107054583779 0.00184479898882958
v 0.9643220103697573 1.9398810754787634 0.051844798988828
f 17 18 19 20
f 21 24 23 22
f 17 21 22 18
f 18 22 23 19
f 19 23 24 20
f 21 17 20 24
o Cut_4_Spacing
v 0.2068268992150854 1.5121670787655483 0.011841951636773066
v 0.21667709963927287 1.521837856729993 0.0618419516367721
v 0.25108878794219514 1.4818325147765539 0.0618419516367721
v 0.24243496813633006 1.4707708833520539 0.011841951636773066
v 0.2034541653476608 1.5100591201504512 0.011841951636773066
v 0.21341768484676557 1.5198007225349708 0.0618419516367721
v 0.23906223426890547 1.4686629247369571 0.011841951636773066
v 0.24782937314968784 1.4797953805815318 0.0618419516367721
f 25 26 27 28
f 29 32 31 30
f 25 29 30 26
f 26 30 31 27
f 27 31 32 28
f 29 25 28 32
o Cut_5_Spacing
v 0.5857279015281566 1.324509949395611 0.027615546253674225
v 0.5827714770678443 1.3409077661061979 0.07839240345470487
v 0.5272125404058666 1.3013628092162874 0.07839240345470487
v 0.5281845155709008 1.283552529155125 0.027615546253674225
v 0.583226827851519 1.3219567700804122 0.027615546253674225
v 0.5803566557695206 1.3384426360916875 0.07839240345470487
v 0.5256834418942634 1.2809993498399264 0.027615546253674225
v 0.524797719107543 1.298897679201777 0.07839240345470487
f 33 34 35 36
f 37 40 39 38
f 33 37 38 34
f 34 38 39 35
f 35 39 40 36
f 37 33 36 40
