o Cut_1_Vigor
v -0.6137407635098835 1.4376013135894505 0.34326972663139793
v -0.5746913604805375 1.4483152316489367 0.37493100172070626
v -0.5746913604805375 1.4183542574689274 0.37493100172070626
v -0.6137407635098835 1.40672759182628 0.34326972663139793
v -0.6174559350609472 1.4376013135894505 0.3469848981824617
v -0.5782966970761568 1.4483152316489367 0.37853633831632555
v -0.6174559350609472 1.40672759182628 0.3469848981824617
v -0.5782966970761568 1.4183542574689274 0.37853633831632555
f 1 2 3 4
f 5 8 7 6
f 1 5 6 2
f 2 6 7 3
f 3 7 8 4
f 5 1 4 8
o Cut_2_Vigor
v -0.5741578499914469 1.628328075907286 -0.08831376018588218
v -0.5836227006359259 1.6342609351978328 -0.03914293102678637
v -0.530655240523829 1.5990489727123907 -0.02593665998136139
v -0.5192943463111193 1.5918556524736691 -0.07463475238428657
v -0.5763790435921387 1.6257494454533274 -0.08886756595027075
v -0.5857671313695407 1.6317714203737392 -0.039677597658834135
v -0.521515539911811 1.5892770220197103 -0.07518855814867514
v -0.5327996712574438 1.596559457888297 -0.026471326613409157
f 9 10 11 12
f 13 16 15 14
f 9 13 14 10
f 10 14 15 11
f 11 15 16 12
f 13 9 12 16
o Cut_3_Vigor
v -0.17039316968211507 2.0552985950534493 -0.020747274968677072
v -0.18211132219806458 2.0468882780371795 0.029055800320513473
v -0.14816692770343726 2.0392328275554066 0.02964830193036621
v -0.13529245006385365 2.047382359547916 -0.020134589628713177
v -0.17039316968211507 2.0521551898714607 -0.020747274968677072
v -0.18211132219806458 2.0438484262417087 0.029055800320513473
v -0.13529245006385365 2.0442389543659276 -0.020134589628713177
v -0.14816692770343726 2.0361929757599357 0.02964830193036621
f 17 18 19 20
f 21 24 23 22
f 17 21 22 18
f 18 22 23 19
f 19 23 24 20
f 21 17 20 24
o Cut_4_Vigor
v -0.24527162838399308 2.1176076050846357 -0.03511218068820352
v -0.24745081996474758 2.1074587212432974 0.015530881666104415
v -0.21507422868904463 2.1074587212432974 0.01155553612278443
v -0.2118263204275374 2.1176076050846357 -0.03921874813989934
v -0.24527162838399308 2.1143669193496715 -0.03511218068820352
v -0.24745081996474758 2.1043215888948508 0.015530881666104415
v -0.2118263204275374 2.1143669193496715 -0.03921874813989934
v -0.21507422868904463 2.1043215888948508 0.01155553612278443
f 25 26 27 28
f 29 32 31 30
f 25 29 30 26
f 26 30 31 27
f 27 31 32 28
f 29 25 28 32
o Cut_5_Vigor
v -0.6309557689501835 2.2424879393086954 -0.01093739937479553
v -0.6246603825312765 2.2315932760575183 0.040672750335458634
v -0.5892937166712156 2.174638613807538 0.04704394006092164
v -0.5941137917254857 2.1831574279804076 -0.004300437109579455
v -0.6341737340589172 2.2410621153807937 -0.010705738594655286
v -0.627749486464429 2.2302245482575462 0.0408951344207138
v -0.5973317568342196 2.1817316040525054 -0.004068776329439211
v -0.592382820604368 2.1732698860075663 0.047266324146176805
f 33 34 35 36
f 37 40 39 38
f 33 37 38 34
f 34 38 39 35
f 35 39 40 36
f 37 33 36 40
o Cut_6_Vigor
v -0.725036633571041 2.2490685036782487 0.10130987408987722
v -0.7139963268172219 2.2368264008015566 0.1530020237049021
v -0.7894856342063247 2.2369869844721286 0.15430987274871955
v -0.8039949163310461 2.2492364666826297 0.10267782298463747
v -0.725036633571041 2.2467290659255634 0.10159712092710042
v -0.7139963268172219 2.2345897445641496 0.15327665055890297
v -0.8039949163310461 2.2468970289299444 0.10296506982186068
v -0.7894856342063247 2.234750328234721 0.15458449960272042
f 41 42 43 44
f 45 48 47 46
f 41 45 46 42
f 42 46 47 43
f 43 47 48 44
f 45 41 44 48
o Cut_7_Vigor
v -0.5226770174349613 2.138636935410231 -0.006700241920673149
v -0.5207278185497137 2.13193611647441 0.044471401160196676
v -0.4918952102528414 2.1349942761015397 0.04358885181555447
v -0.49264821073432963 2.1418219710253648 -0.007619406201655148
v -0.5226770174349613 2.136056756198336 -0.0063834357490899
v -0.5207278185497137 2.1294587187777934 0.044775587348557716
v -0.49264821073432963 2.13924179181347 -0.0073026000300717596
v -0.4918952102528414 2.1325168784049224 0.0438930380039155
f 49 50 51 52
f 53 56 55 54
f 49 53 54 50
f 50 54 55 51
f 51 55 56 52
f 53 49 52 56
o Cut_8_Vigor
v -0.7150787034525261 2.0372493551211677 0.09769973677821506
v -0.7347597667586281 2.031182173388958 0.1447591539759313
v -0.7341449834946748 2.0071918363111108 0.14798057170730583
v -0.7144274885859235 2.0118373683675896 0.10111205334766514
v -0.7176151853579429 2.0371117263040603 0.09657884001321988
v -0.7371543475717257 2.031052244086458 0.14370096472522595
v -0.7169639704913404 2.0116997395504828 0.09999115658267006
v -0.7365395643077725 2.007061907008611 0.14692238245660058
f 57 58 59 60
f 61 64 63 62
f 57 61 62 58
f 58 62 63 59
f 59 63 64 60
f 61 57 60 64
