o Cut_1_Spacing
v -0.2131176522154534 1.2993039883322792 0.09621787098588684
v -0.22019720532148387 1.3102642649066987 0.1504184530198082
v -0.22893121388592197 1.2765320379519693 0.15180178407807648
v -0.22218205547365874 1.264295720861609 0.09765353142281365
v -0.21753088355179206 1.2993039883322792 0.09691685816111566
v -0.22444957574129462 1.3102642649066987 0.15109196232880265
v -0.22659528680999744 1.264295720861609 0.09835251859804214
v -0.2331835843057327 1.2765320379519693 0.1524752933870706
f 1 2 3 4
f 5 8 7 6
f 1 5 6 2
f 2 6 7 3
f 3 7 8 4
f 5 1 4 8
o Cut_2_Spacing
v -0.45213145958137846 1.3176855375678385 0.1049732224425507
v -0.46430504091729113 1.3282236410320805 0.15471842092084423
v -0.41244449242138576 1.3214150474879989 0.15925563099847237
v -0.39826002306034236 1.3106129414317507 0.10968636242599777
v -0.45213145958137846 1.3148771275188003 0.1049732224425507
v -0.46430504091729113 1.325520062012285 0.15471842092084423
v -0.39826002306034236 1.3078045313827127 0.10968636242599777
v -0.41244449242138576 1.3187114684682035 0.15925563099847237
f 9 10 11 12
f 13 16 15 14
f 9 13 14 10
f 10 14 15 11
f 11 15 16 12
f 13 9 12 16
o Cut_3_Spacing
v -0.603705495412066 2.034002679158004 0.008958562133819148
v -0.6002614430968186 2.024740975735353 0.060640180418788145
v -0.5155332588698538 1.9892861386337246 0.05813742782506114
v -0.5154812823004085 1.9970849152187453 0.006352541714412576
v -0.605076605758386 2.031596345963447 0.009417885703601326
v -0.6015782209508923 2.0224299974332642 0.061081302540115956
v -0.5168523926467284 1.9946785820241881 0.006811865284194753
v -0.5168500367239273 1.986975160331636 0.05857854994638896
f 17 18 19 20
f 21 24 23 22
f 17 21 22 18
f 18 22 23 19
f 19 23 24 20
f 21 17 20 24
