o Cut_1_Spacing
v 0.5184815453688083 2.0293319458747843 0.018913192068332852
v 0.5137206909666513 2.0263017665052896 0.06929511302941356
v 0.5786666079943464 2.0235194871744535 0.07415401893368104
v 0.5860133060362465 2.026438889151914 0.023965556953606058
v 0.5184815453688083 2.0266423658702726 0.01919587831789283
v 0.5137206909666513 2.023715172611009 0.06956697500261463
v 0.5860133060362465 2.023749309147402 0.024248243203166032
v 0.5786666079943464 2.0209328932801736 0.07442588090688211
f 1 2 3 4
f 5 8 7 6
f 1 5 6 2
f 2 6 7 3
f 3 7 8 4
f 5 1 4 8
o Cut_2_Spacing
v 0.9805737038159956 1.942827688906364 -0.017761381083709865
v 0.9754485425511867 1.9421358604377652 0.035741118817966176
v 0.9323509979660239 1.9433429501421604 0.04722581019452221
v 0.9353575318457659 1.9440941177988402 -0.0057121150453344404
v 0.9805737038159956 1.9406297386185454 -0.01753036719955658
v 0.9754485425511867 1.9400408962601783 0.03596130842576055
v 0.9353575318457659 1.9418961675110218 -0.0054811011611811565
v 0.9323509979660239 1.9412479859645737 0.047445999802316584
f 9 10 11 12
f 13 16 15 14
f 9 13 14 10
f 10 14 15 11
f 11 15 16 12
f 13 9 12 16
o Cut_3_Vigor
v 0.6992270450722643 1.8979775594340778 0.018227828554187826
v 0.7095667056294528 1.9071593210670326 0.07008842212611904
v 0.7881410868418822 1.9038393819508257 0.04924714331325513
v 0.7828280840441793 1.8944452330554833 -0.003946734393349302
v 0.6992270450722643 1.896182626645395 0.01864222144030302
v 0.7095667056294528 1.9054723117317056 0.07047789891977793
v 0.7828280840441793 1.8926503002668005 -0.0035323415072341102
v 0.7881410868418822 1.9021523726154987 0.049636620106914026
f 17 18 19 20
f 21 24 23 22
f 17 21 22 18
f 18 22 23 19
f 19 23 24 20
f 21 17 20 24
o Cut_4_Vigor
v 0.5337502812134222 1.3565587419692016 0.040078596098682855
v 0.5043552880141701 1.3832164881243383 0.07824765767440375
v 0.45532584121493413 1.3723403890254382 0.05286625785220847
v 0.4829062894282525 1.3452801261711587 0.013757848704977496
v 0.5337502812134222 1.3536170953348279 0.040757728736091375
v 0.5043552880141701 1.3803798243987289 0.07890255309756677
v 0.4829062894282525 1.342338479536785 0.014436981342386013
v 0.45532584121493413 1.3695037252998288 0.05352115327537149
f 25 26 27 28
f 29 32 31 30
f 25 29 30 26
f 26 30 31 27
f 27 31 32 28
f 29 25 28 32
