o Cut_1_Canopy
v 0.7052368115852093 1.6189999460620121 0.2678719803672581
v 0.675054494281478 1.6256312276283236 0.32018899925499095
v 0.6875496760376433 1.535033929527737 0.3210627474798543
v 0.7182071877659288 1.5249572134109577 0.2687789574232839
v 0.7006441192921274 1.6189999460620121 0.2675508280369655
v 0.6706300640141815 1.6256312276283236 0.3198796129517326
v 0.7136144954728469 1.5249572134109577 0.2684578050929911
v 0.6831252457703467 1.535033929527737 0.32075336117659586
f 1 2 3 4
f 5 8 7 6
f 1 5 6 2
f 2 6 7 3
f 3 7 8 4
f 5 1 4 8
o Cut_2_Canopy
v 0.3578983424891286 1.5600419156353407 0.013249115950011372
v 0.37510442669113325 1.5680175909453435 0.061242327406119894
v 0.3323511157532598 1.5616965443770965 0.08693110828172831
v 0.31367515058977363 1.55350354821396 0.03982109041003244
v 0.3578983424891286 1.5569263835590528 0.013249115950011372
v 0.37510442669113325 1.5650056122555738 0.061242327406119894
v 0.31367515058977363 1.5503880161376724 0.03982109041003244
v 0.3323511157532598 1.558684565687327 0.08693110828172831
f 9 10 11 12
f 13 16 15 14
f 9 13 14 10
f 10 14 15 11
f 11 15 16 12
f 13 9 12 16
o Cut_3_Canopy
v -0.4690778235264515 2.288761273839535 0.034873581650337354
v -0.4653915581964426 2.2731793686698567 0.08677415127753854
v -0.38721047431246464 2.2547009553884676 0.10339205365555243
v -0.38832221861344535 2.269674362169372 0.052038715366228644
v -0.4690778235264515 2.2855130904785232 0.034873581650337354
v -0.4653915581964426 2.270034738695363 0.08677415127753854
v -0.38832221861344535 2.26642617880836 0.052038715366228644
v -0.38721047431246464 2.251556325413974 0.10339205365555243
f 17 18 19 20
f 21 24 23 22
f 17 21 22 18
f 18 22 23 19
f 19 23 24 20
f 21 17 20 24
