o Cut_1_Vigor
v 0.2103644363673378 1.608044370300824 -0.009866603809509858
v 0.2365718229530653 1.6184105749952964 0.032767188159430104
v 0.18910791590294146 1.592811284428943 0.06478199770735603
v 0.16161113148844827 1.581749653004443 0.023017915555516636
v 0.2103644363673378 1.6041289225534097 -0.009866603809509858
v 0.2365718229530653 1.6145986806344004 0.032767188159430104
v 0.16161113148844827 1.5778342052570289 0.023017915555516636
v 0.18910791590294146 1.588999390068047 0.06478199770735603
f 1 2 3 4
f 5 8 7 6
f 1 5 6 2
f 2 6 7 3
f 3 7 8 4
f 5 1 4 8
o Cut_2_Vigor
v 0.9439003827499074 2.341495135370285 0.0898060774297112
v 0.9096361303263053 2.333867173425295 0.13054379807193614
v 0.9325990532846354 2.2920148781810985 0.13890161852051638
v 0.967387946392959 2.2986866283723004 0.09835485147121513
v 0.9373658070077869 2.341495135370285 0.08742768636602127
v 0.9032475171175413 2.333867173425295 0.12821853302570604
v 0.9608533706508384 2.2986866283723004 0.0959764604075252
v 0.9262104400758713 2.2920148781810985 0.1365763534742863
f 9 10 11 12
f 13 16 15 14
f 9 13 14 10
f 10 14 15 11
f 11 15 16 12
f 13 9 12 16
o Cut_3_Vigor
v -0.6254579345082226 2.3153155963374252 0.08443243409267533
v -0.618886131172949 2.3051782865917585 0.14465855024834787
v -0.5926907896338888 2.293355398975613 0.15167757085919667
v -0.5983924449188517 2.303099980014426 0.09168461017090042
v -0.6254579345082226 2.311677633101232 0.08443243409267533
v -0.618886131172949 2.301657282873575 0.14465855024834787
v -0.5983924449188517 2.2994620167782323 0.09168461017090042
v -0.5926907896338888 2.2898343952574294 0.15167757085919667
f 17 18 19 20
f 21 24 23 22
f 17 21 22 18
f 18 22 23 19
f 19 23 24 20
f 21 17 20 24
o Cut_4_Vigor
v -0.06877208847884438 1.5352415224421283 0.16669389459464548
v -0.07750173855605065 1.5479982565210704 0.2160480298428707
v -0.09395432139084717 1.5233576163314182 0.21194594022305874
v -0.08568900851402395 1.5099054555224487 0.16247603270801625
v -0.06877208847884438 1.5314688237273697 0.16669389459464548
v -0.07750173855605065 1.5443291111928301 0.2160480298428707
v -0.08568900851402395 1.50613275680769 0.16247603270801625
v -0.09395432139084717 1.519688471003178 0.21194594022305874
f 25 26 27 28
f 29 32 31 30
f 25 29 30 26
f 26 30 31 27
f 27 31 32 28
f 29 25 28 32
o Cut_5_Vigor
v -0.4145249683861302 1.8316549947859853 -0.048036348116792596
v -0.4138130953888809 1.8359796797633436 0.003671823223383755
v -0.35364319852861836 1.804659216602575 0.01867386343883306
v -0.3527685860912255 1.799508712383309 -0.03263875265638419
v -0.4145249683861302 1.8276240201636493 -0.048036348116792596
v -0.4138130953888809 1.832052258527526 0.003671823223383755
v -0.3527685860912255 1.7954777377609734 -0.03263875265638419
v -0.35364319852861836 1.8007317953667576 0.01867386343883306
f 33 34 35 36
f 37 40 39 38
f 33 37 38 34
f 34 38 39 35
f 35 39 40 36
f 37 33 36 40
o Cut_6_Vigor
v -0.829902522637445 1.7039062517409436 0.024304788175303484
v -0.8106546346855251 1.7131611345465672 0.08577761590736882
v -0.8557392375031391 1.678958126199816 0.07863691632284703
v -0.8764417843791747 1.6685996801328176 0.016933693251222508
v -0.8331117388939192 1.7007554934761462 0.023796498254641432
v -0.8137635417644966 1.7101088582614163 0.08528521339964495
v -0.8796510006356492 1.6654489218680202 0.016425403330560456
v -0.8588481445821108 1.6759058499146655 0.07814451381512316
f 41 42 43 44
f 45 48 47 46
f 41 45 46 42
f 42 46 47 43
f 43 47 48 44
f 45 41 44 48
o Cut_7_Vigor
v -0.2209143369004772 2.24409617456685 0.008743443457990576
v -0.22074022044951883 2.237859066081916 0.059394277084026816
v -0.2477783694831702 2.20802308566746 0.05511185498192044
v -0.24866147664670718 2.213477839081113 0.0043487282586771375
v -0.2209143369004772 2.2400434976615857 0.008743443457990576
v -0.22074022044951883 2.2339099425631694 0.059394277084026816
v -0.24866147664670718 2.2094251621758483 0.0043487282586771375
v -0.2477783694831702 2.204073962148713 0.05511185498192044
f 49 50 51 52
f 53 56 55 54
f 49 53 54 50
f 50 54 55 51
f 51 55 56 52
f 53 49 52 56
