o Cut_1_Canopy
v -0.3865582916856834 2.008214316388875 -0.041675673325704835
v -0.42223643201383243 2.004856606472917 -0.0021189453551041073
v -0.38372143484539595 1.9979121213175195 0.03901241517663795
v -0.3461975424959505 2.000937031065886 0.0014268230601596913
v -0.3865582916856834 2.005922004047377 -0.04114645132192847
v -0.42223643201383243 2.0026691246963297 -0.001613925394223249
v -0.3461975424959505 1.9986447187243885 0.001956045063936056
v -0.38372143484539595 1.9957246395409323 0.039517435137518805
f 1 2 3 4
f 5 8 7 6
f 1 5 6 2
f 2 6 7 3
f 3 7 8 4
f 5 1 4 8
o Cut_2_Canopy
v 0.005773505289145625 1.9671560307182365 0.008110301207716046
v 0.001614356156574768 1.9700005305470536 0.05859136791969726
v -0.051859670697525416 1.9669122663135 0.05450291837536304
v -0.049925267218849885 1.96393928163258 0.0038517548726586365
v 0.005773505289145625 1.9646299135159504 0.008693501316779066
v 0.001614356156574768 1.967575312664698 0.059151273585282146
v -0.049925267218849885 1.961413164430294 0.004434954981721658
v -0.051859670697525416 1.964487048431144 0.05506282404094792
f 9 10 11 12
f 13 16 15 14
f 9 13 14 10
f 10 14 15 11
f 11 15 16 12
f 13 9 12 16
o Cut_3_Canopy
v -0.02156339101629431 2.0595445484397774 0.008658737387471204
v -0.024689622523842315 2.058682560342571 0.06008825990984386
v 0.020244475038358727 2.052581420391794 0.06553145054014732
v 0.02527763139210271 2.0531844867348434 0.014332927548613013
v -0.02156339101629431 2.0570660934994685 0.009230933796326694
v -0.024689622523842315 2.0563050047221925 0.06063716187522121
v 0.02527763139210271 2.050706031794534 0.014905123957468503
v 0.020244475038358727 2.0502038647714147 0.06608035250552467
f 17 18 19 20
f 21 24 23 22
f 17 21 22 18
f 18 22 23 19
f 19 23 24 20
f 21 17 20 24
o Cut_4_Canopy
v -0.2789502468944983 2.081606243335864 0.0038147528219520882
v -0.2738815620657828 2.07975912917072 0.056580493120290606
v -0.2575295405483942 2.0656311434955077 0.06190278414985388
v -0.2618857475899413 2.0668626838638393 0.00936894264955556
v -0.2789502468944983 2.079189611679703 0.004372676201026841
v -0.2738815620657828 2.0774433968344894 0.05711512205588722
v -0.2618857475899413 2.064446052207678 0.009926866028630313
v -0.2575295405483942 2.063315411159277 0.06243741308545049
f 25 26 27 28
f 29 32 31 30
f 25 29 30 26
f 26 30 31 27
f 27 31 32 28
f 29 25 28 32
o Cut_5_Canopy
v 0.38640726680805304 1.3841801211195 -0.060975613797089455
v 0.39229252121649616 1.4077548680825895 -0.01460501762300933
v 0.46544621451750473 1.3961370819853576 -0.03487646887780022
v 0.4623830844813293 1.3721141438808873 -0.08202909742872813
v 0.38640726680805304 1.38146376020723 -0.06034849246682953
v 0.39229252121649616 1.40513940649025 -0.014001190736227543
v 0.4623830844813293 1.3693977829686177 -0.0814019760984682
v 0.46544621451750473 1.3935216203930183 -0.034272641991018434
f 33 34 35 36
f 37 40 39 38
f 33 37 38 34
f 34 38 39 35
f 35 39 40 36
f 37 33 36 40
