o Cut_1_Canopy
v 0.2079066846095069 1.3215232959366259 0.02219919569169193
v 0.2032009208441056 1.3328022482142592 0.07219919569169096
v 0.23436043016833052 1.3328022482142592 0.07219919569169096
v 0.2400232984283897 1.3215232959366259 0.02219919569169193
v 0.2079066846095069 1.3180484568328454 0.02219919569169193
v 0.2032009208441056 1.329430962496997 0.07219919569169096
v 0.2400232984283897 1.3180484568328454 0.02219919569169193
v 0.23436043016833052 1.329430962496997 0.07219919569169096
f 1 2 3 4
f 5 8 7 6
f 1 5 6 2
f 2 6 7 3
f 3 7 8 4
f 5 1 4 8
o Cut_2_Canopy
v -0.031348341775263015 1.9617007391063739 -0.013519857804839538
v -0.028875821830730057 1.9555183348908278 0.03672651372261779
v 0.006745517060567431 1.9555183348908278 0.03672651372261779
v 0.005389619026468714 1.9617007391063739 -0.013519857804839538
v -0.031348341775263015 1.9582958061402826 -0.013400954925595761
v -0.028875821830730057 1.9522168922293295 0.03684180264079024
v 0.005389619026468714 1.9582958061402826 -0.013400954925595761
v 0.006745517060567431 1.9522168922293295 0.03684180264079024
f 9 10 11 12
f 13 16 15 14
f 9 13 14 10
f 10 14 15 11
f 11 15 16 12
f 13 9 12 16
o Cut_3_Vigor
v -0.19609030901975605 1.9970240797918584 -0.002201768524890113
v -0.18170252891720612 1.9830665924962734 0.09378896856210005
v -0.1866062861429671 1.937665476465021 0.09537441046969554
v -0.20129856952811068 1.9488037400045224 -0.0005178771543629362
v -0.20116185268976636 1.9970240797918584 -0.002201768524890113
v -0.18647756251579087 1.9830665924962734 0.09378896856210005
v -0.206370113198121 1.9488037400045224 -0.0005178771543629362
v -0.19138131974155184 1.937665476465021 0.09537441046969554
f 17 18 19 20
f 21 24 23 22
f 17 21 22 18
f 18 22 23 19
f 19 23 24 20
f 21 17 20 24
o Cut_4_Vigor
v -0.3547993823290579 1.9935800261266292 0.16477113661458015
v -0.3387280026895941 1.9906607302944115 0.21567279551351357
v -0.2933924788027184 1.9896196677080569 0.2158191073183772
v -0.3075895288068105 1.9924959223599688 0.16492349746285054
v -0.3547993823290579 1.9909971489025609 0.1651341363355846
v -0.3387280026895941 1.988180398682422 0.21602138338860136
v -0.3075895288068105 1.9899130451359004 0.165286497183855
v -0.2933924788027184 1.9871393360960674 0.216167695193465
f 25 26 27 28
f 29 32 31 30
f 25 29 30 26
f 26 30 31 27
f 27 31 32 28
f 29 25 28 32
