o Cut_1_Canopy
v 0.3072429124826712 1.563413104468476 0.025149961308520364
v 0.2969190598927735 1.5713628020365416 0.08142759769048453
v 0.3421023950938477 1.58261878716705 0.08142759769048453
v 0.3539972687300342 1.5750604593254123 0.025149961308520364
v 0.3072429124826712 1.5599443766001446 0.025149961308520364
v 0.2969190598927735 1.568010628964862 0.08142759769048453
v 0.3539972687300342 1.5715917314570809 0.025149961308520364
v 0.3421023950938477 1.5792666140953706 0.08142759769048453
f 1 2 3 4
f 5 8 7 6
f 1 5 6 2
f 2 6 7 3
f 3 7 8 4
f 5 1 4 8
o Cut_2_Canopy
v -0.22270863462013493 1.4800400241350982 0.0077091687333210954
v -0.2161285412193617 1.4894934812464096 0.057709168733321915
v -0.18076205265619347 1.4809277841773452 0.057709168733321915
v -0.18626540350047652 1.4712135420422734 0.0077091687333210954
v -0.22270863462013493 1.4765351752040723 0.0077091687333210954
v -0.2161285412193617 1.4860921857019018 0.057709168733321915
v -0.18626540350047652 1.4677086931112475 0.0077091687333210954
v -0.18076205265619347 1.4775264886328374 0.057709168733321915
f 9 10 11 12
f 13 16 15 14
f 9 13 14 10
f 10 14 15 11
f 11 15 16 12
f 13 9 12 16
o Cut_3_Canopy
v -0.773725228295065 1.5004148980146472 -0.001899036683029639
v -0.7378570099700297 1.5143030115877525 0.07699730013337137
v -0.724912150145994 1.4846751757524084 0.07699730013337137
v -0.7601511014828708 1.4693468133643144 -0.001899036683029639
v -0.7790123506884146 1.5004148980146472 -0.001899036683029639
v -0.7428990328714915 1.5143030115877525 0.07699730013337137
v -0.7654382238762204 1.4693468133643144 -0.001899036683029639
v -0.7299541730474559 1.4846751757524084 0.07699730013337137
f 17 18 19 20
f 21 24 23 22
f 17 21 22 18
f 18 22 23 19
f 19 23 24 20
f 21 17 20 24
o Cut_4_Spacing
v 0.6542995964351157 1.533991501587417 0.05512440834125104
v 0.6350378684801253 1.5400435927226783 0.1053662292356687
v 0.5982240790030168 1.5228584801652496 0.1047661118813611
v 0.6163691850475728 1.5162851367088483 0.0545060884547895
v 0.6542995964351157 1.530476050393818 0.05500164608045982
v 0.6350378684801253 1.5366316318336721 0.10524708093594917
v 0.6163691850475728 1.5127696855152493 0.05438332619399828
v 0.5982240790030168 1.5194465192762434 0.1046469635816412
f 25 26 27 28
f 29 32 31 30
f 25 29 30 26
f 26 30 31 27
f 27 31 32 28
f 29 25 28 32
o Cut_5_Spacing
v -0.46239626265686634 2.333211274379437 0.04569548483102751
v -0.44907655843954347 2.3161110749173948 0.0951288099222927
v -0.44773201784541306 2.2663177097792024 0.09338998729608339
v -0.46101184270879186 2.281941027664681 0.04390508836371642
v -0.46778857835461635 2.333211274379437 0.04569548483102751
v -0.45431354405368124 2.3161110749173948 0.0951288099222927
v -0.4664041584065418 2.281941027664681 0.04390508836371642
v -0.4529690034595509 2.2663177097792024 0.09338998729608339
f 33 34 35 36
f 37 40 39 38
f 33 37 38 34
f 34 38 39 35
f 35 39 40 36
f 37 33 36 40
o Cut_6_Canopy
v -0.5412814381249222 1.694778436048992 0.0009902511041552436
v -0.5258880075025073 1.696052380907136 0.05106521545383322
v -0.46866703259290804 1.699020317374043 0.0511688580790602
v -0.4823855303496717 1.6978332479027556 0.0010969274847409621
v -0.5412814381249222 1.6911393914281962 0.0008631728657821958
v -0.5258880075025073 1.6925168265909334 0.05094175117653149
v -0.4823855303496717 1.6941942032819597 0.0009698492463681095
v -0.46866703259290804 1.6954847630578402 0.05104539380175848
f 41 42 43 44
f 45 48 47 46
f 41 45 46 42
f 42 46 47 43
f 43 47 48 44
f 45 41 44 48
