o Cut_1_Spacing
v -0.20717815930687986 1.32879272335226 0.12809132303277665
v -0.22229243445168656 1.3343451039831473 0.17860167821305212
v -0.24937681854973293 1.2779047632595666 0.17465498512124672
v -0.2352196478995842 1.2703579011004669 0.12400516220622312
v -0.21121291821194568 1.3273927475832905 0.12799342719045437
v -0.2261894800584682 1.332992911807993 0.17850712372510857
v -0.23925440680464993 1.2689579253314973 0.12390726636390087
v -0.2532738641565145 1.2765525710844123 0.17456043063330318
f 1 2 3 4
f 5 8 7 6
f 1 5 6 2
f 2 6 7 3
f 3 7 8 4
f 5 1 4 8
o Cut_2_Canopy
v -0.4689015351647974 1.318947367994605 0.1082300537945021
v -0.4750030763182417 1.3247598983900417 0.1587586004184392
v -0.4269647051114844 1.3011324590374782 0.15710640891012567
v -0.4191882310923887 1.2944961210543016 0.10652025604792305
v -0.4689015351647974 1.3158813103190645 0.10801565415601648
v -0.4750030763182417 1.3217971418501744 0.15855142429904134
v -0.4191882310923887 1.2914300633787608 0.10630585640943777
v -0.4269647051114844 1.2981697024976104 0.15689923279072815
f 9 10 11 12
f 13 16 15 14
f 9 13 14 10
f 10 14 15 11
f 11 15 16 12
f 13 9 12 16
o Cut_3_Canopy
v -0.7258124230123587 1.3280183747154246 0.13076666617897692
v -0.7233000237138818 1.3315452305958815 0.18141276764735864
v -0.6488365075600971 1.3302840967026737 0.1812802171339453
v -0.648796628206153 1.3267140147528644 0.13062957242260073
v -0.7258124230123587 1.324910737104625 0.1304400403044111
v -0.7233000237138818 1.3285405790953138 0.1810969660491517
v -0.648796628206153 1.3236063771420647 0.1303029465480349
v -0.6488365075600971 1.3272794452021057 0.18096441553573836
f 17 18 19 20
f 21 24 23 22
f 17 21 22 18
f 18 22 23 19
f 19 23 24 20
f 21 17 20 24
o Cut_4_Spacing
v -0.6039188132348533 2.0481600039497687 0.009979241928902802
v -0.6055549843330003 2.0303541798568103 0.06483451991016105
v -0.5839330848193248 2.001569416579068 0.06382933382686468
v -0.5815009385923497 2.0183155763421747 0.008937051551805044
v -0.6087697922199952 2.0481600039497687 0.009979241928902802
v -0.6102337231444317 2.0303541798568103 0.06483451991016105
v -0.5863519175774915 2.0183155763421747 0.008937051551805044
v -0.5886118236307564 2.001569416579068 0.06382933382686468
f 25 26 27 28
f 29 32 31 30
f 25 29 30 26
f 26 30 31 27
f 27 31 32 28
f 29 25 28 32
o Cut_5_Canopy
v -0.5848201261122371 1.9830965772464064 -0.0029183283325992537
v -0.5870932492870498 1.971527899045746 0.047516136027112896
v -0.5385336522454742 1.9703257978211757 0.04755811432688187
v -0.534505837497122 1.9818510383284074 -0.0028748331551508213
v -0.5848201261122371 1.980129080774274 -0.0028147010723284585
v -0.5870932492870498 1.9686638928782065 0.04761614932631253
v -0.534505837497122 1.9788835418562754 -0.0027712058948800257
v -0.5385336522454742 1.9674617916536359 0.047658127626081494
f 33 34 35 36
f 37 40 39 38
f 33 37 38 34
f 34 38 39 35
f 35 39 40 36
f 37 33 36 40
