o Cut_1_Vigor
v 0.20839151877094253 1.5039770416165574 0.015103442320685915
v 0.21876015079640304 1.5172062652268645 0.06447874538952625
v 0.2068615417916354 1.477177691609239 0.06657655404069378
v 0.19605423687279 1.4624727114462226 0.017278592095543357
v 0.2040229994079149 1.5039770416165574 0.015103442320685915
v 0.21454696151698763 1.5172062652268645 0.06447874538952625
v 0.1916857175097624 1.4624727114462226 0.017278592095543357
v 0.20264835251222 1.477177691609239 0.06657655404069378
f 1 2 3 4
f 5 8 7 6
f 1 5 6 2
f 2 6 7 3
f 3 7 8 4
f 5 1 4 8
o Cut_2_Spacing
v 0.5111478772979327 1.9879203358217625 -0.0017424377306150842
v 0.5107490837584918 1.983917931448963 0.04853593669425122
v 0.5935170286988781 1.9733885794225146 0.04908775665124682
v 0.5969865324920131 1.9770003423548912 -0.001170145123230987
v 0.5111478772979327 1.9850295708845604 -0.0015909391598269219
v 0.5107490837584918 1.9811305779819617 0.04868201569953376
v 0.5969865324920131 1.9741095774176884 -0.0010186465524428248
v 0.5935170286988781 1.9706012259555128 0.049233835656529355
f 9 10 11 12
f 13 16 15 14
f 9 13 14 10
f 10 14 15 11
f 11 15 16 12
f 13 9 12 16
o Cut_3_Spacing
v 0.940974053490942 1.9490139447639037 0.0018243649603640682
v 0.9241868731507005 1.946235832320155 0.05519304587324118
v 0.9595357792465923 1.9427382255351562 0.05537634767764814
v 0.9777218912818539 1.9453779203154284 0.0020149209271273882
v 0.940974053490942 1.9461263353477396 0.0019756981573021146
v 0.9241868731507005 1.9434581495984018 0.055338618056241205
v 0.9777218912818539 1.942490310899265 0.002166254124065435
v 0.9595357792465923 1.939960542813404 0.05552191986064817
f 17 18 19 20
f 21 24 23 22
f 17 21 22 18
f 18 22 23 19
f 19 23 24 20
f 21 17 20 24
o Cut_4_Vigor
v 0.46160904343069753 1.3852616436877834 0.01722420848781906
v 0.46292506211085216 1.400366611904183 0.06696816668905818
v 0.519099210427743 1.3979180357222882 0.06701090674529493
v 0.5197771594447923 1.3827261524042427 0.017268465652798284
v 0.46160904343069753 1.3822412396962656 0.017276929835600585
v 0.46292506211085216 1.397449745527501 0.06701908078105023
v 0.5197771594447923 1.379705748412725 0.01732118700057981
v 0.519099210427743 1.3950011693456064 0.06706182083728698
f 25 26 27 28
f 29 32 31 30
f 25 29 30 26
f 26 30 31 27
f 27 31 32 28
f 29 25 28 32
