o Cut_1_Canopy
v -0.42207969397392686 1.4295226646909385 -0.0008258908084503407
v -0.4245920932724039 1.4397447743953198 0.04956155034319628
v -0.4102286824671476 1.4488710381844556 0.04988024649729752
v -0.4072377309213417 1.4389529923340727 -0.000496576510592683
v -0.42207969397392686 1.4263129853181145 -0.0009379752819711894
v -0.4245920932724039 1.4366385853270887 0.04945307983074676
v -0.4072377309213417 1.435743312961249 -0.0006086609841135318
v -0.4102286824671476 1.4457648491162247 0.049771775984848
f 1 2 3 4
f 5 8 7 6
f 1 5 6 2
f 2 6 7 3
f 3 7 8 4
f 5 1 4 8
o Cut_2_Canopy
v -0.40288573041359643 1.4002915568139414 -0.012164655580065593
v -0.40702169294712853 1.415038406121735 0.05487280999775364
v -0.38079704223990846 1.415038406121735 0.05487280999775364
v -0.3754945261712776 1.4002915568139414 -0.012164655580065593
v -0.40288573041359643 1.3970605342080842 -0.012277485375707418
v -0.40702169294712853 1.4119449883035133 0.0547647854671818
v -0.3754945261712776 1.3970605342080842 -0.012277485375707418
v -0.38079704223990846 1.4119449883035133 0.0547647854671818
f 9 10 11 12
f 13 16 15 14
f 9 13 14 10
f 10 14 15 11
f 11 15 16 12
f 13 9 12 16
o Cut_3_Canopy
v -0.6512539567575774 1.4728640537547355 0.43588964485034576
v -0.6443149491713075 1.4866583568356369 0.48613804170845787
v -0.6343621940560449 1.4523134136883515 0.485538548495866
v -0.6408226493949858 1.4368677236761755 0.4352613265716469
v -0.654639785272352 1.4728640537547355 0.43588964485034576
v -0.6475454476024699 1.4866583568356369 0.48613804170845787
v -0.6442084779097604 1.4368677236761755 0.4352613265716469
v -0.6375926924872073 1.4523134136883515 0.485538548495866
f 17 18 19 20
f 21 24 23 22
f 17 21 22 18
f 18 22 23 19
f 19 23 24 20
f 21 17 20 24
o Cut_4_Canopy
v -0.6019926732193096 1.592354466922979 -0.07067705359025865
v -0.5988023249037833 1.5980222079999775 -0.020570506399567975
v -0.5160553777968647 1.5859096235165295 -0.020781932348175
v -0.5165738093981378 1.579850764482124 -0.0708953065282068
v -0.6019926732193096 1.5890444590268302 -0.07073482999299881
v -0.5988023249037833 1.5948157377186645 -0.02062647554651866
v -0.5165738093981378 1.5765407565859753 -0.07095308293094696
v -0.5160553777968647 1.5827031532352167 -0.020837901495125682
f 25 26 27 28
f 29 32 31 30
f 25 29 30 26
f 26 30 31 27
f 27 31 32 28
f 29 25 28 32
o Cut_5_Vigor
v -0.8267882780802284 2.144125859820028 0.0998173636965138
v -0.8154226622061659 2.131237226695602 0.14960000817068578
v -0.7622988454135483 2.1179706811973342 0.1493684397576402
v -0.7717502522982951 2.130381281262707 0.0995774511853846
v -0.8267882780802284 2.1411489090552265 0.09976540082762594
v -0.8154226622061659 2.128363813545636 0.1495498525575874
v -0.7717502522982951 2.1274043304979053 0.09952548831649707
v -0.7622988454135483 2.1150972680473683 0.14931828414454212
f 33 34 35 36
f 37 40 39 38
f 33 37 38 34
f 34 38 39 35
f 35 39 40 36
f 37 33 36 40
o Cut_6_Vigor
v -0.6252025017570402 2.048918476255665 0.04249011925678111
v -0.6196991509127572 2.047317272031395 0.09336698138108797
v -0.5789320487902964 2.0211732004056624 0.09750779553333418
v -0.5825610699992076 2.021572391102207 0.046821313648878746
v -0.6270111164531351 2.0469194682227756 0.04280673102527456
v -0.6214282668682114 2.045406131592133 0.09366967628994206
v -0.5843696846953026 2.0195733830693174 0.047137925417372196
v -0.5806611647457507 2.0192620599664006 0.09781049044218827
f 41 42 43 44
f 45 48 47 46
f 41 45 46 42
f 42 46 47 43
f 43 47 48 44
f 45 41 44 48
o Cut_7_Canopy
v -0.5497253076476539 2.062280647827714 0.0010869797917648296
v -0.5476117018886177 2.060164294948704 0.052045433447435285
v -0.5197633479537659 2.0514610029299822 0.05342389948280154
v -0.5206406937405356 2.053190994317937 0.0025266394756547476
v -0.5497253076476539 2.0598744145513757 0.00146808970252792
v -0.5476117018886177 2.057860340144859 0.05241034403957518
v -0.5206406937405356 2.0507847610415992 0.002907749386417838
v -0.5197633479537659 2.0491570481261374 0.05378881007494143
f 49 50 51 52
f 53 56 55 54
f 49 53 54 50
f 50 54 55 51
f 51 55 56 52
f 53 49 52 56
o Cut_8_Canopy
v -0.23431709725002284 2.192079761855355 -0.008494950538500665
v -0.243848262842658 2.1807419793234994 0.0421678547658848
v -0.18061415199628492 2.173742941441058 0.042534658798421277
v -0.16873010452094903 2.1848202963459644 -0.008114498072371547
v -0.23431709725002284 2.189197149092668 -0.008343879205075176
v -0.243848262842658 2.1779627780310133 0.04231350653380436
v -0.16873010452094903 2.181937683583277 -0.007963426738946212
v -0.18061415199628492 2.1709637401485713 0.04268031056634114
f 57 58 59 60
f 61 64 63 62
f 57 61 62 58
f 58 62 63 59
f 59 63 64 60
f 61 57 60 64
o Cut_9_Spacing
v -0.42421689605060375 1.988074965972864 0.046278085084983475
v -0.42941260094324674 1.9975924992755707 0.11050091977403484
v -0.4489813848401684 1.9630120425589646 0.11976672522514868
v -0.44522607338310966 1.9509491562534105 0.05622591581766242
v -0.42672764319270234 1.9871117677807666 0.04653617326270701
v -0.43175121075485146 1.996695338145806 0.11074131337423583
v -0.4477368205252082 1.9499859580613135 0.05648400399538596
v -0.45131999465177314 1.9621148814292002 0.12000711882534967
f 65 66 67 68
f 69 72 71 70
f 65 69 70 66
f 66 70 71 67
f 67 71 72 68
f 69 65 68 72
o Cut_10_Canopy
v -0.7715481638502271 2.255170618769662 0.10173715199123705
v -0.7612592905326545 2.2398662989341647 0.1523020678313812
v -0.6802486578093507 2.257514102524989 0.1516857929501505
v -0.6873471828113968 2.2735134254553397 0.10109660706713493
v -0.7715481638502271 2.2524392602116228 0.10183253313384169
v -0.7612592905326545 2.2372384306807187 0.1523938350129145
v -0.6873471828113968 2.2707820668973002 0.10119198820973957
v -0.6802486578093507 2.254886234271543 0.1517775601316838
f 73 74 75 76
f 77 80 79 78
f 73 77 78 74
f 74 78 79 75
f 75 79 80 76
f 77 73 76 80
