o Cut_1_Vigor
v 0.17942571925111395 1.5957394897496726 0.008349900490170117
v 0.1774317515539101 1.6058883735910108 0.05834990049016589
v 0.24712032795242914 1.6058883735910108 0.05834990049016589
v 0.25090886657711636 1.5957394897496726 0.008349900490170117
v 0.17942571925111395 1.5916146474984032 0.008349900490170117
v 0.1774317515539101 1.6018670847262595 0.05834990049016589
v 0.25090886657711636 1.5916146474984032 0.008349900490170117
v 0.24712032795242914 1.6018670847262595 0.05834990049016589
f 1 2 3 4
f 5 8 7 6
f 1 5 6 2
f 2 6 7 3
f 3 7 8 4
f 5 1 4 8
o Cut_2_Canopy
v 0.5413949369940549 1.5870203887892735 -0.03460605947896469
v 0.530547752721265 1.5971692726306128 0.015393940521036719
v 0.570120156464028 1.5971692726306128 0.015393940521036719
v 0.58196432458542 1.5870203887892735 -0.03460605947896469
v 0.5413949369940549 1.5828065818354853 -0.03460605947896469
v 0.530547752721265 1.5930590190633427 0.015393940521036719
v 0.58196432458542 1.5828065818354853 -0.03460605947896469
v 0.570120156464028 1.5930590190633427 0.015393940521036719
f 9 10 11 12
f 13 16 15 14
f 9 13 14 10
f 10 14 15 11
f 11 15 16 12
f 13 9 12 16
o Cut_3_Vigor
v -0.5455744779967755 1.5862597554915219 0.0999779371228177
v -0.528585873216598 1.5971475302335147 0.14997793712281648
v -0.4651370644177396 1.5939311432493515 0.14997793712281648
v -0.48041085697832164 1.5829564401661051 0.0999779371228177
v -0.5455744779967755 1.5823246811101188 0.0999779371228177
v -0.528585873216598 1.5933160092386298 0.14997793712281648
v -0.48041085697832164 1.579021365784702 0.0999779371228177
v -0.4651370644177396 1.5900996222544665 0.14997793712281648
f 17 18 19 20
f 21 24 23 22
f 17 21 22 18
f 18 22 23 19
f 19 23 24 20
f 21 17 20 24
o Cut_4_Spacing
v -0.8699549084741612 1.747278794606695 0.028992524582860977
v -0.8449048307190096 1.7538055782645423 0.07989580893538299
v -0.875533836577 1.6736880715302918 0.07989580893538299
v -0.9013959103695959 1.6650373175973483 0.028992524582860977
v -0.8756070331995175 1.7457087599995254 0.028992524582860977
v -0.8504109835413267 1.7522760914072157 0.07989580893538299
v -0.9070480350949522 1.6634672829901787 0.028992524582860977
v -0.8810399893993174 1.6721585846729652 0.07989580893538299
f 25 26 27 28
f 29 32 31 30
f 25 29 30 26
f 26 30 31 27
f 27 31 32 28
f 29 25 28 32
o Cut_5_Canopy
v -0.6694293655821861 1.5584172352127537 0.10099138325827504
v -0.6491706537785938 1.570043900855401 0.15099138325827477
v -0.6019788015720684 1.5668292758150673 0.15099138325827477
v -0.6209613740494502 1.5551156818311664 0.10099138325827504
v -0.6694293655821861 1.5544842597469382 0.10099138325827504
v -0.6491706537785938 1.5662144787761036 0.15099138325827477
v -0.6209613740494502 1.5511827063653512 0.10099138325827504
v -0.6019788015720684 1.56299985373577 0.15099138325827477
f 33 34 35 36
f 37 40 39 38
f 33 37 38 34
f 34 38 39 35
f 35 39 40 36
f 37 33 36 40
o Cut_6_Vigor
v -0.1889894814779769 1.5832799864268507 0.10563383011430894
v -0.1810136106891612 1.5975943251494442 0.15495226470984708
v -0.13745650103234128 1.62206269471387 0.15366993179829877
v -0.14419611184889053 1.60844282966314 0.10431510137984772
v -0.1889894814779769 1.5795330818011972 0.10583019706492452
v -0.1810136106891612 1.5939508319939917 0.15514321209495707
v -0.14419611184889053 1.6046959250374861 0.1045114683304633
v -0.13745650103234128 1.6184192015584171 0.15386087918340874
f 41 42 43 44
f 45 48 47 46
f 41 45 46 42
f 42 46 47 43
f 43 47 48 44
f 45 41 44 48
o Cut_7_Spacing
v 0.23626407983309006 2.2855124619613236 0.031762687840439556
v 0.23131903994402425 2.2914632172561737 0.08193199678533294
v 0.2874473392749378 2.294807895379495 0.08103579298324687
v 0.29450598492303987 2.2889830895794248 0.030832735972940138
v 0.23626407983309006 2.2827562051946146 0.03250122461521196
v 0.23131903994402425 2.2888069853799027 0.08264373197148973
v 0.29450598492303987 2.286226832812716 0.03157127274771254
v 0.2874473392749378 2.292151663503224 0.08174752816940366
f 49 50 51 52
f 53 56 55 54
f 49 53 54 50
f 50 54 55 51
f 51 55 56 52
f 53 49 52 56
o Cut_8_Canopy
v -0.6745917040313931 2.2846120564479953 0.15871962722773603
v -0.6520997484069331 2.279307513940452 0.20906624382056313
v -0.6160949732172395 2.282210293286347 0.20891411560129608
v -0.6375101862852095 2.287601645002873 0.15856294953060487
v -0.6745917040313931 2.281050709081999 0.15890626953444356
v -0.6520997484069331 2.2758495780446566 0.20924746656176504
v -0.6375101862852095 2.284040297636875 0.15874959183731244
v -0.6160949732172395 2.2787523573905504 0.209095338342498
f 57 58 59 60
f 61 64 63 62
f 57 61 62 58
f 58 62 63 59
f 59 63 64 60
f 61 57 60 64
o Cut_9_Canopy
v -0.590989099172933 2.4364958990293624 0.057512522499373796
v -0.5732029073138736 2.4252604109223554 0.10751252249937333
v -0.49773172936388776 2.4038740072782914 0.10751252249937333
v -0.5135239535257431 2.414544461167151 0.057512522499373796
v -0.590989099172933 2.4324728758980765 0.057512522499373796
v -0.5732029073138736 2.4213409411775877 0.10751252249937333
v -0.5135239535257431 2.4105214380358646 0.057512522499373796
v -0.49773172936388776 2.399954537533523 0.10751252249937333
f 65 66 67 68
f 69 72 71 70
f 65 69 70 66
f 66 70 71 67
f 67 71 72 68
f 69 65 68 72
o Cut_10_Canopy
v -0.74105350126388 2.253457307331069 0.13693038800666188
v -0.7184817869315314 2.2466551646279878 0.1869303880066608
v -0.6881140881231176 2.2403508792700837 0.1869303880066608
v -0.7098483360226405 2.246979165290658 0.13693038800666188
v -0.74105350126388 2.2495987639782498 0.13693038800666188
v -0.7184817869315314 2.2429001746616866 0.1869303880066608
v -0.7098483360226405 2.243120621937839 0.13693038800666188
v -0.6881140881231176 2.2365958893037825 0.1869303880066608
f 73 74 75 76
f 77 80 79 78
f 73 77 78 74
f 74 78 79 75
f 75 79 80 76
f 77 73 76 80
o Cut_11_Canopy
v -0.34676043880838786 2.307660336561062 0.0817122753369063
v -0.33511566745671684 2.2996411970804327 0.13171227533690524
v -0.2919021251408101 2.3012652686093236 0.13171227533690524
v -0.30239039522810274 2.30932787226058 0.0817122753369063
v -0.34676043880838786 2.3036874327569605 0.0817122753369063
v -0.33511566745671684 2.295771846662849 0.13171227533690524
v -0.30239039522810274 2.3053549684564785 0.0817122753369063
v -0.2919021251408101 2.2973959181917403 0.13171227533690524
f 81 82 83 84
f 85 88 87 86
f 81 85 86 82
f 82 86 87 83
f 83 87 88 84
f 85 81 84 88
o Cut_12_Canopy
v -0.1834508358320523 2.3725839661737287 0.047332741291063456
v -0.17619279341423014 2.3630435807211643 0.09733274129106106
v -0.13673668006934012 2.3630435807211643 0.09733274129106106
v -0.1429578592846162 2.3725839661737287 0.047332741291063456
v -0.1834508358320523 2.36853986002608 0.047332741291063456
v -0.17619279341423014 2.3591030279600336 0.09733274129106106
v -0.1429578592846162 2.36853986002608 0.047332741291063456
v -0.13673668006934012 2.3591030279600336 0.09733274129106106
f 89 90 91 92
f 93 96 95 94
f 89 93 94 90
f 90 94 95 91
f 91 95 96 92
f 93 89 92 96
o Cut_13_Vigor
v 0.9444476502182434 2.350410905026472 0.05733408829674266
v 0.9095130517938382 2.335914489236259 0.13770171497033756
v 0.9511027131704026 2.290586269001969 0.13770171497033756
v 0.9878321166514745 2.303126541938563 0.05733408829674266
v 0.9401801977411358 2.3475659367786403 0.05733408829674266
v 0.905422142810628 2.3331872166481196 0.13770171497033756
v 0.9835646641743667 2.3002815736907305 0.05733408829674266
v 0.9470118041871922 2.287858996413829 0.13770171497033756
f 97 98 99 100
f 101 104 103 102
f 97 101 102 98
f 98 102 103 99
f 99 103 104 100
f 101 97 100 104
