o Cut_1_Spacing
v -0.21214792675411542 1.3137952857392823 0.0959824275784223
v -0.2347813397830241 1.3285897560741204 0.16855878739987687
v -0.2528343250098492 1.28923816420427 0.16855878739987687
v -0.23118497341698008 1.2722986533944447 0.0959824275784223
v -0.21650965009245998 1.3137952857392823 0.0959824275784223
v -0.23891759728058196 1.3285897560741204 0.16855878739987687
v -0.23554669675532464 1.2722986533944447 0.0959824275784223
v -0.25697058250740706 1.28923816420427 0.16855878739987687
f 1 2 3 4
f 5 8 7 6
f 1 5 6 2
f 2 6 7 3
f 3 7 8 4
f 5 1 4 8
o Cut_2_Spacing
v -0.4474370910068983 1.3204400899354343 0.11211944930708498
v -0.4546153747168328 1.329410604874982 0.16228364662999015
v -0.37320511418217955 1.3305934694184283 0.16230429360739732
v -0.36303587892643924 1.3216664120297035 0.1121408548388634
v -0.4474370910068983 1.3175183775458383 0.11206845062762319
v -0.4546153747168328 1.3265924301002217 0.1622344552063178
v -0.36303587892643924 1.3187446996401073 0.1120898561594016
v -0.37320511418217955 1.3277752946436678 0.162255102183725
f 9 10 11 12
f 13 16 15 14
f 9 13 14 10
f 10 14 15 11
f 11 15 16 12
f 13 9 12 16
