o Cut_1_Vigor
v 0.3749869765036822 1.6240500939741749 0.7817361344127914
v 0.8199106793016175 1.4869800611145798 -0.38109439073956813
v 0.7892916082903538 1.446217559638419 -0.38251784865752414
v 0.36098331348072304 1.605407322792938 0.781085114497684
v 0.3719567394217696 1.6240500939741749 0.7817361344127914
v 0.8132850525466803 1.4869800611145798 -0.38109439073956813
v 0.3579530763988105 1.605407322792938 0.781085114497684
v 0.7826659815354164 1.446217559638419 -0.38251784865752414
f 1 2 3 4
f 5 8 7 6
f 1 5 6 2
f 2 6 7 3
f 3 7 8 4
f 5 1 4 8
o Cut_2_Canopy
v 0.30608490906437463 1.5528603500631826 0.025544625915071992
v 0.297231692488789 1.5582608757970189 0.07576369364429872
v 0.34810918940128444 1.5713859960544474 0.07622203294335976
v 0.3584778214267451 1.566376409561466 0.02601661711324821
v 0.30608490906437463 1.549282348757109 0.025419679356221376
v 0.297231692488789 1.5547863647955384 0.07564236104651943
v 0.3584778214267451 1.5627984082553927 0.025891670554397596
v 0.34810918940128444 1.567911485052967 0.07610070034558047
f 9 10 11 12
f 13 16 15 14
f 9 13 14 10
f 10 14 15 11
f 11 15 16 12
f 13 9 12 16
o Cut_3_Canopy
v -0.5435621378880114 1.6841400203352002 0.0023126038333535375
v -0.5280889485577092 1.6857180290473428 0.05239818632678543
v -0.4137604133029473 1.6857180290473428 0.05239818632678543
v -0.4258837369019471 1.6841400203352002 0.0023126038333535375
v -0.5435621378880114 1.6805044795288138 0.002185647950875822
v -0.5280889485577092 1.6821859785455495 0.052274844405379044
v -0.4258837369019471 1.6805044795288138 0.002185647950875822
v -0.4137604133029473 1.6821859785455495 0.052274844405379044
f 17 18 19 20
f 21 24 23 22
f 17 21 22 18
f 18 22 23 19
f 19 23 24 20
f 21 17 20 24
o Cut_4_Canopy
v -0.2193287314946983 1.4744750331361058 0.01102004316894682
v -0.21121301078225205 1.4842843816665974 0.07580274241834536
v -0.16175173610539556 1.4770040321993332 0.07554850701277935
v -0.16796693994214237 1.4669149410396043 0.010756038935508173
v -0.2193287314946983 1.470872649252123 0.010894245151713411
v -0.21121301078225205 1.4808152951454459 0.07568159924759327
v -0.16796693994214237 1.4633125571556216 0.010630240918275151
v -0.16175173610539556 1.4735349456781817 0.0754273638420276
f 25 26 27 28
f 29 32 31 30
f 25 29 30 26
f 26 30 31 27
f 27 31 32 28
f 29 25 28 32
o Cut_5_Spacing
v -0.4608329931464596 2.3299662460610038 0.046255964661992416
v -0.44755316828308084 2.3129529219858185 0.09569232350861662
v -0.43814514372457763 2.264643372872541 0.09400531687978152
v -0.45114581311034785 2.280223253064591 0.044518901069734995
v -0.46622321689512464 2.3299662460610038 0.046255964661992416
v -0.45278806194813365 2.3129529219858185 0.09569232350861662
v -0.4565360368590129 2.280223253064591 0.044518901069734995
v -0.4433800373896305 2.264643372872541 0.09400531687978152
f 33 34 35 36
f 37 40 39 38
f 33 37 38 34
f 34 38 39 35
f 35 39 40 36
f 37 33 36 40
o Cut_6_Spacing
v -0.4333679391681054 2.0501863591752114 0.00743569638185251
v -0.42108509815332906 2.041382759157982 0.057158745109893265
v -0.36093008413142497 2.0354261680472376 0.05695073636475841
v -0.3714582335726618 2.044056017290754 0.007221620125999415
v -0.4333679391681054 2.046534974290281 0.0073081872119601645
v -0.42108509815332906 2.0378348645776447 0.05703484990107224
v -0.3714582335726618 2.040404632405824 0.007094110956107461
v -0.36093008413142497 2.0318782734669005 0.0568268411559374
f 41 42 43 44
f 45 48 47 46
f 41 45 46 42
f 42 46 47 43
f 43 47 48 44
f 45 41 44 48
