o Cut_1_Canopy
v -0.21370500196992834 1.3177396308205591 0.09738810623321194
v -0.23533710257485735 1.3317344846017 0.1669315154692305
v -0.25766510474390364 1.2795878401398275 0.1669315154692305
v -0.2371978095561631 1.2628726044141882 0.09738810623321194
v -0.21765356492411336 1.3165111890429195 0.09738810623321194
v -0.23908989039649334 1.330566950641572 0.1669315154692305
v -0.24114637251034812 1.2616441626365487 0.09738810623321194
v -0.2614178925655396 1.2784203061796995 0.1669315154692305
f 1 2 3 4
f 5 8 7 6
f 1 5 6 2
f 2 6 7 3
f 3 7 8 4
f 5 1 4 8
o Cut_2_Canopy
v -0.5427790471737265 1.2914875832752035 0.07806223842970379
v -0.5814600754072007 1.305287457449187 0.11176222526609766
v -0.5001561978461371 1.2468090631792619 0.1708329500059513
v -0.45766812675493934 1.2302709462557953 0.13989894171163264
v -0.5441021990907122 1.2894453645505288 0.07710091229100187
v -0.5827240422509847 1.3033365879212007 0.11084389960009984
v -0.4589912786719249 1.2282287275311203 0.13893761557293072
v -0.5014201646899209 1.2448581936512755 0.16991462433995347
f 9 10 11 12
f 13 16 15 14
f 9 13 14 10
f 10 14 15 11
f 11 15 16 12
f 13 9 12 16
o Cut_3_Vigor
v -0.5990063884781162 2.0402331285975244 0.005442760761869542
v -0.6089156954949423 2.0245208309159657 0.054496537005404466
v -0.5780536045994633 2.002208532748875 0.05938461199912993
v -0.5670020347679272 2.017095011188526 0.01051175241220637
v -0.5990063884781162 2.0373317304540013 0.005442760761869542
v -0.6089156954949423 2.0217229861589607 0.054496537005404466
v -0.5670020347679272 2.014193613045003 0.01051175241220637
v -0.5780536045994633 1.9994106879918698 0.05938461199912993
f 17 18 19 20
f 21 24 23 22
f 17 21 22 18
f 18 22 23 19
f 19 23 24 20
f 21 17 20 24
