o Cut_1_Vigor
v 0.13794973713798497 1.61482477871711 0.017471584879092082
v 0.13699263264332706 1.6245390208521817 0.06747158487909251
v 0.28496316321663473 1.61277961658357 0.06747158487909251
v 0.2897486856899243 1.6027611252541112 0.017471584879092082
v 0.13794973713798497 1.610718828092025 0.017471584879092082
v 0.13699263264332706 1.620536623613615 0.06747158487909251
v 0.2897486856899243 1.598655174629026 0.017471584879092082
v 0.28496316321663473 1.608777219345003 0.06747158487909251
f 1 2 3 4
f 5 8 7 6
f 1 5 6 2
f 2 6 7 3
f 3 7 8 4
f 5 1 4 8
o Cut_2_Spacing
v 0.47219647182366015 2.166716475105508 0.7851124835161103
v -0.0035372304414321657 2.364347749391217 -0.42026475687507026
v 0.08237952148427828 2.3249026939015693 -0.4567342543580625
v 0.5115098422438209 2.148667398028558 0.7684249478324324
v 0.47219647182366015 2.164453215835201 0.7851124835161103
v -0.0035372304414321657 2.3594015470383702 -0.42026475687507026
v 0.5115098422438209 2.1464041387582515 0.7684249478324324
v 0.08237952148427828 2.319956491548723 -0.4567342543580625
f 9 10 11 12
f 13 16 15 14
f 9 13 14 10
f 10 14 15 11
f 11 15 16 12
f 13 9 12 16
o Cut_3_Canopy
v 0.5501747699390162 1.6350635657894144 0.026949968415259516
v 0.5593593492055038 1.6454297704838872 0.07736936468942163
v 0.5380138848860343 1.608263079758928 0.08642997673333687
v 0.5282052502589594 1.596810270798787 0.036275476243664645
v 0.5451411652829091 1.6350635657894144 0.029086606826532323
v 0.5544687266452488 1.6454297704838872 0.07944531080183631
v 0.5231716456028525 1.596810270798787 0.038412114654937456
v 0.5331232623257794 1.608263079758928 0.08850592284575155
f 17 18 19 20
f 21 24 23 22
f 17 21 22 18
f 18 22 23 19
f 19 23 24 20
f 21 17 20 24
o Cut_4_Spacing
v -0.05726299497280449 2.4368668683150467 0.03505398794138779
v -0.05149265902524425 2.42576177271992 0.0848829605848137
v -0.043852580165434994 2.307448325114776 0.08461616315205135
v -0.04942364081039944 2.3154674645954056 0.034780231661718085
v -0.063369851865318 2.4368668683150467 0.035267244083250195
v -0.05744428045703563 2.42576177271992 0.0850907957849353
v -0.055530497702912955 2.3154674645954056 0.034993487803580706
v -0.049804201597226386 2.307448325114776 0.08482399835217315
f 25 26 27 28
f 29 32 31 30
f 25 29 30 26
f 26 30 31 27
f 27 31 32 28
f 29 25 28 32
o Cut_5_Spacing
v -0.07004426613940198 2.411885311148462 0.007410447655650337
v -0.06403479982872654 2.4015625706246158 0.05723106968278971
v -0.06558519243207665 2.3897270422272587 0.05728521058551283
v -0.07163451380327127 2.3997455335567177 0.007465980327754926
v -0.07004426613940198 2.407753451132415 0.007410447655650337
v -0.06403479982872654 2.397534263995087 0.05723106968278971
v -0.07163451380327127 2.3956136735406703 0.007465980327754926
v -0.06558519243207665 2.3856987355977295 0.05728521058551283
f 33 34 35 36
f 37 40 39 38
f 33 37 38 34
f 34 38 39 35
f 35 39 40 36
f 37 33 36 40
o Cut_6_Vigor
v -0.6817483580188505 2.3133034078040238 0.12001951979314392
v -0.70505023419027 2.302271284980078 0.1680809074022738
v -0.6738598579592214 2.3142900239454884 0.19927128363332233
v -0.6494196134458382 2.3257607997644225 0.15234826436615617
v -0.6817483580188505 2.310335434169459 0.12001951979314392
v -0.70505023419027 2.299407820421569 0.1680809074022738
v -0.6494196134458382 2.3227928261298576 0.15234826436615617
v -0.6738598579592214 2.31142655938698 0.19927128363332233
f 41 42 43 44
f 45 48 47 46
f 41 45 46 42
f 42 46 47 43
f 43 47 48 44
f 45 41 44 48
