o Cut_1_Vigor
v 0.5023900145000435 2.0064348849642677 0.0017219038986147803
v 0.5023102557921554 1.999545813919933 0.051721903898616424
v 0.5554461390117293 1.9504462130184985 0.051721903898616424
v 0.5573603480010452 1.955640181408391 0.0017219038986147803
v 0.4993799835675383 2.0040680230928705 0.0017219038986147803
v 0.4994006745338574 1.9972579381151927 0.051721903898616424
v 0.5543503170685401 1.953273319536994 0.0017219038986147803
v 0.5525365577534315 1.9481583372137583 0.051721903898616424
f 1 2 3 4
f 5 8 7 6
f 1 5 6 2
f 2 6 7 3
f 3 7 8 4
f 5 1 4 8
o Cut_2_Vigor
v 0.6952606207699151 1.9083529091302105 0.0072306550533685265
v 0.6887204067230862 1.9047236508828795 0.057230655053368266
v 0.7635181288999191 1.9122487036409308 0.057230655053368266
v 0.7726505009531133 1.916138746912022 0.0072306550533685265
v 0.6952606207699151 1.9052612827110162 0.0072306550533685265
v 0.6887204067230862 1.9017355778502036 0.057230655053368266
v 0.7726505009531133 1.9130471204928279 0.0072306550533685265
v 0.7635181288999191 1.9092606306082547 0.057230655053368266
f 9 10 11 12
f 13 16 15 14
f 9 13 14 10
f 10 14 15 11
f 11 15 16 12
f 13 9 12 16
o Cut_3_Vigor
v 0.9309180710799241 1.941548485661502 -0.0007698514463800065
v 0.9165615036600556 1.936832623148503 0.049230148553619665
v 0.9906168820885102 1.9507050549884437 0.049230148553619665
v 1.0075257281607999 1.9558990233783362 -0.0007698514463800065
v 0.9309180710799241 1.9384402896514696 -0.0007698514463800065
v 0.9165615036600556 1.9338279805249887 0.049230148553619665
v 1.0075257281607999 1.952790827368304 -0.0007698514463800065
v 0.9906168820885102 1.947700412364929 0.049230148553619665
f 17 18 19 20
f 21 24 23 22
f 17 21 22 18
f 18 22 23 19
f 19 23 24 20
f 21 17 20 24
o Cut_4_Vigor
v 0.2207066064394664 2.0459599398604236 0.022477145644470866
v 0.23015801332421332 2.037636551185407 0.07247714564447108
v 0.34629253923531134 2.038877473123712 0.07247714564447108
v 0.3409088264528606 2.047244325969355 0.022477145644470866
v 0.2207066064394664 2.042899889955894 0.022477145644470866
v 0.23015801332421332 2.0346800546673953 0.07247714564447108
v 0.3409088264528606 2.0441842760648257 0.022477145644470866
v 0.34629253923531134 2.0359209766057003 0.07247714564447108
f 25 26 27 28
f 29 32 31 30
f 25 29 30 26
f 26 30 31 27
f 27 31 32 28
f 29 25 28 32
o Cut_5_Canopy
v 0.49061567771464304 1.3173712754237532 0.029263679503802032
v 0.49095333353767656 1.3347366635957576 0.08218201155398451
v 0.5610649986206833 1.3532239484859923 0.08218201155398451
v 0.5633441754261596 1.336548575738041 0.029263679503802032
v 0.49061567771464304 1.3143252808905006 0.029263679503802032
v 0.49095333353767656 1.3318002665123587 0.08218201155398451
v 0.5633441754261596 1.3335025812047885 0.029263679503802032
v 0.5610649986206833 1.3502875514025936 0.08218201155398451
f 33 34 35 36
f 37 40 39 38
f 33 37 38 34
f 34 38 39 35
f 35 39 40 36
f 37 33 36 40
