o Cut_1_Canopy
v 0.6666649529545307 1.5854867292676116 0.1850727235699708
v 0.6402262867506843 1.5901621272107556 0.2323939506702877
v 0.6186588367192715 1.498365922621283 0.22653859252303649
v 0.6444246072352365 1.4908265203502207 0.17903468062490863
v 0.6615692972735513 1.5855085647605154 0.18444743686461576
v 0.6352848033464282 1.5901833020570488 0.23178758240860406
v 0.6393289515542572 1.4908483558431247 0.1784093939195534
v 0.6137173533150155 1.4983870974675764 0.22593222426135265
f 1 2 3 4
f 5 8 7 6
f 1 5 6 2
f 2 6 7 3
f 3 7 8 4
f 5 1 4 8
o Cut_2_Spacing
v -0.17508891143420316 1.5928272490053368 -0.004651265697884048
v -0.18790671886736202 1.5972762773957352 0.04417069857551717
v -0.2490948159512459 1.5809625329196544 0.0200987833008262
v -0.23813853773126434 1.5760171904850897 -0.029455522320591357
v -0.17508891143420316 1.5893220528559724 -0.004773669844639413
v -0.18790671886736202 1.5938745715509637 0.04405190838983313
v -0.23813853773126434 1.5725119943357255 -0.029577926467346534
v -0.2490948159512459 1.5775608270748829 0.01997999311514234
f 9 10 11 12
f 13 16 15 14
f 9 13 14 10
f 10 14 15 11
f 11 15 16 12
f 13 9 12 16
