o Cut_1_Vigor
v -0.257579426050232 2.150741607268286 -0.019712269472191554
v -0.26555529683904794 2.1392018699668918 0.030287730527808546
v -0.09909955759477221 2.118760326014085 0.030287730527808546
v -0.08546081854589697 2.129604636585451 -0.019712269472191554
v -0.257579426050232 2.1475941802275447 -0.019712269472191554
v -0.26555529683904794 2.136157996312669 0.030287730527808546
v -0.08546081854589697 2.1264572095447103 -0.019712269472191554
v -0.09909955759477221 2.115716452359862 0.030287730527808546
f 1 2 3 4
f 5 8 7 6
f 1 5 6 2
f 2 6 7 3
f 3 7 8 4
f 5 1 4 8
o Cut_2_Spacing
v -0.4242931585470233 1.4244461659273573 -0.01913445111870813
v -0.43119351214600093 1.4371159716650461 0.03045283804422837
v -0.3321993713559541 1.420932464397964 0.039113703118846856
v -0.3218427164732463 1.4076976244421278 -0.010171198864033153
v -0.4242931585470233 1.4213766736128526 -0.01913445111870813
v -0.43119351214600093 1.4341500327370595 0.03045283804422837
v -0.3218427164732463 1.4046281321276233 -0.010171198864033153
v -0.3321993713559541 1.4179665254699776 0.039113703118846856
f 9 10 11 12
f 13 16 15 14
f 9 13 14 10
f 10 14 15 11
f 11 15 16 12
f 13 9 12 16
o Cut_3_Canopy
v -0.5512073949232899 1.3960428655193189 0.05033677133108372
v -0.5539760780221762 1.4104512380820766 0.10028553482420324
v -0.4777159399111931 1.3963499254334637 0.10695743238783546
v -0.47212659714397526 1.3814199828231857 0.05725544463935975
v -0.5512073949232899 1.3931396140173573 0.05033677133108372
v -0.5539760780221762 1.4076515399666332 0.10028553482420324
v -0.47212659714397526 1.3785167313212243 0.05725544463935975
v -0.4777159399111931 1.3935502273180207 0.10695743238783546
f 17 18 19 20
f 21 24 23 22
f 17 21 22 18
f 18 22 23 19
f 19 23 24 20
f 21 17 20 24
o Cut_4_Canopy
v -0.7986419259194275 2.1696548953030024 0.05835173866584346
v -0.8158716738893808 2.1522474949670016 0.10596883680551339
v -0.7636425082052549 2.1267414341579056 0.1349199360940507
v -0.7438316943391083 2.142888373545732 0.08873354614303683
v -0.7996945660883726 2.1676074932611695 0.05776825069227451
v -0.8168747442323518 2.1502965070331483 0.10541282583516073
v -0.7448843345080532 2.1408409715038985 0.08815005816946789
v -0.764645578548226 2.1247904462240523 0.13436392512369805
f 25 26 27 28
f 29 32 31 30
f 25 29 30 26
f 26 30 31 27
f 27 31 32 28
f 29 25 28 32
o Cut_5_Canopy
v -0.6392593719873602 2.0527188746044374 0.044260289101295876
v -0.6620698029761098 2.041744171521191 0.08878396413035816
v -0.6274963211128293 2.0111072864175155 0.10794835806741272
v -0.603116323025043 2.020691136040707 0.06429470828820887
v -0.6410723435851268 2.050775560479374 0.04325534253462706
v -0.663804043513464 2.0398852487798473 0.08782265890310643
v -0.6049292946228098 2.018747821915643 0.06328976172154005
v -0.6292305616501835 2.0092483636761718 0.10698705284016101
f 33 34 35 36
f 37 40 39 38
f 33 37 38 34
f 34 38 39 35
f 35 39 40 36
f 37 33 36 40
