o Cut_1_Canopy
v -0.2768812512723059 2.019854510847044 -0.0016816157556341091
v -0.26203827035278365 2.017154984037263 0.04865109206428145
v -0.27925028492647164 1.956996572675496 0.059092535924627654
v -0.29473046105680173 1.9574690126184016 0.00914637425787998
v -0.2812264182792191 2.0198901341900006 -0.0014566988200813286
v -0.26622832015056586 2.0171893356699426 0.0488679797371445
v -0.29907562806371496 1.9575046359613586 0.009371291193432761
v -0.28344033472425384 1.9570309243081756 0.0593094235974907
f 1 2 3 4
f 5 8 7 6
f 1 5 6 2
f 2 6 7 3
f 3 7 8 4
f 5 1 4 8
o Cut_2_Spacing
v -0.4286570289883991 2.059875342668438 -0.0414966818203651
v -0.41178806227005393 2.055827182334154 0.009767740077922873
v -0.31244358551692175 2.0123454069339255 0.0166545767390052
v -0.3256835310263557 2.014805192249429 -0.03435827127090768
v -0.43031711122633426 2.057186917649295 -0.041070877128353674
v -0.4133896394191145 2.0532335035517235 0.010178538440259724
v -0.32734361326429084 2.0121167672302858 -0.03393246657889625
v -0.31404516266598226 2.009751728151495 0.01706537510134205
f 9 10 11 12
f 13 16 15 14
f 9 13 14 10
f 10 14 15 11
f 11 15 16 12
f 13 9 12 16
o Cut_3_Canopy
v 0.0008138350221521502 1.994658638980774 0.012402788243633306
v 0.02520141513839644 1.9920873992199102 0.05743292970702573
v 0.08206559049224671 2.0197660500953556 0.029788062420521358
v 0.05978561348313023 2.0233631661697893 -0.016266703207850324
v 0.0025389109162336975 1.9971359269549618 0.011304760579254666
v 0.026864838231608106 1.9944761509490005 0.0563741446528846
v 0.06151068937721186 2.025840454143977 -0.01736473087222896
v 0.08372901358545845 2.022154801824446 0.028729277366380226
f 17 18 19 20
f 21 24 23 22
f 17 21 22 18
f 18 22 23 19
f 19 23 24 20
f 21 17 20 24
