o Cut_1_Vigor
v 0.10470452202958631 1.6282621386973124 0.03385228850359245
v 0.10458488396775407 1.6377155958086242 0.08385228850359489
v 0.3246593144199554 1.6160618153282202 0.08385228850359489
v 0.33052157944973537 1.606043323998761 0.03385228850359245
v 0.10470452202958631 1.6241901136189048 0.03385228850359245
v 0.10458488396775407 1.6337471241167347 0.08385228850359489
v 0.33052157944973537 1.6019712989203532 0.03385228850359245
v 0.3246593144199554 1.6120933436363305 0.08385228850359489
f 1 2 3 4
f 5 8 7 6
f 1 5 6 2
f 2 6 7 3
f 3 7 8 4
f 5 1 4 8
o Cut_2_Spacing
v 0.24910955251197983 2.355395116519553 0.11160795358846841
v 0.24457696156350686 2.344591914034329 0.16901077287494978
v 0.17155829410719015 2.2554595944688676 0.16901077287494978
v 0.17380169770794948 2.2634684351103385 0.11160795358846841
v 0.24473352272955382 2.3527903369514656 0.11160795358846841
v 0.24033395312443492 2.342066313835331 0.16901077287494978
v 0.16942566792552352 2.260863655542251 0.11160795358846841
v 0.16731528566811826 2.2529339942698696 0.16901077287494978
f 9 10 11 12
f 13 16 15 14
f 9 13 14 10
f 10 14 15 11
f 11 15 16 12
f 13 9 12 16
o Cut_3_Spacing
v 0.6494199377811914 1.6571911956360559 -0.038025461470502946
v 0.6359407161480936 1.6656015126523254 0.011974538529493322
v 0.5043339722419048 1.5740091621126522 0.011974538529493322
v 0.5145032074976444 1.5632952440531669 -0.038025461470502946
v 0.6460124841328474 1.6536337283929108 -0.038025461470502946
v 0.6326168594349391 1.6621313227104308 0.011974538529493322
v 0.5110957538493003 1.5597377768100216 -0.038025461470502946
v 0.5010101155287503 1.5705389721707577 0.011974538529493322
f 17 18 19 20
f 21 24 23 22
f 17 21 22 18
f 18 22 23 19
f 19 23 24 20
f 21 17 20 24
o Cut_4_Spacing
v -0.7163005062439984 2.2979275680929394 0.11169271068555324
v -0.694685896406308 2.2900388211241904 0.16169271068555155
v -0.5290041504765794 2.2964308612591586 0.16169271068555155
v -0.5461123933185891 2.304493464910415 0.11169271068555324
v -0.7163005062439984 2.2940167558010307 0.11169271068555324
v -0.694685896406308 2.2862315622187994 0.16169271068555155
v -0.5461123933185891 2.300582652618506 0.11169271068555324
v -0.5290041504765794 2.292623602353768 0.16169271068555155
f 25 26 27 28
f 29 32 31 30
f 25 29 30 26
f 26 30 31 27
f 27 31 32 28
f 29 25 28 32
o Cut_5_Canopy
v 0.648144879502319 2.3080438979859377 0.04757397336850595
v 0.6341073469140028 2.300155151017188 0.09757397336850651
v 0.7494259786340715 2.240620245030308 0.09757397336850651
v 0.7664943421221376 2.2469442818564955 0.04757397336850595
v 0.6455483603235131 2.3043895377504335 0.04757397336850595
v 0.6315773224229185 2.296594375895426 0.09757397336850651
v 0.7638978229433318 2.2432899216209914 0.04757397336850595
v 0.746895954142987 2.2370594699085453 0.09757397336850651
f 33 34 35 36
f 37 40 39 38
f 33 37 38 34
f 34 38 39 35
f 35 39 40 36
f 37 33 36 40
o Cut_6_Spacing
v -0.6737553707651063 1.6408435112126265 0.08276631821443477
v -0.6535764176694028 1.650210039982684 0.1327663182144332
v -0.5880480335242374 1.5268502396981551 0.1327663182144332
v -0.6064722950464015 1.514180433960467 0.08276631821443477
v -0.6789099201341736 1.6388540360666661 0.08276631821443477
v -0.6585965403011862 1.6482724488393068 0.1327663182144332
v -0.6116268444154688 1.5121909588145064 0.08276631821443477
v -0.5930681561560207 1.5249126485547777 0.1327663182144332
f 41 42 43 44
f 45 48 47 46
f 41 45 46 42
f 42 46 47 43
f 43 47 48 44
f 45 41 44 48
o Cut_7_Spacing
v 0.336883189421656 2.429416821931154 -0.020406687673740844
v 0.3294637246436724 2.4159669735346916 0.042874865960336066
v 0.37004914532894784 2.322395670694577 0.042874865960336066
v 0.37878089639419377 2.3328199908218967 -0.020406687673740844
v 0.3312086905235319 2.427628495049837 -0.020406687673740844
v 0.3239669578370916 2.414234659189932 0.042874865960336066
v 0.3731063974960698 2.331031663940579 -0.020406687673740844
v 0.36455237852236705 2.3206633563498174 0.042874865960336066
f 49 50 51 52
f 53 56 55 54
f 49 53 54 50
f 50 54 55 51
f 51 55 56 52
f 53 49 52 56
o Cut_8_Spacing
v -0.3638107836992279 2.3061858151014007 0.04859924759714198
v -0.35192673622389203 2.298340532303278 0.0985992475971427
v -0.2124057304098046 2.329744798861518 0.0985992475971427
v -0.2206208773222851 2.3384159009015484 0.04859924759714198
v -0.3638107836992279 2.302144331974093 0.04859924759714198
v -0.35192673622389203 2.294402602562488 0.0985992475971427
v -0.2206208773222851 2.3343744177742405 0.04859924759714198
v -0.2124057304098046 2.325806869120728 0.0985992475971427
f 57 58 59 60
f 61 64 63 62
f 57 61 62 58
f 58 62 63 59
f 59 63 64 60
f 61 57 60 64
o Cut_9_Spacing
v -0.8424939334081484 2.366862917102972 0.14492692745555932
v -0.8144275843060398 2.3559381754796527 0.20016879864265646
v -0.759877744111959 2.2558061173227393 0.20016879864265646
v -0.7862698055125289 2.263657525038839 0.14492692745555932
v -0.8474492531748075 2.3649014364104297 0.14492692745555932
v -0.8192353405398698 2.3540351053507464 0.20016879864265646
v -0.791225125279188 2.261696044346297 0.14492692745555932
v -0.7646855003457891 2.253903047193833 0.20016879864265646
f 65 66 67 68
f 69 72 71 70
f 65 69 70 66
f 66 70 71 67
f 67 71 72 68
f 69 65 68 72
o Cut_10_Spacing
v -0.752630937621394 1.686519902240623 0.024005587778469333
v -0.7303039177431497 1.6947287016933301 0.0757490380502211
v -0.897592507454801 1.6897105433650013 0.0757490380502211
v -0.9244179472345768 1.6813668047432087 0.024005587778469333
v -0.752630937621394 1.6824274839780933 0.024005587778469333
v -0.7303039177431497 1.6907434476209156 0.0757490380502211
v -0.9244179472345768 1.6772743864806787 0.024005587778469333
v -0.897592507454801 1.685725289292587 0.0757490380502211
f 73 74 75 76
f 77 80 79 78
f 73 77 78 74
f 74 78 79 75
f 75 79 80 76
f 77 73 76 80
o Cut_11_Canopy
v -0.07970260027116736 1.6272146049994423 0.10665703518017147
v -0.07495695715182185 1.637059239646394 0.15665703518017196
v -0.23815210205814313 1.5713613536662714 0.15665703518017196
v -0.24732435346528153 1.5597346880236238 0.10665703518017147
v -0.08174059793582229 1.6235362678418555 0.10665703518017147
v -0.07694113472940003 1.6334780411801573 0.15665703518017196
v -0.2493623511299365 1.5560563508660368 0.10665703518017147
v -0.24013627963572134 1.5677801552000343 0.15665703518017196
f 81 82 83 84
f 85 88 87 86
f 81 85 86 82
f 82 86 87 83
f 83 87 88 84
f 85 81 84 88
