o Cut_1_Vigor
v -0.4310013086689831 1.2379946870356335 0.19249272121809247
v -0.4399931342834916 1.252858194328383 0.2461774138938897
v -0.4269927092629459 1.260487684562924 0.2461774138938897
v -0.41744424682468206 1.2459508477601253 0.19249272121809247
v -0.4310013086689831 1.2352867509033336 0.19249272121809247
v -0.4399931342834916 1.2502614428306982 0.2461774138938897
v -0.41744424682468206 1.243242911627825 0.19249272121809247
v -0.4269927092629459 1.2578909330652392 0.2461774138938897
f 1 2 3 4
f 5 8 7 6
f 1 5 6 2
f 2 6 7 3
f 3 7 8 4
f 5 1 4 8
o Cut_2_Spacing
v -0.27183518132781836 1.3137787236480585 0.1136371650010824
v -0.28547392037669367 1.3241014641719044 0.16363716500108294
v -0.30785710070444056 1.2590474936187535 0.16363716500108294
v -0.29505582808839087 1.2462907595398114 0.1136371650010824
v -0.2758678360221983 1.3127705599993542 0.1136371650010824
v -0.28936113498163324 1.3231296605446623 0.16363716500108294
v -0.2990884827827708 1.2452825958911071 0.1136371650010824
v -0.3117443153093801 1.2580756899915118 0.16363716500108294
f 9 10 11 12
f 13 16 15 14
f 9 13 14 10
f 10 14 15 11
f 11 15 16 12
f 13 9 12 16
o Cut_3_Vigor
v -0.5951812405417753 1.990300520868469 0.00585322444492591
v -0.5970156908232029 1.97723953759514 0.05585322444492523
v -0.5716753690429958 1.9571535721990594 0.05585322444492523
v -0.5689635729747984 1.9695191287423608 0.00585322444492591
v -0.5951812405417753 1.9872060416971904 0.00585322444492591
v -0.5970156908232029 1.9742486118103797 0.05585322444492523
v -0.5689635729747984 1.9664246495710824 0.00585322444492591
v -0.5716753690429958 1.9541626464142992 0.05585322444492523
f 17 18 19 20
f 21 24 23 22
f 17 21 22 18
f 18 22 23 19
f 19 23 24 20
f 21 17 20 24
o Cut_4_Spacing
v -0.6594549832712944 1.9162318124491033 0.01818949904622244
v -0.6590805573231097 1.9037087446842034 0.07687054436695831
v -0.7181041799233224 1.8727811739424312 0.07687054436695831
v -0.7209123745347075 1.8840289802241437 0.01818949904622244
v -0.6614496086977186 1.913465931926082 0.01818949904622244
v -0.6609961937661446 1.9010523955487775 0.07687054436695831
v -0.7229069999611318 1.8812630997011224 0.01818949904622244
v -0.7200198163663575 1.8701248248070053 0.07687054436695831
f 25 26 27 28
f 29 32 31 30
f 25 29 30 26
f 26 30 31 27
f 27 31 32 28
f 29 25 28 32
o Cut_5_Spacing
v -0.4569022281570051 1.35265416062315 0.10860671038121016
v -0.4640691340290665 1.361834506578158 0.1602488636931805
v -0.4234635426101272 1.2698292548406247 0.1602488636931805
v -0.4147314503981903 1.2571024671719462 0.10860671038121016
v -0.46079752565194226 1.3514050357189042 0.10860671038121016
v -0.46781985590190583 1.3606317434756345 0.1602488636931805
v -0.4186267478931275 1.2558533422677005 0.10860671038121016
v -0.4272142644829666 1.2686264917381012 0.1602488636931805
f 33 34 35 36
f 37 40 39 38
f 33 37 38 34
f 34 38 39 35
f 35 39 40 36
f 37 33 36 40
o Cut_6_Vigor
v -0.4019148074119043 1.2134791105440588 0.12975925776874078
v -0.41324189647684534 1.231126905217548 0.19232179431413715
v -0.38716721547209276 1.218622732513058 0.19232179431413715
v -0.3745926496378851 1.200376707511654 0.12975925776874078
v -0.4019148074119043 1.2106412491599947 0.12975925776874078
v -0.41324189647684534 1.2284186150840528 0.19232179431413715
v -0.3745926496378851 1.19753884612759 0.12975925776874078
v -0.38716721547209276 1.215914442379563 0.19232179431413715
f 41 42 43 44
f 45 48 47 46
f 41 45 46 42
f 42 46 47 43
f 43 47 48 44
f 45 41 44 48
o Cut_7_Canopy
v -0.9245851077455878 1.3192261021570808 0.21060017085033916
v -0.9139373202425184 1.330113876899074 0.26060017085033904
v -0.9129487909532205 1.2945600163708082 0.26060017085033904
v -0.9235566991023458 1.2822379239981334 0.21060017085033916
v -0.928590759411015 1.3192261021570808 0.21060017085033916
v -0.9177876418243335 1.330113876899074 0.26060017085033904
v -0.927562350767773 1.2822379239981334 0.21060017085033916
v -0.9167991125350355 1.2945600163708082 0.26060017085033904
f 49 50 51 52
f 53 56 55 54
f 49 53 54 50
f 50 54 55 51
f 51 55 56 52
f 53 49 52 56
o Cut_8_Canopy
v -0.2174558440671688 1.321053079685065 0.13739723170512522
v -0.23332782693691242 1.3312888918676573 0.18739723170512507
v -0.27939208727554526 1.3358529871225593 0.18739723170512507
v -0.26527479597934117 1.3257910316224737 0.13739723170512522
v -0.2174558440671688 1.318231037062346 0.13739723170512522
v -0.23332782693691242 1.3285704026314564 0.18739723170512507
v -0.26527479597934117 1.322968988999755 0.13739723170512522
v -0.27939208727554526 1.3331344978863582 0.18739723170512507
f 57 58 59 60
f 61 64 63 62
f 57 61 62 58
f 58 62 63 59
f 59 63 64 60
f 61 57 60 64
