o Cut_1_Spacing
v 0.24246744886720017 1.3496572284278603 0.02422121494692654
v 0.23672482189925295 1.3601103614635859 0.07422121494692455
v 0.1705931141432675 1.3431512111000228 0.07422121494692455
v 0.17430189406006674 1.3321765080167765 0.02422121494692654
v 0.24246744886720017 1.3461865770629098 0.02422121494692654
v 0.23672482189925295 1.3567432634851535 0.07422121494692455
v 0.17430189406006674 1.3287058566518257 0.02422121494692654
v 0.1705931141432675 1.3397841131215902 0.07422121494692455
f 1 2 3 4
f 5 8 7 6
f 1 5 6 2
f 2 6 7 3
f 3 7 8 4
f 5 1 4 8
o Cut_2_Canopy
v -0.22467848758118292 2.008378573062312 0.10561651711952175
v -0.21606454712926168 1.9987077950978671 0.15561651711952185
v -0.26287219893903924 1.9396374895504236 0.15561651711952185
v -0.2730015548408355 1.947395844007293 0.10561651711952175
v -0.22842711851476125 2.006220270456872 0.10561651711952175
v -0.21969562068176363 1.9966171770434966 0.15561651711952185
v -0.27675018577441385 1.9452375414018526 0.10561651711952175
v -0.2665032724915412 1.9375468714960533 0.15561651711952185
f 9 10 11 12
f 13 16 15 14
f 9 13 14 10
f 10 14 15 11
f 11 15 16 12
f 13 9 12 16
o Cut_3_Spacing
v -0.4300480909384371 2.1122879989014294 -0.05986976955185103
v -0.41640935188956235 2.100574404917529 -0.009869769551852753
v -0.25139317768302144 2.0009881892237464 -0.009869769551852753
v -0.2602065149046627 2.0097896837756566 -0.05986976955185103
v -0.43269648997098675 2.1090993792494217 -0.05986976955185103
v -0.4189825067455721 2.0974763777544427 -0.009869769551852753
v -0.26285491393721233 2.0066010641236494 -0.05986976955185103
v -0.25396633253903106 1.9978901620606597 -0.009869769551852753
f 17 18 19 20
f 21 24 23 22
f 17 21 22 18
f 18 22 23 19
f 19 23 24 20
f 21 17 20 24
o Cut_4_Spacing
v 0.0527012812001278 2.0304756220087343 0.006591674030307339
v 0.05262152249223964 2.0207179157030364 0.056591674030305614
v -0.03257795850555082 1.9535742986070774 0.056591674030305614
v -0.03509035780402775 1.96128918889332 0.006591674030307339
v 0.049618770505237386 2.0276335909417686 0.006591674030307339
v 0.04963002678315088 2.017959799159915 0.056591674030305614
v -0.03817286849891817 1.958447157826354 0.006591674030307339
v -0.0355694542146396 1.950816182063956 0.056591674030305614
f 25 26 27 28
f 29 32 31 30
f 25 29 30 26
f 26 30 31 27
f 27 31 32 28
f 29 25 28 32
o Cut_5_Canopy
v -0.15956508286985913 1.3775893689243095 0.09787290317000853
v -0.15302486882303043 1.3876513244243946 0.14787290317000604
v -0.24091978154519608 1.281061495610257 0.14787290317000604
v -0.25029142972205426 1.2675658706306614 0.09787290317000853
v -0.16326691381031055 1.375371394322765 0.09787290317000853
v -0.1566111711344556 1.385502569506043 0.14787290317000604
v -0.25399326066250566 1.265347896029117 0.09787290317000853
v -0.2445060838566212 1.2789127406919054 0.14787290317000604
f 33 34 35 36
f 37 40 39 38
f 33 37 38 34
f 34 38 39 35
f 35 39 40 36
f 37 33 36 40
o Cut_6_Spacing
v 0.3147335919881839 1.3423735383933744 -0.04693739601253498
v 0.306885647918885 1.3529752623654319 0.004850013637710284
v 0.25821257778688583 1.3176096840077691 0.004850013637710284
v 0.2645735429798965 1.3059275295672217 -0.04693739601253498
v 0.31172321259200714 1.3393631590715211 -0.04693739601253498
v 0.30396451027307 1.350054124791737 0.004850013637710284
v 0.2615631635837198 1.3029171502453682 -0.04693739601253498
v 0.2552914401410708 1.3146885464340743 0.004850013637710284
f 41 42 43 44
f 45 48 47 46
f 41 45 46 42
f 42 46 47 43
f 43 47 48 44
f 45 41 44 48
o Cut_7_Vigor
v 0.9810163730274067 1.4693848018435163 0.015597123739306232
v 0.9533799807441609 1.4762304087172244 0.06559712373930421
v 0.9598978738231232 1.3781980163457226 0.06559712373930421
v 0.9877336628760894 1.3683533816987712 0.015597123739306232
v 0.975783604235283 1.4693848018435163 0.015597123739306232
v 0.9483025420356492 1.4762304087172244 0.06559712373930421
v 0.9825008940839656 1.3683533816987712 0.015597123739306232
v 0.9548204351146115 1.3781980163457226 0.06559712373930421
f 49 50 51 52
f 53 56 55 54
f 49 53 54 50
f 50 54 55 51
f 51 55 56 52
f 53 49 52 56
o Cut_8_Spacing
v 0.7035299732491158 1.973555579272869 0.003553100801126559
v 0.684268245294126 1.9654929756216124 0.05355310080112465
v 0.7446747448459475 1.8696006340224314 0.05355310080112465
v 0.7657709230823649 1.8747511382416977 0.003553100801126559
v 0.6991852288336178 1.9715669400870122 0.003553100801126559
v 0.6800515551200413 1.9635629483259007 0.05355310080112465
v 0.7614261786668669 1.8727624990558414 0.003553100801126559
v 0.7404580546718629 1.8676706067267201 0.05355310080112465
f 57 58 59 60
f 61 64 63 62
f 57 61 62 58
f 58 62 63 59
f 59 63 64 60
f 61 57 60 64
o Cut_9_Spacing
v 0.07248218336037908 1.935662567024519 0.04189719322637875
v 0.07180423434332969 1.9285561751270506 0.09189719322638053
v -0.003869284848226131 1.8656508058260275 0.09189719322638053
v -0.005544217713877525 1.8708013100452936 0.04189719322637875
v 0.06935832426494228 1.9329320828455505 0.04189719322637875
v 0.06877457504909568 1.9259080285500632 0.09189719322638053
v -0.008668076809314326 1.868070825866325 0.04189719322637875
v -0.006898944142460152 1.86300265924904 0.09189719322638053
f 65 66 67 68
f 69 72 71 70
f 65 69 70 66
f 66 70 71 67
f 67 71 72 68
f 69 65 68 72
