o Cut_1_Canopy
v -0.5218999653040449 2.2971698021352016 0.0349909135185101
v -0.5062273792040219 2.2822398595249243 0.08499091351850913
v -0.20609766074464 2.23169943756598 0.08499091351850913
v -0.21247835737569262 2.2450646700336963 0.0349909135185101
v -0.5226897812094934 2.2937618928495347 0.0349909135185101
v -0.5069934770435492 2.2789342892989453 0.08499091351850913
v -0.21326817328114103 2.241656760748029 0.0349909135185101
v -0.2068637585841673 2.228393867340002 0.08499091351850913
f 1 2 3 4
f 5 8 7 6
f 1 5 6 2
f 2 6 7 3
f 3 7 8 4
f 5 1 4 8
o Cut_2_Spacing
v -0.24868309151587342 1.4818569365526926 0.03265089220384942
v -0.24122565232833038 1.4913973220052577 0.08265089220385069
v -0.14060746579565778 1.4660904964749368 0.08265089220385069
v -0.14495431537556255 1.455767755951091 0.03265089220384942
v -0.24868309151587342 1.4784037436202864 0.03265089220384942
v -0.24122565232833038 1.4880476824593694 0.08265089220385069
v -0.14495431537556255 1.4523145630186847 0.03265089220384942
v -0.14060746579565778 1.4627408569290488 0.08265089220385069
f 9 10 11 12
f 13 16 15 14
f 9 13 14 10
f 10 14 15 11
f 11 15 16 12
f 13 9 12 16
o Cut_3_Vigor
v 0.7143977527628173 1.584987672555839 0.05651604770164615
v 0.6867626923896862 1.5933049980610043 0.1200909652715727
v 0.5544506140393798 1.4834339006847939 0.1200909652715727
v 0.5767614884690635 1.4706954054758863 0.05651604770164615
v 0.7113035082241341 1.5822802086513361 0.05651604770164615
v 0.6837881425649143 1.5907022670285877 0.1200909652715727
v 0.5736672439303803 1.4679879415713832 0.05651604770164615
v 0.5514760642146077 1.4808311696523773 0.1200909652715727
f 17 18 19 20
f 21 24 23 22
f 17 21 22 18
f 18 22 23 19
f 19 23 24 20
f 21 17 20 24
o Cut_4_Canopy
v -0.777322090342689 1.5276867515693764 0.002104302535207836
v -0.7544313411787862 1.5357058910500065 0.05210430253521027
v -0.7242015139190089 1.3895920747199286 0.05210430253521027
v -0.7461750379421979 1.3771395898353729 0.002104302535207836
v -0.7824675843555702 1.5269132459525503 0.002104302535207836
v -0.7594253095702594 1.534955163794006 0.05210430253521027
v -0.751320531955079 1.3763660842185468 0.002104302535207836
v -0.7291954823104823 1.388841347463928 0.05210430253521027
f 25 26 27 28
f 29 32 31 30
f 25 29 30 26
f 26 30 31 27
f 27 31 32 28
f 29 25 28 32
o Cut_5_Spacing
v -0.39172642488865217 2.1092385812722103 0.018015815602801483
v -0.380081653536981 2.1000459091846597 0.06801581560280123
v -0.32801567360040823 1.97662276923636 0.06801581560280123
v -0.3380652707943163 1.9820340584793865 0.018015815602801483
v -0.39647393333178194 2.1077834063064116 0.018015815602801483
v -0.3846880337671593 2.0986339919075863 0.06801581560280123
v -0.342812779237446 1.9805788835135878 0.018015815602801483
v -0.33262205383058663 1.975210851959287 0.06801581560280123
f 33 34 35 36
f 37 40 39 38
f 33 37 38 34
f 34 38 39 35
f 35 39 40 36
f 37 33 36 40
o Cut_6_Spacing
v 0.32482795150351046 2.1487989871168787 -0.018410578787659816
v 0.3153765446187632 2.1386501032755394 0.031589421212342546
v 0.5056670335659494 2.0980410973153036 0.031589421212342546
v 0.5208211880647005 2.106972984379095 -0.018410578787659816
v 0.3238021463873527 2.145306365021905 -0.018410578787659816
v 0.31438058700031113 2.135259104801197 0.031589421212342546
v 0.5197953829485427 2.1034803622841203 -0.018410578787659816
v 0.5046710759474974 2.094650098840961 0.031589421212342546
f 41 42 43 44
f 45 48 47 46
f 41 45 46 42
f 42 46 47 43
f 43 47 48 44
f 45 41 44 48
o Cut_7_Canopy
v 0.39360091726914853 1.5942339083214245 0.027153946132800356
v 0.38183650785564466 1.6003840884651055 0.07715394613280199
v 0.2731101801950543 1.5030448807201746 0.07715394613280199
v 0.28152472387725536 1.49389567280325 0.027153946132800356
v 0.39030226131991763 1.5915567383417686 0.027153946132800356
v 0.3786364460341162 1.5977869369059572 0.07715394613280199
v 0.27822606792802446 1.491218502823594 0.027153946132800356
v 0.26991011837352585 1.5004477291610263 0.07715394613280199
f 49 50 51 52
f 53 56 55 54
f 49 53 54 50
f 50 54 55 51
f 51 55 56 52
f 53 49 52 56
o Cut_8_Canopy
v 0.04566876609858738 1.4594036150488257 0.06403833126190606
v 0.044272988710544615 1.4698132839139249 0.11403833126190545
v -0.03415344843384873 1.389851573964061 0.11403833126190545
v -0.03523019099033887 1.3769209832026121 0.06403833126190606
v 0.042196769428224805 1.4569293186321841 0.06403833126190606
v 0.04090710689411504 1.4674146095752305 0.11403833126190545
v -0.038702187660701444 1.3744466867859706 0.06403833126190606
v -0.037519330250278315 1.3874528996253666 0.11403833126190545
f 57 58 59 60
f 61 64 63 62
f 57 61 62 58
f 58 62 63 59
f 59 63 64 60
f 61 57 60 64
o Cut_9_Canopy
v -0.6347046569831081 2.2728935041980076 0.049002038886735315
v -0.6154828083820627 2.2585720599765047 0.09900203888673237
v -0.5669592674722735 2.2432631292944363 0.09900203888673237
v -0.5846657006234438 2.2571064676390455 0.049002038886735315
v -0.6347046569831081 2.2694741755978507 0.049002038886735315
v -0.6154828083820627 2.2552562847628654 0.09900203888673237
v -0.5846657006234438 2.253687139038888 0.049002038886735315
v -0.5669592674722735 2.2399473540807975 0.09900203888673237
f 65 66 67 68
f 69 72 71 70
f 65 69 70 66
f 66 70 71 67
f 67 71 72 68
f 69 65 68 72
o Cut_10_Vigor
v 0.7254405572337382 1.5915945698827259 0.05227532788650014
v 0.7034271538566055 1.5979186067089133 0.10227532788650216
v 0.5211987426220138 1.4812530600666365 0.10227532788650216
v 0.5375093983851429 1.4712780329078043 0.05227532788650014
v 0.7228479085144341 1.5886521194247334 0.05227532788650014
v 0.7009131787398512 1.5950654445436738 0.10227532788650216
v 0.5349167496658389 1.468335582449812 0.05227532788650014
v 0.5186847675052595 1.478399897901397 0.10227532788650216
f 73 74 75 76
f 77 80 79 78
f 73 77 78 74
f 74 78 79 75
f 75 79 80 76
f 77 73 76 80
