o Cut_1_Vigor
v -0.6866915978771261 1.4291529661715163 -0.010132189549578513
v -0.6805102980157937 1.4414315943735643 0.039867810450421884
v -0.561722876095723 1.4376237882961154 0.039867810450421884
v -0.5638364818547593 1.4252147675821873 -0.010132189549578513
v -0.6866915978771261 1.4260253801251574 -0.010132189549578513
v -0.6805102980157937 1.4384075617137237 0.039867810450421884
v -0.5638364818547593 1.4220871815358285 -0.010132189549578513
v -0.561722876095723 1.4345997556362746 0.039867810450421884
f 1 2 3 4
f 5 8 7 6
f 1 5 6 2
f 2 6 7 3
f 3 7 8 4
f 5 1 4 8
o Cut_2_Spacing
v -0.5477489591718254 2.1115799261913146 -0.03504528705990343
v -0.5461936643680064 2.101431042349976 0.014954712940095906
v -0.45499078856450653 2.030430154430281 0.014954712940095906
v -0.45347537311463154 2.0381885088871505 -0.03504528705990343
v -0.5505207529064918 2.1089929187694967 -0.03504528705990343
v -0.5488751743254439 2.0989282997848244 0.014954712940095906
v -0.456247166849298 2.0356015014653326 -0.03504528705990343
v -0.457672298521944 2.02792741186513 0.014954712940095906
f 9 10 11 12
f 13 16 15 14
f 9 13 14 10
f 10 14 15 11
f 11 15 16 12
f 13 9 12 16
o Cut_3_Spacing
v -0.4616149457853862 2.0111387711582593 -0.003952328175518268
v -0.46289108511159666 2.0041193076020445 0.04604767182448021
v -0.3585222619879625 1.9940081344700549 0.04604767182448021
v -0.3536569808067849 2.000679884661256 -0.003952328175518268
v -0.4616149457853862 2.0080239840233705 -0.003952328175518268
v -0.46289108511159666 2.0011080738536737 0.04604767182448021
v -0.3536569808067849 1.9975650975263672 -0.003952328175518268
v -0.3585222619879625 1.9909969007216841 0.04604767182448021
f 17 18 19 20
f 21 24 23 22
f 17 21 22 18
f 18 22 23 19
f 19 23 24 20
f 21 17 20 24
o Cut_4_Spacing
v -0.23067692335357898 2.217922464721148 -0.014225635147637673
v -0.2395700192831086 2.2041225905471644 0.035774364852361656
v -0.17066701990061267 2.1048420801135306 0.035774364852361656
v -0.15942104208838237 2.11525174897863 -0.014225635147637673
v -0.23442862489325217 2.2160305810854575 -0.014225635147637673
v -0.24319783897015065 2.202293177245874 0.035774364852361656
v -0.1631727436280556 2.1133598653429395 -0.014225635147637673
v -0.17429483958765474 2.1030126668122398 0.035774364852361656
f 25 26 27 28
f 29 32 31 30
f 25 29 30 26
f 26 30 31 27
f 27 31 32 28
f 29 25 28 32
o Cut_5_Vigor
v -0.8195313375289006 2.196691308508916 0.08935735896161139
v -0.8082056010087821 2.1826306493111725 0.13935735896161075
v -0.7452622036196647 2.0903734912083243 0.13935735896161075
v -0.7542749376110266 2.101043945097184 0.08935735896161139
v -0.8230479720874883 2.194948019625477 0.08935735896161139
v -0.8115975890248549 2.180949151019933 0.13935735896161075
v -0.757791572169614 2.0993006562137446 0.08935735896161139
v -0.7486541916357374 2.088691992917085 0.13935735896161075
f 33 34 35 36
f 37 40 39 38
f 33 37 38 34
f 34 38 39 35
f 35 39 40 36
f 37 33 36 40
o Cut_6_Vigor
v -0.7503379584952569 2.1440966329448625 0.09879854946880408
v -0.7414049832117828 2.131818004742814 0.14879854946880525
v -0.6131585858805232 2.0824857704093693 0.14879854946880525
v -0.6173459180446517 2.0929389034450954 0.09879854946880408
v -0.7517867160704969 2.1413600909258608 0.09879854946880408
v -0.7428020438103071 2.129179112566309 0.14879854946880525
v -0.6187946756198918 2.0902023614260936 0.09879854946880408
v -0.6145556464790476 2.079846878232864 0.14879854946880525
f 41 42 43 44
f 45 48 47 46
f 41 45 46 42
f 42 46 47 43
f 43 47 48 44
f 45 41 44 48
o Cut_7_Spacing
v -0.25753615072708325 1.574142914449189 0.0024792527185966465
v -0.2656316595777315 1.5816839480529246 0.05247925271859729
v -0.21021451504438723 1.536384940156125 0.05247925271859729
v -0.20020479720442313 1.5272791964098271 0.0024792527185966465
v -0.2603274710017177 1.5716617409329936 0.0024792527185966465
v -0.2683297818021987 1.5792856172459437 0.05247925271859729
v -0.20299611747905769 1.5247980228936322 0.0024792527185966465
v -0.21291263726885445 1.5339866093491443 0.05247925271859729
f 49 50 51 52
f 53 56 55 54
f 49 53 54 50
f 50 54 55 51
f 51 55 56 52
f 53 49 52 56
o Cut_8_Spacing
v -0.45388298986959 1.4395646848820136 -0.021596276922383598
v -0.455398405319465 1.4514086713777945 0.028403723077615812
v -0.32511479980527097 1.4462917344438906 0.028403723077615812
v -0.3191727760676032 1.434273891265603 -0.021596276922383598
v -0.45388298986959 1.4364133559342391 -0.021596276922383598
v -0.455398405319465 1.448360895816538 0.028403723077615812
v -0.3191727760676032 1.431122562317828 -0.021596276922383598
v -0.32511479980527097 1.443243958882634 0.028403723077615812
f 57 58 59 60
f 61 64 63 62
f 57 61 62 58
f 58 62 63 59
f 59 63 64 60
f 61 57 60 64
o Cut_9_Vigor
v -0.5540112758539208 1.394973348161451 0.027862095780362257
v -0.5521768255724931 1.408729758164808 0.07786209578036342
v -0.46256879904582016 1.4037847946029098 0.07786209578036342
v -0.46125278036566547 1.3898545279170458 0.027862095780362257
v -0.5540112758539208 1.391924450853377 0.027862095780362257
v -0.5521768255724931 1.4057844142432523 0.07786209578036342
v -0.46125278036566547 1.386805630608972 0.027862095780362257
v -0.46256879904582016 1.400839450681354 0.07786209578036342
f 65 66 67 68
f 69 72 71 70
f 65 69 70 66
f 66 70 71 67
f 67 71 72 68
f 69 65 68 72
o Cut_10_Spacing
v -0.24415096797920893 1.9912281220932118 0.02853758039171754
v -0.2528446671390185 1.9847302285845172 0.07853758039171872
v -0.1462731015934575 2.000793726722301 0.07853758039171872
v -0.1338307431629044 2.007856654449143 0.02853758039171754
v -0.24415096797920893 1.9881806237595188 0.02853758039171754
v -0.2528446671390185 1.9817862836373423 0.07853758039171872
v -0.1338307431629044 2.0048091561154506 0.02853758039171754
v -0.1462731015934575 1.9978497817751266 0.07853758039171872
f 73 74 75 76
f 77 80 79 78
f 73 77 78 74
f 74 78 79 75
f 75 79 80 76
f 77 73 76 80
