o Cut_1_Spacing
v 0.5164831175605898 2.0098033219356166 0.023840755177376525
v 0.5158581598003 2.001848624427923 0.07980936500402616
v 0.6517852438028717 2.0067868170744774 0.07980936500402616
v 0.6577669823656457 2.014936124918751 0.023840755177376525
v 0.5164831175605898 2.0067460961587873 0.023840755177376525
v 0.5158581598003 1.9989073134328188 0.07980936500402616
v 0.6577669823656457 2.011878899141921 0.023840755177376525
v 0.6517852438028717 2.003845506079373 0.07980936500402616
f 1 2 3 4
f 5 8 7 6
f 1 5 6 2
f 2 6 7 3
f 3 7 8 4
f 5 1 4 8
o Cut_2_Spacing
v 0.6721346701682233 1.9218149954739827 0.0012549907124828716
v 0.6663920432002758 1.9177510955203843 0.05125499071248287
v 0.8466500900005746 1.9001199154424657 0.05125499071248287
v 0.8586138961837985 1.9035753170072902 0.0012549907124828716
v 0.6721346701682233 1.9187109930492046 0.0012549907124828716
v 0.6663920432002758 1.9147506464821245 0.05125499071248287
v 0.8586138961837985 1.9004713145825118 0.0012549907124828716
v 0.8466500900005746 1.897119466404206 0.05125499071248287
f 9 10 11 12
f 13 16 15 14
f 9 13 14 10
f 10 14 15 11
f 11 15 16 12
f 13 9 12 16
o Cut_3_Spacing
v 0.2330596463621544 2.105740301287945 0.019093352285291812
v 0.2420723803535161 2.0954175607640995 0.06909335228529032
v 0.3014185583252735 2.003371668147075 0.06909335228529032
v 0.2944795507390039 2.0104780600445435 0.019093352285291812
v 0.22929548422224613 2.103976910058732 0.019093352285291812
v 0.238435307998292 2.093713707090205 0.06909335228529032
v 0.29071538859909557 2.00871466881533 0.019093352285291812
v 0.2977814859700494 2.0016678144731808 0.06909335228529032
f 17 18 19 20
f 21 24 23 22
f 17 21 22 18
f 18 22 23 19
f 19 23 24 20
f 21 17 20 24
o Cut_4_Spacing
v 0.5214013166807479 1.3898667442405455 0.009301279696589169
v 0.5206834883097544 1.4036231542439017 0.0593012796965886
v 0.3896880623479765 1.447456296744576 0.0593012796965886
v 0.3858596443693449 1.435221132713155 0.009301279696589169
v 0.522760501222147 1.392818116314717 0.009301279696589169
v 0.5219970840100656 1.4064755334084407 0.0593012796965886
v 0.38721882891074405 1.4381725047873266 0.009301279696589169
v 0.3910016580482877 1.450308675909115 0.0593012796965886
f 25 26 27 28
f 29 32 31 30
f 25 29 30 26
f 26 30 31 27
f 27 31 32 28
f 29 25 28 32
o Cut_5_Vigor
v 0.6124790885172668 1.435561227990621 -0.03287185888911185
v 0.6088101879544117 1.4474486786570282 0.017128141110886806
v 0.7672945921488808 1.4203789245502552 0.017128141110886806
v 0.7763073261402427 1.4075787263006867 -0.03287185888911185
v 0.611741800435558 1.432424827974437 -0.03287185888911185
v 0.6080969491132651 1.4444145833442021 0.017128141110886806
v 0.7755700380585339 1.404442326284503 -0.03287185888911185
v 0.7665813533077344 1.417344829237429 0.017128141110886806
f 33 34 35 36
f 37 40 39 38
f 33 37 38 34
f 34 38 39 35
f 35 39 40 36
f 37 33 36 40
o Cut_6_Spacing
v 0.1576799276034192 1.479374275539426 0.009740949972702721
v 0.1691651815393145 1.4901316577695394 0.05974094997270445
v 0.29207950645352754 1.4763597314481853 0.05974094997270445
v 0.2848613433896489 1.465124243341178 0.009740949972702721
v 0.1576799276034192 1.4762878481110326 0.009740949972702721
v 0.1691651815393145 1.4871487837276642 0.05974094997270445
v 0.2848613433896489 1.4620378159127847 0.009740949972702721
v 0.29207950645352754 1.4733768574063104 0.05974094997270445
f 41 42 43 44
f 45 48 47 46
f 41 45 46 42
f 42 46 47 43
f 43 47 48 44
f 45 41 44 48
o Cut_7_Spacing
v 0.9668513228840782 1.8786237801465986 0.029322622398919116
v 0.9509793400143345 1.8759507336530554 0.07932262239891893
v 0.9963038967996948 1.909294958183665 0.07932262239891893
v 1.0137710538272016 1.9131415372841294 0.029322622398919116
v 0.9694074473876962 1.8811483474952502 0.029322622398919116
v 0.9534485615526066 1.8783894709145954 0.07932262239891893
v 1.0163271783308196 1.9156661046327814 0.029322622398919116
v 0.9987731183379669 1.9117336954452049 0.07932262239891893
f 49 50 51 52
f 53 56 55 54
f 49 53 54 50
f 50 54 55 51
f 51 55 56 52
f 53 49 52 56
