# Blender 4.4.1
# www.blender.org
mtllib BudSpacingCuts.mtl
o Cuts_Spacing.003
v 0.087605 1.353925 0.065278
v 0.087605 1.357925 0.065278
v 0.087605 1.353925 -0.034722
v 0.087605 1.357925 -0.034722
v 0.127605 1.353925 0.065278
v 0.127605 1.357925 0.065278
v 0.127605 1.353925 -0.034722
v 0.127605 1.357925 -0.034722
v 0.201844 1.970764 0.078701
v 0.201844 1.974764 0.078701
v 0.201844 1.970764 -0.021299
v 0.201844 1.974764 -0.021299
v 0.241844 1.970764 0.078701
v 0.241844 1.974764 0.078701
v 0.241844 1.970764 -0.021299
v 0.241844 1.974764 -0.021299
v -0.629228 2.017282 0.088930
v -0.633125 2.017622 0.089761
v -0.649940 2.019094 -0.008885
v -0.653837 2.019434 -0.008053
v -0.625741 2.057129 0.088930
v -0.629639 2.057470 0.089761
v -0.646453 2.058941 -0.008885
v -0.650351 2.059282 -0.008053
v -0.626009 1.977296 0.118159
v -0.629504 1.975740 0.119328
v -0.652719 1.965405 0.022528
v -0.656213 1.963849 0.023698
v -0.642279 2.013838 0.118159
v -0.645773 2.012282 0.119328
v -0.668988 2.001946 0.022528
v -0.672483 2.000391 0.023698
vn -1.0000 -0.0000 -0.0000
vn -0.0000 -0.0000 -1.0000
vn 1.0000 -0.0000 -0.0000
vn -0.0000 -0.0000 1.0000
vn -0.0000 -1.0000 -0.0000
vn -0.0000 1.0000 -0.0000
vn -0.0872 -0.9962 -0.0000
vn -0.2071 0.0181 -0.9781
vn 0.0872 0.9962 -0.0000
vn 0.2071 -0.0181 0.9781
vn 0.9744 -0.0853 -0.2079
vn -0.9744 0.0853 0.2079
vn 0.4067 -0.9135 -0.0000
vn -0.2671 -0.1189 -0.9563
vn -0.4067 0.9135 -0.0000
vn 0.2671 0.1189 0.9563
vn 0.8736 0.3890 -0.2924
vn -0.8736 -0.3890 0.2924
vt 0.375000 0.000000
vt 0.625000 0.000000
vt 0.625000 0.250000
vt 0.375000 0.250000
vt 0.625000 0.500000
vt 0.375000 0.500000
vt 0.625000 0.750000
vt 0.375000 0.750000
vt 0.625000 1.000000
vt 0.375000 1.000000
vt 0.125000 0.500000
vt 0.125000 0.750000
vt 0.875000 0.500000
vt 0.875000 0.750000
s 0
f 1/1/1 2/2/1 4/3/1 3/4/1
f 3/4/2 4/3/2 8/5/2 7/6/2
f 7/6/3 8/5/3 6/7/3 5/8/3
f 5/8/4 6/7/4 2/9/4 1/10/4
f 3/11/5 7/6/5 5/8/5 1/12/5
f 8/5/6 4/13/6 2/14/6 6/7/6
f 9/1/1 10/2/1 12/3/1 11/4/1
f 11/4/2 12/3/2 16/5/2 15/6/2
f 15/6/3 16/5/3 14/7/3 13/8/3
f 13/8/4 14/7/4 10/9/4 9/10/4
f 11/11/5 15/6/5 13/8/5 9/12/5
f 16/5/6 12/13/6 10/14/6 14/7/6
f 17/1/7 18/2/7 20/3/7 19/4/7
f 19/4/8 20/3/8 24/5/8 23/6/8
f 23/6/9 24/5/9 22/7/9 21/8/9
f 21/8/10 22/7/10 18/9/10 17/10/10
f 19/11/11 23/6/11 21/8/11 17/12/11
f 24/5/12 20/13/12 18/14/12 22/7/12
f 25/1/13 26/2/13 28/3/13 27/4/13
f 27/4/14 28/3/14 32/5/14 31/6/14
f 31/6/15 32/5/15 30/7/15 29/8/15
f 29/8/16 30/7/16 26/9/16 25/10/16
f 27/11/17 31/6/17 29/8/17 25/12/17
f 32/5/18 28/13/18 26/14/18 30/7/18
