o Cut_1_Spacing
v -0.6680028679339206 1.9839209618981846 -0.00477763165077807
v -0.6674046776247594 1.9711642278192423 0.045222368349223475
v -0.6082287737005777 1.9585180871780414 0.045222368349223475
v -0.6067931169585907 1.9708401795507167 -0.00477763165077807
v -0.6680028679339206 1.9808044655039 -0.00477763165077807
v -0.6674046776247594 1.968151284811476 0.045222368349223475
v -0.6067931169585907 1.9677236831564322 -0.00477763165077807
v -0.6082287737005777 1.9555051441702753 0.045222368349223475
f 1 2 3 4
f 5 8 7 6
f 1 5 6 2
f 2 6 7 3
f 3 7 8 4
f 5 1 4 8
o Cut_2_Spacing
v -0.5341385951080699 1.2085432672043641 0.11652479012196926
v -0.5383259272721984 1.2226908547433617 0.16652479012197163
v -0.4883384851940397 1.2238500226243345 0.16652479012197163
v -0.48227682339453937 1.2097458992559635 0.11652479012196926
v -0.5341385951080699 1.2056779963414281 0.11652479012196926
v -0.5383259272721984 1.219929137266944 0.16652479012197163
v -0.48227682339453937 1.2068806283930278 0.11652479012196926
v -0.4883384851940397 1.2210883051479169 0.16652479012197163
f 9 10 11 12
f 13 16 15 14
f 9 13 14 10
f 10 14 15 11
f 11 15 16 12
f 13 9 12 16
o Cut_3_Canopy
v -0.40238829513263874 1.2118391039530223 0.13237445684260782
v -0.41144090847794473 1.226030155662646 0.18237445684260767
v -0.3179089298635708 1.2203032055196545 0.18237445684260767
v -0.3053070540172416 1.2058948329568973 0.13237445684260782
v -0.40238829513263874 1.2090066588233686 0.13237445684260782
v -0.41144090847794473 1.2233012639195107 0.18237445684260767
v -0.3053070540172416 1.2030623878272433 0.13237445684260782
v -0.3179089298635708 1.217574313776519 0.18237445684260767
f 17 18 19 20
f 21 24 23 22
f 17 21 22 18
f 18 22 23 19
f 19 23 24 20
f 21 17 20 24
o Cut_4_Vigor
v -0.21428493452048636 1.3242812617246458 0.12395080652203538
v -0.23011703803628641 1.3342997530541048 0.17395080652203693
v -0.2459816335764773 1.2847331126260202 0.17395080652203693
v -0.23074772036983845 1.2728456619596122 0.12395080652203538
v -0.21855977124603473 1.3242812617246458 0.12395080652203538
v -0.2342365446782226 1.3342997530541048 0.17395080652203693
v -0.23502255709538683 1.2728456619596122 0.12395080652203538
v -0.25010114021841345 1.2847331126260202 0.17395080652203693
f 25 26 27 28
f 29 32 31 30
f 25 29 30 26
f 26 30 31 27
f 27 31 32 28
f 29 25 28 32
