o Cut_1_Canopy
v -0.16685460304591404 1.8700861485924825 0.7289703210212655
v -0.4219938967985417 2.0702002306523517 -0.41349021718100715
v -0.3747945071186875 2.0518280107688605 -0.41349021718100715
v -0.1451691427413226 1.8616451486623344 0.7289703210212655
v -0.16685460304591404 1.8680750803591246 0.7289703210212655
v -0.4219938967985417 2.0658230492651097 -0.41349021718100715
v -0.1451691427413226 1.8596340804289768 0.7289703210212655
v -0.3747945071186875 2.0474508293816185 -0.41349021718100715
f 1 2 3 4
f 5 8 7 6
f 1 5 6 2
f 2 6 7 3
f 3 7 8 4
f 5 1 4 8
o Cut_2_Spacing
v -0.18599457744546952 1.8788730082415064 0.7362030692276805
v -0.46337724914704825 2.0891162835675767 -0.3966219750137745
v -0.46003277195390785 2.069068137809997 -0.3966219750137745
v -0.18445715348817004 1.869657068706815 0.7362030692276805
v -0.18599457744546952 1.8768769195195607 0.7362030692276805
v -0.46337724914704825 2.0847740374523553 -0.3966219750137745
v -0.18445715348817004 1.8676609799848696 0.7362030692276805
v -0.46003277195390785 2.0647258916947755 -0.3966219750137745
f 9 10 11 12
f 13 16 15 14
f 9 13 14 10
f 10 14 15 11
f 11 15 16 12
f 13 9 12 16
o Cut_3_Vigor
v -0.18872758341395324 1.996406411722625 -0.0006377859642904036
v -0.17608913107378088 1.9807143904894435 0.08939550343794991
v -0.17994292308072032 1.934512021979959 0.08939550343794991
v -0.192796803585782 1.9476213165263827 -0.0006377859642904036
v -0.19401078760371088 1.996406411722625 -0.0006377859642904036
v -0.1810926376961239 1.9807143904894435 0.08939550343794991
v -0.19808000777553963 1.9476213165263827 -0.0006377859642904036
v -0.18494642970306338 1.934512021979959 0.08939550343794991
f 17 18 19 20
f 21 24 23 22
f 17 21 22 18
f 18 22 23 19
f 19 23 24 20
f 21 17 20 24
o Cut_4_Canopy
v -0.02099588758676599 1.9775185185663609 -0.011794945862483423
v -0.01892216118167384 1.9694124507444777 0.03820505413751702
v -0.03217642294738034 1.9448547474594584 0.03820505413751702
v -0.03464894289191328 1.952221924380687 -0.011794945862483423
v -0.02099588758676599 1.9739732752929862 -0.011794945862483423
v -0.01892216118167384 1.9659707608576211 0.03820505413751702
v -0.03464894289191328 1.9486766811073124 -0.011794945862483423
v -0.03217642294738034 1.9414130575726019 0.03820505413751702
f 25 26 27 28
f 29 32 31 30
f 25 29 30 26
f 26 30 31 27
f 27 31 32 28
f 29 25 28 32
o Cut_5_Canopy
v 0.2545162603751084 1.310677092639285 -0.032558940264987006
v 0.24861411599138475 1.3219125807462915 0.01744105973501126
v 0.28753174682753435 1.3145994778593726 0.01744105973501126
v 0.29459039247563623 1.3031466688992326 -0.032558940264987006
v 0.2545162603751084 1.30708884572715 -0.032558940264987006
v 0.24861411599138475 1.3184278872206745 0.01744105973501126
v 0.29459039247563623 1.2995584219870977 -0.032558940264987006
v 0.28753174682753435 1.3111147843337558 0.01744105973501126
f 33 34 35 36
f 37 40 39 38
f 33 37 38 34
f 34 38 39 35
f 35 39 40 36
f 37 33 36 40
