o Cut_1_Spacing
v -0.16323787683234542 2.069026852699406 -0.01335538336226905
v -0.17436421658274362 2.0601384298062415 0.03664461663773095
v -0.13701530952413357 2.0168880307186514 0.03664461663773095
v -0.12461283044752482 2.024298671810507 -0.01335538336226905
v -0.16666143071793127 2.0668787405105045 -0.01335538336226905
v -0.1776746591025781 2.058061289452922 0.03664461663773095
v -0.12803638433311065 2.0221505596216054 -0.01335538336226905
v -0.14032575204396805 2.014810890365332 0.03664461663773095
f 1 2 3 4
f 5 8 7 6
f 1 5 6 2
f 2 6 7 3
f 3 7 8 4
f 5 1 4 8
o Cut_2_Canopy
v -0.410367797611267 2.0696494513992327 -0.039441173756823905
v -0.4132789904491848 2.0608914210179488 0.01055882624317576
v -0.3241820628284841 2.0673651535494115 0.01055882624317576
v -0.31827991844476033 2.076340504783829 -0.039441173756823905
v -0.410367797611267 2.0664611644614723 -0.039441173756823905
v -0.4132789904491848 2.0578066874667065 0.01055882624317576
v -0.31827991844476033 2.0731522178460686 -0.039441173756823905
v -0.3241820628284841 2.0642804199981692 0.01055882624317576
f 9 10 11 12
f 13 16 15 14
f 9 13 14 10
f 10 14 15 11
f 11 15 16 12
f 13 9 12 16
o Cut_3_Canopy
v -0.5396535200041405 2.0678208602312007 -0.006571320077362034
v -0.5383375013239858 2.058932437338037 0.04342867992263721
v -0.5174261369654481 2.048803051036304 0.04342867992263721
v -0.5180243272746093 2.0573437605644544 -0.006571320077362034
v -0.5396535200041405 2.064700648986698 -0.006571320077362034
v -0.5383375013239858 2.055915779480052 0.04342867992263721
v -0.5180243272746093 2.054223549319951 -0.006571320077362034
v -0.5174261369654481 2.04578639317832 0.04342867992263721
f 17 18 19 20
f 21 24 23 22
f 17 21 22 18
f 18 22 23 19
f 19 23 24 20
f 21 17 20 24
o Cut_4_Canopy
v -0.7366833029004384 2.047664986636756 0.1068114129266365
v -0.7281890005103492 2.0387765637435917 0.15681141292663833
v -0.7281890005103492 1.9885692667217116 0.15681141292663833
v -0.7366833029004384 1.995588730277927 0.1068114129266365
v -0.7410113848947915 2.047664986636756 0.1068114129266365
v -0.73236175242109 2.0387765637435917 0.15681141292663833
v -0.7410113848947915 1.995588730277927 0.1068114129266365
v -0.73236175242109 1.9885692667217116 0.15681141292663833
f 25 26 27 28
f 29 32 31 30
f 25 29 30 26
f 26 30 31 27
f 27 31 32 28
f 29 25 28 32
o Cut_5_Canopy
v -0.8189002968691433 2.1542977827590497 0.09214322926080264
v -0.8075745603490249 2.141714905362615 0.14214322926080214
v -0.7534241095833514 2.122829107484198 0.14214322926080214
v -0.7627558784062659 2.134716558150605 0.09214322926080264
v -0.8189002968691433 2.1513820160321986 0.09214322926080264
v -0.8075745603490249 2.138902692022282 0.14214322926080214
v -0.7627558784062659 2.131800791423754 0.09214322926080264
v -0.7534241095833514 2.1200168941438644 0.14214322926080214
f 33 34 35 36
f 37 40 39 38
f 33 37 38 34
f 34 38 39 35
f 35 39 40 36
f 37 33 36 40
o Cut_6_Spacing
v -0.590721054520869 1.5454608245562709 -0.03708633036915421
v -0.5877699823290071 1.5537407490606607 0.012913669630846027
v -0.5996307907518459 1.520130562580751 0.012913669630846027
v -0.6029806564831486 1.5107205696400665 -0.03708633036915421
v -0.5954961694851769 1.5454608245562709 -0.03708633036915421
v -0.5923897672097028 1.5537407490606607 0.012913669630846027
v -0.6077557714474565 1.5107205696400665 -0.03708633036915421
v -0.6042505756325416 1.520130562580751 0.012913669630846027
f 41 42 43 44
f 45 48 47 46
f 41 45 46 42
f 42 46 47 43
f 43 47 48 44
f 45 41 44 48
o Cut_7_Canopy
v -0.6756319430706289 1.4781864883758742 0.48988945992881333
v -0.6669382439108196 1.4941161069105668 0.5398894599288135
v -0.6654067003887019 1.4498818740763513 0.5398894599288135
v -0.6740206408406231 1.4316486544984426 0.48988945992881333
v -0.6787699541635651 1.4781864883758742 0.48988945992881333
v -0.6699209249201435 1.4941161069105668 0.5398894599288135
v -0.6771586519335593 1.4316486544984426 0.48988945992881333
v -0.6683893813980258 1.4498818740763513 0.5398894599288135
f 49 50 51 52
f 53 56 55 54
f 49 53 54 50
f 50 54 55 51
f 51 55 56 52
f 53 49 52 56
o Cut_8_Canopy
v -0.4054483822188748 1.435408140280519 -0.0005959261004390132
v -0.40859885118045713 1.4475563759706866 0.04940407389956124
v -0.4271104762578328 1.4425124600632906 0.04940407389956124
v -0.42459807695935575 1.4301903676906158 -0.0005959261004390132
v -0.4054483822188748 1.432300304481658 -0.0005959261004390132
v -0.40859885118045713 1.4445520935583438 0.04940407389956124
v -0.42459807695935575 1.4270825318917548 -0.0005959261004390132
v -0.4271104762578328 1.4395081776509477 0.04940407389956124
f 57 58 59 60
f 61 64 63 62
f 57 61 62 58
f 58 62 63 59
f 59 63 64 60
f 61 57 60 64
o Cut_9_Canopy
v -0.38396034190756867 1.4093901523450203 -0.015504037700533012
v -0.38814734232121767 1.4234843303234146 0.03917912956357932
v -0.4126151111884514 1.4196747282693511 0.03917912956357932
v -0.4093440171152881 1.4054379447802143 -0.015504037700533012
v -0.38396034190756867 1.4062514408373035 -0.015504037700533012
v -0.38814734232121767 1.4204588713588127 0.03917912956357932
v -0.4093440171152881 1.4022992332724977 -0.015504037700533012
v -0.4126151111884514 1.4166492693047494 0.03917912956357932
f 65 66 67 68
f 69 72 71 70
f 65 69 70 66
f 66 70 71 67
f 67 71 72 68
f 69 65 68 72
o Cut_10_Canopy
v -0.23493923637112835 1.4281063826747553 -0.003747995583339967
v -0.24375257359276975 1.4404719392180565 0.04625200441665892
v -0.20317040198981484 1.4467905343108851 0.04625200441665892
v -0.19296128738013069 1.4346422986207175 -0.003747995583339967
v -0.23493923637112835 1.4249920187265046 -0.003747995583339967
v -0.24375257359276975 1.437461128656324 0.04625200441665892
v -0.19296128738013069 1.4315279346724665 -0.003747995583339967
v -0.20317040198981484 1.4437797237491523 0.04625200441665892
f 73 74 75 76
f 77 80 79 78
f 73 77 78 74
f 74 78 79 75
f 75 79 80 76
f 77 73 76 80
