o Cut_1_Vigor
v 0.2489305165670197 2.1220415446092096 0.01515897442325447
v 0.25738493960316455 2.111197234037843 0.06515897442325438
v 0.31460547271562583 2.043843924867328 0.06515897442325438
v 0.3081450173766849 2.0523411702248513 0.01515897442325447
v 0.24554581827621386 2.1199522247281966 0.01515897442325447
v 0.2541142164192053 2.1091782691593193 0.06515897442325438
v 0.3047603190858791 2.0502518503438387 0.01515897442325447
v 0.3113347495316665 2.041824959988804 0.06515897442325438
f 1 2 3 4
f 5 8 7 6
f 1 5 6 2
f 2 6 7 3
f 3 7 8 4
f 5 1 4 8
o Cut_2_Spacing
v 0.5119019904082578 1.9926323986596688 0.007750348094015655
v 0.511503196868817 1.9861779693216008 0.0577503480940144
v 0.5931758946374166 1.9686258375337062 0.0577503480940144
v 0.5964061223068869 1.9744717684829998 0.007750348094015655
v 0.5119019904082578 1.9895418485599607 0.007750348094015655
v 0.511503196868817 1.9831909726084112 0.0577503480940144
v 0.5964061223068869 1.9713812183832915 0.007750348094015655
v 0.5931758946374166 1.965638840820516 0.0577503480940144
f 9 10 11 12
f 13 16 15 14
f 9 13 14 10
f 10 14 15 11
f 11 15 16 12
f 13 9 12 16
o Cut_3_Vigor
v 0.7415768779853188 1.8597224669970105 0.02251393452515705
v 0.7334016104267825 1.8577013830628681 0.07251393452515666
v 0.6981067327524888 1.8552196031461856 0.07251393452515666
v 0.7050457403387586 1.8571537587390745 0.02251393452515705
v 0.7415768779853188 1.8566624932847442 0.02251393452515705
v 0.7334016104267825 1.8547449627371202 0.07251393452515666
v 0.7050457403387586 1.8540937850268084 0.02251393452515705
v 0.6981067327524888 1.8522631828204377 0.07251393452515666
f 17 18 19 20
f 21 24 23 22
f 17 21 22 18
f 18 22 23 19
f 19 23 24 20
f 21 17 20 24
o Cut_4_Spacing
v 0.9696508567821112 1.950434634684334 0.0016804062049028885
v 0.9539782706820882 1.9454145229769482 0.051680406204902045
v 0.9689953636054142 1.9089035172078441 0.051680406204902045
v 0.9851863813067102 1.9126631679670554 0.0016804062049028885
v 0.9649961746264716 1.950434634684334 0.0016804062049028885
v 0.9494789186100607 1.9454145229769482 0.051680406204902045
v 0.9805316991510709 1.9126631679670554 0.0016804062049028885
v 0.9644960115333869 1.9089035172078441 0.051680406204902045
f 25 26 27 28
f 29 32 31 30
f 25 29 30 26
f 26 30 31 27
f 27 31 32 28
f 29 25 28 32
o Cut_5_Vigor
v 0.46203983296326834 1.401143579167171 0.01269503818783344
v 0.4633159722894789 1.4145522758055142 0.0626950381878343
v 0.5355376518445673 1.4083051489952307 0.0626950381878343
v 0.5367739118168338 1.3946791315037539 0.01269503818783344
v 0.46203983296326834 1.3980632698555528 0.01269503818783344
v 0.4633159722894789 1.4115755198804143 0.0626950381878343
v 0.5367739118168338 1.3915988221921356 0.01269503818783344
v 0.5355376518445673 1.4053283930701308 0.0626950381878343
f 33 34 35 36
f 37 40 39 38
f 33 37 38 34
f 34 38 39 35
f 35 39 40 36
f 37 33 36 40
