o Cut_1_Canopy
v -0.45429693338851646 2.1644130657804945 0.01979606549309296
v -0.4407778324014734 2.153568755209128 0.06979606549309338
v -0.39266933741960164 2.153568755209128 0.06979606549309338
v -0.4047129023107137 2.1644130657804945 0.01979606549309296
v -0.45429693338851646 2.1609332496313076 0.01979606549309296
v -0.4407778324014734 2.1501924924464593 0.06979606549309338
v -0.4047129023107137 2.1609332496313076 0.01979606549309296
v -0.39266933741960164 2.1501924924464593 0.06979606549309338
f 1 2 3 4
f 5 8 7 6
f 1 5 6 2
f 2 6 7 3
f 3 7 8 4
f 5 1 4 8
o Cut_2_Canopy
v -0.3641780770879282 2.1191608123741332 -0.0037304865511962114
v -0.35349041023091515 2.1097942836040757 0.04626951344880247
v -0.27171277801331534 2.0982937997579842 0.04626951344880247
v -0.27992792492579555 2.1073126151630284 -0.0037304865511962114
v -0.3641780770879282 2.115632271142201 -0.0037304865511962114
v -0.35349041023091515 2.1063692957586615 0.04626951344880247
v -0.27992792492579555 2.1037840739310965 -0.0037304865511962114
v -0.27171277801331534 2.0948688119125705 0.04626951344880247
f 9 10 11 12
f 13 16 15 14
f 9 13 14 10
f 10 14 15 11
f 11 15 16 12
f 13 9 12 16
o Cut_3_Canopy
v 0.34275196464576974 2.140208676040979 -0.005302003813357054
v 0.33270236745186127 2.1302336488821467 0.044697996186644884
v 0.3657085546990698 2.1302336488821467 0.044697996186644884
v 0.3767551357415803 2.140208676040979 -0.005302003813357054
v 0.34275196464576974 2.1366768800903575 -0.005302003813357054
v 0.33270236745186127 2.1268054063180433 0.044697996186644884
v 0.3767551357415803 2.1366768800903575 -0.005302003813357054
v 0.3657085546990698 2.1268054063180433 0.044697996186644884
f 17 18 19 20
f 21 24 23 22
f 17 21 22 18
f 18 22 23 19
f 19 23 24 20
f 21 17 20 24
o Cut_4_Canopy
v 0.3839151314608755 1.6519100649633953 0.7561848511564216
v 0.8398211737695211 1.476050634960274 -0.3646124134444178
v 0.7772462627827724 1.4257981018793193 -0.3646124134444178
v 0.3553096902932024 1.6289376650685201 0.7561848511564216
v 0.38217583764205093 1.6503364182137867 0.7561848511564216
v 0.8360164376266733 1.4726082547255435 -0.3646124134444178
v 0.35357039647437777 1.6273640183189118 0.7561848511564216
v 0.7734415266399246 1.4223557216445888 -0.3646124134444178
f 25 26 27 28
f 29 32 31 30
f 25 29 30 26
f 26 30 31 27
f 27 31 32 28
f 29 25 28 32
o Cut_5_Canopy
v -0.19778718935957565 1.511347483637437 0.0014935769332255753
v -0.19196480368374008 1.5198447289949606 0.05149357693322506
v -0.13148274224913706 1.509813593971762 0.05149357693322506
v -0.13547067764354498 1.5010120994198515 0.0014935769332255753
v -0.19778718935957565 1.5078297617948089 0.0014935769332255753
v -0.19196480368374008 1.5164305605388506 0.05149357693322506
v -0.13547067764354498 1.4974943775772234 0.0014935769332255753
v -0.13148274224913706 1.506399425515652 0.05149357693322506
f 33 34 35 36
f 37 40 39 38
f 33 37 38 34
f 34 38 39 35
f 35 39 40 36
f 37 33 36 40
