o Cut_1_Spacing
v -0.18191041328286042 2.37260643490717 0.04721498539140335
v -0.17469225021898227 2.3630660494546056 0.09721498539140157
v -0.14130424190507293 2.36802822780706 0.09721498539140157
v -0.14764505918218138 2.377699005771505 0.04721498539140335
v -0.18191041328286042 2.3685620848790774 0.04721498539140335
v -0.17469225021898227 2.359125252813031 0.09721498539140157
v -0.14764505918218138 2.3736546557434126 0.04721498539140335
v -0.14130424190507293 2.364087431165486 0.09721498539140157
f 1 2 3 4
f 5 8 7 6
f 1 5 6 2
f 2 6 7 3
f 3 7 8 4
f 5 1 4 8
o Cut_2_Spacing
v -0.3403959892287684 2.3041564419032468 0.08277643800109308
v -0.32824365143779594 2.295763513916365 0.13568052640349573
v -0.29999146609988575 2.3103491118629256 0.13568052640349573
v -0.31134208716159273 2.3191559376683384 0.08277643800109308
v -0.3403959892287684 2.300185742052099 0.08277643800109308
v -0.32824365143779594 2.2919023820155116 0.13568052640349573
v -0.31134208716159273 2.3151852378171904 0.08277643800109308
v -0.29999146609988575 2.306487979962072 0.13568052640349573
f 9 10 11 12
f 13 16 15 14
f 9 13 14 10
f 10 14 15 11
f 11 15 16 12
f 13 9 12 16
o Cut_3_Vigor
v -0.6445721589344464 2.2905279143601622 0.10642825739555363
v -0.6249116374400158 2.282856488244547 0.15642825739555208
v -0.5719769134078849 2.2892668335871993 0.15642825739555208
v -0.5902017781603287 2.297112116385322 0.10642825739555363
v -0.6445721589344464 2.286606199028927 0.10642825739555363
v -0.6249116374400158 2.2790383262998293 0.15642825739555208
v -0.5902017781603287 2.293190401054086 0.10642825739555363
v -0.5719769134078849 2.2854486716424818 0.15642825739555208
f 17 18 19 20
f 21 24 23 22
f 17 21 22 18
f 18 22 23 19
f 19 23 24 20
f 21 17 20 24
o Cut_4_Spacing
v -0.6462818548951251 2.253172311336676 0.15084099914480922
v -0.6261029017994204 2.2463267044629673 0.20084099914481043
v -0.5974031823607082 2.252582620766789 0.20084099914481043
v -0.6167845483775313 2.2596020843230042 0.15084099914480922
v -0.6462818548951251 2.249342577801694 0.15084099914480922
v -0.6261029017994204 2.2426005243145037 0.20084099914481043
v -0.6167845483775313 2.2557723507880225 0.15084099914480922
v -0.5974031823607082 2.2488564406183253 0.20084099914481043
f 25 26 27 28
f 29 32 31 30
f 25 29 30 26
f 26 30 31 27
f 27 31 32 28
f 29 25 28 32
o Cut_5_Canopy
v -0.837655136218358 2.2830586262796406 0.14240329199465068
v -0.8213587917798905 2.2747352376046237 0.19650681521217767
v -0.7851789292565812 2.271865940083949 0.20353946807401888
v -0.800379167274133 2.2801024004177126 0.14964900636143733
v -0.837655136218358 2.2795370222216187 0.14240329199465068
v -0.8213587917798905 2.27131718693312 0.19650681521217767
v -0.800379167274133 2.2765807963596902 0.14964900636143733
v -0.7851789292565812 2.2684478894124447 0.20353946807401888
f 33 34 35 36
f 37 40 39 38
f 33 37 38 34
f 34 38 39 35
f 35 39 40 36
f 37 33 36 40
o Cut_6_Canopy
v -0.8309310651539378 1.5963644274837163 0.046043886884752944
v -0.8156916804784974 1.6075999155907228 0.09994195793679243
v -0.744597315095459 1.5969739945428896 0.11376130265789731
v -0.7578010735606279 1.5854342572414961 0.06025891725789926
v -0.8309310651539378 1.592644265969132 0.046043886884752944
v -0.8156916804784974 1.6039833074626566 0.09994195793679243
v -0.7578010735606279 1.5817140957269116 0.06025891725789926
v -0.744597315095459 1.5933573864148232 0.11376130265789731
f 41 42 43 44
f 45 48 47 46
f 41 45 46 42
f 42 46 47 43
f 43 47 48 44
f 45 41 44 48
o Cut_7_Canopy
v -0.6698026658714998 1.559887739525848 0.09433953555657029
v -0.6589477068797212 1.572253296069149 0.1473853605888282
v -0.6129065092996434 1.5692462893631325 0.15633486280751466
v -0.6224304819231675 1.5567938044785778 0.10354775531697614
v -0.6698026658714998 1.5562020894007875 0.09433953555657029
v -0.6589477068797212 1.5686711993306068 0.1473853605888282
v -0.6224304819231675 1.5531081543535175 0.10354775531697614
v -0.6129065092996434 1.5656641926245902 0.15633486280751466
f 49 50 51 52
f 53 56 55 54
f 49 53 54 50
f 50 54 55 51
f 51 55 56 52
f 53 49 52 56
o Cut_8_Vigor
v -0.5353738772587832 1.5921745081906342 0.08449947876836879
v -0.5284335840559885 1.6034099962976405 0.13678436985439138
v -0.46210728773659304 1.6064783909104248 0.14967689583691535
v -0.4671685413606754 1.5953298311446722 0.09775725304508481
v -0.5353738772587832 1.588415729721637 0.08449947876836879
v -0.5284335840559885 1.5997547712151612 0.13678436985439138
v -0.4671685413606754 1.5915710526756746 0.09775725304508481
v -0.46210728773659304 1.6028231658279455 0.14967689583691535
f 57 58 59 60
f 61 64 63 62
f 57 61 62 58
f 58 62 63 59
f 59 63 64 60
f 61 57 60 64
o Cut_9_Vigor
v 0.1604893504132957 1.6096712517526977 0.003492495341256385
v 0.14953962096043474 1.6192985655465155 0.052299918292993366
v 0.24551631042723532 1.6175798231787797 0.07095589686156485
v 0.2588931326692662 1.607909045214335 0.022620252956492642
v 0.1604893504132957 1.6054727946750487 0.003492495341256385
v 0.14953962096043474 1.6152036618553849 0.052299918292993366
v 0.2588931326692662 1.6037105881366862 0.022620252956492642
v 0.24551631042723532 1.613484919487649 0.07095589686156485
f 65 66 67 68
f 69 72 71 70
f 65 69 70 66
f 66 70 71 67
f 67 71 72 68
f 69 65 68 72
o Cut_10_Canopy
v 0.5547728712317553 1.609820419977468 -0.03732159510820235
v 0.5254385408653875 1.6234750041016515 0.03335758937476317
v 0.5594317662244226 1.5821381310435991 0.03996520302864054
v 0.5899988523450527 1.5669844756313192 -0.030474358009720176
v 0.5499479166003381 1.6068285215428149 -0.0382594712810328
v 0.5207824386093464 1.620587809067583 0.03245253477885697
v 0.5851738977136355 1.5639925771966658 -0.031412234182550625
v 0.5547756639683815 1.5792509360095304 0.03906014843273434
f 73 74 75 76
f 77 80 79 78
f 73 77 78 74
f 74 78 79 75
f 75 79 80 76
f 77 73 76 80
o Cut_11_Canopy
v -0.15071108649263024 1.6157392561173256 0.10405060897545329
v -0.15438579814158693 1.6263766141457912 0.1560465172195962
v -0.18711188180264635 1.604259373545542 0.14968521096069282
v -0.1843689080532762 1.5929923199043976 0.09750819121559295
v -0.15071108649263024 1.6118682150082326 0.10405060897545329
v -0.15438579814158693 1.6226127337364986 0.1560465172195962
v -0.1843689080532762 1.5891212787953046 0.09750819121559295
v -0.18711188180264635 1.6004954931362494 0.14968521096069282
f 81 82 83 84
f 85 88 87 86
f 81 85 86 82
f 82 86 87 83
f 83 87 88 84
f 85 81 84 88
o Cut_12_Vigor
v 0.9506260100644099 2.3538258135743315 0.0455765733622696
v 0.9090348457819873 2.341901131019998 0.11084946107474801
v 0.9203501671001527 2.2826741634417305 0.11304893673056565
v 0.962335982357601 2.292533152955156 0.04785276139661422
v 0.9441102469098416 2.3538258135743315 0.04431003730601637
v 0.9027386777056654 2.341901131019998 0.10962560997768944
v 0.9558202192030328 2.292533152955156 0.046586225340361
v 0.914053999023831 2.2826741634417305 0.11182508563350708
f 89 90 91 92
f 93 96 95 94
f 89 93 94 90
f 90 94 95 91
f 91 95 96 92
f 93 89 92 96
o Cut_13_Spacing
v 0.036043357090264336 2.153100721939547 0.8522843852387568
v 0.4154394005245273 2.334903718221414 -0.48962069234276406
v 0.5477183381875432 2.3571564569736676 -0.4639082715474182
v 0.09651447088128802 2.1632735273840353 0.8640387790313581
v 0.036043357090264336 2.1506770510423974 0.8522843852387568
v 0.4154394005245273 2.3296020032136897 -0.48962069234276406
v 0.09651447088128802 2.1608498564868857 0.8640387790313581
v 0.5477183381875432 2.3518547419659432 -0.4639082715474182
f 97 98 99 100
f 101 104 103 102
f 97 101 102 98
f 98 102 103 99
f 99 103 104 100
f 101 97 100 104
