o Cut_1_Vigor
v 0.897895957395577 2.6404743619946744 0.1370814409758658
v 0.8764807443276055 2.6232842825118063 0.1870814409758677
v 1.0210767861018335 2.014971430300536 0.1870814409758677
v 1.046479934564213 2.01538433992149 0.1370814409758658
v 0.8922935634190554 2.639506763749734 0.1370814409758658
v 0.8710287163976667 2.622342654222457 0.1870814409758677
v 1.0408775405876918 2.01441674167655 0.1370814409758658
v 1.015624758171895 2.0140298020111866 0.1870814409758677
f 1 2 3 4
f 5 8 7 6
f 1 5 6 2
f 2 6 7 3
f 3 7 8 4
f 5 1 4 8
o Cut_2_Vigor
v 0.04558709630776335 1.7651875684672538 0.1561649409224878
v 0.04706263240369425 1.7715550694640678 0.20616494092248622
v 0.4376545608845451 1.765317665217353 0.20616494092248622
v 0.4470660884153475 1.7587763075380318 0.1561649409224878
v 0.04558709630776335 1.7613688611762859 0.1561649409224878
v 0.04706263240369425 1.767839915559618 0.20616494092248622
v 0.4470660884153475 1.7549576002470642 0.1561649409224878
v 0.4376545608845451 1.7616025113129035 0.20616494092248622
f 9 10 11 12
f 13 16 15 14
f 9 13 14 10
f 10 14 15 11
f 11 15 16 12
f 13 9 12 16
o Cut_3_Vigor
v -0.704297326780017 1.8258933124013812 0.007088566573759737
v -0.6841183736843122 1.8302614615493666 0.05708856657376137
v -0.12624759398796367 1.6715010375258883 0.05708856657376137
v -0.1320699796637995 1.663047256338991 0.007088566573759737
v -0.7058614713917215 1.8218997517892441 0.007088566573759737
v -0.6856432755934692 1.8263680950689194 0.05708856657376137
v -0.13363412427550375 1.659053695726854 0.007088566573759737
v -0.12777249589712059 1.667607671045441 0.05708856657376137
f 17 18 19 20
f 21 24 23 22
f 17 21 22 18
f 18 22 23 19
f 19 23 24 20
f 21 17 20 24
o Cut_4_Vigor
v -0.031076129549741486 1.7013011780986473 0.15453030227066508
v -0.03994312189828057 1.7095421583239498 0.20465245986931938
v -0.2557556328960317 1.2937124332434922 0.154828215833003
v -0.253011755093971 1.2736733740897404 0.10329242585494862
v -0.03589933430408579 1.6993854188398847 0.1534167777136013
v -0.044633256375513894 1.707679254091757 0.20356965700642476
v -0.25783495984831534 1.271757614830978 0.10217890129788464
v -0.260445767373265 1.2918495290112992 0.1537454129701082
f 25 26 27 28
f 29 32 31 30
f 25 29 30 26
f 26 30 31 27
f 27 31 32 28
f 29 25 28 32
o Cut_5_Vigor
v 0.18239696510136866 2.6501996546681115 -0.04957292654788219
v 0.21705103545387208 2.634182015192336 -0.012633073629422582
v 0.19035275095472712 1.8255575774453312 0.054675857181310406
v 0.1549403668609689 1.818607785336594 0.019647785791157623
v 0.1782886958882112 2.6502166946437273 -0.045737539066870704
v 0.2130562310250202 2.634198584547099 -0.008903614311995765
v 0.15083209764781166 1.8186248253122101 0.023483173272169106
v 0.1863579465258754 1.8255741468000946 0.058405316498737224
f 33 34 35 36
f 37 40 39 38
f 33 37 38 34
f 34 38 39 35
f 35 39 40 36
f 37 33 36 40
o Cut_6_Canopy
v -0.6413213207186859 1.6419631793189953 0.21082538868382525
v -0.6053600312887012 1.6536968305541235 0.25076460122802136
v -0.05004448299590522 1.5213879023574088 0.06622573403445586
v -0.07122475781057576 1.5061325413350715 0.02137459042427886
v -0.6423858023903922 1.6380648885798146 0.21139672288444786
v -0.6063969139181208 1.649899611626526 0.2513211223255329
v -0.07228923948228215 1.5022342505958906 0.021945924624901688
v -0.05108136562532487 1.5175906834298114 0.0667822551319676
f 41 42 43 44
f 45 48 47 46
f 41 45 46 42
f 42 46 47 43
f 43 47 48 44
f 45 41 44 48
o Cut_7_Canopy
v 0.5380632950518522 1.6699493195810484 -0.039561780616327966
v 0.5438969552021536 1.6818786553981788 0.010755187625608032
v 0.5569400094829839 1.5089824058994517 0.015319049036865522
v 0.5514834160320529 1.4920547455543154 -0.034865980770891335
v 0.5328361579300641 1.6700435163288758 -0.03776439959549564
v 0.5388166855597704 1.6819702054890315 0.012502067422939023
v 0.5462562789102648 1.4921489423021428 -0.03306859975005901
v 0.5518597398406005 1.5090739559903041 0.017065928834196515
f 49 50 51 52
f 53 56 55 54
f 49 53 54 50
f 50 54 55 51
f 51 55 56 52
f 53 49 52 56
