o Cut_1_Vigor
v -0.8579031524138587 1.427190022929585 0.02874627761093421
v -0.8457399494609146 1.4398598286672737 0.07874627761093367
v -0.15426005053908534 1.3620250746571132 0.07874627761093367
v -0.1420968475861412 1.3466170261699413 0.02874627761093421
v -0.8583727003415372 1.4241590787093483 0.02874627761093421
v -0.8461935399802776 1.4369318899373245 0.07874627761093367
v -0.1425663955138197 1.3435860819497047 0.02874627761093421
v -0.15471364105844831 1.359097135927164 0.07874627761093367
f 1 2 3 4
f 5 8 7 6
f 1 5 6 2
f 2 6 7 3
f 3 7 8 4
f 5 1 4 8
o Cut_2_Canopy
v -0.4033655573511997 1.5294565223455714 -0.014481070585813077
v -0.4065559056667261 1.5383884094093618 0.035518929414187196
v -0.43108498042921045 1.3156048164489647 0.035518929414187196
v -0.42873209854650973 1.299066699525498 -0.014481070585813077
v -0.4080369330903773 1.5290828122956637 -0.014481070585813077
v -0.4110730577635649 1.5380270372505367 0.035518929414187196
v -0.4334034742856874 1.2986929894755905 -0.014481070585813077
v -0.4356021325260493 1.3152434442901395 0.035518929414187196
f 9 10 11 12
f 13 16 15 14
f 9 13 14 10
f 10 14 15 11
f 11 15 16 12
f 13 9 12 16
o Cut_3_Canopy
v -0.9156242859962278 2.2672967463627267 0.06840087839786628
v -0.8989848101632173 2.248588568857388 0.12571480299050664
v -0.6128995479308005 2.0574456367210843 0.12571480299050664
v -0.6176079710373941 2.0681822871935225 0.06840087839786628
v -0.9179486734395805 2.264768975080489 0.06840087839786628
v -0.9012161409927162 2.2461619966402178 0.12571480299050664
v -0.6199323584807469 2.0656545159112847 0.06840087839786628
v -0.6151308787602995 2.055019064503914 0.12571480299050664
f 17 18 19 20
f 21 24 23 22
f 17 21 22 18
f 18 22 23 19
f 19 23 24 20
f 21 17 20 24
o Cut_4_Vigor
v -0.7130936641795795 2.0999365202810067 0.07126783859305706
v -0.7042265129608779 2.0874557058392336 0.13071955516564115
v -0.3864194794228273 1.851777735834396 0.13071955516564115
v -0.3814880156434424 1.854025832845647 0.07126783859305706
v -0.7155905128444763 2.097490113063679 0.07126783859305706
v -0.7066194639582063 2.085111097344182 0.13071955516564115
v -0.383984864308339 1.8515794256283193 0.07126783859305706
v -0.38881243042015556 1.8494331273393443 0.13071955516564115
f 25 26 27 28
f 29 32 31 30
f 25 29 30 26
f 26 30 31 27
f 27 31 32 28
f 29 25 28 32
o Cut_5_Canopy
v -0.558502143962483 2.087597389106989 0.03862594753413424
v -0.5530252097831664 2.0780135394837966 0.08836505789181151
v -0.31760430337092643 1.911583665507102 0.07190282444155198
v -0.3149656667424336 1.9154302446075668 0.021596218090182757
v -0.5610281947092743 2.0849884361538575 0.038802586209664834
v -0.5554670828168952 2.0754915268636585 0.08853581028823096
v -0.31749171748922494 1.912821291654436 0.021772856765713527
v -0.3200461764046552 1.909061652886964 0.07207357683797158
f 33 34 35 36
f 37 40 39 38
f 33 37 38 34
f 34 38 39 35
f 35 39 40 36
f 37 33 36 40
o Cut_6_Canopy
v -0.32272388460818435 1.996639894553257 0.009430117621952628
v -0.32508404576778166 1.9901420010445623 0.05971725107157493
v 0.0823547867303655 2.027025733688658 0.03122635245299363
v 0.09863872133473325 2.0347840881455275 -0.02003442608384518
v -0.32233668075162614 1.9997629353754491 0.009403041690691352
v -0.3247096369212685 1.9931618421232231 0.05969106985457489
v 0.09902592519129151 2.0379071289677193 -0.02006150201510679
v 0.08272919557687868 2.0300455747673185 0.031200171235993265
f 41 42 43 44
f 45 48 47 46
f 41 45 46 42
f 42 46 47 43
f 43 47 48 44
f 45 41 44 48
o Cut_7_Spacing
v -0.3752557571436084 2.135986807545069 -0.02301817864599948
v -0.37586550107014893 2.1251424969737025 0.02714655370694685
v -0.124188721051796 2.0886535594375752 0.009547598840055245
v -0.11518493084855064 2.098280873231394 -0.04120410240832735
v -0.3758872982275761 2.1328063179984027 -0.022974016991386396
v -0.37647665853339296 2.1220646609111564 0.02718928999994687
v -0.1158164719325183 2.0951003836847275 -0.04115994075371427
v -0.12479987851504008 2.0855757233750296 0.009590335133055265
f 49 50 51 52
f 53 56 55 54
f 49 53 54 50
f 50 54 55 51
f 51 55 56 52
f 53 49 52 56
o Cut_8_Vigor
v -0.7644985063945037 1.558192695996432 -0.031754599793638566
v -0.752815547479804 1.5658206579414213 0.017550543039448235
v -0.41206766089704977 1.5351304877571064 -0.006276870345772602
v -0.41265138326577533 1.5265028498877025 -0.05635814740552628
v -0.7649020683109397 1.5549211390566822 -0.0317263799954004
v -0.7532063787843434 1.562652304302085 0.017577872626582385
v -0.4130549451822113 1.5232312929479526 -0.05632992760728793
v -0.4124584922015892 1.5319621341177698 -0.00624954075863828
f 57 58 59 60
f 61 64 63 62
f 57 61 62 58
f 58 62 63 59
f 59 63 64 60
f 61 57 60 64
o Cut_9_Vigor
v -0.9403769916963199 2.3298883753657145 0.0005945226630194197
v -0.9229256123545015 2.312959080906608 0.04949629824568651
v -0.4166557701304006 2.1378023215726443 0.014094462195811175
v -0.4173986213384949 2.148950881338397 -0.03597568749151569
v -0.9418411670050086 2.3267983740197606 0.0006969077744823724
v -0.9243430090281174 2.3099678013765996 0.049595412276331755
v -0.41886279664718357 2.1458608799924437 -0.03587330238005291
v -0.41807316680401646 2.1348110420426365 0.014193576226456252
f 65 66 67 68
f 69 72 71 70
f 65 69 70 66
f 66 70 71 67
f 67 71 72 68
f 69 65 68 72
