o Cut_1_Canopy
v -0.1049445565308102 1.961456512918842 -0.004093274043414062
v -0.10039831018118515 1.953785086803226 0.04590672595658536
v 0.15818124065664207 1.9350927008063876 0.04590672595658536
v 0.16145134768005656 1.9421990927038564 -0.004093274043414062
v -0.1049445565308102 1.957927220329442 -0.004093274043414062
v -0.10039831018118515 1.9503593476003442 0.04590672595658536
v 0.16145134768005656 1.9386698001144562 -0.004093274043414062
v 0.15818124065664207 1.9316669616035058 0.04590672595658536
f 1 2 3 4
f 5 8 7 6
f 1 5 6 2
f 2 6 7 3
f 3 7 8 4
f 5 1 4 8
o Cut_2_Canopy
v -0.43715542185321915 2.0612041322276706 -0.09435168648189277
v -0.46046395200002666 2.0489255040256222 -0.04772086942455405
v -0.3427719941236407 2.013106602727417 0.062028656812254036
v -0.315321904313057 2.02412476998129 0.01925990662152582
v -0.4378241083538447 2.0582194770150526 -0.09497524673162275
v -0.4611099074403117 2.0460423079835874 -0.04832323261759259
v -0.3159905908136826 2.021140114768672 0.01863634637179568
v -0.34341794956392574 2.0102234066853817 0.06142629361921534
f 9 10 11 12
f 13 16 15 14
f 9 13 14 10
f 10 14 15 11
f 11 15 16 12
f 13 9 12 16
o Cut_3_Canopy
v -0.19738039048020023 2.1191218900696174 0.10552530363556668
v -0.23000043026401712 2.105017766701247 0.14361594197040362
v -0.35308530291692797 1.7917374602543656 0.020531069317492746
v -0.324751505296797 1.7949320767954293 -0.021845811181030083
v -0.20017225513146913 2.1175278914002638 0.10273343898429778
v -0.23269834419497706 2.1034774086419747 0.14091802803944364
v -0.3275433699480661 1.793338078126076 -0.02463767583229915
v -0.3557832168478881 1.790197102195093 0.017833155386532632
f 17 18 19 20
f 21 24 23 22
f 17 21 22 18
f 18 22 23 19
f 19 23 24 20
f 21 17 20 24
o Cut_4_Spacing
v 0.9352369422371797 1.414135635887694 0.012893246675132117
v 0.8945127626514721 1.4207204577376416 0.04675536078063647
v 1.0307941848230135 1.433624462990688 0.12864150046858502
v 1.074731592557076 1.4273438903351274 0.09671008861737798
v 0.9352369422371797 1.4096401121418356 0.012893246675132117
v 0.8945127626514721 1.4163284873783013 0.04675536078063647
v 1.074731592557076 1.4228483665892688 0.09671008861737798
v 1.0307941848230135 1.4292324926313476 0.12864150046858502
f 25 26 27 28
f 29 32 31 30
f 25 29 30 26
f 26 30 31 27
f 27 31 32 28
f 29 25 28 32
o Cut_5_Spacing
v 0.26211115355649134 1.3486283330452196 0.05881305497681597
v 0.23143685775393333 1.3584729676921716 0.09871374847342411
v 0.1223362882503583 1.3584729676921716 0.03315951274524686
v 0.14986572246090907 1.3486283330452196 -0.008630804234290735
v 0.26211115355649134 1.344932337475596 0.05881305497681597
v 0.23143685775393333 1.3548805255090661 0.09871374847342411
v 0.14986572246090907 1.344932337475596 -0.008630804234290735
v 0.1223362882503583 1.3548805255090661 0.03315951274524686
f 33 34 35 36
f 37 40 39 38
f 33 37 38 34
f 34 38 39 35
f 35 39 40 36
f 37 33 36 40
