o Cut_1_Canopy
v -0.44464052911095675 2.119539022627865 0.0003743838009875834
v -0.4299649268595359 2.1136566491619515 0.05108001667104649
v -0.1402059544107183 2.04769126976418 0.05685123955353801
v -0.14499147688400768 2.0513221068606584 0.006342590591320999
v -0.44560630745312885 2.1164800277101463 0.0006420111780713357
v -0.4308988291627849 2.1106986180335467 0.051338810861138826
v -0.1459572552261798 2.0482631119429398 0.006610217968404919
v -0.14113985671396725 2.044733238635775 0.05711003374363035
f 1 2 3 4
f 5 8 7 6
f 1 5 6 2
f 2 6 7 3
f 3 7 8 4
f 5 1 4 8
o Cut_2_Canopy
v 0.7640728079696534 1.6255173173944557 0.11820456882378595
v 0.7375530375968401 1.636478167922971 0.16743661053710687
v 0.5246053936591057 1.4474185516768057 0.18397718368920807
v 0.5434683280746557 1.42965979326365 0.13533988185148674
v 0.761239871996438 1.6232164515789151 0.11840586849894019
v 0.7348184283939362 1.6342571615559676 0.16763092341583866
v 0.5406353921014401 1.4273589274481089 0.13554118152664066
v 0.5218707844562017 1.4451975453098023 0.18417149656793955
f 9 10 11 12
f 13 16 15 14
f 9 13 14 10
f 10 14 15 11
f 11 15 16 12
f 13 9 12 16
o Cut_3_Canopy
v -0.2511481836732197 1.5636731331036162 -0.03509548211318648
v -0.27179335432231705 1.5719733902887938 0.010825038107080262
v -0.09660807960647465 1.5738838687298233 0.12027627469005427
v -0.07021357522537909 1.565646310753601 0.07794778974510456
v -0.2511481836732197 1.5604147489719593 -0.03503860680660719
v -0.27179335432231705 1.5688185437719726 0.010880106157870073
v -0.07021357522537909 1.5623879266219438 0.07800466505168385
v -0.09660807960647465 1.5707290222130021 0.12033134274084407
f 17 18 19 20
f 21 24 23 22
f 17 21 22 18
f 18 22 23 19
f 19 23 24 20
f 21 17 20 24
o Cut_4_Vigor
v -0.6128030680533287 1.5752511112476064 -0.07726550680910023
v -0.6229641595440765 1.584056820241815 -0.024801631605536986
v -0.35010622052981843 1.6476476460185208 0.1446149219341714
v -0.3299683440335442 1.641167073684767 0.09834559814131355
v -0.6121669007527675 1.5781503618809947 -0.07691853141467674
v -0.6223504325729594 1.5868538019605685 -0.024466895510670543
v -0.3293321767329829 1.6440663243181552 0.09869257353573689
v -0.3494924935587012 1.6504446277372746 0.14494965802903798
f 25 26 27 28
f 29 32 31 30
f 25 29 30 26
f 26 30 31 27
f 27 31 32 28
f 29 25 28 32
o Cut_5_Canopy
v -0.8625973948158061 1.5430264113748897 -0.06212936861985017
v -0.8641006660983681 1.5540994155425574 -0.004294238602606865
v -0.6358350853454255 1.5746553802675733 0.13800484869483573
v -0.6249976016509133 1.5644229484737298 0.085988598170855
v -0.8625973948158061 1.5403908900492465 -0.06208336542399153
v -0.8641006660983681 1.55156743183175 -0.004250042662537694
v -0.6249976016509133 1.5617874271480865 0.08603460136671391
v -0.6358350853454255 1.5721233965567658 0.13804904463490517
f 33 34 35 36
f 37 40 39 38
f 33 37 38 34
f 34 38 39 35
f 35 39 40 36
f 37 33 36 40
o Cut_6_Canopy
v -0.5516840310460271 2.249902145009177 -0.027079422147526264
v -0.5641786756397619 2.2346938374466263 0.024345231339563674
v -0.3646012675344022 2.267316815623203 0.14850459759663096
v -0.34470012830944646 2.283735790841041 0.10168760831526766
v -0.5512500308986668 2.252780189680334 -0.02685842390295949
v -0.5637602052979509 2.2374688971893733 0.02455832161500699
v -0.34426612816208596 2.2866138355121985 0.1019086065598349
v -0.3641827971925911 2.2700918753659503 0.1487176878720747
f 41 42 43 44
f 45 48 47 46
f 41 45 46 42
f 42 46 47 43
f 43 47 48 44
f 45 41 44 48
o Cut_7_Canopy
v -0.6952895974053924 2.234798490389914 0.0025225425419907626
v -0.7033051077031821 2.21881560347122 0.05740341366862208
v -0.49601466840863123 2.1615232232215793 0.18795262931135553
v -0.47958875880540436 2.1751815852046406 0.13836853422660841
v -0.69603477511468 2.2321706469280054 0.002102702078145579
v -0.7040212301610886 2.2162902223500716 0.056999943219694024
v -0.480333936514692 2.172553741742732 0.13794869376276322
v -0.4967307908665379 2.1589978421004306 0.18754915886242748
f 49 50 51 52
f 53 56 55 54
f 49 53 54 50
f 50 54 55 51
f 51 55 56 52
f 53 49 52 56
o Cut_8_Canopy
v 0.437532816519361 1.6865675008026348 0.06886778294143117
v 0.4013306251836808 1.6903088886716329 0.10514529229056951
v 0.20182595453899385 1.388004792664436 -0.014261314211415804
v 0.23248172980380527 1.3758590687417225 -0.053858438680994214
v 0.4338298246050539 1.6840410242977382 0.06659764412549296
v 0.39772779530310287 1.6878507506969722 0.10293655834018703
v 0.22877873788949818 1.3733325922368258 -0.05612857749693242
v 0.19822312465841593 1.3855466546897757 -0.01647004816179829
f 57 58 59 60
f 61 64 63 62
f 57 61 62 58
f 58 62 63 59
f 59 63 64 60
f 61 57 60 64
