o Cut_1_Canopy
v -0.6079585902637628 1.2907111055785905 0.11287511158394524
v -0.6094740057136379 1.3018596653443442 0.16287511158394619
v -0.4356388196958214 1.244904981530983 0.16287511158394619
v -0.42762306955306134 1.23162667740452 0.11287511158394524
v -0.6091991651014579 1.2879598988635992 0.11287511158394524
v -0.6106698630623724 1.2992076280241913 0.16287511158394619
v -0.4288636443907564 1.2288754706895286 0.11287511158394524
v -0.4368346770445559 1.24225294421083 0.16287511158394619
f 1 2 3 4
f 5 8 7 6
f 1 5 6 2
f 2 6 7 3
f 3 7 8 4
f 5 1 4 8
o Cut_2_Spacing
v -0.25143651902607833 1.2472107255557479 0.08838543240555412
v -0.2655538103222826 1.2597066746109298 0.13838543240555437
v -0.2807578969197064 1.3662332808196822 0.13838543240555437
v -0.2671989165787192 1.357649107120905 0.08838543240555412
v -0.2558218432023309 1.2472107255557479 0.08838543240555412
v -0.269783804414923 1.2597066746109298 0.13838543240555437
v -0.27158424075497184 1.357649107120905 0.08838543240555412
v -0.2849878910123468 1.3662332808196822 0.13838543240555437
f 9 10 11 12
f 13 16 15 14
f 9 13 14 10
f 10 14 15 11
f 11 15 16 12
f 13 9 12 16
o Cut_3_Canopy
v -0.6773356760758569 2.0851064939664647 0.009870975920761893
v -0.6764175355847327 2.068812918004345 0.05992087372500092
v -0.5856790437936942 1.968665966227716 0.05992087372500092
v -0.5834435712935658 1.9814789385130143 0.009870975920761893
v -0.6806295632322006 2.082938018308743 0.009870975920761893
v -0.679600788887974 2.0667172762981174 0.05992087372500092
v -0.5867374584499095 1.979310462855292 0.009870975920761893
v -0.5888622970969354 1.966570324521488 0.05992087372500092
f 17 18 19 20
f 21 24 23 22
f 17 21 22 18
f 18 22 23 19
f 19 23 24 20
f 21 17 20 24
o Cut_4_Vigor
v -1.0091272186961426 1.2917365654565758 0.1986500083682422
v -0.995328962231491 1.3035805519523564 0.24865000836824186
v -0.789728481827771 1.3492672191743786 0.24865000836824186
v -0.7953115913799421 1.33924872784492 0.1986500083682422
v -1.0083195786572492 1.2943774201217253 0.1986500083682422
v -0.9945523530468678 1.3061199406520805 0.24865000836824186
v -0.7945039513410487 1.3418895825100694 0.1986500083682422
v -0.7889518726431477 1.3518066078741025 0.24865000836824186
f 25 26 27 28
f 29 32 31 30
f 25 29 30 26
f 26 30 31 27
f 27 31 32 28
f 29 25 28 32
