o Cut_1_Spacing
v 0.48566871697212904 2.0388488630949513 0.002641758777523577
v 0.48626064218257137 2.028983684710264 0.06448716998875387
v 0.6202193809025003 2.0551889020340544 0.06448716998875387
v 0.6253987264938708 2.066183065410995 0.002641758777523577
v 0.4864905044185545 2.0419012163920294 0.002641758777523577
v 0.4870484873290494 2.031909966610649 0.06448716998875387
v 0.6262205139402962 2.0692354187080726 0.002641758777523577
v 0.6210072260489782 2.0581151839344396 0.06448716998875387
f 1 2 3 4
f 5 8 7 6
f 1 5 6 2
f 2 6 7 3
f 3 7 8 4
f 5 1 4 8
o Cut_2_Vigor
v 0.7789463200604291 1.3433294469096646 0.030513604555971834
v 0.7694550338217384 1.3588678879087164 0.08051360455597027
v 0.272435034461473 1.3773769275768823 0.08051360455597027
v 0.26441928431871325 1.3624904491372314 0.030513604555971834
v 0.7789463200604291 1.3402860410558528 0.030513604555971834
v 0.7694550338217384 1.3559280354414227 0.08051360455597027
v 0.26441928431871325 1.3594470432834194 0.030513604555971834
v 0.272435034461473 1.3744370751095885 0.08051360455597027
f 9 10 11 12
f 13 16 15 14
f 9 13 14 10
f 10 14 15 11
f 11 15 16 12
f 13 9 12 16
o Cut_3_Spacing
v 0.6205593162164271 1.9398527947387965 0.0034153287989032595
v 0.6165315014680751 1.9351803963964238 0.05341532879890373
v 0.8519020588887418 1.9364378884559255 0.05341532879890373
v 0.8640652618416862 1.9411537509689247 0.0034153287989032595
v 0.6205593162164271 1.9367532665205158 0.0034153287989032595
v 0.6165315014680751 1.9321844215646615 0.05341532879890373
v 0.8640652618416862 1.938054222750644 0.0034153287989032595
v 0.8519020588887418 1.933441913624163 0.05341532879890373
f 17 18 19 20
f 21 24 23 22
f 17 21 22 18
f 18 22 23 19
f 19 23 24 20
f 21 17 20 24
o Cut_4_Spacing
v 0.0678271269288622 1.477551356499584 0.007299189634190384
v 0.08230333241056308 1.4883522029003236 0.05729918963419033
v 0.41139767657193754 1.5460415335505655 0.05729918963419033
v 0.4083269663182434 1.537240038998655 0.007299189634190384
v 0.06856351057631956 1.4806036132818035 0.007299189634190384
v 0.08301504990783334 1.4913022202799442 0.05729918963419033
v 0.4090633499657009 1.5402922957808747 0.007299189634190384
v 0.4121093940692079 1.5489915509301861 0.05729918963419033
f 25 26 27 28
f 29 32 31 30
f 25 29 30 26
f 26 30 31 27
f 27 31 32 28
f 29 25 28 32
o Cut_5_Canopy
v 0.0897067013730719 1.9887929864427616 0.01752684030034559
v 0.10354483719166749 1.9824254854459473 0.06752684030034546
v 0.4931448675018732 2.1081932262653376 0.06752684030034546
v 0.4929055913782087 2.1189506084954504 0.01752684030034559
v 0.09101461607773026 1.9917368735931062 0.01752684030034559
v 0.10480863930325456 1.985270082867804 0.06752684030034546
v 0.49421350608286707 2.1218944956457952 0.01752684030034559
v 0.49440866961346025 2.111037823687194 0.06752684030034546
f 33 34 35 36
f 37 40 39 38
f 33 37 38 34
f 34 38 39 35
f 35 39 40 36
f 37 33 36 40
o Cut_6_Spacing
v 0.9221338367658991 1.9339721879033824 -0.003589872757473218
v 0.9063731312569258 1.928970228770907 0.05254786159796317
v 1.087624783550498 1.9365197055770087 0.05254786159796317
v 1.110415121914326 1.9418144623172389 -0.003589872757473218
v 0.9221338367658991 1.9308581514382135 -0.003589872757473218
v 0.9063731312569258 1.9259724573558172 0.05254786159796317
v 1.110415121914326 1.9387004258520704 -0.003589872757473218
v 1.087624783550498 1.9335219341619194 0.05254786159796317
f 41 42 43 44
f 45 48 47 46
f 41 45 46 42
f 42 46 47 43
f 43 47 48 44
f 45 41 44 48
