o Cut_1_Vigor
v 0.4529845772721761 1.3920171052690027 0.013694189596505495
v 0.4546196307838834 1.4079879247019078 0.0631669535074355
v 0.5309914716597869 1.4067823258933307 0.06320905394552934
v 0.532108093570221 1.3907680687669974 0.013737806912278805
v 0.4529845772721761 1.3890412758029744 0.013798107851335468
v 0.4546196307838834 1.4051155855404724 0.06326725780119415
v 0.532108093570221 1.387792239300969 0.013841725167108776
v 0.5309914716597869 1.4039099867318954 0.06330935823928799
f 1 2 3 4
f 5 8 7 6
f 1 5 6 2
f 2 6 7 3
f 3 7 8 4
f 5 1 4 8
o Cut_2_Spacing
v 0.5102291768905786 2.0271772878158685 0.020157055873958014
v 0.50995002141297 2.013122995479986 0.06845023553466657
v 0.6037645090209729 2.0253283585904636 0.07060237036038756
v 0.6066757018588907 2.0397250817440375 0.022369570491864273
v 0.5102291768905786 2.0234403979366355 0.019498141364312882
v 0.50995002141297 2.0094880857786466 0.06780930288188157
v 0.6066757018588907 2.0359881918648046 0.021710655982218937
v 0.6037645090209729 2.0216934488891245 0.06996143770760255
f 9 10 11 12
f 13 16 15 14
f 9 13 14 10
f 10 14 15 11
f 11 15 16 12
f 13 9 12 16
o Cut_3_Spacing
v 0.6911516603816068 1.902695635289619 0.0009295248718041606
v 0.6859274650149323 1.8920228472784406 0.04981895498033992
v 0.7554728526922733 1.9285838616018203 0.05626564824762018
v 0.7626511364022077 1.9402839420660731 0.00755735751563985
v 0.6936516376828796 1.9060466867181 0.0015204056523868703
v 0.6883591176686031 1.895282314112201 0.0503936869258562
v 0.7651511137034805 1.9436349934945543 0.008148238296222559
v 0.7579045053459441 1.9318433284355807 0.05684038019313686
f 17 18 19 20
f 21 24 23 22
f 17 21 22 18
f 18 22 23 19
f 19 23 24 20
f 21 17 20 24
o Cut_4_Spacing
v 0.9389152899320853 1.9452118867605266 -0.008864985777305837
v 0.9177684416216353 1.9319267565898564 0.046821191818933766
v 0.9681666803975773 1.9470286546513498 0.05850772283869249
v 0.9908674900314483 1.9607794313618157 0.0031818835727346327
v 0.9389152899320853 1.941123930914242 -0.009585802688950922
v 0.9177684416216353 1.9279610770911533 0.046121935526469815
v 0.9908674900314483 1.956691475515531 0.00246106666108977
v 0.9681666803975773 1.9430629751526467 0.05780846654622875
f 25 26 27 28
f 29 32 31 30
f 25 29 30 26
f 26 30 31 27
f 27 31 32 28
f 29 25 28 32
