o Cut_1_Canopy
v -0.27367954928347604 2.026673305804047 -0.05731851910470759
v -0.26658102428142966 2.0085894158454143 -0.010400273794630932
v -0.1634254096279302 2.0235683849706367 -0.0063866711140768955
v -0.16821093210121987 2.0419881402486824 -0.05321492158305131
v -0.27367954928347604 2.022112356671004 -0.05854062174162579
v -0.26658102428142966 2.004128491602809 -0.011595574842933373
v -0.16821093210121987 2.0374271911156394 -0.05443702421996951
v -0.1634254096279302 2.0191074607280317 -0.007581972162379337
f 1 2 3 4
f 5 8 7 6
f 1 5 6 2
f 2 6 7 3
f 3 7 8 4
f 5 1 4 8
o Cut_2_Spacing
v -0.3670164273829587 2.0429858070461586 -0.027481473797822016
v -0.3518223935302642 2.0403037931673684 0.02376276820593138
v -0.33811191816046515 2.0086079774010863 0.029351595701091394
v -0.35278752041188666 2.0100914834179564 -0.021681317030013945
v -0.371279626817753 2.0429858070461586 -0.027481473797822016
v -0.3559302628814462 2.0403037931673684 0.02376276820593138
v -0.3570507198466809 2.0100914834179564 -0.021681317030013945
v -0.34221978751164717 2.0086079774010863 0.029351595701091394
f 9 10 11 12
f 13 16 15 14
f 9 13 14 10
f 10 14 15 11
f 11 15 16 12
f 13 9 12 16
o Cut_3_Canopy
v -0.4607418600319217 2.162725598368997 -0.10979123145969222
v -0.4385331313620827 2.154318084732829 -0.045054962092063014
v -0.3543786545950126 2.163702586659405 -0.04670970298222885
v -0.37276171859465557 2.1725367199936225 -0.11152119691312605
v -0.4607418600319217 2.159803723710163 -0.10927602612309152
v -0.4385331313620827 2.1515232627528205 -0.04456215957071051
v -0.37276171859465557 2.1696148453347885 -0.11100599157652519
v -0.3543786545950126 2.160907764679396 -0.04621690046087635
f 17 18 19 20
f 21 24 23 22
f 17 21 22 18
f 18 22 23 19
f 19 23 24 20
f 21 17 20 24
o Cut_4_Canopy
v 0.007562602266613695 1.6649063149212215 0.8625633213411114
v -0.04299764554811348 2.216319388542828 -0.5903620502145711
v 0.004635294854578857 2.2019920207978294 -0.5942010568315074
v 0.029298830373957932 1.6583683407619463 0.860811476444998
v 0.007562602266613695 1.6623101943488094 0.8618676929302795
v -0.04299764554811348 2.210630229600751 -0.5918864557587128
v 0.029298830373957932 1.6557722201895342 0.8601158480341662
v 0.004635294854578857 2.1963028618557523 -0.5957254623756489
f 25 26 27 28
f 29 32 31 30
f 25 29 30 26
f 26 30 31 27
f 27 31 32 28
f 29 25 28 32
o Cut_5_Canopy
v 0.20472554050042996 1.3322926020500303 0.024921514781200717
v 0.20089712252179837 1.3290707524754086 0.07582203181004975
v 0.22919033299463534 1.3241064522209909 0.07449185156589291
v 0.23373657934426034 1.327202352300833 0.02355758647163054
v 0.20472554050042996 1.3282500953742096 0.02383832838201692
v 0.20089712252179837 1.3251282706900251 0.07476564699948171
v 0.23373657934426034 1.323159845625012 0.02247440007244674
v 0.22919033299463534 1.3201639704356074 0.07343546675532488
f 33 34 35 36
f 37 40 39 38
f 33 37 38 34
f 34 38 39 35
f 35 39 40 36
f 37 33 36 40
o Cut_6_Vigor
v 0.06966914775120407 1.9616283773376724 -0.01231500565982311
v 0.0690310780880988 1.9577377475831819 0.038216372214839284
v -0.05110260234302531 1.9306177146694359 0.04058906764924181
v -0.05449234742827209 1.9335990701208852 -0.009862759031868881
v 0.06869442592841261 1.9585149715761299 -0.012042617950731803
v 0.06808797636562673 1.9547253411018577 0.03847992363188705
v -0.05546706925106351 1.930485664359343 -0.009590371322777572
v -0.052045704065497356 1.927605308188112 0.04085261906628991
f 41 42 43 44
f 45 48 47 46
f 41 45 46 42
f 42 46 47 43
f 43 47 48 44
f 45 41 44 48
