o Cut_1_Spacing
v -0.6131611424128199 2.0552532682166267 0.010068334589750401
v -0.6144988127689973 2.0387223863887876 0.06416983371557825
v -0.5778524259498976 1.9925410825583891 0.06416983371557825
v -0.575133934580892 2.0073318715622452 0.010068334589750401
v -0.616662063299311 2.0532347192868645 0.010068334589750401
v -0.6178726103298505 2.036777133789115 0.06416983371557825
v -0.578634855467383 2.0053133226324826 0.010068334589750401
v -0.5812262235107508 1.9905958299587163 0.06416983371557825
f 1 2 3 4
f 5 8 7 6
f 1 5 6 2
f 2 6 7 3
f 3 7 8 4
f 5 1 4 8
o Cut_2_Spacing
v -0.27229863609844374 1.3082849140481794 0.12567848425822253
v -0.25466558314868526 1.317738371159491 0.17384561042319266
v -0.22171108962837097 1.28010348731409 0.15244471210112243
v -0.2382404364442174 1.2693895692546033 0.10356083079213114
v -0.27495223056307355 1.305884601350843 0.12740174865282017
v -0.2572331839754463 1.3154158441312225 0.17551302989639161
v -0.2408940309088473 1.266989256557267 0.10528409518672875
v -0.22427869045513213 1.2777809602858214 0.15411213157432138
f 9 10 11 12
f 13 16 15 14
f 9 13 14 10
f 10 14 15 11
f 11 15 16 12
f 13 9 12 16
o Cut_3_Vigor
v -0.550638256062737 1.2152650293606446 0.10519303613386108
v -0.5671315373525518 1.2303688286534291 0.152700467506426
v -0.4939089358539794 1.2346235759495052 0.16960523706390937
v -0.47442364641533585 1.2196936333392272 0.12278856520049748
v -0.550638256062737 1.2126272421159014 0.10519303613386108
v -0.5671315373525518 1.2278345947952043 0.152700467506426
v -0.47442364641533585 1.217055846094484 0.12278856520049748
v -0.4939089358539794 1.23208934209128 0.16960523706390937
f 17 18 19 20
f 21 24 23 22
f 17 21 22 18
f 18 22 23 19
f 19 23 24 20
f 21 17 20 24
