o Cut_1_Spacing
v 0.6672180320647293 1.5364749976858247 0.07117615080030078
v 0.6412565726471331 1.5598135287199701 0.11710323174659026
v 0.585109683797845 1.5242473690620055 0.12531432669210765
v 0.6087980200406287 1.4994689316783807 0.07971967432011269
v 0.6651729995894509 1.5342479536182747 0.07169030443573307
v 0.639291112403214 1.557673138956414 0.11759737965960619
v 0.6067529875653502 1.4972418876108309 0.0802338279555447
v 0.5831442235539259 1.5221069792984496 0.12580847460512332
f 1 2 3 4
f 5 8 7 6
f 1 5 6 2
f 2 6 7 3
f 3 7 8 4
f 5 1 4 8
o Cut_2_Canopy
v -0.21098012811732103 1.4731507435534237 0.02618301552826201
v -0.2039214824692191 1.4905685119872618 0.07441987375214618
v -0.16475012425479288 1.4868296024218497 0.07487895412139077
v -0.17045287186879612 1.4692824134021423 0.026657986747314365
v -0.21098012811732103 1.4700786446916143 0.026560221838059346
v -0.2039214824692191 1.4875991946407303 0.07478446007872118
v -0.17045287186879612 1.4662103145403327 0.027035193057112036
v -0.16475012425479288 1.4838602850753182 0.07524354044796608
f 9 10 11 12
f 13 16 15 14
f 9 13 14 10
f 10 14 15 11
f 11 15 16 12
f 13 9 12 16
o Cut_3_Canopy
v -0.467504197026525 1.750947134924015 0.5404000496591366
v -1.0225538496251079 1.3197713143116971 -0.3479205425585025
v -0.9662147945493446 1.2867374085815104 -0.34089896913796236
v -0.44174639002781846 1.7358442730271055 0.5436102620553208
v -0.4687129294694614 1.749514021336382 0.5407046673558064
v -1.0251976633503166 1.3166367203865417 -0.3472542640515398
v -0.4429551224707549 1.7344111594394729 0.5439148797519906
v -0.9688586082745533 1.283602814656355 -0.3402326906309996
f 17 18 19 20
f 21 24 23 22
f 17 21 22 18
f 18 22 23 19
f 19 23 24 20
f 21 17 20 24
o Cut_4_Canopy
v -0.004195277074349759 1.3984973228816302 0.09635126781710666
v -0.004035759658573443 1.4257073424251079 0.14168462936322185
v 0.047420175988238146 1.439690212834473 0.13871247850672966
v 0.049294505623609874 1.4130328801558085 0.09326163974094956
v -0.004195277074349759 1.3958334024811891 0.0969175015779868
v -0.004035759658573443 1.4231447125212378 0.14222933316442138
v 0.049294505623609874 1.4103689597553677 0.09382787350182999
v 0.047420175988238146 1.437127582930603 0.1392571823079292
f 25 26 27 28
f 29 32 31 30
f 25 29 30 26
f 26 30 31 27
f 27 31 32 28
f 29 25 28 32
o Cut_5_Canopy
v -0.38126446011249204 2.0948923121916345 0.010014363885851283
v -0.3660704262597972 2.0956583909725057 0.06096855855747417
v -0.2968917630295993 2.057759275834891 0.06902426416146186
v -0.3092144833983203 2.0554201652080124 0.01840442773042372
v -0.38304597907955196 2.092631656891827 0.010494881003499469
v -0.36778094868160677 2.0934878266115295 0.06142992625492675
v -0.31099600236538016 2.0531595099082045 0.018884944848071905
v -0.2986022854514088 2.055588711473914 0.06948563185891445
f 33 34 35 36
f 37 40 39 38
f 33 37 38 34
f 34 38 39 35
f 35 39 40 36
f 37 33 36 40
o Cut_6_Canopy
v -0.4799967083802049 2.26102333176087 0.03905523971599022
v -0.45985763463844465 2.2548595675444667 0.09148241798802548
v -0.3779028086632763 2.2538887900491367 0.0916887631145794
v -0.3944527405500694 2.260010039891324 0.03927062155174913
v -0.4799967083802049 2.2586091638816757 0.03956838693968606
v -0.45985763463844465 2.252546690161843 0.09197403525204043
v -0.3944527405500694 2.2575958720121294 0.039783768775444976
v -0.3779028086632763 2.251575912666513 0.09218038037859434
f 41 42 43 44
f 45 48 47 46
f 41 45 46 42
f 42 46 47 43
f 43 47 48 44
f 45 41 44 48
o Cut_7_Canopy
v -0.6331165386546791 2.2552719720423045 0.04962332746586964
v -0.6124590333116454 2.243239715838586 0.10032252859316819
v -0.5639825461190249 2.2406659740758057 0.10045741268340357
v -0.5830049979503513 2.252611421070542 0.049762761033969136
v -0.6331165386546791 2.2521025906971923 0.04978942770386788
v -0.6124590333116454 2.240173745963674 0.1004832092656608
v -0.5830049979503513 2.2494420397254284 0.04992886127196736
v -0.5639825461190249 2.237600004200894 0.10061809335589618
f 49 50 51 52
f 53 56 55 54
f 49 53 54 50
f 50 54 55 51
f 51 55 56 52
f 53 49 52 56
o Cut_8_Canopy
v 0.3131966941066515 1.5279723893617345 0.03027500882439709
v 0.3033464936824635 1.5392484057699272 0.07975267514518242
v 0.3586120492116573 1.5579620233829814 0.07877193600373027
v 0.3702568205633289 1.5472936714376695 0.029262423337896158
v 0.3131966941066515 1.5246843211798835 0.030447329175939244
v 0.3033464936824635 1.536063749058277 0.07991957593121894
v 0.3702568205633289 1.544005603255818 0.02943474368943831
v 0.3586120492116573 1.5547773666713312 0.07893883678976679
f 57 58 59 60
f 61 64 63 62
f 57 61 62 58
f 58 62 63 59
f 59 63 64 60
f 61 57 60 64
