o Cut_1_Vigor
v 0.16616476172932326 1.607211819624632 -0.025637885179188344
v 0.16472910498733656 1.6075396216317932 0.025191245753286705
v 0.2744089773269906 1.6249086031324826 0.02825386581928434
v 0.278277274659566 1.6249660357952243 -0.022507337846982507
v 0.16616476172932326 1.602511884066139 -0.026466610625741956
v 0.16472910498733656 1.602941666251194 0.024380502163593214
v 0.278277274659566 1.6202661002367316 -0.023336063293535866
v 0.2744089773269906 1.6203106477518834 0.027443122229591096
f 1 2 3 4
f 5 8 7 6
f 1 5 6 2
f 2 6 7 3
f 3 7 8 4
f 5 1 4 8
o Cut_2_Canopy
v 0.5271648940293345 1.6072849061962609 0.014835616489440146
v 0.5182717980998043 1.6032653764880336 0.06552239577067528
v 0.5539093055612225 1.5993161614963334 0.06446420680291248
v 0.5635601092156904 1.6032517248747076 0.01375492881140178
v 0.5271648940293345 1.602480378946961 0.013548247292976927
v 0.5182717980998043 1.5985608741291708 0.06426182816282783
v 0.5635601092156904 1.5984471976254078 0.012467559614938563
v 0.5539093055612225 1.5946116591374706 0.06320363919506503
f 9 10 11 12
f 13 16 15 14
f 9 13 14 10
f 10 14 15 11
f 11 15 16 12
f 13 9 12 16
o Cut_3_Canopy
v -0.4826470629935186 1.720806572354991 0.032060579596922094
v -0.4671339943092724 1.7309540690464054 0.08159738912993705
v -0.39277966600651426 1.708738788430579 0.08276164265316206
v -0.4062588876396125 1.6979836272762843 0.03325667946519589
v -0.4826470629935186 1.716922596165704 0.032264130163790976
v -0.4671339943092724 1.727173504327319 0.0817955201313003
v -0.4062588876396125 1.6940996510869972 0.03346023003206477
v -0.39277966600651426 1.7049582237114926 0.08295977365452532
f 17 18 19 20
f 21 24 23 22
f 17 21 22 18
f 18 22 23 19
f 19 23 24 20
f 21 17 20 24
o Cut_4_Vigor
v 0.9337016061981335 2.364859797075956 0.07367776386598035
v 0.8919553227016369 2.358968434513975 0.10618331534812003
v 0.9117992733074212 2.2935368640041762 0.12301572107767896
v 0.9539753560801729 2.2980110469829165 0.0908747419503047
v 0.9276272788296304 2.3646453669525984 0.06958619337222825
v 0.8860097698085964 2.358758550264586 0.1021784852969202
v 0.9479010287116696 2.2977966168595585 0.08678317145655261
v 0.9058537204143804 2.293326979754787 0.11901089102647913
f 25 26 27 28
f 29 32 31 30
f 25 29 30 26
f 26 30 31 27
f 27 31 32 28
f 29 25 28 32
o Cut_5_Spacing
v 0.2602166408078155 2.249268963526973 0.1154569254573506
v 0.21525907292738222 2.2436373308937387 0.16720889567002317
v 0.272581851929385 2.2800168519697475 0.20402008975491295
v 0.31959987235390097 2.286956137128882 0.1535912884433902
v 0.26230481819554863 2.2530158806857714 0.11667098422292974
v 0.21727479567937008 2.247254239213487 0.16838082957295886
v 0.3216880497416339 2.29070305428768 0.15480534720896935
v 0.27459757468137264 2.283633760289496 0.20519202365784864
f 33 34 35 36
f 37 40 39 38
f 33 37 38 34
f 34 38 39 35
f 35 39 40 36
f 37 33 36 40
o Cut_6_Spacing
v 0.25365940310452517 2.311773661026759 0.06695712542074832
v 0.2146381990367823 2.3059882702837653 0.09899328787567488
v 0.21801620555630027 2.2472371793593067 0.10545494439472755
v 0.25712200650885275 2.251551241008453 0.07358060401120996
v 0.2491637896845733 2.311538378799528 0.06246767308274528
v 0.21025242057227486 2.3057587363739556 0.09461351996812713
v 0.25262639308890067 2.2513159587812215 0.06909115167320692
v 0.21363042709179264 2.247007645449497 0.1010751764871798
f 41 42 43 44
f 45 48 47 46
f 41 45 46 42
f 42 46 47 43
f 43 47 48 44
f 45 41 44 48
o Cut_7_Canopy
v -0.6479624521077144 2.2790126498572616 0.1548145637003373
v -0.6737583431835584 2.271445356060298 0.20018757443447563
v -0.6510621270767176 2.272633184233346 0.22285268616593945
v -0.6243920681911745 2.280246228438547 0.17835264522489838
v -0.6479624521077144 2.276224343050531 0.15496069266803794
v -0.6737583431835584 2.2687604607237684 0.20032828383667065
v -0.6243920681911745 2.2774579216318167 0.17849877419259902
v -0.6510621270767176 2.2699482888968165 0.22299339556813447
f 49 50 51 52
f 53 56 55 54
f 49 53 54 50
f 50 54 55 51
f 51 55 56 52
f 53 49 52 56
o Cut_8_Canopy
v -0.07234126539467657 1.5614871910841184 0.16422530062874638
v -0.07240847162811852 1.5769397375419218 0.2136694504159826
v -0.1183040763066679 1.4985647382670604 0.21375605452144897
v -0.11958760850594806 1.480805563006203 0.16431445355113117
v -0.07689692239597748 1.5595132383915722 0.16392963578957662
v -0.07683388572398515 1.575022218714742 0.2133822384185604
v -0.12414326550724897 1.4788316103136565 0.16401878871196102
v -0.12272949040253453 1.4966472194398803 0.2134688425240264
f 57 58 59 60
f 61 64 63 62
f 57 61 62 58
f 58 62 63 59
f 59 63 64 60
f 61 57 60 64
