# Blender 4.4.1
# www.blender.org
mtllib VigorCuts.mtl
o Cut_Vigor1.004
v 0.940769 2.561742 0.035931
v 0.940769 2.565742 0.035931
v 0.940769 2.561742 -0.064069
v 0.940769 2.565742 -0.064069
v 1.040769 2.561742 0.035931
v 1.040769 2.565742 0.035931
v 1.040769 2.561742 -0.064069
v 1.040769 2.565742 -0.064069
v 0.258243 2.027688 -0.005137
v 0.258243 2.031687 -0.005137
v 0.258243 2.027688 -0.105137
v 0.258243 2.031687 -0.105137
v 0.358243 2.027688 -0.005137
v 0.358243 2.031687 -0.005137
v 0.358243 2.027688 -0.105137
v 0.358243 2.031687 -0.105137
v 0.530114 2.249420 0.017973
v 0.532549 2.252592 0.018081
v 0.530846 2.252257 -0.081984
v 0.533281 2.255429 -0.081876
v 0.609446 2.188551 0.016826
v 0.611881 2.191722 0.016934
v 0.610178 2.191388 -0.083131
v 0.612613 2.194559 -0.083023
v 0.640340 2.745419 0.101935
v 0.640350 2.748340 0.099203
v 0.632948 2.677312 0.029087
v 0.632958 2.680234 0.026354
v 0.740066 2.740185 0.096709
v 0.740076 2.743107 0.093976
v 0.732674 2.672079 0.023860
v 0.732684 2.675000 0.021128
v 0.515674 2.969775 0.043532
v 0.515674 2.973775 0.043532
v 0.515674 2.969775 -0.056468
v 0.515674 2.973775 -0.056468
v 0.615674 2.969775 0.043532
v 0.615674 2.973775 0.043532
v 0.615674 2.969775 -0.056468
v 0.615674 2.973775 -0.056468
vn -1.0000 -0.0000 -0.0000
vn -0.0000 -0.0000 -1.0000
vn 1.0000 -0.0000 -0.0000
vn -0.0000 -0.0000 1.0000
vn -0.0000 -1.0000 -0.0000
vn -0.0000 1.0000 -0.0000
vn -0.7933 0.6087 0.0115
vn 0.0073 0.0284 -0.9996
vn 0.7933 -0.6087 -0.0115
vn -0.0073 -0.0284 0.9996
vn -0.6088 -0.7929 -0.0270
vn 0.6088 0.7929 0.0270
vn -0.9973 0.0523 0.0523
vn -0.0739 -0.6811 -0.7285
vn 0.9973 -0.0523 -0.0523
vn 0.0739 0.6811 0.7285
vn -0.0025 -0.7304 0.6831
vn 0.0025 0.7304 -0.6831
vt 0.375000 0.000000
vt 0.625000 0.000000
vt 0.625000 0.250000
vt 0.375000 0.250000
vt 0.625000 0.500000
vt 0.375000 0.500000
vt 0.625000 0.750000
vt 0.375000 0.750000
vt 0.625000 1.000000
vt 0.375000 1.000000
vt 0.125000 0.500000
vt 0.125000 0.750000
vt 0.875000 0.500000
vt 0.875000 0.750000
s 0
f 1/1/1 2/2/1 4/3/1 3/4/1
f 3/4/2 4/3/2 8/5/2 7/6/2
f 7/6/3 8/5/3 6/7/3 5/8/3
f 5/8/4 6/7/4 2/9/4 1/10/4
f 3/11/5 7/6/5 5/8/5 1/12/5
f 8/5/6 4/13/6 2/14/6 6/7/6
f 9/1/1 10/2/1 12/3/1 11/4/1
f 11/4/2 12/3/2 16/5/2 15/6/2
f 15/6/3 16/5/3 14/7/3 13/8/3
f 13/8/4 14/7/4 10/9/4 9/10/4
f 11/11/5 15/6/5 13/8/5 9/12/5
f 16/5/6 12/13/6 10/14/6 14/7/6
f 17/1/7 18/2/7 20/3/7 19/4/7
f 19/4/8 20/3/8 24/5/8 23/6/8
f 23/6/9 24/5/9 22/7/9 21/8/9
f 21/8/10 22/7/10 18/9/10 17/10/10
f 19/11/11 23/6/11 21/8/11 17/12/11
f 24/5/12 20/13/12 18/14/12 22/7/12
f 25/1/13 26/2/13 28/3/13 27/4/13
f 27/4/14 28/3/14 32/5/14 31/6/14
f 31/6/15 32/5/15 30/7/15 29/8/15
f 29/8/16 30/7/16 26/9/16 25/10/16
f 27/11/17 31/6/17 29/8/17 25/12/17
f 32/5/18 28/13/18 26/14/18 30/7/18
f 33/1/1 34/2/1 36/3/1 35/4/1
f 35/4/2 36/3/2 40/5/2 39/6/2
f 39/6/3 40/5/3 38/7/3 37/8/3
f 37/8/4 38/7/4 34/9/4 33/10/4
f 35/11/5 39/6/5 37/8/5 33/12/5
f 40/5/6 36/13/6 34/14/6 38/7/6
