# Blender 4.4.1
# www.blender.org
mtllib BudSpacingCuts.mtl
o Cuts_Spacing.002
v -0.238942 1.999027 0.114253
v -0.238942 2.003027 0.114253
v -0.238942 1.999027 0.014253
v -0.238942 2.003027 0.014253
v -0.138942 1.999027 0.114253
v -0.138942 2.003027 0.114253
v -0.138942 1.999027 0.014253
v -0.138942 2.003027 0.014253
v -0.624350 1.574952 0.008562
v -0.621472 1.577731 0.008562
v -0.624350 1.574952 -0.091438
v -0.621472 1.577731 -0.091438
v -0.554884 1.503018 0.008562
v -0.552007 1.505797 0.008562
v -0.554884 1.503018 -0.091438
v -0.552007 1.505797 -0.091438
v -0.427347 1.992323 0.096130
v -0.423892 1.990696 0.097320
v -0.407813 1.992323 0.039399
v -0.404358 1.990696 0.040589
v -0.450422 1.937510 0.088185
v -0.446967 1.935883 0.089375
v -0.430888 1.937510 0.031454
v -0.427433 1.935883 0.032644
vn -1.0000 -0.0000 -0.0000
vn -0.0000 -0.0000 -1.0000
vn 1.0000 -0.0000 -0.0000
vn -0.0000 -0.0000 1.0000
vn -0.0000 -1.0000 -0.0000
vn -0.0000 1.0000 -0.0000
vn -0.6947 0.7193 -0.0000
vn 0.6947 -0.7193 -0.0000
vn -0.7193 -0.6947 -0.0000
vn 0.7193 0.6947 -0.0000
vn 0.3846 0.9135 0.1324
vn 0.3256 -0.0000 -0.9455
vn -0.3846 -0.9135 -0.1324
vn -0.3256 -0.0000 0.9455
vn -0.8638 0.4067 -0.2974
vn 0.8638 -0.4067 0.2974
vt 0.375000 0.000000
vt 0.625000 0.000000
vt 0.625000 0.250000
vt 0.375000 0.250000
vt 0.625000 0.500000
vt 0.375000 0.500000
vt 0.625000 0.750000
vt 0.375000 0.750000
vt 0.625000 1.000000
vt 0.375000 1.000000
vt 0.125000 0.500000
vt 0.125000 0.750000
vt 0.875000 0.500000
vt 0.875000 0.750000
s 0
f 1/1/1 2/2/1 4/3/1 3/4/1
f 3/4/2 4/3/2 8/5/2 7/6/2
f 7/6/3 8/5/3 6/7/3 5/8/3
f 5/8/4 6/7/4 2/9/4 1/10/4
f 3/11/5 7/6/5 5/8/5 1/12/5
f 8/5/6 4/13/6 2/14/6 6/7/6
f 9/1/7 10/2/7 12/3/7 11/4/7
f 11/4/2 12/3/2 16/5/2 15/6/2
f 15/6/8 16/5/8 14/7/8 13/8/8
f 13/8/4 14/7/4 10/9/4 9/10/4
f 11/11/9 15/6/9 13/8/9 9/12/9
f 16/5/10 12/13/10 10/14/10 14/7/10
f 17/1/11 18/2/11 20/3/11 19/4/11
f 19/4/12 20/3/12 24/5/12 23/6/12
f 23/6/13 24/5/13 22/7/13 21/8/13
f 21/8/14 22/7/14 18/9/14 17/10/14
f 19/11/15 23/6/15 21/8/15 17/12/15
f 24/5/16 20/13/16 18/14/16 22/7/16
