# Blender 4.4.1
# www.blender.org
mtllib CanopyCuts.mtl
o Cuts_Canopy.005
v -0.530846 2.047005 0.044715
v -0.530846 2.051006 0.044715
v -0.530846 2.047005 -0.015285
v -0.530846 2.051006 -0.015285
v -0.490846 2.047005 0.044715
v -0.490846 2.051006 0.044715
v -0.490846 2.047005 -0.015285
v -0.490846 2.051006 -0.015285
v -0.387745 1.519876 0.001490
v -0.387745 1.523876 0.001490
v -0.387745 1.519876 -0.098510
v -0.387745 1.523876 -0.098510
v -0.287745 1.519876 0.001490
v -0.287745 1.523876 0.001490
v -0.287745 1.519876 -0.098510
v -0.287745 1.523876 -0.098510
v -0.274200 1.534011 0.051676
v -0.274200 1.538011 0.051676
v -0.274200 1.534011 -0.048324
v -0.274200 1.538011 -0.048324
v -0.174200 1.534011 0.051676
v -0.174200 1.538011 0.051676
v -0.174200 1.534011 -0.048324
v -0.174200 1.538011 -0.048324
v -0.425917 1.419147 0.015886
v -0.428096 1.422502 0.015886
v -0.425917 1.419147 -0.044114
v -0.428096 1.422502 -0.044114
v -0.392370 1.440933 0.015886
v -0.394549 1.444288 0.015886
v -0.392370 1.440933 -0.044114
v -0.394549 1.444288 -0.044114
v -0.791092 2.237913 0.137279
v -0.791092 2.241914 0.137279
v -0.791092 2.237913 0.037279
v -0.791092 2.241914 0.037279
v -0.691092 2.237913 0.137279
v -0.691092 2.241914 0.137279
v -0.691092 2.237913 0.037279
v -0.691092 2.241914 0.037279
v -0.442402 2.105413 0.019616
v -0.439622 2.107342 0.017483
v -0.513053 2.164946 -0.018651
v -0.510272 2.166874 -0.020784
v -0.455705 2.041135 -0.055824
v -0.452924 2.043063 -0.057958
v -0.526355 2.100667 -0.094091
v -0.523575 2.102596 -0.096225
vn -1.0000 -0.0000 -0.0000
vn -0.0000 -0.0000 -1.0000
vn 1.0000 -0.0000 -0.0000
vn -0.0000 -0.0000 1.0000
vn -0.0000 -1.0000 -0.0000
vn -0.0000 1.0000 -0.0000
vn -0.8387 -0.5446 -0.0000
vn 0.8387 0.5446 -0.0000
vn 0.5446 -0.8387 -0.0000
vn -0.5446 0.8387 -0.0000
vn 0.1330 0.6428 0.7544
vn -0.7065 0.5953 -0.3827
vn -0.1330 -0.6428 -0.7544
vn 0.7065 -0.5953 0.3827
vn -0.6951 -0.4821 0.5333
vn 0.6951 0.4821 -0.5333
vt 0.375000 0.000000
vt 0.625000 0.000000
vt 0.625000 0.250000
vt 0.375000 0.250000
vt 0.625000 0.500000
vt 0.375000 0.500000
vt 0.625000 0.750000
vt 0.375000 0.750000
vt 0.625000 1.000000
vt 0.375000 1.000000
vt 0.125000 0.500000
vt 0.125000 0.750000
vt 0.875000 0.500000
vt 0.875000 0.750000
s 0
f 1/1/1 2/2/1 4/3/1 3/4/1
f 3/4/2 4/3/2 8/5/2 7/6/2
f 7/6/3 8/5/3 6/7/3 5/8/3
f 5/8/4 6/7/4 2/9/4 1/10/4
f 3/11/5 7/6/5 5/8/5 1/12/5
f 8/5/6 4/13/6 2/14/6 6/7/6
f 9/1/1 10/2/1 12/3/1 11/4/1
f 11/4/2 12/3/2 16/5/2 15/6/2
f 15/6/3 16/5/3 14/7/3 13/8/3
f 13/8/4 14/7/4 10/9/4 9/10/4
f 11/11/5 15/6/5 13/8/5 9/12/5
f 16/5/6 12/13/6 10/14/6 14/7/6
f 17/1/1 18/2/1 20/3/1 19/4/1
f 19/4/2 20/3/2 24/5/2 23/6/2
f 23/6/3 24/5/3 22/7/3 21/8/3
f 21/8/4 22/7/4 18/9/4 17/10/4
f 19/11/5 23/6/5 21/8/5 17/12/5
f 24/5/6 20/13/6 18/14/6 22/7/6
f 25/1/7 26/2/7 28/3/7 27/4/7
f 27/4/2 28/3/2 32/5/2 31/6/2
f 31/6/8 32/5/8 30/7/8 29/8/8
f 29/8/4 30/7/4 26/9/4 25/10/4
f 27/11/9 31/6/9 29/8/9 25/12/9
f 32/5/10 28/13/10 26/14/10 30/7/10
f 33/1/1 34/2/1 36/3/1 35/4/1
f 35/4/2 36/3/2 40/5/2 39/6/2
f 39/6/3 40/5/3 38/7/3 37/8/3
f 37/8/4 38/7/4 34/9/4 33/10/4
f 35/11/5 39/6/5 37/8/5 33/12/5
f 40/5/6 36/13/6 34/14/6 38/7/6
f 41/1/11 42/2/11 44/3/11 43/4/11
f 43/4/12 44/3/12 48/5/12 47/6/12
f 47/6/13 48/5/13 46/7/13 45/8/13
f 45/8/14 46/7/14 42/9/14 41/10/14
f 43/11/15 47/6/15 45/8/15 41/12/15
f 48/5/16 44/13/16 42/14/16 46/7/16
