# Blender 4.4.1
# www.blender.org
mtllib VigorCuts.mtl
o Cuts_Vigor1
v -0.616133 2.270873 0.007230
v -0.613463 2.270594 0.004265
v -0.690448 2.270873 -0.059683
v -0.687778 2.270594 -0.062648
v -0.620801 2.171117 0.012414
v -0.618131 2.170837 0.009449
v -0.695115 2.171117 -0.054499
v -0.692445 2.170837 -0.057464
v -0.539248 1.461939 0.324741
v -0.536578 1.461660 0.321775
v -0.613563 1.461939 0.257828
v -0.610893 1.461660 0.254862
v -0.543916 1.362183 0.329925
v -0.541246 1.361904 0.326959
v -0.618230 1.362183 0.263012
v -0.615560 1.361904 0.260046
vn 0.0467 0.9976 -0.0518
vn -0.7431 -0.0000 -0.6691
vn -0.0467 -0.9976 0.0518
vn 0.7431 -0.0000 0.6691
vn -0.6675 0.0698 0.7413
vn 0.6675 -0.0698 -0.7413
vt 0.375000 0.000000
vt 0.625000 0.000000
vt 0.625000 0.250000
vt 0.375000 0.250000
vt 0.625000 0.500000
vt 0.375000 0.500000
vt 0.625000 0.750000
vt 0.375000 0.750000
vt 0.625000 1.000000
vt 0.375000 1.000000
vt 0.125000 0.500000
vt 0.125000 0.750000
vt 0.875000 0.500000
vt 0.875000 0.750000
s 0
f 1/1/1 2/2/1 4/3/1 3/4/1
f 3/4/2 4/3/2 8/5/2 7/6/2
f 7/6/3 8/5/3 6/7/3 5/8/3
f 5/8/4 6/7/4 2/9/4 1/10/4
f 3/11/5 7/6/5 5/8/5 1/12/5
f 8/5/6 4/13/6 2/14/6 6/7/6
f 9/1/1 10/2/1 12/3/1 11/4/1
f 11/4/2 12/3/2 16/5/2 15/6/2
f 15/6/3 16/5/3 14/7/3 13/8/3
f 13/8/4 14/7/4 10/9/4 9/10/4
f 11/11/5 15/6/5 13/8/5 9/12/5
f 16/5/6 12/13/6 10/14/6 14/7/6
