# Blender 4.4.1
# www.blender.org
mtllib BudSpacingCuts.mtl
o Cuts.004
v 1.457138 1.261358 0.011606
v 1.460424 1.263639 0.011632
v 1.457891 1.261409 -0.088391
v 1.461177 1.263690 -0.088365
v 1.491347 1.212066 0.011839
v 1.494633 1.214347 0.011865
v 1.492100 1.212117 -0.088159
v 1.495386 1.214398 -0.088133
v 0.822239 1.290590 0.094991
v 0.819524 1.293526 0.094976
v 0.822857 1.290655 -0.005007
v 0.820142 1.293592 -0.005022
v 0.866289 1.331326 0.095290
v 0.863574 1.334263 0.095275
v 0.866907 1.331392 -0.004708
v 0.864192 1.334329 -0.004723
v 0.641253 1.895394 0.105152
v 0.641253 1.899394 0.105152
v 0.641253 1.895394 0.005152
v 0.641253 1.899394 0.005152
v 0.701253 1.895394 0.105152
v 0.701253 1.899394 0.105152
v 0.701253 1.895394 0.005152
v 0.701253 1.899394 0.005152
v 0.609018 1.950705 0.106241
v 0.609018 1.954705 0.106241
v 0.609018 1.950705 0.006241
v 0.609018 1.954705 0.006241
v 0.669018 1.950705 0.106241
v 0.669018 1.954705 0.106241
v 0.669018 1.950705 0.006241
v 0.669018 1.954705 0.006241
vn -0.5702 0.8215 -0.0039
vn 0.0075 0.0005 -1.0000
vn 0.5702 -0.8215 0.0039
vn -0.0075 -0.0005 1.0000
vn -0.8215 -0.5702 -0.0065
vn 0.8215 0.5702 0.0065
vn -0.7342 -0.6790 -0.0050
vn 0.0062 0.0007 -1.0000
vn 0.7342 0.6790 0.0050
vn -0.0062 -0.0007 1.0000
vn 0.6789 -0.7342 0.0037
vn -0.6789 0.7342 -0.0037
vn -1.0000 -0.0000 -0.0000
vn -0.0000 -0.0000 -1.0000
vn 1.0000 -0.0000 -0.0000
vn -0.0000 -0.0000 1.0000
vn -0.0000 -1.0000 -0.0000
vn -0.0000 1.0000 -0.0000
vt 0.375000 0.000000
vt 0.625000 0.000000
vt 0.625000 0.250000
vt 0.375000 0.250000
vt 0.625000 0.500000
vt 0.375000 0.500000
vt 0.625000 0.750000
vt 0.375000 0.750000
vt 0.625000 1.000000
vt 0.375000 1.000000
vt 0.125000 0.500000
vt 0.125000 0.750000
vt 0.875000 0.500000
vt 0.875000 0.750000
s 0
f 1/1/1 2/2/1 4/3/1 3/4/1
f 3/4/2 4/3/2 8/5/2 7/6/2
f 7/6/3 8/5/3 6/7/3 5/8/3
f 5/8/4 6/7/4 2/9/4 1/10/4
f 3/11/5 7/6/5 5/8/5 1/12/5
f 8/5/6 4/13/6 2/14/6 6/7/6
f 9/1/7 10/2/7 12/3/7 11/4/7
f 11/4/8 12/3/8 16/5/8 15/6/8
f 15/6/9 16/5/9 14/7/9 13/8/9
f 13/8/10 14/7/10 10/9/10 9/10/10
f 11/11/11 15/6/11 13/8/11 9/12/11
f 16/5/12 12/13/12 10/14/12 14/7/12
f 17/1/13 18/2/13 20/3/13 19/4/13
f 19/4/14 20/3/14 24/5/14 23/6/14
f 23/6/15 24/5/15 22/7/15 21/8/15
f 21/8/16 22/7/16 18/9/16 17/10/16
f 19/11/17 23/6/17 21/8/17 17/12/17
f 24/5/18 20/13/18 18/14/18 22/7/18
f 25/1/13 26/2/13 28/3/13 27/4/13
f 27/4/14 28/3/14 32/5/14 31/6/14
f 31/6/15 32/5/15 30/7/15 29/8/15
f 29/8/16 30/7/16 26/9/16 25/10/16
f 27/11/17 31/6/17 29/8/17 25/12/17
f 32/5/18 28/13/18 26/14/18 30/7/18
