o Cut_1_Vigor
v 0.9408870564048799 1.5159071706227238 -0.09125400886448641
v 0.896790039248562 1.5217531015720176 -0.06464034790215051
v 0.8592090854458211 1.4265905935594736 -0.10222130170489144
v 0.9025165316772495 1.4187453107613508 -0.12962453359211687
v 0.9363276741803093 1.513290615252761 -0.09581339108905715
v 0.8923244778842879 1.5191903884692153 -0.06910590926642461
v 0.8979571494526785 1.416128755391388 -0.13418391581668784
v 0.8547435240815466 1.4240278804566713 -0.1066868630691658
f 1 2 3 4
f 5 8 7 6
f 1 5 6 2
f 2 6 7 3
f 3 7 8 4
f 5 1 4 8
o Cut_2_Canopy
v -0.5506325771030912 1.6119980425894804 -0.002271410005480444
v -0.5360369771253602 1.617583188515014 0.04826875679187723
v -0.41627977640563163 1.6104852581070377 0.05245077039318781
v -0.42720871081559986 1.6046827913283706 0.0020386463789253046
v -0.5506325771030912 1.6085123253635616 -0.002271410005480444
v -0.5360369771253602 1.6142010246756133 0.04826875679187723
v -0.42720871081559986 1.6011970741024517 0.0020386463789253046
v -0.41627977640563163 1.6071030942676372 0.05245077039318781
f 9 10 11 12
f 13 16 15 14
f 9 13 14 10
f 10 14 15 11
f 11 15 16 12
f 13 9 12 16
o Cut_3_Canopy
v 0.2934532012577613 1.5269536927168617 0.02604786857659737
v 0.2829799681689399 1.5350597605387446 0.07571261243301117
v 0.3702561959467669 1.5634715824648846 0.07876036546535002
v 0.3833997180903721 1.556234798055536 0.029188870157494676
v 0.29494887540299625 1.530296067643247 0.026100098668657937
v 0.284431239457453 1.5383029086412663 0.07576329194314738
v 0.3848953922356071 1.5595771729819214 0.02924110024955506
v 0.37170746723528003 1.566714730567406 0.07881104497548605
f 17 18 19 20
f 21 24 23 22
f 17 21 22 18
f 18 22 23 19
f 19 23 24 20
f 21 17 20 24
o Cut_4_Canopy
v -0.5000107669128098 2.2539132531705173 0.043111574651101096
v -0.48657096369013464 2.2400699148259076 0.09361138013639556
v -0.3472049096605072 2.2400699148259076 0.0984781499841388
v -0.3562606562260748 2.2539132531705173 0.04813143913080597
v -0.5000107669128098 2.2505178110176796 0.043111574651101096
v -0.48657096369013464 2.236778026059588 0.09361138013639556
v -0.3562606562260748 2.2505178110176796 0.04813143913080597
v -0.3472049096605072 2.236778026059588 0.0984781499841388
f 25 26 27 28
f 29 32 31 30
f 25 29 30 26
f 26 30 31 27
f 27 31 32 28
f 29 25 28 32
o Cut_5_Canopy
v -0.35216924247071696 2.1168341361584124 -0.0036030480975009008
v -0.34351204651034106 2.107467607388355 0.04672974506201682
v -0.2610897484251643 2.088919677476296 0.049607995134429365
v -0.267236075572833 2.0977211720282063 -0.0006371165540557878
v -0.35216924247071696 2.1133313179245494 -0.0036030480975009008
v -0.34351204651034106 2.10406834254101 0.04672974506201682
v -0.267236075572833 2.0942183537943437 -0.0006371165540557878
v -0.2610897484251643 2.0855204126289517 0.049607995134429365
f 33 34 35 36
f 37 40 39 38
f 33 37 38 34
f 34 38 39 35
f 35 39 40 36
f 37 33 36 40
o Cut_6_Canopy
v -0.25499375726410356 1.5745289016839177 0.012300440053443783
v -0.24916627060058813 1.5812441160457458 0.0625344175868764
v -0.0842790276077487 1.6081461341372076 0.0682924069915593
v -0.08504492158533077 1.6022567390172873 0.018235184169573284
v -0.25499375726410356 1.5710519768182993 0.012300440053443783
v -0.24916627060058813 1.5778707445666456 0.0625344175868764
v -0.08504492158533077 1.598779814151669 0.018235184169573284
v -0.0842790276077487 1.6047727626581074 0.0682924069915593
f 41 42 43 44
f 45 48 47 46
f 41 45 46 42
f 42 46 47 43
f 43 47 48 44
f 45 41 44 48
