o Cut_1_Vigor
v 0.4696287924944446 1.4005937549666903 0.011108332845061386
v 0.4705858969891025 1.4097448740071776 0.06187033632933551
v 0.5232861648836272 1.4070798665061062 0.061683980850979925
v 0.5240438726085647 1.3978420308774355 0.010915913552151537
v 0.4696287924944446 1.3973157636453655 0.010879113362382517
v 0.4705858969891025 1.4065701838215259 0.06164834036574441
v 0.5240438726085647 1.3945640395561107 0.010686694069472669
v 0.5232861648836272 1.4039051763204544 0.061461984887388826
f 1 2 3 4
f 5 8 7 6
f 1 5 6 2
f 2 6 7 3
f 3 7 8 4
f 5 1 4 8
o Cut_2_Canopy
v 0.7023711434384158 1.8538298168830574 0.02349275035576623
v 0.6960702055152513 1.8487594154615088 0.07326028825314108
v 0.7481901335636094 1.8582038645513028 0.073920708468553
v 0.7561660043524252 1.8635777740314925 0.024174393922118065
v 0.7023711434384158 1.8505120300393223 0.023260748099075572
v 0.6960702055152513 1.845544929753447 0.07303550951553821
v 0.7561660043524252 1.8602599871877572 0.023942391665427765
v 0.7481901335636094 1.854989378843241 0.07369592973095046
f 9 10 11 12
f 13 16 15 14
f 9 13 14 10
f 10 14 15 11
f 11 15 16 12
f 13 9 12 16
o Cut_3_Canopy
v 0.24127140945395598 2.113554036342959 0.01738020814937655
v 0.24920740088882784 2.1005924253967434 0.06659593892231419
v 0.30843982379448165 2.0307119438926917 0.06170941963365843
v 0.3023781619949815 2.0414622818402366 0.012339061589587011
v 0.23754752286417982 2.1112717315196643 0.01722061384920023
v 0.24559773720738404 2.0983801257920107 0.06644123986389133
v 0.2986542754052053 2.0391799770169423 0.01217946728941069
v 0.30483016011303776 2.028499644287959 0.06155472057523557
f 17 18 19 20
f 21 24 23 22
f 17 21 22 18
f 18 22 23 19
f 19 23 24 20
f 21 17 20 24
o Cut_4_Spacing
v 0.5194276875573867 2.041596411879649 0.0132529704140837
v 0.5187060639403813 2.0316399715569053 0.06963519445663409
v 0.5900229327130856 2.0227217634054324 0.06947952655430677
v 0.5934957463699239 2.0323341661132086 0.013091297312849382
v 0.5194276875573867 2.038443940374143 0.013197943819270593
v 0.5187060639403813 2.028604595711065 0.06958221177416327
v 0.5934957463699239 2.0291816946077024 0.013036270718036275
v 0.5900229327130856 2.0196863875595916 0.06942654387183594
f 25 26 27 28
f 29 32 31 30
f 25 29 30 26
f 26 30 31 27
f 27 31 32 28
f 29 25 28 32
