o Cut_1_Canopy
v -0.4596537576782795 1.74556364655493 0.028978705023374483
v -0.44545670767418644 1.7520180758929982 0.07897870502337691
v -0.38416943714899704 1.6885614219127552 0.07897870502337691
v -0.39677131299532675 1.6804553540908715 0.028978705023374483
v -0.46387109326611536 1.7426041128821483 0.028978705023374483
v -0.44956705975051525 1.749133618366789 0.07897870502337691
v -0.40098864858316263 1.6774958204180899 0.028978705023374483
v -0.38827978922532586 1.6856769643865457 0.07897870502337691
f 1 2 3 4
f 5 8 7 6
f 1 5 6 2
f 2 6 7 3
f 3 7 8 4
f 5 1 4 8
o Cut_2_Vigor
v 0.1662498441069383 1.598573778008312 0.022313447137017658
v 0.1645749112412869 1.6087226618496515 0.07231344713701951
v 0.2660497717633093 1.6154254856295287 0.07231344713701951
v 0.27035674198927007 1.6054504584706963 0.022313447137017658
v 0.1662498441069383 1.5944778552079044 0.022313447137017658
v 0.1645749112412869 1.604730292435762 0.07231344713701951
v 0.27035674198927007 1.6013545356702887 0.022313447137017658
v 0.2660497717633093 1.6114331162156392 0.07231344713701951
f 9 10 11 12
f 13 16 15 14
f 9 13 14 10
f 10 14 15 11
f 11 15 16 12
f 13 9 12 16
o Cut_3_Vigor
v 0.9270752776596255 2.3486479564171705 0.12142796938248121
v 0.9050618742824931 2.339368355988366 0.17142796938248223
v 0.9779841455037335 2.304398314621883 0.17142796938248223
v 1.0019915165780697 2.3127217032969 0.12142796938248121
v 0.9247249051705033 2.345086786067029 0.12142796938248121
v 0.9027740592159987 2.3359019696095626 0.17142796938248223
v 0.9996411440889479 2.3091605329467586 0.12142796938248121
v 0.9756963304372394 2.30093192824308 0.17142796938248223
f 17 18 19 20
f 21 24 23 22
f 17 21 22 18
f 18 22 23 19
f 19 23 24 20
f 21 17 20 24
o Cut_4_Canopy
v -0.0499672689690286 1.5390130007277774 0.17450289609307604
v -0.04496778413185108 1.554381004218415 0.23535980943180576
v -0.06748705156980855 1.4960900512418223 0.23535980943180576
v -0.07326315541081947 1.4787117753496553 0.17450289609307604
v -0.055638361324702075 1.5390130007277774 0.17450289609307604
v -0.050449818298778856 1.554381004218415 0.23535980943180576
v -0.07893424776649294 1.4787117753496553 0.17450289609307604
v -0.07296908573673633 1.4960900512418223 0.23535980943180576
f 25 26 27 28
f 29 32 31 30
f 25 29 30 26
f 26 30 31 27
f 27 31 32 28
f 29 25 28 32
o Cut_5_Canopy
v -0.8930316915720339 1.6735958482654771 0.028589316471897715
v -0.8664968690939918 1.6817453802579867 0.07769317726757614
v -0.7746683602450519 1.7801921426315162 0.07448645507729136
v -0.7988517341524635 1.7745635325353564 0.02530047988810625
v -0.8886730093466164 1.676553537883073 0.02843710793461604
v -0.8622470127522296 1.6846292234308162 0.07754476901389233
v -0.7944930519270463 1.777521222152952 0.02514827135082457
v -0.7704185039032898 1.7830759858043457 0.07433804682360755
f 33 34 35 36
f 37 40 39 38
f 33 37 38 34
f 34 38 39 35
f 35 39 40 36
f 37 33 36 40
o Cut_6_Vigor
v 0.701693601703104 2.3078734784838444 0.3441477580050184
v -0.2189301718124915 2.3411351092047252 -0.16826216243924788
v -0.18362318751247028 2.1758458561282206 -0.16052552040777981
v 0.7179235751487862 2.2318930388775446 0.347704150521085
v 0.6999314799394327 2.307789341214379 0.3459945852073359
v -0.2227635240759987 2.3409520754331674 -0.16424454039844155
v 0.716161453385115 2.2318089016080798 0.3495509777234025
v -0.1874565397759773 2.1756628223566623 -0.15650789836697337
f 41 42 43 44
f 45 48 47 46
f 41 45 46 42
f 42 46 47 43
f 43 47 48 44
f 45 41 44 48
o Cut_7_Spacing
v -0.2021486127924297 2.268526430613343 0.025857222874744002
v -0.1883174145462506 2.2699780559276808 0.07551447939539864
v -0.24981008564453505 2.2191173486741387 0.08884891501195051
v -0.2656303943828243 2.216020526222853 0.0396229890111373
v -0.20519008697763297 2.2659970533034084 0.026519181873226712
v -0.19126358850418068 2.2675279330245957 0.07615569685896767
v -0.26867186856802766 2.2134911489129188 0.04028494800962001
v -0.2527562596024652 2.2166672257710536 0.08949013247551987
f 49 50 51 52
f 53 56 55 54
f 49 53 54 50
f 50 54 55 51
f 51 55 56 52
f 53 49 52 56
o Cut_8_Canopy
v -0.6193779637637331 2.418403835589997 0.05277963437664135
v -0.5897532282102007 2.417630077257471 0.10227272851789981
v -0.4761996161790634 2.3672534004421153 0.10575379245092854
v -0.5017665663286913 2.3662269717068574 0.05638509250695561
v -0.6210529730912142 2.415716711211695 0.053520214932610714
v -0.5913704469786994 2.415035663061333 0.1029877578344828
v -0.5034415756561724 2.3635398473285556 0.05712567306292513
v -0.4778168349475622 2.3646589862459773 0.10646882176751155
f 57 58 59 60
f 61 64 63 62
f 57 61 62 58
f 58 62 63 59
f 59 63 64 60
f 61 57 60 64
o Cut_9_Spacing
v -0.8159973104018686 2.3223286777974774 0.14630426758158044
v -0.7848643353772959 2.3148302851851104 0.1985483677108473
v -0.7707319783168245 2.270046063122562 0.1991234341615013
v -0.8014353391957012 2.2761830455172465 0.14689681566540144
v -0.8216691981866712 2.322342519532225 0.1467006430036942
v -0.7903688884523498 2.314843718554468 0.19893304907822526
v -0.8071072269805033 2.276196887251994 0.1472931910875152
v -0.776236531391878 2.27005949649192 0.19950811552887926
f 65 66 67 68
f 69 72 71 70
f 65 69 70 66
f 66 70 71 67
f 67 71 72 68
f 69 65 68 72
