o Cut_1_Canopy
v -1.139424344154979 2.0312342814157636 0.02137051831148814
v -1.1228744122681864 2.0166520521704996 0.07137051831148687
v -1.0636226786827752 1.9744279991934595 0.07137051831148687
v -1.0780988841644756 1.987532446637415 0.02137051831148814
v -1.1419381411198188 2.0286711943776385 0.02137051831148814
v -1.1253032049437175 2.014175636170314 0.07137051831148687
v -1.0806126811293157 1.9849693595992897 0.02137051831148814
v -1.0660514713583065 1.971951583193274 0.07137051831148687
f 1 2 3 4
f 5 8 7 6
f 1 5 6 2
f 2 6 7 3
f 3 7 8 4
f 5 1 4 8
o Cut_2_Canopy
v -0.7268325631256973 1.2931557892752579 0.12383923496864054
v -0.7240410083496117 1.3043043490410111 0.17383923496863948
v -0.6415381704743301 1.318138063705759 0.17383923496863948
v -0.6412191356427775 1.3075110739875264 0.12383923496864054
v -0.7268325631256973 1.2903056671230093 0.12383923496864054
v -0.7240410083496117 1.3015577802752807 0.17383923496863948
v -0.6412191356427775 1.304660951835278 0.12383923496864054
v -0.6415381704743301 1.3153914949400287 0.17383923496863948
f 9 10 11 12
f 13 16 15 14
f 9 13 14 10
f 10 14 15 11
f 11 15 16 12
f 13 9 12 16
o Cut_3_Canopy
v -0.4940969292202788 1.3073929478090043 0.10889633316573692
v -0.500198470373723 1.3237228466030955 0.15765864402189478
v -0.44634824730545325 1.2854531669495843 0.16100680714834553
v -0.43805334168508475 1.2675645122074226 0.11238086976684743
v -0.49627053644158103 1.305187513059237 0.10908928370448771
v -0.5022870096496289 1.3216037254250856 0.15784404310160838
v -0.44022694890638703 1.2653590774576553 0.11257382030559823
v -0.44843678658135927 1.2833340457715745 0.16119220622805913
f 17 18 19 20
f 21 24 23 22
f 17 21 22 18
f 18 22 23 19
f 19 23 24 20
f 21 17 20 24
o Cut_4_Spacing
v -0.2856720733509054 1.2970126669849575 0.10981154175615783
v -0.28941023791663606 1.3143344126277052 0.16290324494987896
v -0.30647036602810795 1.2625961204419294 0.17044941055258908
v -0.303438892230364 1.2431311919813164 0.11767029619350565
v -0.2897427650882873 1.297075225005023 0.1105265831974626
v -0.29331901432805857 1.3143944823477802 0.1635898449921507
v -0.3075095839677459 1.2431937500013819 0.11838533763481042
v -0.31037914243953046 1.2626561901620046 0.17113601059486083
f 25 26 27 28
f 29 32 31 30
f 25 29 30 26
f 26 30 31 27
f 27 31 32 28
f 29 25 28 32
