o Cut_1_Vigor
v 0.35228638109663435 1.9751609683435767 0.2795291026598753
v -0.694036056922237 2.01194282624852 -0.20211050412750395
v -0.6885073951553491 1.9133839834681992 -0.18142543363437413
v 0.35482004211200474 1.9299936732183625 0.28900860401452805
v 0.35031265916566073 1.9756718051690492 0.2814355716469158
v -0.6983428844386429 2.0130575152337373 -0.1979504282000351
v 0.3528463201810311 1.930504510043835 0.2909150730015686
v -0.692814222671755 1.9144986724534165 -0.17726535770690527
f 1 2 3 4
f 5 8 7 6
f 1 5 6 2
f 2 6 7 3
f 3 7 8 4
f 5 1 4 8
o Cut_2_Vigor
v -0.3501679974805409 2.0028584041428745 -0.00415151026538916
v -0.3907677836324242 2.0030440743174127 0.05728774318954663
v -0.5108728630921867 1.9922864901190298 -0.030169469453470637
v -0.4788577611827401 1.9913319060570032 -0.097859853656923
v -0.3501679974805409 2.000701779314422 -0.0035736443842283327
v -0.3907677836324242 2.001031314413792 0.05782706058027955
v -0.4788577611827401 1.9891752812285506 -0.0972819877757623
v -0.5108728630921867 1.9902737302154092 -0.029630152062737822
f 9 10 11 12
f 13 16 15 14
f 9 13 14 10
f 10 14 15 11
f 11 15 16 12
f 13 9 12 16
o Cut_3_Canopy
v 0.029181790195705066 2.0094466079787434 0.07000901340535841
v 0.02347326462559989 2.012672593893361 0.1205891021458158
v -0.007049161202088632 2.0066055590594027 0.11945019266543536
v -0.0027708292666304667 2.003095289233353 0.06881673788197488
v 0.029181790195705066 2.0072119054996604 0.07060780012995228
v 0.02347326462559989 2.010537916304716 0.12116108728179391
v -0.0027708292666304667 2.00086058675427 0.06941552460656876
v -0.007049161202088632 2.0044708814707577 0.12002217780141347
f 17 18 19 20
f 21 24 23 22
f 17 21 22 18
f 18 22 23 19
f 19 23 24 20
f 21 17 20 24
