o Cut_1_Canopy
v -0.8396046383620848 2.141702507810273 0.1063506478727335
v -0.8182770253359346 2.1409675256551886 0.15793387254230057
v -0.7358292430073942 2.1243180848360286 0.16090517831181306
v -0.7520530761775042 2.1240224136700987 0.10950588691618346
v -0.8400956137361948 2.1400182618090033 0.1068108125527764
v -0.8187393795162969 2.139381462034672 0.15836721212447127
v -0.7525440515516142 2.1223381676688295 0.10996605159622624
v -0.7362915971877565 2.122732021215512 0.16133851789398365
f 1 2 3 4
f 5 8 7 6
f 1 5 6 2
f 2 6 7 3
f 3 7 8 4
f 5 1 4 8
o Cut_2_Vigor
v -0.24957549065018445 2.060965879357288 -0.01902856955297592
v -0.2609040940466664 2.064408812129794 0.03202531056425115
v -0.18748868025004475 2.075908802109373 0.02761722132606067
v -0.17225249540128193 2.07307796351739 -0.02367128210603144
v -0.24957549065018445 2.058986592623914 -0.018498221271178672
v -0.2609040940466664 2.0625295502868575 0.03252885725743263
v -0.17225249540128193 2.071098676784016 -0.02314093382423419
v -0.18748868025004475 2.0740295402664364 0.02812076801924215
f 9 10 11 12
f 13 16 15 14
f 9 13 14 10
f 10 14 15 11
f 11 15 16 12
f 13 9 12 16
o Cut_3_Vigor
v -0.18839899299640897 2.03983143922507 0.003518711286416431
v -0.2030769519234171 2.0444230488449158 0.054325329947321026
v -0.13616633088591656 2.0348305010110495 0.05568651607577965
v -0.11785990346750488 2.0297187010682363 0.0049537126164299755
v -0.18839899299640897 2.037886909537569 0.00403974644584069
v -0.2030769519234171 2.0425785440478523 0.05481956351812952
v -0.11785990346750488 2.0277741713807353 0.005474747775854235
v -0.13616633088591656 2.032985996213986 0.056180749646588146
f 17 18 19 20
f 21 24 23 22
f 17 21 22 18
f 18 22 23 19
f 19 23 24 20
f 21 17 20 24
o Cut_4_Canopy
v -0.41508034937045224 2.172330184289527 -0.08799651207082855
v -0.41727958236122115 2.158372247183325 -0.028147036030005904
v -0.37319942384801247 2.165045845827335 -0.02891645805890001
v -0.3692833501001968 2.179263707274434 -0.08879590166660832
v -0.41508034937045224 2.169026360587218 -0.08799651207082855
v -0.41727958236122115 2.1551922774294545 -0.028147036030005904
v -0.3692833501001968 2.1759598835721254 -0.08879590166660832
v -0.37319942384801247 2.1618658760734646 -0.02891645805890001
f 25 26 27 28
f 29 32 31 30
f 25 29 30 26
f 26 30 31 27
f 27 31 32 28
f 29 25 28 32
o Cut_5_Canopy
v -0.5506809134613476 2.0684557505139702 -0.000532139077607249
v -0.5481336153742202 2.0595673276208064 0.04943101407108569
v -0.5178588609953925 2.0443359929926905 0.048902566267717315
v -0.5193694537992617 2.0527028458383336 -0.0010786826390063215
v -0.5506809134613476 2.065328142564828 -0.000532139077607249
v -0.5481336153742202 2.0565432730581823 0.04943101407108569
v -0.5193694537992617 2.049575237889192 -0.0010786826390063215
v -0.5178588609953925 2.041311938430067 0.048902566267717315
f 33 34 35 36
f 37 40 39 38
f 33 37 38 34
f 34 38 39 35
f 35 39 40 36
f 37 33 36 40
o Cut_6_Canopy
v -0.7226607601890405 2.0513859149217173 0.11220542931419758
v -0.713773610561988 2.0424105636872993 0.16205791994262744
v -0.7116197774564547 1.9625852933205372 0.1620203246459258
v -0.7204271805232566 1.968605080952338 0.11216644203610895
v -0.7270106565881548 2.0513859149217173 0.1122813570382752
v -0.7179682005350142 2.0424105636872993 0.16213113678295393
v -0.7247770769223708 1.968605080952338 0.11224236976018656
v -0.7158143674294809 1.9625852933205372 0.16209354148625227
f 41 42 43 44
f 45 48 47 46
f 41 45 46 42
f 42 46 47 43
f 43 47 48 44
f 45 41 44 48
o Cut_7_Canopy
v -0.6366299479705633 1.5863411105376395 -0.049451578983828334
v -0.63141114011504 1.5931867174113477 0.00046494278840064233
v -0.5290188250571917 1.4973304023067657 -0.0013223217190845157
v -0.5308484041020634 1.487311910977307 -0.05129800270026
v -0.6397880796597892 1.5838892194136436 -0.04939645359014102
v -0.6344680856188738 1.590813384604182 0.0005183019706520925
v -0.5340065357912893 1.484860019853311 -0.05124287730657269
v -0.5320757705610254 1.4949570694996002 -0.0012689625368330656
f 49 50 51 52
f 53 56 55 54
f 49 53 54 50
f 50 54 55 51
f 51 55 56 52
f 53 49 52 56
o Cut_8_Vigor
v -0.5270637419937693 1.394056808997008 0.019612974198043864
v -0.5252740362290228 1.4076828264884846 0.06958935116991277
v -0.4655768742744441 1.3939173116284314 0.06854733333196525
v -0.4652931694726742 1.379813188260061 0.01853476484403495
v -0.5270637419937693 1.3909717702328466 0.019612974198043864
v -0.5252740362290228 1.4047013411108413 0.06958935116991277
v -0.4652931694726742 1.3767281494958996 0.01853476484403495
v -0.4655768742744441 1.390935826250788 0.06854733333196525
f 57 58 59 60
f 61 64 63 62
f 57 61 62 58
f 58 62 63 59
f 59 63 64 60
f 61 57 60 64
o Cut_9_Spacing
v -0.32681563870726976 1.5734356415184125 -0.041088753499393435
v -0.3315651508830749 1.5807593542690148 0.00900176594620898
v -0.31604788911474885 1.5078959942634653 0.008730911134534817
v -0.3107800242973146 1.4981382879577667 -0.041368656190082946
v -0.3316201554862525 1.5734356415184125 -0.04100489034706735
v -0.33621436123596954 1.5807593542690148 0.009082918214783922
v -0.31558454107629735 1.4981382879577667 -0.0412847930377572
v -0.32069709946764346 1.5078959942634653 0.008812063403109428
f 65 66 67 68
f 69 72 71 70
f 65 69 70 66
f 66 70 71 67
f 67 71 72 68
f 69 65 68 72
o Cut_10_Canopy
v -0.27273448861094074 1.5504080273787162 0.0054196106716406
v -0.27943779151288645 1.5587314160537333 0.055544233661224976
v -0.20431081335912152 1.541092981718236 0.054232887379690155
v -0.19501574724903026 1.5321610946544448 0.00406302499502903
v -0.27273448861094074 1.5473027904347463 0.0054196106716406
v -0.27943779151288645 1.5557297324962818 0.055544233661224976
v -0.19501574724903026 1.5290558577104751 0.00406302499502903
v -0.20431081335912152 1.5380912981607846 0.054232887379690155
f 73 74 75 76
f 77 80 79 78
f 73 77 78 74
f 74 78 79 75
f 75 79 80 76
f 77 73 76 80
o Cut_11_Spacing
v -0.41241956732179125 1.985803088174134 0.058082759835364366
v -0.41537478189195715 1.990067653984653 0.10835385055749706
v -0.45239030478774134 1.9498949299258623 0.11755336945685903
v -0.4513091343834652 1.9435964752692438 0.0677480375130335
v -0.4147223411402819 1.984340870200334 0.058434656908500825
v -0.41756658764970644 1.9886758986379813 0.1086887901094593
v -0.45361190820195585 1.942134257295444 0.06809993458616996
v -0.45458211054549064 1.948503174579191 0.11788830900882125
f 81 82 83 84
f 85 88 87 86
f 81 85 86 82
f 82 86 87 83
f 83 87 88 84
f 85 81 84 88
