o Cut_1_Spacing
v 0.6614363943100641 1.9818130996825367 0.0006964446887166115
v 0.6560526815276134 1.9757498478801097 0.050696444688716244
v 0.7554640193896486 1.9291351928868188 0.050696444688716244
v 0.7642773566112901 1.9335902703760575 0.0006964446887166115
v 0.6595956184668776 1.9789607263743276 0.0006964446887166115
v 0.6542732933812901 1.9729925978475742 0.050696444688716244
v 0.7624365807681035 1.9307378970678484 0.0006964446887166115
v 0.7536846312433252 1.9263779428542838 0.050696444688716244
f 1 2 3 4
f 5 8 7 6
f 1 5 6 2
f 2 6 7 3
f 3 7 8 4
f 5 1 4 8
o Cut_2_Spacing
v 0.5083384757696935 2.046026069448769 0.006481792668585525
v 0.5079925142245321 2.0358185013647003 0.0684475380885285
v 0.602760897172555 2.0308408021274507 0.0684475380885285
v 0.6072089741817741 2.0408329070329634 0.006481792668585525
v 0.5083384757696935 2.042932892084855 0.006481792668585525
v 0.5079925142245321 2.032853659256513 0.0684475380885285
v 0.6072089741817741 2.0377397296690494 0.006481792668585525
v 0.602760897172555 2.0278759600192635 0.0684475380885285
f 9 10 11 12
f 13 16 15 14
f 9 13 14 10
f 10 14 15 11
f 11 15 16 12
f 13 9 12 16
o Cut_3_Canopy
v 0.4691047417057949 1.4017581603453244 0.010157452866482631
v 0.470141604908341 1.41512339281304 0.0601574528664818
v 0.545935992448706 1.4351494926991908 0.0601574528664818
v 0.5475311666064693 1.4224796869615026 0.010157452866482631
v 0.4691047417057949 1.398672595522634 0.010157452866482631
v 0.470141604908341 1.4121413813768677 0.0601574528664818
v 0.5475311666064693 1.4193941221388122 0.010157452866482631
v 0.545935992448706 1.4321674812630185 0.0601574528664818
f 17 18 19 20
f 21 24 23 22
f 17 21 22 18
f 18 22 23 19
f 19 23 24 20
f 21 17 20 24
o Cut_4_Spacing
v 0.9449702187350911 1.8810443313068557 0.008300880688433673
v 0.9300553403600057 1.8783278206426859 0.058300880688432595
v 0.9852496086415037 1.9510160381990986 0.058300880688432595
v 1.002078696005905 1.956253470759618 0.008300880688433673
v 0.9485403145979957 1.8830140393205175 0.008300880688433673
v 0.9335057708085956 1.880231506360425 0.058300880688432595
v 1.0056487918688093 1.9582231787732798 0.008300880688433673
v 0.9887000390900934 1.9529197239168377 0.058300880688432595
f 25 26 27 28
f 29 32 31 30
f 25 29 30 26
f 26 30 31 27
f 27 31 32 28
f 29 25 28 32
