o Cut_1_Spacing
v -0.6119908640388179 2.042091342095386 0.010776402681319734
v -0.6133139735820106 2.0267020084813128 0.06261672748040287
v -0.582360138791832 1.9929656857024096 0.06261672748040287
v -0.5799206555715704 2.0071382930863804 0.010776402681319734
v -0.6152622401879844 2.039910424716453 0.010776402681319734
v -0.6164714721358865 2.024597009497366 0.06261672748040287
v -0.583192031720737 2.0049573757074475 0.010776402681319734
v -0.5855176373457079 1.9908606867184628 0.06261672748040287
f 1 2 3 4
f 5 8 7 6
f 1 5 6 2
f 2 6 7 3
f 3 7 8 4
f 5 1 4 8
o Cut_2_Canopy
v -0.47375805956264605 1.321537733229911 0.11025848297493875
v -0.48009887683975466 1.3315562245593697 0.16025848297493822
v -0.4341507743498769 1.2838070063681948 0.16025848297493822
v -0.4260951448531729 1.2720064840430405 0.11025848297493875
v -0.47673737239713954 1.3194546365027517 0.11025848297493875
v -0.48297100021498557 1.3295480733059422 0.16025848297493822
v -0.4290744576876664 1.2699233873158813 0.11025848297493875
v -0.43702289772510783 1.2817988551147672 0.16025848297493822
f 9 10 11 12
f 13 16 15 14
f 9 13 14 10
f 10 14 15 11
f 11 15 16 12
f 13 9 12 16
o Cut_3_Spacing
v -0.43276499315324213 1.267731717835196 0.18422582899394208
v -0.44102001941966673 1.2803580594022579 0.23422582899394276
v -0.45818262652046704 1.2451479316944172 0.23422582899394276
v -0.45060554927109187 1.2311307366673 0.18422582899394208
v -0.4368525793931847 1.267731717835196 0.18422582899394208
v -0.4449522755759971 1.2803580594022579 0.23422582899394276
v -0.45469313551103446 1.2311307366673 0.18422582899394208
v -0.4621148826767975 1.2451479316944172 0.23422582899394276
f 17 18 19 20
f 21 24 23 22
f 17 21 22 18
f 18 22 23 19
f 19 23 24 20
f 21 17 20 24
o Cut_4_Spacing
v -1.1402450316742072 2.058731492577617 0.01607758269775165
v -1.1435213180646162 2.0339850550987504 0.06676799841125619
v -1.0759856281479958 2.041091513800757 0.09956864939314806
v -1.0699263331429307 2.066130794009324 0.05022988188760051
v -1.1402450316742072 2.0561404571264466 0.01571343641270087
v -1.1435213180646162 2.031496565259659 0.06641826397212205
v -1.0699263331429307 2.063539758558153 0.04986573560254945
v -1.0759856281479958 2.0386030239616653 0.09921891495401393
f 25 26 27 28
f 29 32 31 30
f 25 29 30 26
f 26 30 31 27
f 27 31 32 28
f 29 25 28 32
o Cut_5_Spacing
v -0.23047590998212159 1.2743331580570258 0.13220905690685186
v -0.22502975823314456 1.284364514882918 0.18385866260448833
v -0.1973460795071908 1.3454492252522217 0.17429651281486022
v -0.20182423606531558 1.337553773356358 0.12231255433477034
v -0.22668436296548006 1.2757949892570173 0.13077891302442224
v -0.2213663084190838 1.285776958198085 0.18247683605264256
v -0.19803268904867416 1.3390156045563497 0.12088241045234073
v -0.19368262969313013 1.3468616685673889 0.17291468626301446
f 33 34 35 36
f 37 40 39 38
f 33 37 38 34
f 34 38 39 35
f 35 39 40 36
f 37 33 36 40
o Cut_6_Spacing
v -0.5502013051487288 1.2252911750093713 0.10947812934870478
v -0.5606883853398588 1.2394387625483687 0.1585659690852273
v -0.4850300584666487 1.2316847574418819 0.16785564352900292
v -0.4715743208289832 1.2172329207084975 0.1191323090935244
v -0.5502013051487288 1.2225484905991095 0.10947812934870478
v -0.5606883853398588 1.236799631524625 0.1585659690852273
v -0.4715743208289832 1.214490236298236 0.1191323090935244
v -0.4850300584666487 1.2290456264181384 0.16785564352900292
f 41 42 43 44
f 45 48 47 46
f 41 45 46 42
f 42 46 47 43
f 43 47 48 44
f 45 41 44 48
