o Cut_1_Vigor
v 0.14873811754835772 1.6237510119794527 -0.0005016437693209205
v 0.12915735153608868 1.6329002198963776 0.045513950373662196
v 0.25971348328836497 1.617204742362256 0.09826205154517183
v 0.2825480926940946 1.6076643569096907 0.053561095467907244
v 0.14873811754835772 1.6194925169012628 -0.0005016437693209205
v 0.12915735153608868 1.6287452782047056 0.045513950373662196
v 0.2825480926940946 1.603405861831501 0.053561095467907244
v 0.25971348328836497 1.6130498006705845 0.09826205154517183
f 1 2 3 4
f 5 8 7 6
f 1 5 6 2
f 2 6 7 3
f 3 7 8 4
f 5 1 4 8
o Cut_2_Vigor
v 1.0560192685892948 2.3575772468452056 0.25971422808046996
v 1.0190066965828883 2.3488192164639217 0.301116015635646
v 0.9487736451823571 2.4561482061451287 0.28097701221878263
v 0.984022830400124 2.4676010151052687 0.23906958163865613
v 1.0609151309687643 2.3600964456226357 0.2611180940270932
v 1.0237826460992205 2.351276713274507 0.30248549712207146
v 0.988918692779594 2.4701202138826983 0.24047344758527914
v 0.9535495946986897 2.4586057029557136 0.28234649370520787
f 9 10 11 12
f 13 16 15 14
f 9 13 14 10
f 10 14 15 11
f 11 15 16 12
f 13 9 12 16
o Cut_3_Spacing
v -0.014324714831732761 1.5236228793636875 0.1814243979354748
v 0.014659346746560966 1.5365100059545096 0.22252597364842774
v -0.0392817902670319 1.4724186408419795 0.2524260341407162
v -0.06976566040662723 1.4577494832554618 0.21215581588873905
v -0.01779021671542074 1.5208524938375276 0.1833453569974296
v 0.011287594876341654 1.5338145659020814 0.22439496622934305
v -0.0732311622903152 1.4549790977293025 0.21407677495069388
v -0.04265354213725121 1.4697232007895518 0.2542950267216315
f 17 18 19 20
f 21 24 23 22
f 17 21 22 18
f 18 22 23 19
f 19 23 24 20
f 21 17 20 24
o Cut_4_Spacing
v 0.8187321593593211 1.5860101723403741 -0.05451925343265045
v 0.825951557164308 1.5985495855661824 -0.0013533275883278876
v 0.7969183229980834 1.5735024193276772 0.014740056902958055
v 0.788792064202542 1.5601806510305878 -0.03792318768589076
v 0.8187321593593211 1.5825913482003426 -0.05451925343265045
v 0.825951557164308 1.595234314812669 -0.0013533275883278876
v 0.788792064202542 1.5567618268905565 -0.03792318768589076
v 0.7969183229980834 1.5701871485741639 0.014740056902958055
f 25 26 27 28
f 29 32 31 30
f 25 29 30 26
f 26 30 31 27
f 27 31 32 28
f 29 25 28 32
o Cut_5_Spacing
v 0.5095839189058058 1.8036548595788315 0.01003644953294965
v 0.5252789790455905 1.8092834696749918 0.0585042390280385
v 0.5890977306293441 1.7430113162802012 0.023128927372748038
v 0.5752861510084033 1.7354268185058386 -0.026382892422170956
v 0.5065500353143377 1.8008798171307374 0.011718158668754388
v 0.522332067547126 1.8065879791419952 0.06013773874546756
v 0.5722522674169354 1.7326517760577445 -0.024701183286366217
v 0.5861508191308797 1.740315825747205 0.0247624270901771
f 33 34 35 36
f 37 40 39 38
f 33 37 38 34
f 34 38 39 35
f 35 39 40 36
f 37 33 36 40
o Cut_6_Spacing
v -0.809000453192016 2.3147488223122017 0.14079126493443578
v -0.8213017930396269 2.302448155429663 0.2000637501015174
v -0.8101563052958811 2.2685178014356198 0.2084624775311881
v -0.7974016747618567 2.2794385095576413 0.14953157139672732
v -0.8124756256524368 2.3147488223122017 0.13817253465208013
v -0.8246411526366954 2.302448155429663 0.19754736215239696
v -0.8008768472222776 2.2794385095576413 0.14691284111437136
v -0.8134956648929496 2.2685178014356198 0.2059460895820674
f 41 42 43 44
f 45 48 47 46
f 41 45 46 42
f 42 46 47 43
f 43 47 48 44
f 45 41 44 48
o Cut_7_Canopy
v -0.6918875063609863 2.286583906788451 0.13750508988458432
v -0.6730786152097211 2.278738623990328 0.18855943940049247
v -0.6193105182519915 2.2771943656856726 0.19137730595832234
v -0.6366060707775881 2.2849961843131683 0.14040226715908874
v -0.6918875063609863 2.2828011579910905 0.13750508988458432
v -0.6730786152097211 2.2750594285794863 0.18855943940049247
v -0.6366060707775881 2.2812134355158085 0.14040226715908874
v -0.6193105182519915 2.273515170274831 0.19137730595832234
f 49 50 51 52
f 53 56 55 54
f 49 53 54 50
f 50 54 55 51
f 51 55 56 52
f 53 49 52 56
o Cut_8_Spacing
v 0.07380581327490186 2.249549580503516 0.01755592325769281
v 0.10909487513549966 2.2518171424765643 0.0549111107912698
v 0.1815421031319137 2.1993799142011157 0.020556358086821137
v 0.14872187281505625 2.195325414524403 -0.0179695588107329
v 0.07211815911258086 2.2470113162154752 0.01922423045349416
v 0.10746283700339217 2.2493625257666143 0.05652443952911534
v 0.14703421865273525 2.1927871502363625 -0.01630125161493155
v 0.17991006499980622 2.196925297491166 0.02216968682466668
f 57 58 59 60
f 61 64 63 62
f 57 61 62 58
f 58 62 63 59
f 59 63 64 60
f 61 57 60 64
