o Cut_1_Vigor
v -0.5401715860279623 1.6567340443617804 0.0025224435551391964
v -0.5219435055510232 1.660884872656632 0.05163576763664684
v -0.41916960616278737 1.6783653075060607 0.046249615801450705
v -0.4343311846877138 1.6747360492587293 -0.0030244168375290364
v -0.5401715860279623 1.6531598963061986 0.0025224435551391964
v -0.5219435055510232 1.6574142779875685 0.05163576763664684
v -0.4343311846877138 1.6711619012031478 -0.0030244168375290364
v -0.41916960616278737 1.6748947128369969 0.046249615801450705
f 1 2 3 4
f 5 8 7 6
f 1 5 6 2
f 2 6 7 3
f 3 7 8 4
f 5 1 4 8
o Cut_2_Vigor
v -0.4750120238527529 2.2762284331765903 0.04184462176317408
v -0.45825745730080675 2.262080845637593 0.09103516943723342
v -0.36460469461909945 2.2493044167259546 0.08612703612136337
v -0.37849188272241036 2.2630608267293115 0.036786215510447
v -0.4750120238527529 2.2727426751365187 0.04184462176317408
v -0.45825745730080675 2.25869864098404 0.09103516943723342
v -0.37849188272241036 2.2595750686892404 0.036786215510447
v -0.36460469461909945 2.2459222120724016 0.08612703612136337
f 9 10 11 12
f 13 16 15 14
f 9 13 14 10
f 10 14 15 11
f 11 15 16 12
f 13 9 12 16
o Cut_3_Spacing
v -0.21788512425611925 1.55007107979819 -0.0002436968556160885
v -0.20557726749778113 1.5573078642075386 0.048620579629597795
v -0.12460454757443436 1.5718839684593382 0.038678379768695724
v -0.13449789627625702 1.5650818257562567 -0.010482361028033935
v -0.21788512425611925 1.5464947695736804 -0.0002436968556160885
v -0.20557726749778113 1.5538351073695473 0.048620579629597795
v -0.13449789627625702 1.5615055155317472 -0.010482361028033935
v -0.12460454757443436 1.5684112116213471 0.038678379768695724
f 17 18 19 20
f 21 24 23 22
f 17 21 22 18
f 18 22 23 19
f 19 23 24 20
f 21 17 20 24
o Cut_4_Spacing
v 0.022556829646078268 1.4390229501162592 0.08486300326059107
v 0.03010283428764252 1.450214974052639 0.1342910898281503
v 0.04241290717751909 1.4094633205442089 0.13234136582313294
v 0.035260786265165184 1.3969673714890274 0.08285089420156978
v 0.017608638542943963 1.4390229501162592 0.08564671973907981
v 0.025308060897035637 1.450214974052639 0.1350505073281045
v 0.030312595162030876 1.3969673714890274 0.08363461068005852
v 0.037618133786912214 1.4094633205442089 0.13310078332308714
f 25 26 27 28
f 29 32 31 30
f 25 29 30 26
f 26 30 31 27
f 27 31 32 28
f 29 25 28 32
o Cut_5_Vigor
v 0.662258741151206 1.5658719988374097 0.09600483447399825
v 0.6230044425269786 1.5718483222985835 0.1307501421639164
v 0.5864650509041642 1.5054769251490805 0.10879506069454184
v 0.62476221773952 1.497762034862838 0.07347465020547131
v 0.6579855994041989 1.5635455769540698 0.09343727187869906
v 0.6188403764870579 1.569581284383043 0.12824811886549806
v 0.6204890759925128 1.4954356129794981 0.0709070876101721
v 0.5823009848642436 1.50320988723354 0.1062930373961235
f 33 34 35 36
f 37 40 39 38
f 33 37 38 34
f 34 38 39 35
f 35 39 40 36
f 37 33 36 40
o Cut_6_Canopy
v 0.6163789876070135 2.2040618377165626 0.01354054884881795
v 0.6397215690233791 2.187958362499363 0.06090864555110783
v 0.6730101057019489 2.1743457883765784 0.027620108872538046
v 0.6510492734041399 2.1898842293756307 -0.021129736948308518
v 0.6163789876070135 2.2014635183417726 0.01354054884881795
v 0.6397215690233791 2.1854635965110916 0.06090864555110783
v 0.6510492734041399 2.1872859100008406 -0.021129736948308518
v 0.6730101057019489 2.1718510223883065 0.027620108872538046
f 41 42 43 44
f 45 48 47 46
f 41 45 46 42
f 42 46 47 43
f 43 47 48 44
f 45 41 44 48
o Cut_7_Spacing
v -0.42434173482874155 2.0480660637025996 0.01358099408766216
v -0.43864162677071145 2.0524112719394054 0.06262836696947663
v -0.39620853773247355 2.041924093221241 0.08592327776589227
v -0.379740067649213 2.0370429290347865 0.03806641058379012
v -0.42434173482874155 2.046008827770898 0.014132228794201878
v -0.43864162677071145 2.050454060898141 0.06315280008740048
v -0.379740067649213 2.0349856931030845 0.03861764529032984
v -0.39620853773247355 2.039966882179977 0.08644771088381634
f 49 50 51 52
f 53 56 55 54
f 49 53 54 50
f 50 54 55 51
f 51 55 56 52
f 53 49 52 56
