o Cut_1_Spacing
v -0.3649790334656387 2.0434449406760216 -0.01963773638573618
v -0.391679646167533 2.0316878825214943 0.02408596119840621
v -0.3746842051660466 2.003485215985471 0.04049826779643742
v -0.3473811695275732 2.014242598215583 -0.002643676720164187
v -0.367389438866071 2.041405288135866 -0.021965437823668107
v -0.394007536809084 2.0297180528574086 0.021837943336881827
v -0.3497915749280055 2.012202945675428 -0.004971378158096116
v -0.37701209580759765 2.001515386321385 0.038250249934913036
f 1 2 3 4
f 5 8 7 6
f 1 5 6 2
f 2 6 7 3
f 3 7 8 4
f 5 1 4 8
o Cut_2_Vigor
v -0.398680574521847 2.0102834280197373 0.17876912810168427
v -0.43060218600742733 2.0014228679975945 0.218373922657329
v -0.3895166977717273 2.0039118901795017 0.25798351132035774
v -0.35575913066990583 2.01288367522172 0.22014871999178193
v -0.398680574521847 2.0078717424923327 0.17898012324532175
v -0.43060218600742733 1.9991143418048087 0.21857589252865042
v -0.35575913066990583 2.0104719896943157 0.22035971513541927
v -0.3895166977717273 2.001603363986716 0.25818548119167906
f 9 10 11 12
f 13 16 15 14
f 9 13 14 10
f 10 14 15 11
f 11 15 16 12
f 13 9 12 16
o Cut_3_Canopy
v 0.22969246429505505 1.3307427741476126 0.02161770053790579
v 0.234417875143432 1.3474205716375536 0.07036694824183842
v 0.19986276292933372 1.3467319747388733 0.0771696832710499
v 0.19396295234426153 1.3300307744015765 0.028651635228041913
v 0.22969246429505505 1.3276042919392703 0.021892282151813745
v 0.234417875143432 1.3443852487638304 0.07063250458343034
v 0.19396295234426153 1.3268922921932342 0.02892621684194953
v 0.19986276292933372 1.3436966518651496 0.0774352396126415
f 17 18 19 20
f 21 24 23 22
f 17 21 22 18
f 18 22 23 19
f 19 23 24 20
f 21 17 20 24
o Cut_4_Canopy
v -0.46367878922169486 1.905196288332028 0.4443843107934245
v 0.36981954970296754 2.028274913070479 -0.31458032031664207
v 0.40812345841651754 1.9781454447608933 -0.27174433670886006
v -0.44615281342857477 1.8822595208421613 0.4639839401001563
v -0.465070277629911 1.9036374049500036 0.4431238917492316
v 0.3667783812343225 2.024867894399166 -0.31733503004461827
v -0.4475443018367909 1.8807006374601363 0.46272352105596365
v 0.4050822899478725 1.97473842608958 -0.2744990464368363
f 25 26 27 28
f 29 32 31 30
f 25 29 30 26
f 26 30 31 27
f 27 31 32 28
f 29 25 28 32
o Cut_5_Spacing
v 1.0232316304819307 1.438629629730964 0.0682916167070619
v 0.9834418911833216 1.4498541548249002 0.10856878216849332
v 0.9741229812482758 1.4032477956930263 0.11013977773639447
v 1.0136430770615126 1.390674711464554 0.06990806917103626
v 1.017896285400141 1.4385050317585903 0.06686745536601324
v 0.9782565834408925 1.449733060721157 0.10718467022915264
v 1.008307731979723 1.3905501134921805 0.0684839078299878
v 0.9689376735058466 1.4031267015892832 0.10875566579705397
f 33 34 35 36
f 37 40 39 38
f 33 37 38 34
f 34 38 39 35
f 35 39 40 36
f 37 33 36 40
o Cut_6_Spacing
v -0.4583520771430547 2.209791580930622 -0.13508381742425318
v -0.4811928122054569 2.194978598238327 -0.08721512449111446
v -0.42696972026356433 2.1787371455279803 -0.03847871716456499
v -0.40205226939840844 2.1929280891536096 -0.08448083141987861
v -0.4583520771430547 2.2069949292662945 -0.13483914210779374
v -0.4811928122054569 2.192285105908619 -0.08697947444697104
v -0.40205226939840844 2.190131437489282 -0.08423615610341903
v -0.42696972026356433 2.176043653198272 -0.038243067120421435
f 41 42 43 44
f 45 48 47 46
f 41 45 46 42
f 42 46 47 43
f 43 47 48 44
f 45 41 44 48
o Cut_7_Canopy
v -0.31565639444539195 2.0052808247811504 -0.009301628466599226
v -0.346951083033859 1.9977832136001266 0.03092087972206895
v -0.31740382402234046 1.9912846164774942 0.06114955803991521
v -0.2849811769697455 1.9985341455055656 0.022081021309470004
v -0.31565639444539195 2.0024753712784613 -0.009056183089064774
v -0.346951083033859 1.995080919432056 0.031157299827287377
v -0.2849811769697455 1.995728692002876 0.022326466687004453
v -0.31740382402234046 1.9885823223094234 0.061385978145133635
f 49 50 51 52
f 53 56 55 54
f 49 53 54 50
f 50 54 55 51
f 51 55 56 52
f 53 49 52 56
