o Cut_1_Spacing
v 0.5872032785847405 2.030541348706186 0.022515328069246814
v 0.5842522063928787 2.02273953007869 0.07251532806924682
v 0.5113854332963351 2.014053308849994 0.07251532806924682
v 0.5117842268357758 2.0215508782831035 0.022515328069246814
v 0.5872032785847405 2.027481377880044 0.022515328069246814
v 0.5842522063928787 2.019783112639066 0.07251532806924682
v 0.5117842268357758 2.0184909074569615 0.022515328069246814
v 0.5113854332963351 2.0110968914103706 0.07251532806924682
f 1 2 3 4
f 5 8 7 6
f 1 5 6 2
f 2 6 7 3
f 3 7 8 4
f 5 1 4 8
o Cut_2_Canopy
v 0.5632121667430634 1.3553759169362554 0.03232868056418684
v 0.56099224569393 1.3709904799515813 0.08387120193460801
v 0.5067769161882145 1.3279048753556142 0.08387120193460801
v 0.5070235740825626 1.3107221352799254 0.03232868056418684
v 0.560525853863077 1.3529198595066196 0.03232868056418684
v 0.5584002722870878 1.368620675752405 0.08387120193460801
v 0.5043372612025762 1.30826607785029 0.03232868056418684
v 0.5041849427813722 1.325535071156438 0.08387120193460801
f 9 10 11 12
f 13 16 15 14
f 9 13 14 10
f 10 14 15 11
f 11 15 16 12
f 13 9 12 16
o Cut_3_Spacing
v 0.21333285893558548 1.501176268026767 0.008639064773356433
v 0.22294378323610886 1.511194759356226 0.05863906477335745
v 0.24823522211082094 1.479870980544537 0.05863906477335745
v 0.23950164359706735 1.46876588494941 0.008639064773356433
v 0.2098547548842789 1.4991357803670449 0.008639064773356433
v 0.2195822875781547 1.5092226819522483 0.05863906477335745
v 0.23602353954576077 1.4667253972896876 0.008639064773356433
v 0.24487372645286679 1.4778989031405592 0.05863906477335745
f 17 18 19 20
f 21 24 23 22
f 17 21 22 18
f 18 22 23 19
f 19 23 24 20
f 21 17 20 24
o Cut_4_Spacing
v 0.9248213887136276 1.9480325313700646 -0.0003753193763293548
v 0.9106642180634787 1.9430993480039316 0.049624680623672486
v 0.9627202457053282 1.9519248584535136 0.049624680623672486
v 0.9786719872829606 1.9571622910140334 -0.0003753193763293548
v 0.9248213887136276 1.944925152462671 -0.0003753193763293548
v 0.9106642180634787 1.9400955224830563 0.049624680623672486
v 0.9786719872829606 1.9540549121066397 -0.0003753193763293548
v 0.9627202457053282 1.9489210329326379 0.049624680623672486
f 25 26 27 28
f 29 32 31 30
f 25 29 30 26
f 26 30 31 27
f 27 31 32 28
f 29 25 28 32
o Cut_5_Spacing
v 0.6998636162626983 1.9485525176897567 -0.005651557939746355
v 0.69176810741205 1.9502816693305838 0.04459680427125717
v 0.7427803133246148 1.9502816693305838 0.04459680427125717
v 0.7530293072882435 1.9485525176897567 -0.005651557939746355
v 0.6998636162626983 1.9460208501639609 -0.00529575527248202
v 0.69176810741205 1.947852547416867 0.0449381950926046
v 0.7530293072882435 1.9460208501639609 -0.00529575527248202
v 0.7427803133246148 1.947852547416867 0.0449381950926046
f 33 34 35 36
f 37 40 39 38
f 33 37 38 34
f 34 38 39 35
f 35 39 40 36
f 37 33 36 40
