o Cut_1_Spacing
v 0.5223957795633245 2.0254618088412593 0.022135988175948532
v 0.5216380718383871 2.01783384689627 0.07213598817594784
v 0.5831357496948554 2.011627754392103 0.07213598817594784
v 0.5860469425327731 2.019038395483958 0.022135988175948532
v 0.5223957795633245 2.0224010523765052 0.022135988175948532
v 0.5216380718383871 2.014876643818034 0.07213598817594784
v 0.5860469425327731 2.015977639019204 0.022135988175948532
v 0.5831357496948554 2.008670551313867 0.07213598817594784
f 1 2 3 4
f 5 8 7 6
f 1 5 6 2
f 2 6 7 3
f 3 7 8 4
f 5 1 4 8
