o Cut_1_Canopy
v 0.24146596163677883 1.3227759528434582 0.021283225241946622
v 0.23576321402277525 1.3340114409504653 0.07128322524194822
v 0.20198808420045247 1.3269323585703972 0.07128322524194822
v 0.20665396861190993 1.3154795496102563 0.021283225241946622
v 0.24146596163677883 1.3192992167028375 0.021283225241946622
v 0.23576321402277525 1.3306382581963627 0.07128322524194822
v 0.20665396861190993 1.3120028134696355 0.021283225241946622
v 0.20198808420045247 1.3235591758162946 0.07128322524194822
f 1 2 3 4
f 5 8 7 6
f 1 5 6 2
f 2 6 7 3
f 3 7 8 4
f 5 1 4 8
o Cut_2_Spacing
v -0.35350130599631446 2.000057635651377 -0.007238047987317248
v -0.3483756382955811 1.9917166742763786 0.04412708926287056
v -0.43288010021288853 1.9915094037798775 0.03225257047115561
v -0.4406911729688967 1.9998437784584284 -0.019489918365785466
v -0.35350130599631446 1.996695971143276 -0.007179369915061304
v -0.3483756382955811 1.9884585473831131 0.04418396007933703
v -0.4406911729688967 1.9964821139503273 -0.019431240293529523
v -0.43288010021288853 1.988251276886612 0.03230944128762208
f 9 10 11 12
f 13 16 15 14
f 9 13 14 10
f 10 14 15 11
f 11 15 16 12
f 13 9 12 16
o Cut_3_Canopy
v -0.15989713928322624 1.9906232476711605 -0.0024511377066702613
v -0.16081716042180844 1.966442850388519 0.06631954061439335
v -0.2272562304400798 1.9581166448895353 0.05481427021657028
v -0.22866357866504455 1.9820053740981416 -0.014359439240176557
v -0.15989713928322624 1.9863379595131048 -0.0034404744321724664
v -0.16081716042180844 1.9623025958902351 0.065363687547575
v -0.22866357866504455 1.9777200859400856 -0.015348775965678763
v -0.2272562304400798 1.9539763903912515 0.05385841714975194
f 17 18 19 20
f 21 24 23 22
f 17 21 22 18
f 18 22 23 19
f 19 23 24 20
f 21 17 20 24
o Cut_4_Canopy
v -0.048193589911816506 1.9869562738906419 0.003194784864543272
v -0.013063842545312697 1.9767781764275827 0.038150878715986214
v 0.018053587789515883 1.9357333592460733 0.004087329575424833
v -0.016201991767288766 1.9447584033384335 -0.031825696060628086
v -0.050887865522243475 1.9839628311957302 0.005686317717022942
v -0.01568449729446064 1.9738665293101303 0.040574330636509746
v -0.01889626737771574 1.9417649606435223 -0.02933416320814862
v 0.01543293304036794 1.9328217121286209 0.006510781495948168
f 25 26 27 28
f 29 32 31 30
f 25 29 30 26
f 26 30 31 27
f 27 31 32 28
f 29 25 28 32
o Cut_5_Spacing
v 0.7427055289191222 1.955382691481123 0.001915855960566378
v 0.715208916993099 1.946044405386784 0.04604695732774951
v 0.700039243294993 1.9276105102679686 0.04096647355683844
v 0.7271489075540304 1.9364785850148758 -0.003294220666554854
v 0.7427055289191222 1.9512296320589808 0.0016254457553638625
v 0.715208916993099 1.9419946471003153 0.04576377064163476
v 0.7271489075540304 1.9323255255927336 -0.003584630871757146
v 0.700039243294993 1.9235607519814997 0.040683286870723916
f 33 34 35 36
f 37 40 39 38
f 33 37 38 34
f 34 38 39 35
f 35 39 40 36
f 37 33 36 40
o Cut_6_Vigor
v -0.03146410849395549 2.0865189000674986 0.0011421160331096885
v -0.040503316704750776 2.07269720210302 0.04957289179459963
v 0.08502883532100984 2.0720596461450373 0.08090341848469625
v 0.09758926730137679 2.0858634604266713 0.03335147570355446
v -0.03146410849395549 2.082732898053847 0.0008773729822831822
v -0.040503316704750776 2.0690145012250416 0.04931537226286129
v 0.09758926730137679 2.08207745841302 0.03308673265272816
v 0.08502883532100984 2.068376945267059 0.08064589895295751
f 41 42 43 44
f 45 48 47 46
f 41 45 46 42
f 42 46 47 43
f 43 47 48 44
f 45 41 44 48
o Cut_7_Spacing
v 1.018821762227128 1.434976394953312 0.07018146673167347
v 0.9838570603282772 1.4386454090343777 0.11335557635024386
v 0.9808765263913242 1.3952804905148295 0.10957826062495252
v 1.0157638387567778 1.390485506764898 0.06630607304194432
v 1.0128664562686207 1.4350799710774176 0.06870025914867345
v 0.978052470486061 1.4387463638672726 0.11191185497800883
v 1.0098085327982704 1.3905890828890037 0.06482486545894452
v 0.975071936549108 1.3953814453477245 0.1081345392527177
f 49 50 51 52
f 53 56 55 54
f 49 53 54 50
f 50 54 55 51
f 51 55 56 52
f 53 49 52 56
