o Cut_1_Canopy
v -0.3580847334506355 2.119381141374603 0.01850169179551722
v -0.34743694594756636 2.1098842200926646 0.0685016917955167
v -0.24723977426980376 2.099956579174364 0.0685016917955167
v -0.25481685151917877 2.109149251261915 0.01850169179551722
v -0.3580847334506355 2.1158986444898202 0.01850169179551722
v -0.34743694594756636 2.1065052765944 0.0685016917955167
v -0.25481685151917877 2.1056667543771326 0.01850169179551722
v -0.24723977426980376 2.0965776356760997 0.0685016917955167
f 1 2 3 4
f 5 8 7 6
f 1 5 6 2
f 2 6 7 3
f 3 7 8 4
f 5 1 4 8
o Cut_2_Vigor
v -0.4723813581078921 2.328621975011723 0.031653372762920094
v -0.45822418745774396 2.3127792848182835 0.08165337276291997
v -0.4001394313011286 2.2958976622728255 0.08165337276291997
v -0.41250203102379324 2.3112187824187442 0.031653372762920094
v -0.4723813581078921 2.3251667161489915 0.031653372762920094
v -0.45822418745774396 2.3094275793420707 0.08165337276291997
v -0.41250203102379324 2.307763523556013 0.031653372762920094
v -0.4001394313011286 2.292545956796613 0.08165337276291997
f 9 10 11 12
f 13 16 15 14
f 9 13 14 10
f 10 14 15 11
f 11 15 16 12
f 13 9 12 16
o Cut_3_Spacing
v -0.5988181222351558 2.1610540542937473 0.03528350226761914
v -0.5808325336063757 2.150209743722381 0.08528350226762
v -0.632347614192307 2.1459988049201075 0.08528350226762
v -0.6519283769788504 2.1567127229795937 0.03528350226761914
v -0.5988181222351558 2.1576063136750903 0.03528350226761914
v -0.5808325336063757 2.146865556490242 0.08528350226762
v -0.6519283769788504 2.153264982360937 0.03528350226761914
v -0.632347614192307 2.1426546176879686 0.08528350226762
f 17 18 19 20
f 21 24 23 22
f 17 21 22 18
f 18 22 23 19
f 19 23 24 20
f 21 17 20 24
o Cut_4_Vigor
v 0.02352824926508153 1.4274607090992508 0.06115078368108014
v 0.02281042089408813 1.4388265897181376 0.11115078368107738
v -0.010137964841816874 1.4208715062242017 0.11115078368107738
v -0.010456999673369494 1.4089405913871675 0.06115078368108014
v 0.02352824926508153 1.4240665413724016 0.06115078368108014
v 0.02281042089408813 1.4355359753778065 0.11115078368107738
v -0.010456999673369494 1.4055464236603186 0.06115078368108014
v -0.010137964841816874 1.4175808918838708 0.11115078368107738
f 25 26 27 28
f 29 32 31 30
f 25 29 30 26
f 26 30 31 27
f 27 31 32 28
f 29 25 28 32
o Cut_5_Canopy
v -0.20622350761180738 1.485237098043449 0.007442677522670319
v -0.1990009131467893 1.4885351601392636 0.07396039423945186
v -0.1716022366990429 1.4682558429585257 0.07147040718400438
v -0.17783041598409471 1.4642217576871999 0.004862318184803112
v -0.20622350761180738 1.4813856327820056 0.006969777051711089
v -0.1990009131467893 1.4848185852790243 0.07350405622717493
v -0.17783041598409471 1.4603702924257564 0.00438941771384409
v -0.1716022366990429 1.4645392680982865 0.07101406917172703
f 33 34 35 36
f 37 40 39 38
f 33 37 38 34
f 34 38 39 35
f 35 39 40 36
f 37 33 36 40
o Cut_6_Canopy
v -0.7710289029442237 1.5124650933104458 0.003607120199924614
v -0.7505309150169677 1.5142447117805826 0.05420112114529538
v -0.7111061393254149 1.5142447117805826 0.05420112114529538
v -0.7305273846961808 1.5124650933104458 0.003607120199924614
v -0.7710289029442237 1.5085989812193958 0.0031324213244237472
v -0.7505309150169677 1.5104813812048108 0.05373904225301666
v -0.7305273846961808 1.5085989812193958 0.0031324213244237472
v -0.7111061393254149 1.5104813812048108 0.05373904225301666
f 41 42 43 44
f 45 48 47 46
f 41 45 46 42
f 42 46 47 43
f 43 47 48 44
f 45 41 44 48
o Cut_7_Vigor
v 0.34946968340434836 1.562912807213773 0.0261612356615273
v 0.34009803522749005 1.5633550796299251 0.076591031158884
v 0.3097062959092889 1.5586583938238048 0.07601435065448044
v 0.31824047765332153 1.5580867008217831 0.025568664307315962
v 0.34946968340434836 1.5590800743874678 0.02569063524439114
v 0.34009803522749005 1.559625128318898 0.07613305072497017
v 0.31824047765332153 1.5542539679954777 0.025098063890180215
v 0.3097062959092889 1.5549284425127774 0.07555637022056703
f 49 50 51 52
f 53 56 55 54
f 49 53 54 50
f 50 54 55 51
f 51 55 56 52
f 53 49 52 56
o Cut_8_Spacing
v 0.6497467407705461 1.5507902030494074 0.07999291368895814
v 0.6048145651397172 1.5598064784880301 0.1064996649879228
v 0.5875315603751976 1.50876953009679 0.09588354375473672
v 0.6320122760489061 1.4984200872578108 0.06909948224831564
v 0.6451416914311603 1.5504413091706775 0.07600503840696105
v 0.6003267449025304 1.5594664662766073 0.10261330762778412
v 0.6274072267095203 1.498071193379081 0.06511160696631856
v 0.5830437401380107 1.5084295178853673 0.09199718639459804
f 57 58 59 60
f 61 64 63 62
f 57 61 62 58
f 58 62 63 59
f 59 63 64 60
f 61 57 60 64
o Cut_9_Canopy
v 0.6439580869856272 2.2082359208558526 0.013162562866006845
v 0.599275969536844 2.2061898855249913 0.05196003546595452
v 0.5972954756771892 2.174940362265304 0.05958705066258009
v 0.6419026444567264 2.1758038086315663 0.021078210434057748
v 0.6399551126605927 2.207858830953297 0.011755244190648844
v 0.5954189577451658 2.2058265456475454 0.05060403258290885
v 0.6378996701316919 2.175426718729011 0.019670891758699745
v 0.5934384638855111 2.1745770223878576 0.058231047779534424
f 65 66 67 68
f 69 72 71 70
f 65 69 70 66
f 66 70 71 67
f 67 71 72 68
f 69 65 68 72
o Cut_10_Canopy
v 0.640564030559949 2.206112052157043 -0.0038540055241068323
v 0.5964815024651325 2.2041644827643427 0.03514301430016386
v 0.5734506771718634 2.185167633513805 0.03155496602561933
v 0.6166712955703517 2.1864042614460835 -0.0075763335545586345
v 0.640564030559949 2.2033392927719593 -0.0031110468860676447
v 0.5964815024651325 2.201491748269696 0.03585917134958728
v 0.6166712955703517 2.1836315020609995 -0.006833374916519447
v 0.5734506771718634 2.182494899019159 0.032271123075042756
f 73 74 75 76
f 77 80 79 78
f 73 77 78 74
f 74 78 79 75
f 75 79 80 76
f 77 73 76 80
