o Cut_1_Spacing
v -0.6253435179350996 1.5180727267619194 -0.04071956719098058
v -0.6209275695780379 1.5280052410201455 0.013561165897687244
v -0.5616493491966468 1.5124996015533607 0.013561165897687244
v -0.5639006169865214 1.5020008632044042 -0.04071956719098058
v -0.6253435179350996 1.514881792184771 -0.04071956719098058
v -0.6209275695780379 1.5249267255176775 0.013561165897687244
v -0.5639006169865214 1.4988099286272558 -0.04071956719098058
v -0.5616493491966468 1.5094210860508925 0.013561165897687244
f 1 2 3 4
f 5 8 7 6
f 1 5 6 2
f 2 6 7 3
f 3 7 8 4
f 5 1 4 8
o Cut_2_Vigor
v -0.3623833942445784 1.5073910918874687 -0.04054613819446006
v -0.3668498818863153 1.5168880131694071 0.00945386180554009
v -0.32880699099669103 1.5155923061358572 0.00945386180554009
v -0.32306436402874356 1.5060519206832923 -0.04054613819446006
v -0.3623833942445784 1.5042005164935184 -0.04054613819446006
v -0.3668498818863153 1.513800991161975 0.00945386180554009
v -0.32306436402874356 1.5028613452893422 -0.04054613819446006
v -0.32880699099669103 1.5125052841284254 0.00945386180554009
f 9 10 11 12
f 13 16 15 14
f 9 13 14 10
f 10 14 15 11
f 11 15 16 12
f 13 9 12 16
o Cut_3_Canopy
v -0.3993268851479616 1.434910523291237 -0.002644030047271915
v -0.4026767508792642 1.4470587589814046 0.0473559699527265
v -0.42237312272512745 1.4319056466657585 0.0473559699527265
v -0.41970120601087424 1.4192358409280703 -0.002644030047271915
v -0.3993268851479616 1.4317984457303832 -0.002644030047271915
v -0.4026767508792642 1.444050234807069 0.0473559699527265
v -0.41970120601087424 1.4161237633672163 -0.002644030047271915
v -0.42237312272512745 1.4288971224914226 0.0473559699527265
f 17 18 19 20
f 21 24 23 22
f 17 21 22 18
f 18 22 23 19
f 19 23 24 20
f 21 17 20 24
o Cut_4_Canopy
v -0.41830887006386236 1.4021092385408276 0.0021002585934148314
v -0.3801282310378504 1.4290683310374157 0.0487334689374032
v -0.359489149233813 1.4173034920826897 0.035176563824631565
v -0.3967778993064895 1.3898359985825535 -0.012042489146771225
v -0.41830887006386236 1.3989856409262889 0.0027074244633506278
v -0.3801282310378504 1.4260741238827153 0.049315483849756064
v -0.3967778993064895 1.3867124009680143 -0.011435323276835259
v -0.359489149233813 1.4143092849279895 0.03575857873698459
f 25 26 27 28
f 29 32 31 30
f 25 29 30 26
f 26 30 31 27
f 27 31 32 28
f 29 25 28 32
o Cut_5_Vigor
v -0.2537897546135752 1.506822045308832 0.020403488385911075
v -0.22527383580780708 1.5273882647055097 0.06211049751645264
v -0.17783338370200819 1.515945071886256 0.027916781955926073
v -0.20449278023367762 1.4949310375676552 -0.015128355117214814
v -0.2537897546135752 1.5039613491830095 0.02095955138319757
v -0.22527383580780708 1.524635302292432 0.0626456192013513
v -0.20449278023367762 1.4920703414418328 -0.014572292119928476
v -0.17783338370200819 1.5131921094731782 0.02845190364082458
f 33 34 35 36
f 37 40 39 38
f 33 37 38 34
f 34 38 39 35
f 35 39 40 36
f 37 33 36 40
o Cut_6_Vigor
v -0.5544584632277895 1.4103344254204075 0.19756204709415937
v -0.5370201870499 1.4138431993260794 0.24556379661207084
v -0.5332796632633515 1.3512096551204993 0.23426520793629715
v -0.5506055164373722 1.3458184038976486 0.18592387461919227
v -0.5594608724773479 1.4100496007993475 0.19936035897679347
v -0.541876633766102 1.4135666854451405 0.24730963654667762
v -0.5556079256869306 1.3455335792765886 0.18772218650182637
v -0.5381361099795536 1.3509331412395604 0.23601104787090393
f 41 42 43 44
f 45 48 47 46
f 41 45 46 42
f 42 46 47 43
f 43 47 48 44
f 45 41 44 48
o Cut_7_Spacing
v -0.2415992704417411 2.064389515987874 -0.007456364042335348
v -0.2320306045346729 2.0582025507093484 0.042662301643211734
v -0.17059378561141844 2.0682679084856854 0.01974293795160644
v -0.1780264144449779 2.074804826410608 -0.031172588824806613
v -0.2415992704417411 2.0613117779724495 -0.007295066627731997
v -0.2320306045346729 2.0552282241641247 0.04281817949230962
v -0.1780264144449779 2.0717270883951833 -0.031011291410203264
v -0.17059378561141844 2.0652935819404616 0.01989881580070401
f 49 50 51 52
f 53 56 55 54
f 49 53 54 50
f 50 54 55 51
f 51 55 56 52
f 53 49 52 56
o Cut_8_Spacing
v -0.403887089577371 2.1019438515904536 -0.04907165777840428
v -0.3897465548463015 2.0949319197395866 -0.0005760652106294285
v -0.3381169556383083 2.104579538894849 -0.019899101452997683
v -0.35057114531134453 2.1119065848495215 -0.06902583017471096
v -0.403887089577371 2.098674366406841 -0.04890031132053239
v -0.3897465548463015 2.0917658460261745 -0.00041013831826315454
v -0.35057114531134453 2.1086370996659087 -0.06885448371683907
v -0.3381169556383083 2.1014134651814373 -0.01973317456063141
f 57 58 59 60
f 61 64 63 62
f 57 61 62 58
f 58 62 63 59
f 59 63 64 60
f 61 57 60 64
o Cut_9_Canopy
v -0.834261223694488 2.1478632700824964 0.09523308270161308
v -0.8230931589214048 2.1370683487464044 0.14628848952349569
v -0.7505471005516751 2.117185801391275 0.1498673305109281
v -0.758726035785821 2.127161498210638 0.09895938337949725
v -0.834261223694488 2.145250066227734 0.09537003491245517
v -0.8230931589214048 2.134558556361843 0.14642002216883215
v -0.758726035785821 2.1245482943558756 0.09909633559033934
v -0.7505471005516751 2.1146760090067134 0.14999886315626457
f 65 66 67 68
f 69 72 71 70
f 65 69 70 66
f 66 70 71 67
f 67 71 72 68
f 69 65 68 72
o Cut_10_Vigor
v -0.704967891628516 2.1889985607094973 0.10073613907551149
v -0.6989012746018854 2.1765449409363042 0.15170008363954518
v -0.7365278781063442 2.163867657748811 0.15104871875705533
v -0.7441488424932221 2.17579758152443 0.10005786644182013
v -0.704967891628516 2.1863918333868844 0.10087275186568616
v -0.6989012746018854 2.174041625083892 0.15183127686421422
v -0.7441488424932221 2.1731908542018172 0.10019447923199452
v -0.7365278781063442 2.161364341896399 0.15117991198172412
f 73 74 75 76
f 77 80 79 78
f 73 77 78 74
f 74 78 79 75
f 75 79 80 76
f 77 73 76 80
o Cut_11_Canopy
v -0.6164495519518325 2.039362057535864 0.09388503153566728
v -0.6139300353114073 2.0329351950642347 0.14440908966926336
v -0.639382370213787 2.0467482546937656 0.14279514300694957
v -0.6429381184277102 2.053737483194666 0.0922053768549793
v -0.6164495519518325 2.0367186121199548 0.09402356863957084
v -0.6139300353114073 2.030395161118526 0.1445422072076613
v -0.6429381184277102 2.0510940377787565 0.09234391395888314
v -0.639382370213787 2.044208220748057 0.1429282605453478
f 81 82 83 84
f 85 88 87 86
f 81 85 86 82
f 82 86 87 83
f 83 87 88 84
f 85 81 84 88
o Cut_12_Canopy
v -0.5272384424646256 2.1084973596583803 -0.05745744085193823
v -0.5281066059683293 2.100328121642669 -0.00696053143189826
v -0.5072269006070046 2.1003662816399062 -0.006232395308614615
v -0.505601490953437 2.108536903607665 -0.056702897350466436
v -0.5272384424646256 2.105542562242984 -0.057302586481166075
v -0.5281066059683293 2.0974767356974735 -0.006811096626631729
v -0.505601490953437 2.1055821061922684 -0.056548042979694284
v -0.5072269006070046 2.0975148956947107 -0.006082960503348085
f 89 90 91 92
f 93 96 95 94
f 89 93 94 90
f 90 94 95 91
f 91 95 96 92
f 93 89 92 96
