o Cut_1_Canopy
v -0.6667926733976184 1.9771559001862895 -0.003881774188729965
v -0.6662343624424013 1.964616486960481 0.04611822581127135
v -0.6070948992593682 1.9595611457201276 0.04611822581127135
v -0.6056193631634371 1.9719267022634293 -0.003881774188729965
v -0.6667926733976184 1.974041259173486 -0.003881774188729965
v -0.6662343624424013 1.9616053993341955 0.04611822581127135
v -0.6056193631634371 1.9688120612506257 -0.003881774188729965
v -0.6070948992593682 1.9565500580938422 0.04611822581127135
f 1 2 3 4
f 5 8 7 6
f 1 5 6 2
f 2 6 7 3
f 3 7 8 4
f 5 1 4 8
o Cut_2_Spacing
v -1.118029289511809 2.00999381119383 0.032983727093164925
v -1.1020775479341771 1.9960200803373398 0.08298372709316484
v -1.0806038644073037 1.9750796717347434 0.08298372709316484
v -1.095797898259998 1.9883145116905794 0.032983727093164925
v -1.118029289511809 2.006955521131095 0.032983727093164925
v -1.1020775479341771 1.993085343661123 0.08298372709316484
v -1.095797898259998 1.9852762216278441 0.032983727093164925
v -1.0806038644073037 1.9721449350585265 0.08298372709316484
f 9 10 11 12
f 13 16 15 14
f 9 13 14 10
f 10 14 15 11
f 11 15 16 12
f 13 9 12 16
o Cut_3_Canopy
v -0.20745562507304424 1.3313100595811618 0.12319108609609973
v -0.22352700471250866 1.3410677658868606 0.17319108609610082
v -0.24998314585937545 1.2845524898443488 0.17319108609610082
v -0.23490875006851303 1.2726650391779408 0.12319108609609973
v -0.21126558895790057 1.330014153529872 0.12319108609609973
v -0.22719860648166468 1.3398189217785244 0.17319108609610082
v -0.23871871395336938 1.271369133126651 0.12319108609609973
v -0.25365474762853146 1.2833036457360127 0.17319108609610082
f 17 18 19 20
f 21 24 23 22
f 17 21 22 18
f 18 22 23 19
f 19 23 24 20
f 21 17 20 24
o Cut_4_Canopy
v -0.8952762883153301 1.266986722025768 0.18579958971421387
v -0.8859445194924154 1.2796565277634566 0.23579958971421391
v -0.9333350853733706 1.269765991742431 0.23579958971421391
v -0.9445411838316571 1.256705008469102 0.18579958971421387
v -0.8952762883153301 1.264264923964795 0.18579958971421387
v -0.8859445194924154 1.2770382830890017 0.23579958971421391
v -0.9445411838316571 1.2539832104081292 0.18579958971421387
v -0.9333350853733706 1.2671477470679762 0.23579958971421391
f 25 26 27 28
f 29 32 31 30
f 25 29 30 26
f 26 30 31 27
f 27 31 32 28
f 29 25 28 32
o Cut_5_Canopy
v -0.5385220399062471 1.2108426770175458 0.11614837003906725
v -0.5425498546545992 1.2249033362152892 0.1661483700390673
v -0.48616512491889347 1.2225843460218753 0.1661483700390673
v -0.48002370441150527 1.2084367584828783 0.11614837003906725
v -0.5385220399062471 1.2079766265631233 0.11614837003906725
v -0.5425498546545992 1.222140839147385 0.1661483700390673
v -0.48002370441150527 1.2055707080284557 0.11614837003906725
v -0.48616512491889347 1.2198218489539707 0.1661483700390673
f 33 34 35 36
f 37 40 39 38
f 33 37 38 34
f 34 38 39 35
f 35 39 40 36
f 37 33 36 40
o Cut_6_Spacing
v -0.40587731674349947 1.2602789429084373 0.18636683598246132
v -0.41516920621247005 1.2732095336698865 0.23636683598246155
v -0.41819277866467014 1.2523388820387196 0.23636683598246155
v -0.40902052725753185 1.2385824720353629 0.18636683598246132
v -0.40587731674349947 1.2575583196529059 0.18636683598246132
v -0.41516920621247005 1.270592463800873 0.23636683598246155
v -0.40902052725753185 1.2358618487798312 0.18636683598246132
v -0.41819277866467014 1.249721812169706 0.23636683598246155
f 41 42 43 44
f 45 48 47 46
f 41 45 46 42
f 42 46 47 43
f 43 47 48 44
f 45 41 44 48
