o Cut_1_Canopy
v -0.65064790624766 2.2877372811940644 0.11393080308247763
v -0.630748108629565 2.2801093192490756 0.16393080308247587
v -0.5736355310012021 2.2833014482433667 0.16393080308247587
v -0.591980033815478 2.291016338529609 0.11393080308247763
v -0.65064790624766 2.2838311041430965 0.11393080308247763
v -0.630748108629565 2.276306695584626 0.16393080308247587
v -0.591980033815478 2.2871101614786418 0.11393080308247763
v -0.5736355310012021 2.2794988245789174 0.16393080308247587
f 1 2 3 4
f 5 8 7 6
f 1 5 6 2
f 2 6 7 3
f 3 7 8 4
f 5 1 4 8
o Cut_2_Canopy
v -0.8399657153669182 2.27452344902948 0.1585754469339269
v -0.8144429288427073 2.2670693437669978 0.20857544693392666
v -0.7715784165532054 2.268626599415785 0.20857544693392666
v -0.7959048224590938 2.276124168848894 0.1585754469339269
v -0.8399657153669182 2.270709734059726 0.1585754469339269
v -0.8144429288427073 2.263359182183762 0.20857544693392666
v -0.7959048224590938 2.2723104538791405 0.1585754469339269
v -0.7715784165532054 2.2649164378325497 0.20857544693392666
f 9 10 11 12
f 13 16 15 14
f 9 13 14 10
f 10 14 15 11
f 11 15 16 12
f 13 9 12 16
o Cut_3_Canopy
v -0.6747448839770757 1.563787892810208 0.1028107882094099
v -0.6543266547577068 1.5752841659409753 0.15281078820940994
v -0.6130744158256448 1.5752841659409753 0.15281078820940994
v -0.6323760231345794 1.563787892810208 0.1028107882094099
v -0.6747448839770757 1.5598586854552754 0.1028107882094099
v -0.6543266547577068 1.5714585119725608 0.15281078820940994
v -0.6323760231345794 1.5598586854552754 0.1028107882094099
v -0.6130744158256448 1.5714585119725608 0.15281078820940994
f 17 18 19 20
f 21 24 23 22
f 17 21 22 18
f 18 22 23 19
f 19 23 24 20
f 21 17 20 24
o Cut_4_Vigor
v -0.537157009726385 1.5947765322091665 0.09342307400755562
v -0.5204475604238155 1.6054035219273997 0.1434230740075564
v -0.4582547262047218 1.6054035219273997 0.1434230740075564
v -0.47328924264164 1.5947765322091665 0.09342307400755562
v -0.537157009726385 1.5908278822622886 0.09342307400755562
v -0.5204475604238155 1.6015584253670399 0.1434230740075564
v -0.47328924264164 1.5908278822622886 0.09342307400755562
v -0.4582547262047218 1.6015584253670399 0.1434230740075564
f 25 26 27 28
f 29 32 31 30
f 25 29 30 26
f 26 30 31 27
f 27 31 32 28
f 29 25 28 32
o Cut_5_Vigor
v 0.17363540445377493 1.587386652325982 -0.007015540275863701
v 0.1718009541723473 1.5976659286792008 0.04298445972413489
v 0.2295538955718442 1.5993671298264345 0.04298445972413489
v 0.2328638819492027 1.5891313176438424 -0.007015540275863701
v 0.17363540445377493 1.5832299872061792 -0.007015540275863701
v 0.1718009541723473 1.593612816945916 0.04298445972413489
v 0.2328638819492027 1.5849746525240398 -0.007015540275863701
v 0.2295538955718442 1.59531401809315 0.04298445972413489
f 33 34 35 36
f 37 40 39 38
f 33 37 38 34
f 34 38 39 35
f 35 39 40 36
f 37 33 36 40
o Cut_6_Vigor
v -0.09995300505600166 1.5681815081950872 0.14298223980496036
v -0.0945692922735511 1.5798081738377343 0.19298223980495874
v -0.1205118645766913 1.5279714251896788 0.19298223980495874
v -0.12661340573013527 1.5149104419163502 0.14298223980496036
v -0.10572201953521002 1.5681815081950872 0.14298223980496036
v -0.10018297666914726 1.5798081738377343 0.19298223980495874
v -0.1323824202093436 1.5149104419163502 0.14298223980496036
v -0.12612554897228745 1.5279714251896788 0.19298223980495874
f 41 42 43 44
f 45 48 47 46
f 41 45 46 42
f 42 46 47 43
f 43 47 48 44
f 45 41 44 48
o Cut_7_Canopy
v -0.18481700911986745 2.3690578467393504 0.048439292419976694
v -0.17532572288117684 2.3682518857453276 0.09953179011490655
v -0.1406207998289277 2.3756778172810007 0.09808833524736703
v -0.14891570544929592 2.3767397719433823 0.046946077424044226
v -0.18481700911986745 2.366007482272916 0.049032223207944974
v -0.17532572288117684 2.3653031720980375 0.10010496198522546
v -0.14891570544929592 2.373689407476948 0.047539008212012505
v -0.1406207998289277 2.37272910363371 0.09866150711768594
f 49 50 51 52
f 53 56 55 54
f 49 53 54 50
f 50 54 55 51
f 51 55 56 52
f 53 49 52 56
o Cut_8_Canopy
v -0.2870539336337712 2.3182214458252606 0.0796096038962038
v -0.27397350554011274 2.319122109286966 0.13037036740185054
v -0.23862844861406557 2.3276608709399755 0.12871060027208536
v -0.2504726167354575 2.3270588667580223 0.07789178328331352
v -0.2870539336337712 2.31521356648636 0.08019427641194836
v -0.27397350554011274 2.3162158807672095 0.13093528099994572
v -0.2504726167354575 2.3240509874191217 0.07847645579905806
v -0.23862844861406557 2.3247546424202192 0.12927551387018055
f 57 58 59 60
f 61 64 63 62
f 57 61 62 58
f 58 62 63 59
f 59 63 64 60
f 61 57 60 64
o Cut_9_Canopy
v 0.5439135910887 1.5783142273410857 -0.03567712019089353
v 0.5311123184726498 1.6004196996652098 0.010961846012870848
v 0.5754322764464737 1.6061671503127999 0.009844654779238548
v 0.5895495677426784 1.5842323404342487 -0.03682748484345447
v 0.5439135910887 1.5747892512299706 -0.034991934244711816
v 0.5311123184726498 1.596996374373239 0.011627273041403194
v 0.5895495677426784 1.5807073643231335 -0.036142298897272745
v 0.5754322764464737 1.602743825020829 0.010510081807770895
f 65 66 67 68
f 69 72 71 70
f 65 69 70 66
f 66 70 71 67
f 67 71 72 68
f 69 65 68 72
o Cut_10_Vigor
v 0.259665694047943 2.3156000661879514 0.06455186768983463
v 0.21294617346252825 2.3156169178449373 0.08938482623658173
v 0.20543064305195374 2.2521307787026235 0.09861523633311936
v 0.2519245719445429 2.2502082803623478 0.0740593445701381
v 0.2558967352238501 2.3146245878640688 0.06091133302342338
v 0.20928704959387984 2.314669866899342 0.08585038399026357
v 0.2481556131204502 2.249232802038465 0.07041880990372675
v 0.20177151918330552 2.251183727757028 0.09508079408680112
f 73 74 75 76
f 77 80 79 78
f 73 77 78 74
f 74 78 79 75
f 75 79 80 76
f 77 73 76 80
o Cut_11_Canopy
v -0.6574471764699483 2.2569970145798375 0.1862761105273807
v -0.6919283477195763 2.2599714683009102 0.2229866535444018
v -0.7121771251687327 2.2523506904693305 0.20406555783453414
v -0.6787675144600261 2.2489729469775073 0.16635371488201803
v -0.6574471764699483 2.2550068662026717 0.1868093691778603
v -0.6919283477195763 2.258081344814182 0.2234931106062657
v -0.6787675144600261 2.246982798600342 0.16688697353249765
v -0.7121771251687327 2.2504605669826026 0.20457201489639804
f 81 82 83 84
f 85 88 87 86
f 81 85 86 82
f 82 86 87 83
f 83 87 88 84
f 85 81 84 88
o Cut_12_Canopy
v -0.7171757084313831 2.2476159329924874 0.16933620379592573
v -0.7495983554839786 2.2511651551454834 0.20802387914376555
v -0.7769748069410908 2.248693788772299 0.18034389166996054
v -0.7460467048534648 2.245009648908166 0.14014510061107974
v -0.7171757084313831 2.2456836938684526 0.16985394570879453
v -0.7495983554839786 2.2493329409118865 0.2085148194680186
v -0.7460467048534648 2.2430774097841315 0.14066284252394856
v -0.7769748069410908 2.246861574538702 0.18083483199421357
f 89 90 91 92
f 93 96 95 94
f 89 93 94 90
f 90 94 95 91
f 91 95 96 92
f 93 89 92 96
