# Blender 4.4.1
# www.blender.org
mtllib VigorCuts.mtl
o Cuts_Vigor.003
v -0.457165 1.947599 0.266137
v -0.457140 1.943614 0.266485
v -0.556921 1.947599 0.273113
v -0.556897 1.943614 0.273460
v -0.450216 1.956314 0.365514
v -0.450191 1.952330 0.365861
v -0.549972 1.956314 0.372489
v -0.549948 1.952330 0.372837
v 0.325705 2.080430 -0.020114
v 0.325705 2.084430 -0.020114
v 0.325705 2.080430 -0.120114
v 0.325705 2.084430 -0.120114
v 0.425705 2.080430 -0.020114
v 0.425705 2.084430 -0.020113
v 0.425705 2.080430 -0.120114
v 0.425705 2.084430 -0.120113
v -0.569422 2.584847 0.034544
v -0.569691 2.583812 0.030690
v -0.669178 2.584847 0.041519
v -0.669448 2.583812 0.037665
v -0.567616 2.488255 0.060363
v -0.567886 2.487220 0.056508
v -0.667373 2.488255 0.067338
v -0.667642 2.487220 0.063484
vn -0.0695 -0.0872 -0.9938
vn -0.9976 -0.0000 0.0698
vn 0.0695 0.0872 0.9938
vn 0.9976 -0.0000 -0.0698
vn -0.0061 0.9962 -0.0869
vn 0.0061 -0.9962 0.0869
vn -1.0000 -0.0000 -0.0000
vn -0.0000 -0.0000 -1.0000
vn 1.0000 -0.0000 -0.0000
vn -0.0000 -0.0000 1.0000
vn -0.0000 -1.0000 -0.0000
vn -0.0000 1.0000 -0.0000
vn -0.0181 0.9659 -0.2582
vn 0.0181 -0.9659 0.2582
vn 0.0674 0.2588 0.9636
vn -0.0674 -0.2588 -0.9636
vt 0.375000 0.000000
vt 0.625000 0.000000
vt 0.625000 0.250000
vt 0.375000 0.250000
vt 0.625000 0.500000
vt 0.375000 0.500000
vt 0.625000 0.750000
vt 0.375000 0.750000
vt 0.625000 1.000000
vt 0.375000 1.000000
vt 0.125000 0.500000
vt 0.125000 0.750000
vt 0.875000 0.500000
vt 0.875000 0.750000
s 0
f 1/1/1 2/2/1 4/3/1 3/4/1
f 3/4/2 4/3/2 8/5/2 7/6/2
f 7/6/3 8/5/3 6/7/3 5/8/3
f 5/8/4 6/7/4 2/9/4 1/10/4
f 3/11/5 7/6/5 5/8/5 1/12/5
f 8/5/6 4/13/6 2/14/6 6/7/6
f 9/1/7 10/2/7 12/3/7 11/4/7
f 11/4/8 12/3/8 16/5/8 15/6/8
f 15/6/9 16/5/9 14/7/9 13/8/9
f 13/8/10 14/7/10 10/9/10 9/10/10
f 11/11/11 15/6/11 13/8/11 9/12/11
f 16/5/12 12/13/12 10/14/12 14/7/12
f 17/1/13 18/2/13 20/3/13 19/4/13
f 19/4/2 20/3/2 24/5/2 23/6/2
f 23/6/14 24/5/14 22/7/14 21/8/14
f 21/8/4 22/7/4 18/9/4 17/10/4
f 19/11/15 23/6/15 21/8/15 17/12/15
f 24/5/16 20/13/16 18/14/16 22/7/16
