o Cut_1_Canopy
v -0.7312035041375889 1.2872494897250109 0.1241694736997255
v -0.7282524319457272 1.2986153703438978 0.17416947369972538
v -0.6362529511446696 1.3274284324525119 0.17416947369972538
v -0.6357345195433967 1.3171491560992927 0.1241694736997255
v -0.7300230678769299 1.289988101782126 0.1241694736997255
v -0.7271148947281586 1.3012544566235003 0.17416947369972538
v -0.6345540832827377 1.3198877681564078 0.1241694736997255
v -0.6351154139271011 1.3300675187321143 0.17416947369972538
f 1 2 3 4
f 5 8 7 6
f 1 5 6 2
f 2 6 7 3
f 3 7 8 4
f 5 1 4 8
o Cut_2_Canopy
v -1.1335515569226633 1.9796321524194318 0.03203863836113072
v -1.1170813837437579 1.9667015616579824 0.08203863836113275
v -1.057141157742743 2.0024472601053147 0.08203863836113275
v -1.071497725162612 2.016638311814939 0.03203863836113072
v -1.1313625266782392 1.9822992466743765 0.03203863836113072
v -1.1149669137126208 1.969277812436912 0.08203863836113275
v -1.0693086949181878 2.019305406069884 0.03203863836113072
v -1.055026687711606 2.0050235108842447 0.08203863836113275
f 9 10 11 12
f 13 16 15 14
f 9 13 14 10
f 10 14 15 11
f 11 15 16 12
f 13 9 12 16
o Cut_3_Spacing
v -0.6155368148669157 2.031953041472233 0.010023888663423665
v -0.6167330330686932 2.016959938294831 0.06174100470222647
v -0.5754361086022429 2.0019568820443423 0.06174100470222647
v -0.572754929874121 2.0164105032483444 0.010023888663423665
v -0.6155368148669157 2.0288672000290315 0.010023888663423665
v -0.6167330330686932 2.013981206501765 0.06174100470222647
v -0.572754929874121 2.013324661805143 0.010023888663423665
v -0.5754361086022429 1.9989781502512765 0.06174100470222647
f 17 18 19 20
f 21 24 23 22
f 17 21 22 18
f 18 22 23 19
f 19 23 24 20
f 21 17 20 24
o Cut_4_Spacing
v -0.28268176985456556 1.3039676459006977 0.1128408539004425
v -0.2959217153640003 1.3146380997895575 0.16284085390044375
v -0.3001877187933497 1.263493808102146 0.16284085390044375
v -0.28710729069969126 1.2509109307057107 0.1128408539004425
v -0.2869911207775067 1.3039676459006977 0.1128408539004425
v -0.3000757362033293 1.3146380997895575 0.16284085390044375
v -0.2914166416226325 1.2509109307057107 0.1128408539004425
v -0.3043417396326787 1.263493808102146 0.16284085390044375
f 25 26 27 28
f 29 32 31 30
f 25 29 30 26
f 26 30 31 27
f 27 31 32 28
f 29 25 28 32
o Cut_5_Canopy
v -0.40918109718979995 1.2379574133589006 0.17572671886742158
v -0.4203008701092533 1.2546746697853757 0.23687481811401467
v -0.37899532482188225 1.2722428900824632 0.23687481811401467
v -0.3658759436142816 1.256376114110117 0.17572671886742158
v -0.40918109718979995 1.235214753700165 0.17572671886742158
v -0.4203008701092533 1.2520586519817627 0.23687481811401467
v -0.3658759436142816 1.2536334544513814 0.17572671886742158
v -0.37899532482188225 1.26962687227885 0.23687481811401467
f 33 34 35 36
f 37 40 39 38
f 33 37 38 34
f 34 38 39 35
f 35 39 40 36
f 37 33 36 40
o Cut_6_Canopy
v -0.5068004449136649 1.293300403276083 0.10820956127662508
v -0.5119448815724514 1.304318570529957 0.15820956127662708
v -0.44880339329938657 1.2926546088151623 0.15820956127662708
v -0.44130607475789935 1.2812017998550211 0.10820956127662508
v -0.5068004449136649 1.290417911011015 0.10820956127662508
v -0.5119448815724514 1.301539631651407 0.15820956127662708
v -0.44130607475789935 1.2783193075899533 0.10820956127662508
v -0.44880339329938657 1.2898756699366125 0.15820956127662708
f 41 42 43 44
f 45 48 47 46
f 41 45 46 42
f 42 46 47 43
f 43 47 48 44
f 45 41 44 48
o Cut_7_Canopy
v -0.701736176869077 1.8814355013918778 0.021437837569523624
v -0.6996454757816215 1.8731462607308424 0.07772076573130363
v -0.6183113984372629 1.8777449016538175 0.07747976117281032
v -0.6169769083814401 1.8862278031354434 0.02118668367748902
v -0.701736176869077 1.878581086665866 0.021587431106466482
v -0.6996454757816215 1.8704071952310952 0.07786431407145597
v -0.6169769083814401 1.8833733884094317 0.021336277214432185
v -0.6183113984372629 1.8750058361540702 0.07762330951296295
f 49 50 51 52
f 53 56 55 54
f 49 53 54 50
f 50 54 55 51
f 51 55 56 52
f 53 49 52 56
o Cut_8_Spacing
v -0.2312595552058735 1.3328469608566864 0.1145926093839003
v -0.28079395673558344 1.3447473224397943 0.13841761714709885
v -0.24643755012173937 1.2944916240491045 0.16801081261631137
v -0.19544652088546122 1.2804605436305951 0.14544048404383395
v -0.23342205653018996 1.3310431338512787 0.1129033739577529
v -0.2828685023922425 1.3430168626997914 0.1367970881897368
v -0.19760902220977755 1.2786567166251879 0.1437512486176867
v -0.2485120957783983 1.2927611643091013 0.16639028365894945
f 57 58 59 60
f 61 64 63 62
f 57 61 62 58
f 58 62 63 59
f 59 63 64 60
f 61 57 60 64
