o Cut_1_Vigor
v -0.3350725230517106 2.049493120201184 0.1326083393321624
v -0.2918214747434863 2.0404334244156024 0.16023028959245844
v -0.34267107137538366 1.9045670500990042 0.21345918842920192
v -0.3873602667253711 1.9097841229880272 0.1873426775129488
v -0.33853732205138953 2.0476819774039074 0.13610527973301617
v -0.29519097625886775 2.038672096153685 0.16363104847658627
v -0.39082506572505005 1.9079729801907508 0.1908396179138028
v -0.3460405728907651 1.902805721837087 0.21685994731332997
f 1 2 3 4
f 5 8 7 6
f 1 5 6 2
f 2 6 7 3
f 3 7 8 4
f 5 1 4 8
o Cut_2_Canopy
v 0.46309627215341975 1.8681648730805704 0.4878946563126012
v -0.45394507570859144 2.0435122858562917 -0.2806894111670764
v -0.34380824518179776 2.0072622357344074 -0.3902102716432981
v 0.513518602388675 1.8515690441507962 0.4377543266139188
v 0.46309627215341975 1.866084707310247 0.4879309657411838
v -0.45394507570859144 2.0389686072154025 -0.2806101009613865
v 0.513518602388675 1.8494888783804724 0.4377906360425011
v -0.34380824518179776 2.002718557093518 -0.3901309614376082
f 9 10 11 12
f 13 16 15 14
f 9 13 14 10
f 10 14 15 11
f 11 15 16 12
f 13 9 12 16
o Cut_3_Canopy
v -0.35103129068939287 2.030286228973827 -0.05566901019387225
v -0.33225959976533487 2.0217961934529205 -0.00786344509573337
v -0.3037245182895552 2.0262148907133493 -0.012460775101029517
v -0.3216690533822716 2.0348330124711564 -0.06039960452244396
v -0.35103129068939287 2.02661086829591 -0.05560485653460444
v -0.33225959976533487 2.01822437038984 -0.007801098692255033
v -0.3216690533822716 2.0311576517932397 -0.06033545086317634
v -0.3037245182895552 2.0226430676502685 -0.012398428697551372
f 17 18 19 20
f 21 24 23 22
f 17 21 22 18
f 18 22 23 19
f 19 23 24 20
f 21 17 20 24
o Cut_4_Spacing
v -0.3713166889060608 2.067029165052305 -0.051298902814894826
v -0.3519541723881866 2.057494515157669 -0.0035686957405314064
v -0.3315929535486303 2.0140064441463705 -0.006035000130401646
v -0.35036464447268895 2.022279191913162 -0.053836772456686235
v -0.3767572364439264 2.0670442037573684 -0.050437335978841806
v -0.3572413022135248 2.0575091297870833 -0.0027314241821607874
v -0.35580519201055455 2.0222942306182246 -0.052975205620633216
v -0.3368800833739684 2.0140210587757843 -0.005197728572031026
f 25 26 27 28
f 29 32 31 30
f 25 29 30 26
f 26 30 31 27
f 27 31 32 28
f 29 25 28 32
o Cut_5_Canopy
v 0.17052410569926027 1.3399266222085588 0.03229885032901396
v 0.17499781725298394 1.351944615451536 0.08201136887252945
v 0.2515975741643696 1.3367386000191233 0.07014273315603595
v 0.24956594173175006 1.3242358233473208 0.02005183028536429
v 0.17052410569926027 1.3365754600351778 0.03235734508233546
v 0.17499781725298394 1.3486969908929907 0.08206805637006148
v 0.24956594173175006 1.3208846611739398 0.020110325038685435
v 0.2515975741643696 1.333490975460578 0.07019942065356762
f 33 34 35 36
f 37 40 39 38
f 33 37 38 34
f 34 38 39 35
f 35 39 40 36
f 37 33 36 40
o Cut_6_Spacing
v 1.0347490353646116 1.4875628429714185 0.07753625921186993
v 0.993281873674204 1.493475924475097 0.11370801488617165
v 0.9529613627601331 1.3729215035934206 0.0978577174949043
v 0.9934084395763594 1.3639584671544192 0.06128495875160458
v 1.0294095774556382 1.4859629873164908 0.07518654284474452
v 0.9880741676218601 1.4919155454780002 0.11141627809285301
v 0.9880689816673861 1.3623586114994914 0.05893524238447917
v 0.9477536567077894 1.371361124596324 0.09556598070158566
f 41 42 43 44
f 45 48 47 46
f 41 45 46 42
f 42 46 47 43
f 43 47 48 44
f 45 41 44 48
