o Cut_1_Spacing
v -0.6031035714389669 1.5705180126428244 -0.057462171811782335
v -0.5997935850616082 1.5778851895640533 -0.007462171811781656
v -0.5360699705041958 1.5477457167615354 -0.007462171811781656
v -0.5372663511225182 1.5393788639158918 -0.057462171811782335
v -0.6050297109883549 1.5675590157269645 -0.057462171811782335
v -0.6016578887736883 1.5750211868306978 -0.007462171811781656
v -0.5391924906719061 1.536419867000032 -0.057462171811782335
v -0.5379342742162757 1.5448817140281799 -0.007462171811781656
f 1 2 3 4
f 5 8 7 6
f 1 5 6 2
f 2 6 7 3
f 3 7 8 4
f 5 1 4 8
o Cut_2_Canopy
v -0.4019821028599721 1.4554117314336092 0.001304446028786639
v -0.4052522098833865 1.4669080045643759 0.05130444602878471
v -0.4410714963908868 1.442980791281666 0.05130444602878471
v -0.43903764933973877 1.4306586989089913 0.001304446028786639
v -0.4019821028599721 1.4523078314341407 0.001304446028786639
v -0.4052522098833865 1.4639076579514254 0.05130444602878471
v -0.43903764933973877 1.427554798909523 0.001304446028786639
v -0.4410714963908868 1.4399804446687154 0.05130444602878471
f 9 10 11 12
f 13 16 15 14
f 9 13 14 10
f 10 14 15 11
f 11 15 16 12
f 13 9 12 16
o Cut_3_Canopy
v -0.40581969821941505 1.401916536786082 -0.013865756339577923
v -0.4104858007033075 1.421639325961534 0.06113774898356962
v -0.37146679075346717 1.4228901050492644 0.06113774898356962
v -0.3647667461612114 1.4032325151768716 -0.013865756339577923
v -0.40581969821941505 1.398781218270025 -0.013865756339577923
v -0.4104858007033075 1.418659344785016 0.06113774898356962
v -0.3647667461612114 1.4000971966608147 -0.013865756339577923
v -0.37146679075346717 1.4199101238727465 0.06113774898356962
f 17 18 19 20
f 21 24 23 22
f 17 21 22 18
f 18 22 23 19
f 19 23 24 20
f 21 17 20 24
o Cut_4_Spacing
v -0.2082875683508302 1.9957009719807803 0.042853873040742285
v -0.21829728619079392 1.9889857576189525 0.09285387304074098
v -0.15208031362209606 1.9938785927676628 0.09285387304074098
v -0.13971771389943172 2.0007676638119976 0.042853873040742285
v -0.2082875683508302 1.9926831236588112 0.042853873040742285
v -0.21829728619079392 1.9860714626835014 0.09285387304074098
v -0.13971771389943172 1.9977498154900288 0.042853873040742285
v -0.15208031362209606 1.9909642978322122 0.09285387304074098
f 25 26 27 28
f 29 32 31 30
f 25 29 30 26
f 26 30 31 27
f 27 31 32 28
f 29 25 28 32
o Cut_5_Canopy
v -0.27589937912890256 2.164376926647853 -0.027028445114707544
v -0.2832371802546133 2.1524460118108184 0.022971554885293222
v -0.30562029751093045 2.0908161081061944 0.022971554885293222
v -0.2990402041101572 2.1006607427531465 -0.027028445114707544
v -0.28064324825005976 2.164376926647853 -0.027028445114707544
v -0.28782571929215833 2.1524460118108184 0.022971554885293222
v -0.3037840732313144 2.1006607427531465 -0.027028445114707544
v -0.3102088365484754 2.0908161081061944 0.022971554885293222
f 33 34 35 36
f 37 40 39 38
f 33 37 38 34
f 34 38 39 35
f 35 39 40 36
f 37 33 36 40
o Cut_6_Canopy
v -0.5251723764423971 2.056714713451113 -0.0028886804133611108
v -0.5243349100095714 2.0481740039229623 0.04711131958664058
v -0.498841194761449 2.0418591437722506 0.04711131958664058
v -0.49880131540750494 2.0501825324472676 -0.0028886804133611108
v -0.5251723764423971 2.053602129202781 -0.0028886804133611108
v -0.5243349100095714 2.0451649730611483 0.04711131958664058
v -0.49880131540750494 2.047069948198936 -0.0028886804133611108
v -0.498841194761449 2.0388501129104366 0.04711131958664058
f 41 42 43 44
f 45 48 47 46
f 41 45 46 42
f 42 46 47 43
f 43 47 48 44
f 45 41 44 48
o Cut_7_Vigor
v -0.8410842889007516 2.1649970377229115 0.08862969041171917
v -0.8290008446556949 2.152066446961462 0.13862969041172143
v -0.7681954080196588 2.1248478645072986 0.13862969041172143
v -0.7780456084438468 2.1367787793443336 0.08862969041171917
v -0.8427500679489995 2.1622931645519317 0.08862969041171917
v -0.8306076108765887 2.1494583627252712 0.13862969041172143
v -0.7797113874920949 2.1340749061733537 0.08862969041171917
v -0.7698021742405528 2.122239780271108 0.13862969041172143
f 49 50 51 52
f 53 56 55 54
f 49 53 54 50
f 50 54 55 51
f 51 55 56 52
f 53 49 52 56
o Cut_8_Vigor
v -0.7892166765110802 2.269791303349107 0.10532866919717859
v -0.7788480444856194 2.2529489372312526 0.15532866919717936
v -0.6630188567762082 2.237753230949946 0.15532866919717936
v -0.6690805185757084 2.254030562849653 0.10532866919717859
v -0.7892166765110802 2.266902844561418 0.10532866919717859
v -0.7788480444856194 2.2501640318300824 0.15532866919717936
v -0.6690805185757084 2.2511421040619646 0.10532866919717859
v -0.6630188567762082 2.234968325548776 0.15532866919717936
f 57 58 59 60
f 61 64 63 62
f 57 61 62 58
f 58 62 63 59
f 59 63 64 60
f 61 57 60 64
o Cut_9_Vigor
v -0.5863878413467452 1.3877696673245552 0.08005801500647632
v -0.5755726017527348 1.4013956848160316 0.12896830562580403
v -0.43960886179290876 1.4013956848160316 0.10743376476783621
v -0.44577627338223696 1.3877696673245552 0.057787330511262225
v -0.5863878413467452 1.384636848289151 0.08005801500647632
v -0.5755726017527348 1.3983664191671457 0.12896830562580403
v -0.44577627338223696 1.384636848289151 0.057787330511262225
v -0.43960886179290876 1.3983664191671457 0.10743376476783621
f 65 66 67 68
f 69 72 71 70
f 65 69 70 66
f 66 70 71 67
f 67 71 72 68
f 69 65 68 72
o Cut_10_Spacing
v -0.4677651184094964 1.974996020607896 0.06604263502151926
v -0.46084932773466863 1.969193553829229 0.11557053767548575
v -0.4195025478671411 1.9451135723853687 0.10902185108694556
v -0.4250003571168117 1.9500902199221284 0.05926936223856496
v -0.4677651184094964 1.9718729642850625 0.06604263502151926
v -0.46084932773466863 1.9661740508929135 0.11557053767548575
v -0.4250003571168117 1.9469671635992944 0.05926936223856496
v -0.4195025478671411 1.9420940694490532 0.10902185108694556
f 73 74 75 76
f 77 80 79 78
f 73 77 78 74
f 74 78 79 75
f 75 79 80 76
f 77 73 76 80
o Cut_11_Canopy
v -0.24413521737066218 2.1899496366106415 -0.0007111033544150722
v -0.24462444080498888 2.1772798308729526 0.049989638314825315
v -0.17776903497198554 2.187633994327442 0.039400782279295485
v -0.17503467428115987 2.2006515134301448 -0.011655554197767254
v -0.24413521737066218 2.1867624839203335 -0.0007111033544150722
v -0.24462444080498888 2.1741962315691628 0.049989638314825315
v -0.17503467428115987 2.1974643607398363 -0.011655554197767254
v -0.17776903497198554 2.184550395023652 0.039400782279295485
f 81 82 83 84
f 85 88 87 86
f 81 85 86 82
f 82 86 87 83
f 83 87 88 84
f 85 81 84 88
