o Cut_1_Vigor
v 0.6215075247951717 1.3262090897716048 0.020933026644011882
v 0.6173999513389316 1.3422256366475505 0.07093302664401148
v 0.592324233577218 1.2813546900959356 0.07093302664401148
v 0.5955544612466883 1.2632083988592806 0.020933026644011882
v 0.6173157631201666 1.3249544128386344 0.020933026644011882
v 0.6133498925668549 1.341013374187879 0.07093302664401148
v 0.5913626995716832 1.2619537219263104 0.020933026644011882
v 0.5882741748051413 1.280142427636264 0.07093302664401148
f 1 2 3 4
f 5 8 7 6
f 1 5 6 2
f 2 6 7 3
f 3 7 8 4
f 5 1 4 8
o Cut_2_Spacing
v 0.5464768602110612 2.0576048081617206 0.02465564552537106
v 0.5445227718678014 2.0548146358704207 0.07553915729408456
v 0.5308933519082704 2.0204912425395727 0.08036299564262042
v 0.5322492499423691 2.0217749735201633 0.02969120039314415
v 0.5427824240779575 2.0576048081617206 0.02465564552537106
v 0.5409836658183098 2.0548146358704207 0.07553915729408456
v 0.5285548138092653 2.0217749735201633 0.02969120039314415
v 0.5273542458587788 2.0204912425395727 0.08036299564262042
f 9 10 11 12
f 13 16 15 14
f 9 13 14 10
f 10 14 15 11
f 11 15 16 12
f 13 9 12 16
o Cut_3_Canopy
v 0.24718001770460668 2.091255282145423 0.016189810138955322
v 0.25810696068528477 2.0878510576295635 0.06735224262304017
v 0.3216700951037501 2.026079383010492 0.077135914735491
v 0.3136144656070458 2.0266932189798443 0.026415436379632683
v 0.24477172140625333 2.0894987434752528 0.01646801853313846
v 0.2558027515563623 2.086170437000832 0.06761842678071958
v 0.3112061693086925 2.0249366803096738 0.02669364477381608
v 0.3193658859748276 2.02439876238176 0.07740209889317066
f 17 18 19 20
f 21 24 23 22
f 17 21 22 18
f 18 22 23 19
f 19 23 24 20
f 21 17 20 24
o Cut_4_Canopy
v 0.7121987006607674 1.9150482541227956 0.0020181562742062707
v 0.7017796305314181 1.919832731053049 0.060837276221032834
v 0.7363184862079672 1.882652579591353 0.06672603370147516
v 0.7485210007738716 1.875948272574787 0.008210984968387285
v 0.7095661168271448 1.913314805926854 0.002292707496552047
v 0.6992763079774287 1.9181843960941956 0.06109834683095834
v 0.7458884169402491 1.8742148243788455 0.008485536190733061
v 0.7338151636539778 1.8810042446324995 0.06698710431140042
f 25 26 27 28
f 29 32 31 30
f 25 29 30 26
f 26 30 31 27
f 27 31 32 28
f 29 25 28 32
o Cut_5_Canopy
v 0.6205901607887778 1.4835052238699944 -0.035907601938995844
v 0.6159641557312646 1.5037978374721646 0.011501620102302068
v 0.68694221656678 1.5005694158599805 0.01201295185247943
v 0.6943996557543228 1.480148015094125 -0.03537587230597726
v 0.6205901607887778 1.480839040567158 -0.03548531998877354
v 0.6159641557312646 1.5012339326418214 0.011907702733901303
v 0.6943996557543228 1.4774818317912892 -0.03495359035575495
v 0.68694221656678 1.4980055110296375 0.012419034484078667
f 33 34 35 36
f 37 40 39 38
f 33 37 38 34
f 34 38 39 35
f 35 39 40 36
f 37 33 36 40
