o Cut_1_Canopy
v -0.6833411103304781 1.5648965562188724 0.10763262653933475
v -0.6626437256335006 1.5763928293496396 0.15763262653933519
v -0.5788851661708618 1.553971277784025 0.15763262653933519
v -0.5973094276930268 1.5418665062644836 0.10763262653933475
v -0.6833411103304781 1.5609773352177059 0.10763262653933475
v -0.6626437256335006 1.5725771617349915 0.15763262653933519
v -0.5973094276930268 1.5379472852633174 0.10763262653933475
v -0.5788851661708618 1.5501556101693768 0.15763262653933519
f 1 2 3 4
f 5 8 7 6
f 1 5 6 2
f 2 6 7 3
f 3 7 8 4
f 5 1 4 8
o Cut_2_Vigor
v -0.5054204295966952 1.7913096218216433 0.007703433248117938
v -0.4902263957440003 1.7965470543821631 0.057703433248120085
v -0.32446727672928116 1.7036847140586693 0.057703433248120085
v -0.3353942197099594 1.6960567521136796 0.007703433248117938
v -0.5082499182949889 1.787639860812641 0.007703433248117938
v -0.4929848737116248 1.7929693921367247 0.057703433248120085
v -0.3382237084082531 1.6923869911046774 0.007703433248117938
v -0.3272257546969057 1.7001070518132306 0.057703433248120085
f 9 10 11 12
f 13 16 15 14
f 9 13 14 10
f 10 14 15 11
f 11 15 16 12
f 13 9 12 16
o Cut_3_Canopy
v -0.6507372060727475 2.3041253343228814 0.08297252191652753
v -0.6284799767530314 2.2951088805582285 0.13980695059111556
v -0.5513293478504698 2.320981439949635 0.13980695059111556
v -0.5712293960609698 2.330788377332011 0.08297252191652753
v -0.6507372060727475 2.3001550405748032 0.08297252191652753
v -0.6284799767530314 2.291256294761352 0.13980695059111556
v -0.5712293960609698 2.3268180835839325 0.08297252191652753
v -0.5513293478504698 2.317128854152758 0.13980695059111556
f 17 18 19 20
f 21 24 23 22
f 17 21 22 18
f 18 22 23 19
f 19 23 24 20
f 21 17 20 24
o Cut_4_Canopy
v -0.28352937309891685 2.3114056445532407 0.06882703142232545
v -0.2733494231301903 2.3031400615134943 0.12008580214497198
v -0.19688026417581395 2.3031400615134943 0.12008580214497198
v -0.20497516415094585 2.3114056445532407 0.06882703142232545
v -0.28352937309891685 2.3074060545362696 0.06882703142232545
v -0.2733494231301903 2.2992466318824647 0.12008580214497198
v -0.20497516415094585 2.3074060545362696 0.06882703142232545
v -0.19688026417581395 2.2992466318824647 0.12008580214497198
f 25 26 27 28
f 29 32 31 30
f 25 29 30 26
f 26 30 31 27
f 27 31 32 28
f 29 25 28 32
o Cut_5_Canopy
v -0.14096894985010014 2.3786955459839607 0.0508230044177063
v -0.1347876499887676 2.3689813038488885 0.10082300441770779
v -0.19083373417963484 2.360726688550256 0.10082300441770779
v -0.1984905701368983 2.3702236098321947 0.0508230044177063
v -0.14096894985010014 2.374658668407644 0.0508230044177063
v -0.1347876499887676 2.3650479796590904 0.10082300441770779
v -0.1984905701368983 2.3661867322558776 0.0508230044177063
v -0.19083373417963484 2.3567933643604575 0.10082300441770779
f 33 34 35 36
f 37 40 39 38
f 33 37 38 34
f 34 38 39 35
f 35 39 40 36
f 37 33 36 40
o Cut_6_Vigor
v 0.10774906175828809 1.92887873343731 0.18514492667204757
v 0.08396665147228488 1.9307694248595721 0.2291755671646772
v 0.25589871764987293 1.860743095981898 0.31303243885894916
v 0.28437660362814665 1.8569399810520602 0.27129193488025866
v 0.1060769523376944 1.9251861369167924 0.18432938441597602
v 0.08233899349485853 1.9271749925156032 0.22838170532604718
v 0.28270449420755295 1.8532473845315425 0.27047639262418716
v 0.2542710596724466 1.8571486636379289 0.3122385770203191
f 41 42 43 44
f 45 48 47 46
f 41 45 46 42
f 42 46 47 43
f 43 47 48 44
f 45 41 44 48
o Cut_7_Vigor
v -0.04894982312731647 1.5395747152572992 0.17971177851008768
v -0.06925543080148608 1.5522445209949876 0.22543816894052063
v -0.10345676261078735 1.5015552214849859 0.20875706484477025
v -0.08411892473578801 1.4874510981166158 0.1625586615450521
v -0.05287647114143088 1.5371917355706415 0.17779662430977655
v -0.07307402682717219 1.5499271152259824 0.22357571521622532
v -0.08804557274990242 1.4850681184299586 0.160643507344741
v -0.10727535863647347 1.499237815715981 0.20689461112047494
f 49 50 51 52
f 53 56 55 54
f 49 53 54 50
f 50 54 55 51
f 51 55 56 52
f 53 49 52 56
o Cut_8_Canopy
v 0.546625187153857 1.6366151576077472 0.006974910132990532
v 0.5723251686113555 1.647720253202874 0.05088490675730567
v 0.5847370238975095 1.5774021824136237 0.04009544556535772
v 0.5594283077361819 1.5640804141165343 -0.00415467279188661
v 0.5427891752563064 1.6366151576077472 0.010309504401636345
v 0.5686063858160039 1.647720253202874 0.05411759532212385
v 0.5555922958386316 1.5640804141165343 -0.0008200785232406163
v 0.5810182411021579 1.5774021824136237 0.043328134130176076
f 57 58 59 60
f 61 64 63 62
f 57 61 62 58
f 58 62 63 59
f 59 63 64 60
f 61 57 60 64
o Cut_9_Spacing
v 0.9151277085893131 2.171574781448336 0.6576096399311422
v 0.35652311000216214 2.3744325825309693 -0.27194151978102216
v 0.40636196570912786 2.3607233804245724 -0.3152657760750239
v 0.9379651729941384 2.165292867253431 0.6377573349986775
v 0.9151277085893131 2.169703948877166 0.6576096399311422
v 0.35652311000216214 2.370349810778658 -0.27194151978102216
v 0.9379651729941384 2.163422034682261 0.6377573349986775
v 0.40636196570912786 2.3566406086722607 -0.3152657760750239
f 65 66 67 68
f 69 72 71 70
f 65 69 70 66
f 66 70 71 67
f 67 71 72 68
f 69 65 68 72
o Cut_10_Spacing
v 0.3926251044229078 2.3039152607396267 0.08180474184360893
v 0.3535193034703544 2.2970696538659183 0.1134096190097119
v 0.31191307319872386 2.2480295840213858 0.0718033887380814
v 0.35006010945676863 2.2537451224587994 0.03923974687746971
v 0.38966305879194385 2.3002633425342753 0.07884269621264495
v 0.3506239770948902 2.293499994104279 0.11051429263424768
v 0.3470980638258044 2.250093204253448 0.03627770124650547
v 0.3090177468232594 2.2444599242597465 0.06890806236261693
f 73 74 75 76
f 77 80 79 78
f 73 77 78 74
f 74 78 79 75
f 75 79 80 76
f 77 73 76 80
o Cut_11_Vigor
v 0.9753808584413874 2.4623951140790465 0.24457615088558207
v 0.9418681022270654 2.450724984265772 0.28815432686842163
v 1.0274107813338047 2.3684697729844957 0.30790341045782904
v 1.0631384007232336 2.378010158437061 0.264836575929817
v 0.9714716492210272 2.4592837381501287 0.24367363882414605
v 0.9380575553361281 2.447692134601261 0.28727459280051176
v 1.0592291915028738 2.3748987825081427 0.26393406386838103
v 1.0236002344428676 2.365436923319984 0.3070236763899191
f 81 82 83 84
f 85 88 87 86
f 81 85 86 82
f 82 86 87 83
f 83 87 88 84
f 85 81 84 88
