o Cut_1_Canopy
v 0.20072700769792648 1.3286389277689026 0.03312807508847896
v 0.21673948679201488 1.340309057582176 0.08064919983821954
v 0.25633956611303405 1.3389694265117187 0.06383996344654416
v 0.2416119068789782 1.3272558325278183 0.015773465022853823
v 0.20072700769792648 1.3253437033570195 0.03312807508847896
v 0.21673948679201488 1.3371173865568113 0.08064919983821954
v 0.2416119068789782 1.3239606081159352 0.015773465022853823
v 0.25633956611303405 1.335777755486354 0.06383996344654416
f 1 2 3 4
f 5 8 7 6
f 1 5 6 2
f 2 6 7 3
f 3 7 8 4
f 5 1 4 8
o Cut_2_Canopy
v -0.29247014271343524 2.0043497211291306 0.15936415045942803
v -0.2804330039564833 1.9945050864821787 0.20916165782307064
v -0.30428941759245204 1.9073887915845809 0.20957807307204088
v -0.3171240219519103 1.9143213267995425 0.15979448552226808
v -0.2970708808483542 2.003434011906692 0.15944445664229084
v -0.2848849245210212 1.9936189972071618 0.20923936638557997
v -0.32172476008682926 1.9134056175771037 0.15987479170513086
v -0.30874133815698995 1.906502702309564 0.2096557816345502
f 9 10 11 12
f 13 16 15 14
f 9 13 14 10
f 10 14 15 11
f 11 15 16 12
f 13 9 12 16
o Cut_3_Spacing
v -0.45811992101465865 2.1433523273843003 -0.11027626586871565
v -0.4393122816510101 2.1278471226014655 -0.047005684558664385
v -0.33156730235266796 2.1568278546136863 -0.04888638016800633
v -0.3464702573557319 2.1733833228220956 -0.1122251179970958
v -0.45811992101465865 2.139586598614271 -0.11027626586871565
v -0.4393122816510101 2.1242130913373014 -0.047005684558664385
v -0.3464702573557319 2.169617594052067 -0.1122251179970958
v -0.33156730235266796 2.1531938233495223 -0.04888638016800633
f 17 18 19 20
f 21 24 23 22
f 17 21 22 18
f 18 22 23 19
f 19 23 24 20
f 21 17 20 24
o Cut_4_Canopy
v 0.2749621412171436 1.8473609939910078 0.6436946824040739
v -0.2740091299241918 2.0223991897411193 -0.41227141993216304
v -0.10820152040525008 2.0223991897411193 -0.48609372393243266
v 0.3507488520013854 1.8473609939910078 0.6099522647977477
v 0.2749621412171436 1.8452896809043788 0.6436946824040739
v -0.2740091299241918 2.0178675315136374 -0.41227141993216304
v 0.3507488520013854 1.8452896809043788 0.6099522647977477
v -0.10820152040525008 2.0178675315136374 -0.48609372393243266
f 25 26 27 28
f 29 32 31 30
f 25 29 30 26
f 26 30 31 27
f 27 31 32 28
f 29 25 28 32
o Cut_5_Canopy
v 0.391513173272224 1.359177471597478 -0.05451558553938985
v 0.40237778873718655 1.3698913896569642 -0.004621010073937052
v 0.4652378551252836 1.3752481216706443 -0.03260811479031694
v 0.45641340940868386 1.364708060293665 -0.08341103235063953
v 0.391513173272224 1.3558833147053118 -0.05451558553938985
v 0.40237778873718655 1.366700786151316 -0.004621010073937052
v 0.45641340940868386 1.3614139034014987 -0.08341103235063953
v 0.4652378551252836 1.372057518164996 -0.03260811479031694
f 33 34 35 36
f 37 40 39 38
f 33 37 38 34
f 34 38 39 35
f 35 39 40 36
f 37 33 36 40
