o Cut_1_Spacing
v 0.5106154230769123 2.0204662958962745 0.021175324650195324
v 0.5102565088914156 2.013012190633792 0.0711753246501941
v 0.5980066405179723 2.0316429944793133 0.0711753246501941
v 0.6014362649571631 2.0397490623011962 0.021175324650195324
v 0.5106154230769123 2.0174035498322924 0.021175324650195324
v 0.5102565088914156 2.010052997956328 0.0711753246501941
v 0.6014362649571631 2.036686316237214 0.021175324650195324
v 0.5980066405179723 2.0286838018018494 0.0711753246501941
f 1 2 3 4
f 5 8 7 6
f 1 5 6 2
f 2 6 7 3
f 3 7 8 4
f 5 1 4 8
o Cut_2_Spacing
v 0.6872677664824804 1.9072508171560085 0.004503955584339843
v 0.6810067079132599 1.9036650230793042 0.05450395558434002
v 0.7582516087424854 1.9287959377651962 0.05450395558434002
v 0.7671845840259593 1.9332510152544349 0.004503955584339843
v 0.6885966619414527 1.910218683607773 0.004503955584339843
v 0.6822911734500023 1.9065336627072051 0.05450395558434002
v 0.7685134794849316 1.9362188817061994 0.004503955584339843
v 0.7595360742792279 1.9316645773930972 0.05450395558434002
f 9 10 11 12
f 13 16 15 14
f 9 13 14 10
f 10 14 15 11
f 11 15 16 12
f 13 9 12 16
o Cut_3_Spacing
v 0.21077003920623688 1.4957972504787886 0.007690528403845436
v 0.22046072221464783 1.5059895984907539 0.057690528403843436
v 0.28027982692591663 1.5097509255889532 0.057690528403843436
v 0.27266287032259773 1.4996889700888683 0.007690528403845436
v 0.21077003920623688 1.4927065764884508 0.007690528403845436
v 0.22046072221464783 1.5030024778869342 0.057690528403843436
v 0.27266287032259773 1.49659829609853 0.007690528403845436
v 0.28027982692591663 1.5067638049851333 0.057690528403843436
f 17 18 19 20
f 21 24 23 22
f 17 21 22 18
f 18 22 23 19
f 19 23 24 20
f 21 17 20 24
o Cut_4_Spacing
v 0.5305738351880613 1.2521067195341138 0.025657236509802856
v 0.5295369719855153 1.2706876524770367 0.07565723650980322
v 0.6101956262536532 1.3585968376796809 0.07565723650980322
v 0.6140639235862289 1.3431018608512553 0.025657236509802856
v 0.5338125226228173 1.254265844437311 0.025657236509802856
v 0.5326658244648268 1.272773554078412 0.07565723650980322
v 0.6173026110209849 1.3452609857544526 0.025657236509802856
v 0.6133244787329647 1.3606827392810563 0.07565723650980322
f 25 26 27 28
f 29 32 31 30
f 25 29 30 26
f 26 30 31 27
f 27 31 32 28
f 29 25 28 32
