o Cut_1_Canopy
v -0.8324241689410895 2.1568168013558164 0.0966757414532921
v -0.8205800008196981 2.1441035314475014 0.14667574145329143
v -0.7504193945796968 2.107634439225715 0.14667574145329143
v -0.759671404694723 2.1190003198446017 0.0966757414532921
v -0.8343008438261157 2.1541934924415145 0.0966757414532921
v -0.8223898103714415 2.1415736902010716 0.14667574145329143
v -0.7615480795797492 2.1163770109303 0.0966757414532921
v -0.7522292041314402 2.1051045979792855 0.14667574145329143
f 1 2 3 4
f 5 8 7 6
f 1 5 6 2
f 2 6 7 3
f 3 7 8 4
f 5 1 4 8
o Cut_2_Canopy
v -0.5508988942154419 2.0625119625371613 -0.0044827151386755155
v -0.5487454091024617 2.0603956096581513 0.04647573851699554
v -0.5243727045512309 2.0506783642758815 0.04801479898836234
v -0.525449447107721 2.052365426609275 -0.0028756617245043747
v -0.5508988942154419 2.0600945503523422 -0.004099834662749259
v -0.5487454091024617 2.0580804759458253 0.0468424196742986
v -0.525449447107721 2.0499480144244564 -0.002492781248578119
v -0.5243727045512309 2.048363230563556 0.04838148014566565
f 9 10 11 12
f 13 16 15 14
f 9 13 14 10
f 10 14 15 11
f 11 15 16 12
f 13 9 12 16
o Cut_3_Vigor
v -0.5325302880285812 1.3961849366182626 0.013780870539498715
v -0.531453545472091 1.4086755131744741 0.06400651076647551
v -0.45456710098475744 1.390902911360332 0.06369628884786631
v -0.4530118061809383 1.377803929092598 0.013460028859692193
v -0.5325302880285812 1.3930568830161272 0.01372627016077436
v -0.531453545472091 1.4056509971871747 0.06395371764354063
v -0.4530118061809383 1.3746758754904627 0.013405428480967837
v -0.45456710098475744 1.387878395373032 0.06364349572493143
f 17 18 19 20
f 21 24 23 22
f 17 21 22 18
f 18 22 23 19
f 19 23 24 20
f 21 17 20 24
o Cut_4_Vigor
v -0.2475998063373154 2.0670746872688 -0.0077625725274519065
v -0.2573702480536148 2.062423953585183 0.0430016532579642
v -0.16824095142024872 2.087112950065513 0.04040673516342221
v -0.1548813678489822 2.092757883344232 -0.01046198521013861
v -0.2466062816501284 2.0696522925660217 -0.008033489761033153
v -0.2564151828260225 2.064901779472735 0.042741223262931526
v -0.1538878431617952 2.095335488641454 -0.010732902443719857
v -0.16728588619265644 2.0895907759530647 0.040146305168389546
f 25 26 27 28
f 29 32 31 30
f 25 29 30 26
f 26 30 31 27
f 27 31 32 28
f 29 25 28 32
o Cut_5_Canopy
v -0.6344430708832118 1.5979081356435834 -0.0721072920150753
v -0.6296575484099222 1.6103316993541235 -0.023137647199969375
v -0.4848732860188424 1.6056470813539798 -0.022645274007552518
v -0.4843149750636253 1.5930506133660307 -0.07159674585080704
v -0.6344430708832118 1.5950148739370158 -0.07180319795598304
v -0.6296575484099222 1.6075414237577876 -0.022844377417236012
v -0.4843149750636253 1.5901573516594634 -0.07129265179171491
v -0.4848732860188424 1.6028568057576444 -0.022352004224819155
f 33 34 35 36
f 37 40 39 38
f 33 37 38 34
f 34 38 39 35
f 35 39 40 36
f 37 33 36 40
o Cut_6_Canopy
v -0.40380686884644396 1.4381518866018719 -0.02095598546501981
v -0.407316251993523 1.4567135521604377 0.027368518849366752
v -0.3557082559444618 1.453288715984462 0.027728483636552913
v -0.35024478445412277 1.4345973722178393 -0.020582390948945206
v -0.40380686884644396 1.4353290097618856 -0.020659289153503856
v -0.407316251993523 1.4539936614306834 0.027654390884523653
v -0.35024478445412277 1.431774495377853 -0.02028569463742925
v -0.3557082559444618 1.4505688252547078 0.028014355671709814
f 41 42 43 44
f 45 48 47 46
f 41 45 46 42
f 42 46 47 43
f 43 47 48 44
f 45 41 44 48
o Cut_7_Canopy
v -0.7704139155172152 2.060729453725244 0.11612786261738414
v -0.7587963822201962 2.05584048761111 0.16714544538316056
v -0.7373787505881799 1.9600785269160916 0.17721043302955217
v -0.7480348328537215 1.9606686780413216 0.12664467392573311
v -0.773943615452736 2.060162122204712 0.1161874915629916
v -0.7621744390479614 2.0552975298097254 0.1672025125476565
v -0.7515645327892424 1.9601013465207904 0.12670430287134057
v -0.7407568074159452 1.9595355691147072 0.17726750019404813
f 49 50 51 52
f 53 56 55 54
f 49 53 54 50
f 50 54 55 51
f 51 55 56 52
f 53 49 52 56
o Cut_8_Spacing
v -0.481611929487283 1.9688962412647768 0.061195192044635804
v -0.48244939592010866 1.971821532025685 0.11145071495135704
v -0.38717468805784105 1.957469033894436 0.11398144761246422
v -0.38179097527539035 1.953858881498145 0.06384668429011314
v -0.481611929487283 1.966657084412027 0.06159001581181387
v -0.48244939592010866 1.9696843553508288 0.11182755686167499
v -0.38179097527539035 1.951619724645395 0.0642415080572912
v -0.38717468805784105 1.9553318572195797 0.11435828952278217
f 57 58 59 60
f 61 64 63 62
f 57 61 62 58
f 58 62 63 59
f 59 63 64 60
f 61 57 60 64
o Cut_9_Spacing
v -0.25961962795308535 1.548904423887623 0.0036956820867607384
v -0.2760304222855576 1.5686139569487503 0.04951990042074308
v -0.201116042200419 1.5699812312049997 0.057274098052641116
v -0.18145305483296334 1.5503310544357891 0.011786505977885432
v -0.25961962795308535 1.5464533267521248 0.00412787664408629
v -0.2760304222855576 1.5662648399911459 0.04993411312120851
v -0.18145305483296334 1.5478799573002908 0.012218700535210982
v -0.201116042200419 1.5676321142473952 0.057688310753106556
f 65 66 67 68
f 69 72 71 70
f 65 69 70 66
f 66 70 71 67
f 67 71 72 68
f 69 65 68 72
