o Cut_1_Vigor
v 0.14067757709295764 1.6206020087976751 0.03843086565943183
v 0.13964071389041163 1.6302727867621194 0.08843086565942786
v 0.29058035524236364 1.6236260054005396 0.08843086565942786
v 0.2955652744853732 1.6137813707535884 0.03843086565943183
v 0.14067757709295764 1.616539466262666 0.03843086565943183
v 0.13964071389041163 1.6263137976136284 0.08843086565942786
v 0.2955652744853732 1.6097188282185793 0.03843086565943183
v 0.29058035524236364 1.6196670162520486 0.08843086565942786
f 1 2 3 4
f 5 8 7 6
f 1 5 6 2
f 2 6 7 3
f 3 7 8 4
f 5 1 4 8
o Cut_2_Vigor
v 0.8823599858627149 2.380781921956897 0.11599074496671243
v 0.8521547402677911 2.3717196423812257 0.15999041287463878
v 1.0029382653528829 2.2950580374776632 0.19758496804575948
v 1.0368195137841727 2.3022513577163854 0.15450183058347017
v 0.8797485921682154 2.3768179359516757 0.1153396513922258
v 0.8496054954789436 2.367849995805851 0.15935481476267724
v 1.0342081200896736 2.2982873717111643 0.15385073700898327
v 1.0003890205640358 2.2911883909022888 0.19694936993379772
f 9 10 11 12
f 13 16 15 14
f 9 13 14 10
f 10 14 15 11
f 11 15 16 12
f 13 9 12 16
o Cut_3_Canopy
v -0.6762695574233238 1.5518749427453844 0.09467002496473861
v -0.6679735101531515 1.5647186051655795 0.14826914332959662
v -0.6050265600874332 1.5720837725908658 0.16396358067455158
v -0.6114652585560734 1.5594574310238043 0.11082755137696276
v -0.6762695574233238 1.5482618870807172 0.09467002496473861
v -0.6679735101531515 1.5612091028874306 0.14826914332959662
v -0.6114652585560734 1.5558443753591369 0.11082755137696276
v -0.6050265600874332 1.5685742703127166 0.16396358067455158
f 17 18 19 20
f 21 24 23 22
f 17 21 22 18
f 18 22 23 19
f 19 23 24 20
f 21 17 20 24
o Cut_4_Canopy
v -0.6309823373464886 2.291143604533599 0.10141527295637186
v -0.6240019121440677 2.282820215858582 0.154686369898583
v -0.5753539972369824 2.282820215858582 0.1668156573648517
v -0.5809027160715554 2.291143604533599 0.11390152491199391
v -0.6309823373464886 2.287521413213488 0.10141527295637186
v -0.6240019121440677 2.2793015779249894 0.154686369898583
v -0.5809027160715554 2.287521413213488 0.11390152491199391
v -0.5753539972369824 2.2793015779249894 0.1668156573648517
f 25 26 27 28
f 29 32 31 30
f 25 29 30 26
f 26 30 31 27
f 27 31 32 28
f 29 25 28 32
o Cut_5_Spacing
v -0.27697822655739873 2.2204219790619044 0.00486791125242577
v -0.2806700090911211 2.213013205330949 0.07074415573347403
v -0.21289033625888212 2.2535100124280874 0.08764352619410053
v -0.20684112119513395 2.2623272982751943 0.022355055657601146
v -0.27424863586948983 2.2239477978596223 0.00554847464722149
v -0.27803216478835446 2.2164205151042955 0.07140184418529415
v -0.20411153050722505 2.265853117072912 0.02303561905239687
v -0.2102524919561155 2.256917322201434 0.08830121464592064
f 33 34 35 36
f 37 40 39 38
f 33 37 38 34
f 34 38 39 35
f 35 39 40 36
f 37 33 36 40
o Cut_6_Canopy
v 0.556635855314826 1.6119882706367643 -0.044073062602885994
v 0.5599278062460502 1.6223110111606103 0.007205074819940995
v 0.6938815868749718 1.63662343600084 -0.033748705815702995
v 0.6942507702645274 1.6266918730126345 -0.08614616432933371
v 0.556635855314826 1.6080959003411521 -0.044073062602885994
v 0.5599278062460502 1.6185221942515162 0.007205074819940995
v 0.6942507702645274 1.6227995027170221 -0.08614616432933371
v 0.6938815868749718 1.632834619091746 -0.033748705815702995
f 41 42 43 44
f 45 48 47 46
f 41 45 46 42
f 42 46 47 43
f 43 47 48 44
f 45 41 44 48
o Cut_7_Spacing
v 0.2586151820287647 2.2240301707242516 0.10371128873937979
v 0.20560896346328877 2.2159386568082846 0.1576229991900219
v 0.2781169980613835 2.280632829293358 0.21846446427867272
v 0.33384019088075956 2.2911485214675498 0.16683256592239634
v 0.2612536301099848 2.227691624906056 0.10592520955121189
v 0.20815211616845872 2.2194678667152714 0.1597569576869574
v 0.33647863896197966 2.294809975649354 0.16904648673422842
v 0.2806601507665535 2.284162039200345 0.2205984227756082
f 49 50 51 52
f 53 56 55 54
f 49 53 54 50
f 50 54 55 51
f 51 55 56 52
f 53 49 52 56
o Cut_8_Canopy
v -0.5033038563631453 1.8719540202626306 -0.030472626203112144
v -0.4908669173199579 1.8751486368036945 0.02024778345311507
v -0.28541934958576354 1.72226941656332 0.031014834237166562
v -0.29259942813978645 1.7151630246658516 -0.019430075034822778
v -0.5068063337113426 1.8685246760318617 -0.030656183262920175
v -0.49428201143211603 1.871804851212307 0.020068805954654413
v -0.2961019054879836 1.711733680435083 -0.019613632094631253
v -0.2888344436979215 1.718925630971933 0.03083585673870547
f 57 58 59 60
f 61 64 63 62
f 57 61 62 58
f 58 62 63 59
f 59 63 64 60
f 61 57 60 64
o Cut_9_Spacing
v -0.3303808711307075 2.181727032027281 0.6769349915035898
v 0.6405684839396327 2.3963468401294556 -0.4575967726369301
v 0.7565799902958249 2.4921406383480553 -0.3669586502114445
v -0.2771890083565806 2.2256489733027562 0.7184930293361329
v -0.32879574121214633 2.183973272564723 0.6781734307251076
v 0.6440256538906727 2.401245893007029 -0.4548957354457915
v -0.2756038784380194 2.227895213840199 0.7197314685576506
v 0.760037160246865 2.4970396912256287 -0.36425761302030596
f 65 66 67 68
f 69 72 71 70
f 65 69 70 66
f 66 70 71 67
f 67 71 72 68
f 69 65 68 72
o Cut_10_Canopy
v -0.9093807797780527 1.6635321017065976 -0.004997523997311483
v -0.9253352332543805 1.6758976582498992 0.049758700645015454
v -0.8610337678985225 1.7601984430987831 0.11406016600087378
v -0.8426260047627165 1.7510492351818587 0.06175725101802501
v -0.9074444459891453 1.6656784069417445 -0.0030611902084039496
v -0.9234700618113459 1.6779650844630682 0.05162387208805021
v -0.8406896709738091 1.7531955404170054 0.06369358480693224
v -0.8591685964554879 1.7622658693119517 0.11592533744390825
f 73 74 75 76
f 77 80 79 78
f 73 77 78 74
f 74 78 79 75
f 75 79 80 76
f 77 73 76 80
