o Cut_1_Spacing
v -0.6145071345000042 2.054529644095109 0.016656615945296202
v -0.6157035151183265 2.03920852394919 0.06665661594529673
v -0.5814070302366532 1.9893692588202039 0.06665661594529673
v -0.5790142690000084 2.002951812141054 0.016656615945296202
v -0.618193660129937 2.052686381325651 0.016656615945296202
v -0.6192657766813696 2.037427393211643 0.06665661594529673
v -0.5827007946299414 2.001108549371596 0.016656615945296202
v -0.5849692917996965 1.987588128082657 0.06665661594529673
f 1 2 3 4
f 5 8 7 6
f 1 5 6 2
f 2 6 7 3
f 3 7 8 4
f 5 1 4 8
o Cut_2_Spacing
v -0.28020752691980383 1.3122049853450064 0.11185929114224422
v -0.29358823169411735 1.3226186643865012 0.16208827729687497
v -0.31172895044022525 1.257489294179558 0.16208827729687497
v -0.2990292995017301 1.2446304745664754 0.11185929114224422
v -0.28451992716725105 1.3122049853450064 0.11185929114224422
v -0.2977445904891815 1.3226186643865012 0.16208827729687497
v -0.3033416997491773 1.2446304745664754 0.11185929114224422
v -0.31588530923528935 1.257489294179558 0.16208827729687497
f 9 10 11 12
f 13 16 15 14
f 9 13 14 10
f 10 14 15 11
f 11 15 16 12
f 13 9 12 16
o Cut_3_Spacing
v -0.4353654642870026 1.2749083745101628 0.18085867376407883
v -0.443500852491595 1.2872304668828376 0.23085867376407965
v -0.46273361623012293 1.2453072137666044 0.23085867376407965
v -0.4553559357504681 1.2313334829101141 0.18085867376407883
v -0.43946351093701314 1.2749083745101628 0.18085867376407883
v -0.44744356905799326 1.2872304668828376 0.23085867376407965
v -0.4594539824004786 1.2313334829101141 0.18085867376407883
v -0.46667633279652115 1.2453072137666044 0.23085867376407965
f 17 18 19 20
f 21 24 23 22
f 17 21 22 18
f 18 22 23 19
f 19 23 24 20
f 21 17 20 24
