o Cut_1_Canopy
v -0.20045896463766125 1.5039328659144058 -0.00020527461477373927
v -0.19427766477632905 1.5157297375764949 0.04924509483882414
v -0.13536766319899057 1.5020877118047147 0.04996004311444539
v -0.1396746334249511 1.489856794097711 0.0005324210501679006
v -0.20045896463766125 1.5005792418040782 -2.9518622601469052e-05
v -0.19427766477632905 1.5124795249363683 0.04941543126549096
v -0.1396746334249511 1.4865031699873834 0.0007081770423401708
v -0.13536766319899057 1.498837499164588 0.05013037954111221
f 1 2 3 4
f 5 8 7 6
f 1 5 6 2
f 2 6 7 3
f 3 7 8 4
f 5 1 4 8
o Cut_2_Canopy
v -0.4815422823034557 2.2882036458166373 0.04404842308855211
v -0.4658696962034325 2.275129679105124 0.09480221795021881
v -0.3698507511844044 2.280290509558813 0.09453175028688496
v -0.38229310961495716 2.293538094688292 0.04376885646949004
v -0.4815422823034557 2.2850263147074585 0.04421493995603123
v -0.4658696962034325 2.272055759466146 0.0949633152521923
v -0.38229310961495716 2.290360763579113 0.043935373336968814
v -0.3698507511844044 2.2772165899198344 0.09469284758885811
f 9 10 11 12
f 13 16 15 14
f 9 13 14 10
f 10 14 15 11
f 11 15 16 12
f 13 9 12 16
o Cut_3_Canopy
v -0.5684409056500093 1.6548651971794772 -0.002683121732134344
v -0.5528081989039301 1.6554747322839247 0.04748159601854594
v -0.42588794915557876 1.6723404631768515 0.048660962810985114
v -0.4379315140466908 1.6722078693074114 -0.001470403959646309
v -0.5684409056500093 1.6511089320572225 -0.002945785376948173
v -0.5528081989039301 1.6518217682973433 0.04722615589281968
v -0.4379315140466908 1.6684516041851565 -0.0017330676044601376
v -0.42588794915557876 1.6686874991902696 0.04840552268525925
f 17 18 19 20
f 21 24 23 22
f 17 21 22 18
f 18 22 23 19
f 19 23 24 20
f 21 17 20 24
o Cut_4_Canopy
v 0.9872572989237004 1.6038352831156648 -0.03967664335870365
v 0.9494283341487304 1.6057049786431086 -0.0019252996423404815
v 0.9669573160804947 1.39293969761567 -0.008609439095314106
v 1.0051838535147013 1.3862442992093837 -0.04651238494735016
v 0.9809096689117052 1.6040417586844935 -0.042629381558686785
v 0.9432214810010738 1.6059068750252032 -0.004812552421115792
v 0.9988362235027057 1.3864507747782124 -0.04946512314733304
v 0.960750462932838 1.393141593997765 -0.01149669187408917
f 25 26 27 28
f 29 32 31 30
f 25 29 30 26
f 26 30 31 27
f 27 31 32 28
f 29 25 28 32
o Cut_5_Canopy
v 0.47115212837532605 1.6884929524242245 0.7289962936632501
v 0.996025480892977 1.4867024308318515 -0.3491935563741285
v 0.7860561677910113 1.2735697203148357 -0.3380835361289662
v 0.37522696962453655 1.591122585348716 0.734071942290172
v 0.46923643600623105 1.6871249223317744 0.7290775252437197
v 0.9918322471668954 1.4837079678301188 -0.349015749640468
v 0.37331127725544155 1.589754555256266 0.7341531738706414
v 0.7818629340649297 1.2705752573131033 -0.3379057293953056
f 33 34 35 36
f 37 40 39 38
f 33 37 38 34
f 34 38 39 35
f 35 39 40 36
f 37 33 36 40
o Cut_6_Canopy
v 0.21111823787807954 1.5167768152289822 0.031025385398413676
v 0.2054915135395177 1.5273650541338146 0.080792008912922
v 0.4472057969504717 1.6168015735918604 0.0734471065699423
v 0.46056793763334414 1.6090755102466647 0.02344542918592535
v 0.21273129361199278 1.5199353256681782 0.03088691462853663
v 0.2070545485369833 1.530425619402906 0.08065783211115783
v 0.46218099336725743 1.6122340206858607 0.023306958416047945
v 0.44876883194793726 1.6198621388609518 0.07331292976817778
f 41 42 43 44
f 45 48 47 46
f 41 45 46 42
f 42 46 47 43
f 43 47 48 44
f 45 41 44 48
